<svg xmlns="http://www.w3.org/2000/svg" width="156" height="147" viewBox="0 0 156 147" fill="none"><rect x="0.115388" y="0.930574" width="139.549" height="126.57" rx="6.80791" fill="#F6FEFD" stroke="#F6F6F6" stroke-width="0.230777"></rect><path d="M14.2691 21.8936H13.1509V16.3024H14.2132L16.6414 19.7609V16.3024H17.7676V21.8936H16.6973L14.2691 18.427V21.8936ZM21.9843 16.2784L20.0833 17.2369L19.7159 16.6298L21.4491 15.3678L21.9843 16.2784ZM18.8372 17.7321H20.0433V19.7689C20.0433 20.2481 20.0673 20.4558 20.2031 20.6236C20.3309 20.7833 20.5146 20.8472 20.7702 20.8472C21.0418 20.8472 21.2894 20.7434 21.4651 20.5676V17.7321H22.6632V21.8936H21.6568L21.561 21.3185C21.1935 21.7418 20.8021 21.9654 20.1871 21.9654C19.6919 21.9654 19.3405 21.8137 19.1248 21.5261C18.9011 21.2306 18.8372 20.8871 18.8372 20.0405V17.7321ZM24.9419 21.8936H23.7358V17.7321H24.7502L24.846 18.2992C25.2374 17.8759 25.7007 17.6602 26.2678 17.6602C26.779 17.6602 27.1225 17.812 27.3381 18.0995C27.402 18.1794 27.4499 18.2593 27.4899 18.3551C27.8972 17.8839 28.3605 17.6602 28.9356 17.6602C29.4628 17.6602 29.8142 17.812 30.0299 18.0995C30.2535 18.3951 30.3174 18.7385 30.3174 19.5852V21.8936H29.1193V19.8568C29.1193 19.3775 29.0874 19.1698 28.9596 19.0021C28.8238 18.8424 28.6401 18.7785 28.3525 18.7785C28.0889 18.7785 27.8573 18.8583 27.6177 19.058C27.6336 19.2098 27.6336 19.3775 27.6336 19.5852V21.8936H26.4275V19.8568C26.4275 19.3775 26.4036 19.1698 26.2678 19.0021C26.14 18.8424 25.9563 18.7785 25.6847 18.7785C25.3892 18.7785 25.1176 18.8823 24.9419 19.066V21.8936ZM33.3607 21.9575C31.8431 21.9575 31.0843 21.2546 31.0843 19.8008C31.0843 18.411 32.0268 17.6522 33.1051 17.6522C34.2473 17.6522 34.7984 18.3391 34.7984 19.5373C34.7984 19.7609 34.7825 19.9606 34.7665 20.1603H32.3143C32.4342 20.7833 32.8575 20.999 33.6323 20.999C33.9518 20.999 34.2792 20.967 34.5588 20.9271L34.5029 21.8776C34.2153 21.9255 33.824 21.9575 33.3607 21.9575ZM33.0731 18.5468C32.6578 18.5468 32.3543 18.8424 32.2904 19.5053L33.6562 19.4334C33.6562 18.8264 33.4725 18.5468 33.0731 18.5468ZM36.8138 21.8936H35.6077V17.7321H36.6221L36.7659 18.5947C37.0375 18.0117 37.5407 17.6602 38.1397 17.6602L38.2036 18.8344C37.5726 18.8104 37.0934 19.0341 36.8138 19.5852V21.8936ZM40.5324 21.9734C39.2784 21.9734 38.4477 21.2785 38.4477 19.8727C38.4477 18.4669 39.3343 17.6522 40.5883 17.6522C41.8503 17.6522 42.681 18.3711 42.681 19.8248C42.681 21.1747 41.7944 21.9734 40.5324 21.9734ZM40.5324 21.0309C41.0596 21.0309 41.419 20.6315 41.419 19.8328C41.419 18.9941 41.1155 18.5947 40.5883 18.5947C40.0611 18.5947 39.7017 18.9941 39.7017 19.8328C39.7017 20.6315 40.0052 21.0309 40.5324 21.0309ZM48.5568 21.8936H47.5504L47.4385 21.2226C47.143 21.7098 46.7117 21.9734 46.1126 21.9734C45.1861 21.9734 44.5631 21.2785 44.5631 19.9766C44.5631 18.4909 45.4097 17.6682 46.6717 17.6682C46.8954 17.6682 47.127 17.7002 47.3587 17.7561V15.8231H48.5568V21.8936ZM45.8171 19.8568C45.8171 20.5597 46.1206 20.9031 46.5679 20.9031C46.9114 20.9031 47.167 20.7114 47.3587 20.36V18.7465C47.167 18.6666 46.9912 18.6347 46.8075 18.6347C46.2244 18.6347 45.8171 19.0181 45.8171 19.8568ZM51.5976 21.9575C50.08 21.9575 49.3212 21.2546 49.3212 19.8008C49.3212 18.411 50.2637 17.6522 51.342 17.6522C52.4842 17.6522 53.0354 18.3391 53.0354 19.5373C53.0354 19.7609 53.0194 19.9606 53.0034 20.1603H50.5513C50.6711 20.7833 51.0944 20.999 51.8692 20.999C52.1887 20.999 52.5162 20.967 52.7957 20.9271L52.7398 21.8776C52.4523 21.9255 52.0609 21.9575 51.5976 21.9575ZM51.3101 18.5468C50.8947 18.5468 50.5912 18.8424 50.5273 19.5053L51.8931 19.4334C51.8931 18.8264 51.7094 18.5468 51.3101 18.5468ZM57.4688 21.9015H56.2467L54.7371 17.7321H55.9911L56.9177 20.5357L57.7643 17.7321H58.9944L57.4688 21.9015ZM60.1458 17.157C59.6986 17.157 59.427 16.9174 59.427 16.518C59.427 16.1266 59.6986 15.879 60.1458 15.879C60.5772 15.879 60.8487 16.1266 60.8487 16.518C60.8487 16.9174 60.5772 17.157 60.1458 17.157ZM59.5388 21.8936V17.7321H60.7449V21.8936H59.5388ZM62.7031 21.9575C62.3357 21.9575 62.0002 21.9335 61.6407 21.8936L61.5928 20.983C61.9523 21.0469 62.2318 21.0708 62.5273 21.0708C63.0465 21.0708 63.382 20.967 63.382 20.7034C63.382 20.5277 63.3101 20.3999 62.6711 20.1683C61.8644 19.8727 61.5129 19.5612 61.5129 18.8823C61.5129 18.1634 62.128 17.6602 63.2862 17.6602C63.6456 17.6602 63.9571 17.6842 64.3006 17.7321L64.3485 18.6347C64.045 18.5788 63.7814 18.5548 63.4459 18.5548C62.9667 18.5548 62.759 18.6586 62.759 18.8823C62.759 19.09 62.8788 19.2018 63.4938 19.4254C64.3884 19.7529 64.636 20.0964 64.636 20.6555C64.636 21.5102 63.9012 21.9575 62.7031 21.9575ZM66.0116 17.157C65.5643 17.157 65.2927 16.9174 65.2927 16.518C65.2927 16.1266 65.5643 15.879 66.0116 15.879C66.4429 15.879 66.7145 16.1266 66.7145 16.518C66.7145 16.9174 66.4429 17.157 66.0116 17.157ZM65.4046 21.8936V17.7321H66.6107V21.8936H65.4046ZM69.4794 21.9575C68.9842 21.9575 68.5688 21.8297 68.2893 21.5581C68.0017 21.2625 67.85 20.8472 67.85 20.0245V18.6666H67.2589V17.8679L67.9059 17.78L68.0417 16.8934H69.072V17.7321H70.1983V18.6666H69.072V20.0804C69.072 20.7833 69.3276 20.999 69.751 20.999C69.9507 20.999 70.1024 20.983 70.2622 20.951L70.1983 21.8936C69.9986 21.9335 69.719 21.9575 69.4794 21.9575ZM71.8914 21.9734C71.1565 21.9734 70.7172 21.5501 70.7172 20.8392C70.7172 19.9606 71.3642 19.4574 73.1534 19.2657C73.0735 18.8104 72.6582 18.6666 71.9632 18.6666C71.6837 18.6666 71.4281 18.6906 71.0447 18.7305L71.1086 17.7321C71.5319 17.6922 71.8514 17.6602 72.2428 17.6602C73.6406 17.6602 74.3195 18.1235 74.3195 19.4574V21.8936H73.3051L73.2093 21.2466C72.9297 21.7258 72.4585 21.9734 71.8914 21.9734ZM71.8514 20.6795C71.8514 20.983 72.0351 21.1028 72.3067 21.1028C72.762 21.1028 73.1773 20.7194 73.1693 20.0485V20.0005C72.0831 20.1124 71.8514 20.336 71.8514 20.6795ZM76.2755 21.9575C75.908 21.9575 75.5726 21.9335 75.2131 21.8936L75.1652 20.983C75.5246 21.0469 75.8042 21.0708 76.0997 21.0708C76.6189 21.0708 76.9544 20.967 76.9544 20.7034C76.9544 20.5277 76.8825 20.3999 76.2435 20.1683C75.4368 19.8727 75.0853 19.5612 75.0853 18.8823C75.0853 18.1634 75.7004 17.6602 76.8585 17.6602C77.218 17.6602 77.5295 17.6842 77.8729 17.7321L77.9209 18.6347C77.6173 18.5788 77.3538 18.5548 77.0183 18.5548C76.539 18.5548 76.3314 18.6586 76.3314 18.8823C76.3314 19.09 76.4512 19.2018 77.0662 19.4254C77.9608 19.7529 78.2084 20.0964 78.2084 20.6555C78.2084 21.5102 77.4736 21.9575 76.2755 21.9575Z" fill="black"></path><path d="M16.1382 30.014L13.8618 35.4055L13.2228 35.1579L15.4513 30.1737H12.6477V29.6146H16.0663L16.1382 30.014ZM16.5015 36.5557L16.0462 36.5078C16.15 35.7969 16.198 35.062 16.182 34.3352L16.8529 34.3751C16.797 35.1339 16.6692 35.8528 16.5015 36.5557ZM20.7378 35.2138H20.0908V33.8719H17.2952L17.2233 33.4246L20.1147 29.6146H20.7378V33.3128H21.4486V33.8719H20.7378V35.2138ZM17.9741 33.3128H20.0908V30.4773L17.9741 33.3128ZM24.6747 35.2058H24.0437V31.1642H24.5629L24.6268 31.7712C25.0342 31.3319 25.5454 31.0923 26.1125 31.0923C26.6237 31.0923 26.9671 31.244 27.1828 31.5236C27.2547 31.6195 27.3106 31.7153 27.3505 31.8431C27.7739 31.3239 28.2691 31.0923 28.8522 31.0923C29.4033 31.0923 29.7468 31.244 29.9624 31.5236C30.1701 31.7952 30.25 32.1307 30.25 32.8655V35.2058H29.611V32.9374C29.611 32.4262 29.5551 32.1626 29.3873 31.9709C29.2116 31.7712 28.98 31.6834 28.6046 31.6834C28.1413 31.6834 27.7739 31.8591 27.4384 32.2664C27.4544 32.4342 27.4624 32.6259 27.4624 32.8655V35.2058H26.8313V32.9374C26.8313 32.4262 26.7674 32.1626 26.5997 31.9709C26.424 31.7712 26.1924 31.6834 25.8649 31.6834C25.4096 31.6834 24.9863 31.8671 24.6747 32.2425V35.2058ZM31.9528 30.3894C31.6813 30.3894 31.5135 30.2217 31.5135 29.9661C31.5135 29.7105 31.6813 29.5427 31.9528 29.5427C32.2084 29.5427 32.3842 29.7105 32.3842 29.9661C32.3842 30.2217 32.2084 30.3894 31.9528 30.3894ZM31.6334 35.2058V31.1642H32.2644V35.2058H31.6334ZM34.2846 35.2058H33.6536V29.1354H34.2846V35.2058Z" fill="black"></path><path d="M130.827 57.6973L8.53467 57.6973" stroke="black" stroke-opacity="0.2" stroke-width="0.230777" stroke-linecap="round" stroke-dasharray="1.38 1.38"></path><path d="M130.481 87.8469L8.18896 87.8469" stroke="black" stroke-opacity="0.2" stroke-width="0.230777" stroke-linecap="round" stroke-dasharray="1.38 1.38"></path><path d="M130.135 118.689L7.84277 118.689" stroke="black" stroke-opacity="0.2" stroke-width="0.230777" stroke-linecap="round" stroke-dasharray="1.38 1.38"></path><g opacity="0.6"><rect width="7.20839" height="52.1788" rx="3.60419" transform="matrix(-1 0 0 1 125.512 66.5103)" fill="#1ACDB8"></rect><rect width="7.20839" height="45.6042" rx="3.60419" transform="matrix(-1 0 0 1 113.04 73.085)" fill="#E8FCFA"></rect><rect width="7.20839" height="30.0112" rx="3.60419" transform="matrix(-1 0 0 1 100.566 88.678)" fill="#E8FCFA"></rect><rect width="7.20839" height="40.043" rx="3.60419" transform="matrix(-1 0 0 1 88.0942 78.6462)" fill="#E8FCFA"></rect><rect width="7.20839" height="48.8754" rx="3.60419" transform="matrix(-1 0 0 1 75.6221 69.8137)" fill="#E8FCFA"></rect><rect width="7.20839" height="40.043" rx="3.60419" transform="matrix(-1 0 0 1 63.1494 78.6462)" fill="#E8FCFA"></rect><rect width="7.20839" height="30.0112" rx="3.60419" transform="matrix(-1 0 0 1 50.6768 88.678)" fill="#E8FCFA"></rect><rect width="7.20839" height="22.9235" rx="3.60419" transform="matrix(-1 0 0 1 25.7314 95.7656)" fill="#E8FCFA"></rect><rect width="7.20839" height="40.043" rx="3.60419" transform="matrix(-1 0 0 1 38.2041 78.6462)" fill="#E8FCFA"></rect></g><path d="M121.618 79.3269L108.878 94.7747L96.4398 97.8843L83.4999 87.6527L71.4627 91.966L58.623 86.3486L46.2849 97.8843H34.8495L21.7089 105.207" stroke="#61EBDB" stroke-width="0.923106" stroke-linecap="round"></path><circle cx="1.91247" cy="1.91247" r="1.45092" transform="matrix(-1 0 0 1 123.529 77.4146)" fill="#F6FEFD" stroke="#61EBDB" stroke-width="0.923106"></circle><circle cx="1.91247" cy="1.91247" r="1.45092" transform="matrix(-1 0 0 1 110.637 92.5996)" fill="#F6FEFD" stroke="#61EBDB" stroke-width="0.923106"></circle><circle cx="1.91247" cy="1.91247" r="1.45092" transform="matrix(-1 0 0 1 98.1646 95.9646)" fill="#F6FEFD" stroke="#61EBDB" stroke-width="0.923106"></circle><circle cx="1.91247" cy="1.91247" r="1.45092" transform="matrix(-1 0 0 1 85.2925 85.9346)" fill="#F6FEFD" stroke="#61EBDB" stroke-width="0.923106"></circle><circle cx="1.91247" cy="1.91247" r="1.45092" transform="matrix(-1 0 0 1 73.2202 89.7593)" fill="#F6FEFD" stroke="#61EBDB" stroke-width="0.923106"></circle><circle cx="1.91247" cy="1.91247" r="1.45092" transform="matrix(-1 0 0 1 60.3472 84.3806)" fill="#F6FEFD" stroke="#61EBDB" stroke-width="0.923106"></circle><circle cx="1.91247" cy="1.91247" r="1.45092" transform="matrix(-1 0 0 1 48.2749 95.7656)" fill="#F6FEFD" stroke="#61EBDB" stroke-width="0.923106"></circle><circle cx="1.91247" cy="1.91247" r="1.45092" transform="matrix(-1 0 0 1 36.3086 95.9646)" fill="#F6FEFD" stroke="#61EBDB" stroke-width="0.923106"></circle><circle cx="1.91247" cy="1.91247" r="1.45092" transform="matrix(-1 0 0 1 23.6211 103.294)" fill="#F6FEFD" stroke="#61EBDB" stroke-width="0.923106"></circle><g filter="url(#filter0_d_86_1580)"><rect x="85.9771" y="113.253" width="64.023" height="24.6243" rx="2.76932" fill="#F6FEFD"></rect><rect x="86.0924" y="113.368" width="63.7923" height="24.3935" rx="2.65393" stroke="#E4E4E9" stroke-width="0.230777"></rect></g><path d="M105.365 124.413H104.73V120.219H105.341L107.378 123.191V120.219H108.013V124.413H107.402L105.365 121.442V124.413ZM110.182 124.473C109.302 124.473 108.696 123.946 108.696 122.903C108.696 121.861 109.331 121.28 110.212 121.28C111.093 121.28 111.698 121.813 111.698 122.879C111.698 123.898 111.069 124.473 110.182 124.473ZM110.182 123.934C110.655 123.934 110.991 123.586 110.991 122.885C110.991 122.16 110.679 121.813 110.212 121.813C109.739 121.813 109.403 122.16 109.403 122.885C109.403 123.586 109.715 123.934 110.182 123.934ZM113.772 124.425H113.095L111.957 121.34H112.663L113.466 123.64L114.233 121.34H114.928L113.772 124.425ZM116.67 124.473C115.789 124.473 115.184 123.946 115.184 122.903C115.184 121.861 115.819 121.28 116.7 121.28C117.581 121.28 118.186 121.813 118.186 122.879C118.186 123.898 117.557 124.473 116.67 124.473ZM116.67 123.934C117.143 123.934 117.479 123.586 117.479 122.885C117.479 122.16 117.167 121.813 116.7 121.813C116.227 121.813 115.891 122.16 115.891 122.885C115.891 123.586 116.203 123.934 116.67 123.934ZM119.439 124.455C119.199 124.455 118.954 124.437 118.708 124.407L118.678 123.886C118.96 123.928 119.169 123.946 119.367 123.946C119.816 123.946 120.092 123.838 120.092 123.586C120.092 123.388 120.014 123.275 119.469 123.083C118.924 122.885 118.63 122.658 118.63 122.16C118.63 121.639 119.067 121.298 119.882 121.298C120.11 121.298 120.313 121.31 120.553 121.34L120.583 121.861C120.367 121.831 120.188 121.807 119.936 121.807C119.523 121.807 119.331 121.921 119.331 122.154C119.331 122.37 119.451 122.478 119.948 122.658C120.607 122.891 120.787 123.137 120.787 123.544C120.787 124.143 120.289 124.455 119.439 124.455ZM122.631 121.34H123.308V122.957C123.308 123.329 123.344 123.508 123.458 123.646C123.572 123.778 123.728 123.838 123.961 123.838C124.207 123.838 124.44 123.724 124.626 123.52V121.34H125.303V124.413H124.74L124.674 123.97C124.393 124.293 124.075 124.467 123.638 124.467C123.272 124.467 123.009 124.347 122.847 124.143C122.685 123.928 122.631 123.676 122.631 123.083V121.34ZM126.798 124.455C126.559 124.455 126.313 124.437 126.067 124.407L126.037 123.886C126.319 123.928 126.529 123.946 126.726 123.946C127.176 123.946 127.451 123.838 127.451 123.586C127.451 123.388 127.373 123.275 126.828 123.083C126.283 122.885 125.99 122.658 125.99 122.16C125.99 121.639 126.427 121.298 127.242 121.298C127.469 121.298 127.673 121.31 127.913 121.34L127.942 121.861C127.727 121.831 127.547 121.807 127.296 121.807C126.882 121.807 126.69 121.921 126.69 122.154C126.69 122.37 126.81 122.478 127.307 122.658C127.966 122.891 128.146 123.137 128.146 123.544C128.146 124.143 127.649 124.455 126.798 124.455ZM128.827 121.34H129.504V122.957C129.504 123.329 129.54 123.508 129.653 123.646C129.767 123.778 129.923 123.838 130.157 123.838C130.402 123.838 130.636 123.724 130.822 123.52V121.34H131.498V124.413H130.935L130.869 123.97C130.588 124.293 130.27 124.467 129.833 124.467C129.468 124.467 129.204 124.347 129.042 124.143C128.881 123.928 128.827 123.676 128.827 123.083V121.34ZM134.443 120.118L133.131 120.914L132.904 120.573L134.108 119.602L134.443 120.118ZM133.06 124.467C132.514 124.467 132.185 124.179 132.185 123.664C132.185 123.029 132.664 122.664 134.048 122.526C134.03 122.041 133.718 121.861 133.107 121.861C132.892 121.861 132.7 121.879 132.425 121.909L132.466 121.34C132.742 121.31 132.976 121.292 133.251 121.292C134.222 121.292 134.701 121.639 134.701 122.55V124.413H134.138L134.072 123.88C133.862 124.269 133.497 124.467 133.06 124.467ZM132.832 123.574C132.832 123.856 133.012 123.97 133.275 123.97C133.683 123.97 134.054 123.652 134.048 122.999V122.945C133.066 123.053 132.832 123.257 132.832 123.574ZM136.301 124.413H135.625V121.34H136.188L136.284 122.005C136.469 121.555 136.865 121.298 137.314 121.298L137.35 121.951C136.883 121.939 136.499 122.136 136.301 122.646V124.413ZM138.265 120.83C138.002 120.83 137.84 120.675 137.84 120.435C137.84 120.195 138.002 120.04 138.265 120.04C138.523 120.04 138.684 120.195 138.684 120.435C138.684 120.675 138.523 120.83 138.265 120.83ZM137.924 124.413V121.34H138.601V124.413H137.924ZM140.773 124.473C139.892 124.473 139.287 123.946 139.287 122.903C139.287 121.861 139.922 121.28 140.803 121.28C141.683 121.28 142.288 121.813 142.288 122.879C142.288 123.898 141.659 124.473 140.773 124.473ZM140.773 123.934C141.246 123.934 141.581 123.586 141.581 122.885C141.581 122.16 141.27 121.813 140.803 121.813C140.329 121.813 139.994 122.16 139.994 122.885C139.994 123.586 140.305 123.934 140.773 123.934ZM143.541 124.455C143.302 124.455 143.056 124.437 142.811 124.407L142.781 123.886C143.062 123.928 143.272 123.946 143.47 123.946C143.919 123.946 144.194 123.838 144.194 123.586C144.194 123.388 144.117 123.275 143.571 123.083C143.026 122.885 142.733 122.658 142.733 122.16C142.733 121.639 143.17 121.298 143.985 121.298C144.212 121.298 144.416 121.31 144.656 121.34L144.686 121.861C144.47 121.831 144.29 121.807 144.039 121.807C143.625 121.807 143.434 121.921 143.434 122.154C143.434 122.37 143.553 122.478 144.051 122.658C144.71 122.891 144.889 123.137 144.889 123.544C144.889 124.143 144.392 124.455 143.541 124.455Z" fill="#1ACDB8"></path><path d="M105.657 130.98H105.303V130.09H104.385V129.783H105.303V128.893H105.657V129.783H106.58V130.09H105.657V130.98ZM109.839 131.558H107.835L107.798 131.325C109.14 130.025 109.308 129.773 109.308 129.307C109.308 128.888 109.028 128.609 108.441 128.609C108.269 128.609 108.11 128.613 107.924 128.632L107.952 128.296C108.18 128.278 108.325 128.268 108.548 128.268C109.354 128.268 109.704 128.664 109.704 129.219C109.704 129.759 109.545 130.039 108.287 131.232H109.839V131.558ZM110.539 132.345L110.274 132.317C110.334 131.903 110.362 131.474 110.353 131.05L110.744 131.073C110.712 131.516 110.637 131.935 110.539 132.345ZM111.771 131.6C111.603 131.6 111.403 131.581 111.23 131.558L111.207 131.213C111.384 131.246 111.594 131.264 111.761 131.264C112.376 131.264 112.721 131.041 112.721 130.598C112.721 130.221 112.479 130.034 111.952 130.034C111.827 130.034 111.719 130.039 111.622 130.044L111.598 129.745C112.306 129.708 112.572 129.47 112.572 129.14C112.572 128.776 112.302 128.604 111.761 128.604C111.64 128.604 111.472 128.613 111.286 128.632L111.314 128.296C111.524 128.278 111.705 128.268 111.85 128.268C112.637 128.268 112.968 128.59 112.968 129.06C112.968 129.433 112.735 129.727 112.348 129.82C112.894 129.894 113.117 130.174 113.117 130.631C113.117 131.246 112.619 131.6 111.771 131.6ZM115.075 131.558H114.707V129.2H115.01L115.047 129.554C115.285 129.298 115.583 129.158 115.914 129.158C116.212 129.158 116.412 129.247 116.538 129.41C116.58 129.466 116.613 129.522 116.636 129.596C116.883 129.293 117.172 129.158 117.512 129.158C117.833 129.158 118.034 129.247 118.16 129.41C118.281 129.568 118.327 129.764 118.327 130.193V131.558H117.955V130.235C117.955 129.936 117.922 129.783 117.824 129.671C117.722 129.554 117.586 129.503 117.367 129.503C117.097 129.503 116.883 129.606 116.687 129.843C116.696 129.941 116.701 130.053 116.701 130.193V131.558H116.333V130.235C116.333 129.936 116.296 129.783 116.198 129.671C116.095 129.554 115.96 129.503 115.769 129.503C115.504 129.503 115.257 129.61 115.075 129.829V131.558ZM119.321 128.748C119.162 128.748 119.064 128.65 119.064 128.501C119.064 128.352 119.162 128.254 119.321 128.254C119.47 128.254 119.572 128.352 119.572 128.501C119.572 128.65 119.47 128.748 119.321 128.748ZM119.134 131.558V129.2H119.502V131.558H119.134ZM120.681 131.558H120.313V128.017H120.681V131.558Z" fill="#757575"></path><path fill-rule="evenodd" clip-rule="evenodd" d="M95.4228 129.19C97.8785 129.19 99.8691 127.2 99.8691 124.744C99.8691 122.288 97.8785 120.298 95.4228 120.298C92.9672 120.298 90.9766 122.288 90.9766 124.744C90.9766 127.2 92.9672 129.19 95.4228 129.19ZM94.1809 124.542C94.5143 124.542 94.7846 124.272 94.7846 123.938C94.7846 123.605 94.5143 123.334 94.1809 123.334C93.8474 123.334 93.5771 123.605 93.5771 123.938C93.5771 124.272 93.8474 124.542 94.1809 124.542ZM97.2684 123.938C97.2684 124.272 96.9981 124.542 96.6647 124.542C96.3312 124.542 96.0609 124.272 96.0609 123.938C96.0609 123.605 96.3312 123.334 96.6647 123.334C96.9981 123.334 97.2684 123.605 97.2684 123.938ZM95.4229 127.267C96.4422 127.267 97.2686 126.424 97.2686 125.405H93.5771C93.5771 126.424 94.4035 127.267 95.4229 127.267Z" fill="#1ACDB8"></path><defs><filter id="filter0_d_86_1580" x="80.4384" y="110.483" width="75.1002" height="35.7015" filterUnits="userSpaceOnUse" color-interpolation-filters="sRGB"><feGaussianBlur stdDeviation="3.9232"></feGaussianBlur></filter></defs></svg>