<svg xmlns="http://www.w3.org/2000/svg" width="162" height="103" viewBox="0 0 162 103" fill="none"><g clip-path="url(#clip0_86_263)"><path fill-rule="evenodd" clip-rule="evenodd" d="M118.374 32.2075C116.894 32.7132 115.394 33.1654 113.933 33.7294C79.6858 46.9933 46.3701 62.2799 13.7897 79.1612C11.0395 80.5858 8.29914 82.0299 5.48525 83.3135C3.98515 83.999 2.16151 84.4609 1.0389 82.7981C-0.230788 80.9116 0.926145 79.4335 2.48997 78.2763C4.71559 76.628 6.91671 74.9457 9.20116 73.385C37.448 54.0872 65.8664 35.0422 95.324 17.5822C96.5055 16.8821 97.6134 16.0604 98.6135 15.0296C75.7542 23.091 53.699 32.9271 32.33 44.183C30.3348 41.6936 31.428 40.2835 32.982 39.2576C35.6979 37.4684 38.4186 35.6013 41.3649 34.2691C55.3216 27.9726 69.244 21.5643 83.4066 15.7492C95.4613 10.7995 107.83 6.6035 120.066 2.08657C121.595 1.52257 123.154 1.04121 124.708 0.550137C126.228 0.0687853 127.684 0.0736474 128.542 1.6587C129.571 3.5598 128.321 4.72185 126.929 5.67483C125.723 6.5014 124.419 7.18696 123.139 7.90655C97.1085 22.493 71.7344 38.1442 46.8652 54.5977C45.3847 55.575 43.9288 56.5863 42.7669 58.2248C44.4925 57.4858 46.2377 56.7759 47.9486 55.998C82.1174 40.4829 116.933 26.6452 153.019 16.0944C154.891 15.545 156.784 14.9178 158.705 14.7427C159.617 14.6601 161.274 15.4137 161.426 16.0555C161.671 17.0814 161.299 18.7491 160.539 19.4055C159.098 20.6502 157.225 21.4282 155.475 22.2936C137.66 31.1184 119.693 39.6466 102.065 48.8263C90.3679 54.9186 79.1515 61.9152 67.7341 68.5326C66.8174 69.0625 66.0085 69.787 65.4154 70.9685C66.5919 70.5406 67.7831 70.1517 68.9401 69.6849C94.3779 59.4598 120.6 51.4859 146.665 43.0695C147.901 42.6709 149.19 42.2187 150.46 42.2187C151.278 42.2187 152.573 42.8119 152.808 43.4488C153.136 44.324 153.048 45.8556 152.46 46.4633C151.372 47.5913 149.852 48.3644 148.411 49.0986C137.528 54.656 126.615 60.1648 115.727 65.7125C114.168 66.5051 112.688 67.4483 111.384 69.2133C113.938 68.8097 116.492 68.4159 119.046 68.0026C121.139 67.6671 123.218 67.0885 125.321 67.0156C129.797 66.8649 131.468 69.8454 129.179 73.7253C128.444 74.9749 127.478 76.0932 126.502 77.4254C128.38 79.6766 133.125 79.1807 132.87 84.281C129.856 81.8062 127.061 82.837 124.262 83.8143C123.649 84.0282 123.017 84.2227 122.38 84.3491C120.169 84.7916 118.095 84.5776 116.654 82.6231C115.134 80.5566 115.967 78.6361 117.281 76.8225C117.84 76.0543 118.428 75.3104 119.482 73.9296C117.551 74.0997 116.33 74.0754 115.173 74.3331C109.443 75.607 103.731 76.9781 98.0007 78.2569C96.7408 78.5389 95.3976 78.8257 94.1475 78.6847C91.2552 78.3541 90.0933 75.6362 91.863 73.3218C92.7307 72.1889 93.9416 71.2457 95.1574 70.4628C98.8586 68.0901 102.638 65.839 106.388 63.5343C107.746 62.698 109.104 61.852 110.114 60.2135C108.496 60.7677 106.849 61.2491 105.266 61.886C84.5538 70.2295 63.8466 78.5972 43.1346 86.9455C41.3208 87.6748 39.5265 88.6424 37.6343 88.9098C36.4234 89.08 34.4821 88.5208 33.9282 87.6359C33.384 86.7705 33.7419 84.7041 34.4919 83.8289C35.9381 82.1271 37.85 80.7609 39.7275 79.487C59.1405 66.3008 79.1417 54.0434 99.79 42.8508C106.045 39.4618 112.354 36.175 118.639 32.8445C118.551 32.6305 118.468 32.4117 118.379 32.1978L118.374 32.2075Z" fill="#1ACDB8"></path></g><defs><clipPath id="clip0_86_263"><rect width="161" height="102.455" fill="white" transform="translate(0.5 0.272705)"></rect></clipPath></defs></svg>