<svg xmlns="http://www.w3.org/2000/svg" width="152" height="138" viewBox="0 0 152 138" fill="none"><rect x="0.125018" y="0.125018" width="151.196" height="137.133" rx="7.37608" fill="white" stroke="#F6F6F6" stroke-width="0.250037"></rect><path d="M143.765 58.7821V58.1103C143.765 57.1827 143.013 56.4308 142.086 56.4308C141.158 56.4308 140.406 57.1827 140.406 58.1103V58.7821H143.765ZM143.765 58.7821H146.452V58.4462C146.452 57.4568 145.701 56.7667 144.773 56.7667C144.298 56.7667 143.869 56.9768 143.564 57.3146M143.093 54.4154C143.093 54.972 142.642 55.4231 142.086 55.4231C141.529 55.4231 141.078 54.972 141.078 54.4154C141.078 53.8589 141.529 53.4077 142.086 53.4077C142.642 53.4077 143.093 53.8589 143.093 54.4154ZM145.445 55.0872C145.445 55.4582 145.144 55.759 144.773 55.759C144.402 55.759 144.101 55.4582 144.101 55.0872C144.101 54.7162 144.402 54.4154 144.773 54.4154C145.144 54.4154 145.445 54.7162 145.445 55.0872Z" stroke="#1ACDB8" stroke-width="0.671799" stroke-linecap="round" stroke-linejoin="round"></path><path d="M16.1297 29.9714C14.7512 29.9714 13.8564 29.1974 13.8564 27.8189C13.8564 26.4222 14.7573 25.6181 16.0753 25.6181C16.3897 25.6181 16.6679 25.6423 16.9097 25.6786L16.9581 26.4827C16.6558 26.4343 16.4441 26.4162 16.2144 26.4162C15.3256 26.4162 14.8177 26.8515 14.8177 27.7645C14.8177 28.7137 15.3619 29.1733 16.2204 29.1733C16.5167 29.1733 16.7283 29.1491 16.9944 29.1067L16.946 29.9109C16.7404 29.9411 16.4321 29.9714 16.1297 29.9714ZM17.6167 26.7608H18.5297V28.3026C18.5297 28.6654 18.5478 28.8226 18.6506 28.9495C18.7474 29.0705 18.8864 29.1188 19.0799 29.1188C19.2855 29.1188 19.4729 29.0402 19.6059 28.9072V26.7608H20.5129V29.9109H19.751L19.6785 29.4756C19.4004 29.796 19.1041 29.9653 18.6385 29.9653C18.2637 29.9653 17.9976 29.8504 17.8344 29.6328C17.6651 29.4091 17.6167 29.1491 17.6167 28.5082V26.7608ZM21.9959 29.9593C21.7178 29.9593 21.4638 29.9411 21.1917 29.9109L21.1555 29.2216C21.4275 29.27 21.6392 29.2881 21.8629 29.2881C22.2559 29.2881 22.5098 29.2095 22.5098 29.01C22.5098 28.877 22.4554 28.7803 21.9717 28.6049C21.361 28.3812 21.095 28.1454 21.095 27.6315C21.095 27.0873 21.5606 26.7064 22.4373 26.7064C22.7093 26.7064 22.9451 26.7245 23.2051 26.7608L23.2414 27.444C23.0116 27.4017 22.8121 27.3836 22.5582 27.3836C22.1954 27.3836 22.0382 27.4622 22.0382 27.6315C22.0382 27.7887 22.1289 27.8733 22.5945 28.0426C23.2716 28.2905 23.4591 28.5505 23.4591 28.9737C23.4591 29.6207 22.9028 29.9593 21.9959 29.9593ZM25.4012 29.9593C25.0263 29.9593 24.7119 29.8625 24.5003 29.6569C24.2827 29.4332 24.1678 29.1188 24.1678 28.4961V27.4682H23.7204V26.8636L24.2101 26.7971L24.3129 26.126H25.0929V26.7608H25.9454V27.4682H25.0929V28.5384C25.0929 29.0705 25.2863 29.2337 25.6068 29.2337C25.7579 29.2337 25.8728 29.2216 25.9937 29.1974L25.9454 29.9109C25.7942 29.9411 25.5826 29.9593 25.4012 29.9593ZM27.9162 29.9714C26.967 29.9714 26.3382 29.4453 26.3382 28.3812C26.3382 27.3171 27.0093 26.7004 27.9586 26.7004C28.9139 26.7004 29.5427 27.2445 29.5427 28.3449C29.5427 29.3667 28.8715 29.9714 27.9162 29.9714ZM27.9162 29.2579C28.3153 29.2579 28.5874 28.9556 28.5874 28.351C28.5874 27.7161 28.3576 27.4138 27.9586 27.4138C27.5595 27.4138 27.2874 27.7161 27.2874 28.351C27.2874 28.9556 27.5172 29.2579 27.9162 29.2579ZM33.9904 29.9109H33.2286L33.1439 29.403C32.9202 29.7718 32.5937 29.9714 32.1403 29.9714C31.4389 29.9714 30.9673 29.4453 30.9673 28.4598C30.9673 27.3352 31.6082 26.7125 32.5635 26.7125C32.7328 26.7125 32.9081 26.7366 33.0835 26.779V25.3158H33.9904V29.9109ZM31.9166 28.3691C31.9166 28.9012 32.1463 29.1612 32.4849 29.1612C32.7449 29.1612 32.9384 29.0161 33.0835 28.75V27.5287C32.9384 27.4682 32.8053 27.444 32.6663 27.444C32.2249 27.444 31.9166 27.7343 31.9166 28.3691ZM36.2922 29.9593C35.1434 29.9593 34.569 29.4272 34.569 28.3268C34.569 27.2747 35.2825 26.7004 36.0987 26.7004C36.9633 26.7004 37.3805 27.2203 37.3805 28.1273C37.3805 28.2966 37.3684 28.4477 37.3563 28.5989H35.5001C35.5908 29.0705 35.9113 29.2337 36.4978 29.2337C36.7396 29.2337 36.9875 29.2095 37.1991 29.1793L37.1568 29.8988C36.9391 29.9351 36.6429 29.9593 36.2922 29.9593ZM36.0745 27.3775C35.7601 27.3775 35.5304 27.6012 35.482 28.1031L36.5159 28.0487C36.5159 27.5891 36.3768 27.3775 36.0745 27.3775ZM39.6905 29.9109H38.7291L40.2346 25.6786H41.1718L42.6713 29.9109H41.6616C41.589 29.6811 41.5164 29.4453 41.4439 29.2156H39.9142C39.8416 29.4453 39.763 29.6811 39.6905 29.9109ZM40.15 28.4598H41.2141C41.0327 27.8673 40.8574 27.2747 40.6881 26.6822C40.5188 27.2747 40.3374 27.8673 40.15 28.4598ZM45.9352 31.362H45.0282V29.4937C44.8045 29.8081 44.5022 29.9714 44.085 29.9714C43.3837 29.9714 42.9121 29.4453 42.9121 28.4598C42.9121 27.3352 43.553 26.7125 44.5083 26.7125C44.738 26.7125 44.998 26.7548 45.2278 26.8455L45.9352 26.7608V31.362ZM43.8613 28.3691C43.8613 28.9012 44.0911 29.1612 44.4297 29.1612C44.6897 29.1612 44.8831 29.0161 45.0282 28.75V27.5287C44.8831 27.4682 44.7501 27.444 44.6111 27.444C44.1697 27.444 43.8613 27.7343 43.8613 28.3691ZM46.714 26.7608H47.627V28.3026C47.627 28.6654 47.6452 28.8226 47.7479 28.9495C47.8447 29.0705 47.9837 29.1188 48.1772 29.1188C48.3828 29.1188 48.5702 29.0402 48.7032 28.9072V26.7608H49.6102V29.9109H48.8484L48.7758 29.4756C48.4977 29.796 48.2014 29.9653 47.7359 29.9653C47.361 29.9653 47.095 29.8504 46.9317 29.6328C46.7624 29.4091 46.714 29.1491 46.714 28.5082V26.7608ZM50.8816 26.3255C50.543 26.3255 50.3374 26.1441 50.3374 25.8418C50.3374 25.5455 50.543 25.3581 50.8816 25.3581C51.2081 25.3581 51.4136 25.5455 51.4136 25.8418C51.4136 26.1441 51.2081 26.3255 50.8816 26.3255ZM50.4221 29.9109V26.7608H51.335V29.9109H50.4221ZM52.8173 29.9593C52.5392 29.9593 52.2852 29.9411 52.0132 29.9109L51.9769 29.2216C52.249 29.27 52.4606 29.2881 52.6843 29.2881C53.0773 29.2881 53.3312 29.2095 53.3312 29.01C53.3312 28.877 53.2768 28.7803 52.7931 28.6049C52.1824 28.3812 51.9164 28.1454 51.9164 27.6315C51.9164 27.0873 52.382 26.7064 53.2587 26.7064C53.5308 26.7064 53.7666 26.7245 54.0265 26.7608L54.0628 27.444C53.8331 27.4017 53.6335 27.3836 53.3796 27.3836C53.0168 27.3836 52.8596 27.4622 52.8596 27.6315C52.8596 27.7887 52.9503 27.8733 53.4159 28.0426C54.093 28.2905 54.2805 28.5505 54.2805 28.9737C54.2805 29.6207 53.7242 29.9593 52.8173 29.9593ZM55.3217 26.3255C54.9832 26.3255 54.7776 26.1441 54.7776 25.8418C54.7776 25.5455 54.9832 25.3581 55.3217 25.3581C55.6482 25.3581 55.8538 25.5455 55.8538 25.8418C55.8538 26.1441 55.6482 26.3255 55.3217 26.3255ZM54.8622 29.9109V26.7608H55.7752V29.9109H54.8622ZM57.7835 31.5071L57.5477 31.1201C57.7109 31.0294 57.7895 30.9206 57.7895 30.7634C57.7895 30.582 57.6807 30.4792 57.4147 30.449L57.6021 29.929C56.8342 29.796 56.3566 29.27 56.3566 28.3268C56.3566 27.2868 57.0277 26.7064 58.0072 26.7064C58.2309 26.7064 58.4123 26.7245 58.6239 26.7669L58.6602 27.5408C58.503 27.5105 58.3397 27.4924 58.1402 27.4924C57.6082 27.4924 57.3058 27.7645 57.3058 28.2905C57.3058 28.9193 57.6565 29.1793 58.1765 29.1793C58.37 29.1793 58.5514 29.1551 58.7086 29.1249L58.6723 29.9048C58.509 29.9351 58.3337 29.9532 58.1584 29.9593L58.1039 30.1709C58.4002 30.2434 58.5272 30.4248 58.5272 30.6788C58.5272 31.108 58.2793 31.3499 57.7835 31.5071ZM59.8833 26.3436L59.3754 26.2106C59.5084 25.4669 59.72 25.2372 60.113 25.2372C60.3065 25.2372 60.4395 25.2855 60.6511 25.4548C60.8144 25.5939 60.8688 25.6483 60.9595 25.6483C61.0804 25.6483 61.159 25.5758 61.2376 25.2493L61.7455 25.3823C61.6125 26.132 61.4009 26.3557 61.0079 26.3557C60.8144 26.3557 60.6814 26.3134 60.4697 26.1381C60.3065 25.999 60.2521 25.9446 60.1493 25.9446C60.0405 25.9446 59.9619 26.0171 59.8833 26.3436ZM59.9437 29.9714C59.3875 29.9714 59.0549 29.6509 59.0549 29.1128C59.0549 28.4477 59.5447 28.0668 60.899 27.9217C60.8386 27.5771 60.5242 27.4682 59.9981 27.4682C59.7865 27.4682 59.5931 27.4864 59.3028 27.5166L59.3512 26.7608C59.6717 26.7306 59.9135 26.7064 60.2098 26.7064C61.2678 26.7064 61.7818 27.0571 61.7818 28.0668V29.9109H61.0139L60.9414 29.4211C60.7297 29.7839 60.373 29.9714 59.9437 29.9714ZM59.9135 28.9919C59.9135 29.2216 60.0526 29.3123 60.2581 29.3123C60.6028 29.3123 60.9172 29.0221 60.9111 28.5142V28.4779C60.0888 28.5626 59.9135 28.7319 59.9135 28.9919ZM63.9395 29.9714C62.9903 29.9714 62.3615 29.4453 62.3615 28.3812C62.3615 27.3171 63.0326 26.7004 63.9818 26.7004C64.9371 26.7004 65.5659 27.2445 65.5659 28.3449C65.5659 29.3667 64.8948 29.9714 63.9395 29.9714ZM63.9395 29.2579C64.3386 29.2579 64.6106 28.9556 64.6106 28.351C64.6106 27.7161 64.3809 27.4138 63.9818 27.4138C63.5828 27.4138 63.3107 27.7161 63.3107 28.351C63.3107 28.9556 63.5405 29.2579 63.9395 29.2579ZM70.0137 29.9109H69.2518L69.1672 29.403C68.9435 29.7718 68.617 29.9714 68.1635 29.9714C67.4622 29.9714 66.9906 29.4453 66.9906 28.4598C66.9906 27.3352 67.6315 26.7125 68.5868 26.7125C68.7561 26.7125 68.9314 26.7366 69.1067 26.779V25.3158H70.0137V29.9109ZM67.9398 28.3691C67.9398 28.9012 68.1696 29.1612 68.5082 29.1612C68.7682 29.1612 68.9616 29.0161 69.1067 28.75V27.5287C68.9616 27.4682 68.8286 27.444 68.6896 27.444C68.2482 27.444 67.9398 27.7343 67.9398 28.3691ZM72.3155 29.9593C71.1667 29.9593 70.5923 29.4272 70.5923 28.3268C70.5923 27.2747 71.3058 26.7004 72.122 26.7004C72.9866 26.7004 73.4038 27.2203 73.4038 28.1273C73.4038 28.2966 73.3917 28.4477 73.3796 28.5989H71.5234C71.6141 29.0705 71.9346 29.2337 72.521 29.2337C72.7629 29.2337 73.0108 29.2095 73.2224 29.1793L73.1801 29.8988C72.9624 29.9351 72.6662 29.9593 72.3155 29.9593ZM72.0978 27.3775C71.7834 27.3775 71.5537 27.6012 71.5053 28.1031L72.5392 28.0487C72.5392 27.5891 72.4001 27.3775 72.0978 27.3775ZM77.1467 29.9714C75.7682 29.9714 74.8733 29.1974 74.8733 27.8189C74.8733 26.4222 75.7742 25.6181 77.0923 25.6181C77.4067 25.6181 77.6848 25.6423 77.9267 25.6786L77.975 26.4827C77.6727 26.4343 77.4611 26.4162 77.2314 26.4162C76.3426 26.4162 75.8347 26.8515 75.8347 27.7645C75.8347 28.7137 76.3788 29.1733 77.2374 29.1733C77.5337 29.1733 77.7453 29.1491 78.0113 29.1067L77.963 29.9109C77.7574 29.9411 77.449 29.9714 77.1467 29.9714ZM79.5467 29.9109H78.6337V25.3158H79.5467V29.9109ZM80.8173 26.3255C80.4787 26.3255 80.2732 26.1441 80.2732 25.8418C80.2732 25.5455 80.4787 25.3581 80.8173 25.3581C81.1438 25.3581 81.3494 25.5455 81.3494 25.8418C81.3494 26.1441 81.1438 26.3255 80.8173 26.3255ZM80.3578 29.9109V26.7608H81.2708V29.9109H80.3578ZM83.5753 29.9593C82.4266 29.9593 81.8522 29.4272 81.8522 28.3268C81.8522 27.2747 82.5656 26.7004 83.3819 26.7004C84.2465 26.7004 84.6636 27.2203 84.6636 28.1273C84.6636 28.2966 84.6516 28.4477 84.6395 28.5989H82.7833C82.874 29.0705 83.1944 29.2337 83.7809 29.2337C84.0228 29.2337 84.2706 29.2095 84.4823 29.1793L84.4399 29.8988C84.2223 29.9351 83.926 29.9593 83.5753 29.9593ZM83.3577 27.3775C83.0433 27.3775 82.8135 27.6012 82.7651 28.1031L83.799 28.0487C83.799 27.5891 83.66 27.3775 83.3577 27.3775ZM86.1892 29.9109H85.2762V26.7608H86.0441L86.1167 27.1901C86.4129 26.8697 86.7636 26.7064 87.1929 26.7064C87.5799 26.7064 87.8398 26.8213 88.0031 27.0389C88.1784 27.2627 88.2268 27.5226 88.2268 28.1635V29.9109H87.3138V28.3691C87.3138 28.0063 87.2957 27.8491 87.1929 27.7222C87.0962 27.6012 86.9571 27.5529 86.7515 27.5529C86.5278 27.5529 86.3222 27.6315 86.1892 27.7705V29.9109ZM90.3978 29.9593C90.0229 29.9593 89.7085 29.8625 89.4969 29.6569C89.2793 29.4332 89.1644 29.1188 89.1644 28.4961V27.4682H88.717V26.8636L89.2067 26.7971L89.3095 26.126H90.0894V26.7608H90.942V27.4682H90.0894V28.5384C90.0894 29.0705 90.2829 29.2337 90.6034 29.2337C90.7545 29.2337 90.8694 29.2216 90.9903 29.1974L90.942 29.9109C90.7908 29.9411 90.5792 29.9593 90.3978 29.9593ZM93.0579 29.9593C91.9092 29.9593 91.3348 29.4272 91.3348 28.3268C91.3348 27.2747 92.0482 26.7004 92.8645 26.7004C93.7291 26.7004 94.1463 27.2203 94.1463 28.1273C94.1463 28.2966 94.1342 28.4477 94.1221 28.5989H92.2659C92.3566 29.0705 92.677 29.2337 93.2635 29.2337C93.5054 29.2337 93.7532 29.2095 93.9649 29.1793L93.9225 29.8988C93.7049 29.9351 93.4086 29.9593 93.0579 29.9593ZM92.8403 27.3775C92.5259 27.3775 92.2961 27.6012 92.2477 28.1031L93.2816 28.0487C93.2816 27.5891 93.1426 27.3775 92.8403 27.3775Z" fill="black"></path><path d="M98.8724 28.7675H100.227V29.0779H98.8724V28.7675ZM101.578 30.1924H101.193V27.4414L100.473 27.9022L100.341 27.6718L101.31 26.9006H101.578V30.1924ZM104.202 30.1924H102.18L102.143 29.9573C103.497 28.6452 103.666 28.3913 103.666 27.921C103.666 27.4978 103.384 27.2156 102.792 27.2156C102.618 27.2156 102.458 27.2203 102.27 27.2392L102.298 26.9006C102.528 26.8818 102.674 26.8724 102.9 26.8724C103.713 26.8724 104.066 27.2721 104.066 27.8317C104.066 28.3772 103.906 28.6593 102.636 29.8632H104.202V30.1924ZM104.909 30.9871L104.641 30.9589C104.702 30.5404 104.731 30.1077 104.721 29.6798L105.116 29.7033C105.083 30.1501 105.008 30.5733 104.909 30.9871ZM106.152 30.2347C105.983 30.2347 105.781 30.2159 105.607 30.1924L105.583 29.8444C105.762 29.8773 105.973 29.8961 106.143 29.8961C106.763 29.8961 107.111 29.6704 107.111 29.2236C107.111 28.8427 106.867 28.6546 106.336 28.6546C106.209 28.6546 106.1 28.6593 106.002 28.664L105.978 28.3631C106.693 28.3255 106.961 28.0856 106.961 27.7517C106.961 27.3849 106.688 27.2109 106.143 27.2109C106.02 27.2109 105.851 27.2203 105.663 27.2392L105.691 26.9006C105.903 26.8818 106.086 26.8724 106.232 26.8724C107.027 26.8724 107.361 27.1968 107.361 27.6718C107.361 28.048 107.126 28.3443 106.735 28.4383C107.285 28.5136 107.511 28.7957 107.511 29.2566C107.511 29.8773 107.008 30.2347 106.152 30.2347ZM108.711 28.6029C108.288 28.6029 107.982 28.3113 107.982 27.7376C107.982 27.1639 108.293 26.8724 108.716 26.8724C109.134 26.8724 109.44 27.1592 109.44 27.7376C109.44 28.3113 109.13 28.6029 108.711 28.6029ZM109.177 30.1924H108.782L110.569 26.9006H110.973L109.177 30.1924ZM108.711 28.3396C108.918 28.3396 109.087 28.1562 109.087 27.7423C109.087 27.3191 108.918 27.1357 108.716 27.1357C108.504 27.1357 108.335 27.3144 108.335 27.7376C108.335 28.1562 108.504 28.3396 108.711 28.3396ZM111.011 30.2206C110.592 30.2206 110.286 29.929 110.286 29.36C110.286 28.7816 110.597 28.49 111.02 28.49C111.439 28.49 111.744 28.7769 111.744 29.3553C111.744 29.929 111.434 30.2206 111.011 30.2206ZM111.011 29.9573C111.222 29.9573 111.392 29.7739 111.392 29.36C111.392 28.9368 111.222 28.7534 111.02 28.7534C110.808 28.7534 110.639 28.9368 110.639 29.3553C110.639 29.7739 110.808 29.9573 111.011 29.9573Z" fill="#03BF16"></path><path d="M14.9205 20.1697H14.074V15.9373H14.8782L16.7162 18.5553V15.9373H17.5687V20.1697H16.7586L14.9205 17.5456V20.1697ZM20.7606 15.9192L19.3216 16.6447L19.0435 16.1852L20.3555 15.2299L20.7606 15.9192ZM18.3784 17.0196H19.2914V18.5614C19.2914 18.9242 19.3095 19.0814 19.4123 19.2083C19.509 19.3293 19.6481 19.3776 19.8416 19.3776C20.0472 19.3776 20.2346 19.299 20.3676 19.166V17.0196H21.2745V20.1697H20.5127L20.4402 19.7344C20.162 20.0548 19.8658 20.2241 19.4002 20.2241C19.0254 20.2241 18.7593 20.1092 18.5961 19.8916C18.4268 19.6678 18.3784 19.4079 18.3784 18.767V17.0196ZM22.9994 20.1697H22.0864V17.0196H22.8543L22.9268 17.4489C23.2231 17.1284 23.5738 16.9652 24.0031 16.9652C24.39 16.9652 24.65 17.0801 24.8133 17.2977C24.8616 17.3582 24.8979 17.4187 24.9281 17.4912C25.2365 17.1345 25.5872 16.9652 26.0225 16.9652C26.4216 16.9652 26.6876 17.0801 26.8508 17.2977C27.0201 17.5214 27.0685 17.7814 27.0685 18.4223V20.1697H26.1616V18.6279C26.1616 18.2651 26.1374 18.1079 26.0406 17.981C25.9379 17.86 25.7988 17.8117 25.5811 17.8117C25.3816 17.8117 25.2063 17.8721 25.0249 18.0233C25.037 18.1382 25.037 18.2651 25.037 18.4223V20.1697H24.124V18.6279C24.124 18.2651 24.1059 18.1079 24.0031 17.981C23.9063 17.86 23.7673 17.8117 23.5617 17.8117C23.338 17.8117 23.1324 17.8903 22.9994 18.0293V20.1697ZM29.3721 20.218C28.2234 20.218 27.649 19.686 27.649 18.5856C27.649 17.5335 28.3624 16.9591 29.1787 16.9591C30.0433 16.9591 30.4605 17.4791 30.4605 18.3861C30.4605 18.5553 30.4484 18.7065 30.4363 18.8577H28.5801C28.6708 19.3293 28.9912 19.4925 29.5777 19.4925C29.8196 19.4925 30.0675 19.4683 30.2791 19.4381L30.2367 20.1576C30.0191 20.1939 29.7228 20.218 29.3721 20.218ZM29.1545 17.6363C28.8401 17.6363 28.6103 17.86 28.562 18.3619L29.5959 18.3074C29.5959 17.8479 29.4568 17.6363 29.1545 17.6363ZM31.986 20.1697H31.0731V17.0196H31.8409L31.9498 17.6726C32.1553 17.2312 32.5362 16.9652 32.9897 16.9652L33.0381 17.854C32.5604 17.8358 32.1977 18.0051 31.986 18.4223V20.1697ZM34.8009 20.2301C33.8516 20.2301 33.2228 19.7041 33.2228 18.64C33.2228 17.5759 33.8939 16.9591 34.8432 16.9591C35.7985 16.9591 36.4273 17.5033 36.4273 18.6037C36.4273 19.6255 35.7562 20.2301 34.8009 20.2301ZM34.8009 19.5167C35.1999 19.5167 35.472 19.2144 35.472 18.6098C35.472 17.9749 35.2422 17.6726 34.8432 17.6726C34.4441 17.6726 34.1721 17.9749 34.1721 18.6098C34.1721 19.2144 34.4018 19.5167 34.8009 19.5167ZM40.875 20.1697H40.1132L40.0286 19.6618C39.8048 20.0306 39.4784 20.2301 39.0249 20.2301C38.3235 20.2301 37.8519 19.7041 37.8519 18.7186C37.8519 17.594 38.4928 16.9712 39.4481 16.9712C39.6174 16.9712 39.7928 16.9954 39.9681 17.0377V15.5746H40.875V20.1697ZM38.8012 18.6279C38.8012 19.16 39.0309 19.4199 39.3695 19.4199C39.6295 19.4199 39.823 19.2748 39.9681 19.0088V17.7875C39.823 17.727 39.69 17.7028 39.5509 17.7028C39.1095 17.7028 38.8012 17.993 38.8012 18.6279ZM43.1768 20.218C42.0281 20.218 41.4537 19.686 41.4537 18.5856C41.4537 17.5335 42.1671 16.9591 42.9834 16.9591C43.848 16.9591 44.2651 17.4791 44.2651 18.3861C44.2651 18.5553 44.2531 18.7065 44.241 18.8577H42.3848C42.4755 19.3293 42.7959 19.4925 43.3824 19.4925C43.6242 19.4925 43.8721 19.4683 44.0838 19.4381L44.0414 20.1576C43.8238 20.1939 43.5275 20.218 43.1768 20.218ZM42.9592 17.6363C42.6448 17.6363 42.415 17.86 42.3666 18.3619L43.4005 18.3074C43.4005 17.8479 43.2615 17.6363 42.9592 17.6363ZM48.6764 19.3716V20.1697H46.0705V15.9373H47.0076V19.3716H48.6764ZM50.5811 20.218C49.4323 20.218 48.8579 19.686 48.8579 18.5856C48.8579 17.5335 49.5713 16.9591 50.3876 16.9591C51.2522 16.9591 51.6694 17.4791 51.6694 18.3861C51.6694 18.5553 51.6573 18.7065 51.6452 18.8577H49.789C49.8797 19.3293 50.2001 19.4925 50.7866 19.4925C51.0285 19.4925 51.2764 19.4683 51.488 19.4381L51.4457 20.1576C51.228 20.1939 50.9317 20.218 50.5811 20.218ZM50.3634 17.6363C50.049 17.6363 49.8192 17.86 49.7709 18.3619L50.8048 18.3074C50.8048 17.8479 50.6657 17.6363 50.3634 17.6363ZM52.941 20.2301C52.3848 20.2301 52.0522 19.9097 52.0522 19.3716C52.0522 18.7065 52.542 18.3256 53.8963 18.1805C53.8358 17.8358 53.5214 17.727 52.9954 17.727C52.7838 17.727 52.5903 17.7452 52.3001 17.7754L52.3485 17.0196C52.6689 16.9894 52.9108 16.9652 53.207 16.9652C54.2651 16.9652 54.7791 17.3159 54.7791 18.3256V20.1697H54.0112L53.9386 19.6799C53.727 20.0427 53.3703 20.2301 52.941 20.2301ZM52.9108 19.2507C52.9108 19.4804 53.0498 19.5711 53.2554 19.5711C53.6 19.5711 53.9144 19.2809 53.9084 18.773V18.7367C53.0861 18.8214 52.9108 18.9907 52.9108 19.2507ZM58.3818 20.1697H57.62L57.5354 19.6618C57.3117 20.0306 56.9852 20.2301 56.5317 20.2301C55.8303 20.2301 55.3587 19.7041 55.3587 18.7186C55.3587 17.594 55.9996 16.9712 56.9549 16.9712C57.1242 16.9712 57.2996 16.9954 57.4749 17.0377V15.5746H58.3818V20.1697ZM56.308 18.6279C56.308 19.16 56.5377 19.4199 56.8763 19.4199C57.1363 19.4199 57.3298 19.2748 57.4749 19.0088V17.7875C57.3298 17.727 57.1968 17.7028 57.0577 17.7028C56.6163 17.7028 56.308 17.993 56.308 18.6279ZM59.8614 20.218C59.5832 20.218 59.3293 20.1999 59.0572 20.1697L59.0209 19.4804C59.293 19.5288 59.5046 19.5469 59.7283 19.5469C60.1213 19.5469 60.3753 19.4683 60.3753 19.2688C60.3753 19.1358 60.3209 19.039 59.8372 18.8637C59.2265 18.64 58.9605 18.4042 58.9605 17.8903C58.9605 17.3461 59.426 16.9652 60.3027 16.9652C60.5748 16.9652 60.8106 16.9833 61.0706 17.0196L61.1069 17.7028C60.8771 17.6605 60.6776 17.6424 60.4236 17.6424C60.0609 17.6424 59.9037 17.721 59.9037 17.8903C59.9037 18.0475 59.9944 18.1321 60.4599 18.3014C61.1371 18.5493 61.3245 18.8093 61.3245 19.2325C61.3245 19.8795 60.7683 20.218 59.8614 20.218Z" fill="black"></path><path d="M100.156 19.868H99.7989V18.9699H98.8724V18.6595H99.7989V17.7613H100.156V18.6595H101.087V18.9699H100.156V19.868ZM101.983 20.4935C101.8 20.4935 101.593 20.4747 101.419 20.4512L101.414 20.1126C101.602 20.1455 101.786 20.1643 101.997 20.1643C102.566 20.1737 102.928 19.9104 102.928 19.3978C102.928 18.9934 102.693 18.7488 102.162 18.7488C101.969 18.7488 101.814 18.7723 101.621 18.81L101.494 18.5701L101.602 17.1594H103.234V17.5026H101.941L101.861 18.4714C101.993 18.4526 102.124 18.4432 102.256 18.4432C102.975 18.4432 103.328 18.7865 103.328 19.3696C103.328 20.0656 102.839 20.4935 101.983 20.4935ZM104.338 20.4935C104.169 20.4935 103.967 20.4747 103.793 20.4512L103.769 20.1032C103.948 20.1361 104.159 20.1549 104.329 20.1549C104.949 20.1549 105.297 19.9292 105.297 19.4824C105.297 19.1015 105.053 18.9134 104.522 18.9134C104.395 18.9134 104.286 18.9181 104.188 18.9228L104.164 18.6219C104.879 18.5842 105.147 18.3444 105.147 18.0105C105.147 17.6437 104.874 17.4697 104.329 17.4697C104.206 17.4697 104.037 17.4791 103.849 17.4979L103.877 17.1594C104.089 17.1405 104.272 17.1311 104.418 17.1311C105.213 17.1311 105.547 17.4556 105.547 17.9306C105.547 18.3068 105.312 18.6031 104.921 18.6971C105.471 18.7723 105.697 19.0545 105.697 19.5154C105.697 20.1361 105.194 20.4935 104.338 20.4935ZM106.351 21.2459L106.083 21.2177C106.144 20.7992 106.173 20.3665 106.163 19.9386L106.558 19.9621C106.525 20.4088 106.45 20.8321 106.351 21.2459ZM108.846 20.4559H108.465V19.6658H106.819L106.776 19.4025L108.479 17.1594H108.846V19.3367H109.264V19.6658H108.846V20.4559ZM107.218 19.3367H108.465V17.6672L107.218 19.3367ZM110.387 18.8617C109.964 18.8617 109.658 18.5701 109.658 17.9964C109.658 17.4227 109.969 17.1311 110.392 17.1311C110.811 17.1311 111.116 17.418 111.116 17.9964C111.116 18.5701 110.806 18.8617 110.387 18.8617ZM110.853 20.4512H110.458L112.245 17.1594H112.649L110.853 20.4512ZM110.387 18.5983C110.594 18.5983 110.764 18.4149 110.764 18.0011C110.764 17.5779 110.594 17.3945 110.392 17.3945C110.18 17.3945 110.011 17.5732 110.011 17.9964C110.011 18.4149 110.18 18.5983 110.387 18.5983ZM112.687 20.4794C112.268 20.4794 111.963 20.1878 111.963 19.6188C111.963 19.0404 112.273 18.7488 112.696 18.7488C113.115 18.7488 113.421 19.0357 113.421 19.6141C113.421 20.1878 113.11 20.4794 112.687 20.4794ZM112.687 20.216C112.899 20.216 113.068 20.0326 113.068 19.6188C113.068 19.1956 112.899 19.0122 112.696 19.0122C112.485 19.0122 112.315 19.1956 112.315 19.6141C112.315 20.0326 112.485 20.216 112.687 20.216Z" fill="#03BF16"></path><path d="M141.745 61.6292L9.24707 61.6292" stroke="black" stroke-opacity="0.2" stroke-width="0.250037" stroke-linecap="round" stroke-dasharray="1.5 1.5"></path><path d="M141.371 94.2952L8.87256 94.2952" stroke="black" stroke-opacity="0.2" stroke-width="0.250037" stroke-linecap="round" stroke-dasharray="1.5 1.5"></path><path d="M140.995 127.711L8.49707 127.711" stroke="black" stroke-opacity="0.2" stroke-width="0.250037" stroke-linecap="round" stroke-dasharray="1.5 1.5"></path><path d="M142.115 112.259L125.534 107.664L108.353 110.062L91.9716 104.268L74.5911 112.259L59.4438 101.3L43.5428 86.4329H28.8053L11.8701 76.9958" stroke="#0E7166" stroke-width="1.00015" stroke-linecap="round"></path><path d="M125.534 107.664L142.115 112.259V127.642H11.8701V76.9956L28.8053 86.4328H43.5428L59.4438 101.3L74.5911 112.259L91.9716 104.268L108.353 110.061L125.534 107.664Z" fill="url(#paint0_linear_86_1404)"></path><path d="M142.115 112.259L125.534 107.664L108.353 110.062L91.9716 104.268L74.5911 112.259L59.4438 101.3L43.5428 86.4329H28.8053L11.8701 76.9958" stroke="#0E7166" stroke-width="1.00015" stroke-linecap="round"></path><circle cx="140.629" cy="112.347" r="1.96466" transform="rotate(180 140.629 112.347)" fill="white" stroke="#0E7166" stroke-width="1.00015"></circle><circle cx="125.612" cy="107.96" r="1.96466" transform="rotate(180 125.612 107.96)" fill="white" stroke="#0E7166" stroke-width="1.00015"></circle><circle cx="107.94" cy="109.616" r="1.96466" transform="rotate(180 107.94 109.616)" fill="white" stroke="#0E7166" stroke-width="1.00015"></circle><circle cx="91.3507" cy="104.563" r="1.96466" transform="rotate(180 91.3507 104.563)" fill="white" stroke="#0E7166" stroke-width="1.00015"></circle><circle cx="74.5924" cy="111.62" r="1.96466" transform="rotate(180 74.5924 111.62)" fill="white" stroke="#0E7166" stroke-width="1.00015"></circle><circle cx="59.2013" cy="101.371" r="1.96466" transform="rotate(180 59.2013 101.371)" fill="white" stroke="#0E7166" stroke-width="1.00015"></circle><circle cx="43.6427" cy="86.6988" r="1.96466" transform="rotate(180 43.6427 86.6988)" fill="white" stroke="#0E7166" stroke-width="1.00015"></circle><circle cx="28.2208" cy="86.4423" r="1.96466" transform="rotate(180 28.2208 86.4423)" fill="white" stroke="#0E7166" stroke-width="1.00015"></circle><circle cx="11.8697" cy="76.9957" r="1.96466" transform="rotate(180 11.8697 76.9957)" fill="white" stroke="#0E7166" stroke-width="1.00015"></circle><path d="M121.738 74.5013L141.316 64.9121V127.242H11.8699V110.349L28.8051 100.912H43.5426L59.4436 86.045L75.991 93.2845L91.5041 87.7256H110.351L121.738 74.5013Z" fill="url(#paint1_linear_86_1404)"></path><path d="M141.316 64.9121L121.738 74.5013L110.351 87.7256H91.5041L75.991 93.2845L59.4436 86.045L43.5426 100.912H28.8051L11.8699 110.349" stroke="#61EBDB" stroke-width="1.00015" stroke-linecap="round"></path><circle cx="2.46473" cy="2.46473" r="1.96466" transform="matrix(-1 0 0 1 143.093 62.5444)" fill="white" stroke="#61EBDB" stroke-width="1.00015"></circle><circle cx="2.46473" cy="2.46473" r="1.96466" transform="matrix(-1 0 0 1 124.481 71.3267)" fill="white" stroke="#61EBDB" stroke-width="1.00015"></circle><circle cx="2.46473" cy="2.46473" r="1.96466" transform="matrix(-1 0 0 1 112.002 85.2527)" fill="white" stroke="#61EBDB" stroke-width="1.00015"></circle><circle cx="2.46473" cy="2.46473" r="1.96466" transform="matrix(-1 0 0 1 93.8154 85.5115)" fill="white" stroke="#61EBDB" stroke-width="1.00015"></circle><circle cx="2.46473" cy="2.46473" r="1.96466" transform="matrix(-1 0 0 1 78.2559 90.4407)" fill="white" stroke="#61EBDB" stroke-width="1.00015"></circle><circle cx="2.46473" cy="2.46473" r="1.96466" transform="matrix(-1 0 0 1 61.666 83.5088)" fill="white" stroke="#61EBDB" stroke-width="1.00015"></circle><circle cx="2.46473" cy="2.46473" r="1.96466" transform="matrix(-1 0 0 1 46.1074 98.1814)" fill="white" stroke="#61EBDB" stroke-width="1.00015"></circle><circle cx="2.46473" cy="2.46473" r="1.96466" transform="matrix(-1 0 0 1 30.6855 98.4377)" fill="white" stroke="#61EBDB" stroke-width="1.00015"></circle><circle cx="2.46473" cy="2.46473" r="1.96466" transform="matrix(-1 0 0 1 14.3345 107.884)" fill="white" stroke="#61EBDB" stroke-width="1.00015"></circle><circle cx="8.79022" cy="27.6005" r="1.57201" transform="rotate(180 8.79022 27.6005)" fill="white" stroke="#0E7166" stroke-width="1.00015"></circle><circle cx="8.79022" cy="18.195" r="1.57201" transform="rotate(180 8.79022 18.195)" fill="white" stroke="#1ACDB8" stroke-width="1.00015"></circle><defs><linearGradient id="paint0_linear_86_1404" x1="76.9927" y1="76.9956" x2="76.9927" y2="127.642" gradientUnits="userSpaceOnUse"><stop stop-color="#0E7166"></stop><stop offset="1" stop-color="#0E7166" stop-opacity="0"></stop></linearGradient><linearGradient id="paint1_linear_86_1404" x1="93.9691" y1="77.2982" x2="93.9691" y2="129.839" gradientUnits="userSpaceOnUse"><stop stop-color="#1ACDB8"></stop><stop offset="1" stop-color="#1ACDB8" stop-opacity="0"></stop></linearGradient></defs></svg>