<svg xmlns="http://www.w3.org/2000/svg" width="80" height="17" viewBox="0 0 80 17" fill="none"><path d="M7.51275 3.44076C7.66709 3.09451 7.74427 2.92138 7.85172 2.86807C7.94507 2.82175 8.0547 2.82175 8.14804 2.86807C8.2555 2.92138 8.33267 3.09451 8.48701 3.44076L9.71637 6.19872C9.762 6.30108 9.78481 6.35226 9.82011 6.39145C9.85135 6.42613 9.88952 6.45386 9.93216 6.47286C9.98034 6.49432 10.0361 6.5002 10.1475 6.51196L13.1504 6.8289C13.5274 6.86869 13.7159 6.88858 13.7998 6.97431C13.8727 7.04877 13.9066 7.15303 13.8914 7.25612C13.8739 7.3748 13.7331 7.50169 13.4514 7.75548L11.2084 9.77692C11.1251 9.85194 11.0835 9.88946 11.0571 9.93514C11.0338 9.97557 11.0192 10.0204 11.0143 10.0669C11.0088 10.1193 11.0204 10.1741 11.0437 10.2838L11.6702 13.2376C11.7489 13.6084 11.7882 13.7939 11.7326 13.9002C11.6843 13.9925 11.5956 14.0569 11.4929 14.0743C11.3746 14.0944 11.2104 13.9997 10.882 13.8103L8.26635 12.3016C8.16927 12.2456 8.12073 12.2176 8.06913 12.2067C8.02347 12.197 7.97629 12.197 7.93063 12.2067C7.87904 12.2176 7.8305 12.2456 7.73342 12.3016L5.11776 13.8103C4.78937 13.9997 4.62518 14.0944 4.5069 14.0743C4.40416 14.0569 4.31547 13.9925 4.26718 13.9002C4.21158 13.7939 4.25091 13.6084 4.32957 13.2376L4.95608 10.2838C4.97933 10.1741 4.99096 10.1193 4.98544 10.0669C4.98055 10.0204 4.96597 9.97557 4.94264 9.93514C4.91627 9.88946 4.87465 9.85194 4.79139 9.77692L2.54832 7.75547C2.26671 7.50169 2.1259 7.3748 2.1084 7.25612C2.09319 7.15303 2.12707 7.04877 2.19997 6.97431C2.28388 6.88858 2.47238 6.86869 2.84938 6.8289L5.85224 6.51196C5.96369 6.5002 6.01942 6.49432 6.0676 6.47286C6.11024 6.45386 6.14841 6.42613 6.17965 6.39145C6.21495 6.35226 6.23777 6.30108 6.28339 6.19872L7.51275 3.44076Z" fill="#FCB63E"></path><path d="M23.5128 3.44076C23.6671 3.09451 23.7443 2.92138 23.8517 2.86807C23.9451 2.82175 24.0547 2.82175 24.148 2.86807C24.2555 2.92138 24.3327 3.09451 24.487 3.44076L25.7164 6.19872C25.762 6.30108 25.7848 6.35226 25.8201 6.39145C25.8514 6.42613 25.8895 6.45386 25.9322 6.47286C25.9803 6.49432 26.0361 6.5002 26.1475 6.51196L29.1504 6.8289C29.5274 6.86869 29.7159 6.88858 29.7998 6.97431C29.8727 7.04877 29.9066 7.15303 29.8914 7.25612C29.8739 7.3748 29.7331 7.50169 29.4514 7.75548L27.2084 9.77692C27.1251 9.85194 27.0835 9.88946 27.0571 9.93514C27.0338 9.97557 27.0192 10.0204 27.0143 10.0669C27.0088 10.1193 27.0204 10.1741 27.0437 10.2838L27.6702 13.2376C27.7489 13.6084 27.7882 13.7939 27.7326 13.9002C27.6843 13.9925 27.5956 14.0569 27.4929 14.0743C27.3746 14.0944 27.2104 13.9997 26.882 13.8103L24.2663 12.3016C24.1693 12.2456 24.1207 12.2176 24.0691 12.2067C24.0235 12.197 23.9763 12.197 23.9306 12.2067C23.879 12.2176 23.8305 12.2456 23.7334 12.3016L21.1178 13.8103C20.7894 13.9997 20.6252 14.0944 20.5069 14.0743C20.4042 14.0569 20.3155 13.9925 20.2672 13.9002C20.2116 13.7939 20.2509 13.6084 20.3296 13.2376L20.9561 10.2838C20.9793 10.1741 20.991 10.1193 20.9854 10.0669C20.9805 10.0204 20.966 9.97557 20.9426 9.93514C20.9163 9.88946 20.8746 9.85194 20.7914 9.77692L18.5483 7.75547C18.2667 7.50169 18.1259 7.3748 18.1084 7.25612C18.0932 7.15303 18.1271 7.04877 18.2 6.97431C18.2839 6.88858 18.4724 6.86869 18.8494 6.8289L21.8522 6.51196C21.9637 6.5002 22.0194 6.49432 22.0676 6.47286C22.1102 6.45386 22.1484 6.42613 22.1796 6.39145C22.215 6.35226 22.2378 6.30108 22.2834 6.19872L23.5128 3.44076Z" fill="#FCB63E"></path><path d="M39.5128 3.44076C39.6671 3.09451 39.7443 2.92138 39.8517 2.86807C39.9451 2.82175 40.0547 2.82175 40.148 2.86807C40.2555 2.92138 40.3327 3.09451 40.487 3.44076L41.7164 6.19872C41.762 6.30108 41.7848 6.35226 41.8201 6.39145C41.8514 6.42613 41.8895 6.45386 41.9322 6.47286C41.9803 6.49432 42.0361 6.5002 42.1475 6.51196L45.1504 6.8289C45.5274 6.86869 45.7159 6.88858 45.7998 6.97431C45.8727 7.04877 45.9066 7.15303 45.8914 7.25612C45.8739 7.3748 45.7331 7.50169 45.4514 7.75548L43.2084 9.77692C43.1251 9.85194 43.0835 9.88946 43.0571 9.93514C43.0338 9.97557 43.0192 10.0204 43.0143 10.0669C43.0088 10.1193 43.0204 10.1741 43.0437 10.2838L43.6702 13.2376C43.7489 13.6084 43.7882 13.7939 43.7326 13.9002C43.6843 13.9925 43.5956 14.0569 43.4929 14.0743C43.3746 14.0944 43.2104 13.9997 42.882 13.8103L40.2663 12.3016C40.1693 12.2456 40.1207 12.2176 40.0691 12.2067C40.0235 12.197 39.9763 12.197 39.9306 12.2067C39.879 12.2176 39.8305 12.2456 39.7334 12.3016L37.1178 13.8103C36.7894 13.9997 36.6252 14.0944 36.5069 14.0743C36.4042 14.0569 36.3155 13.9925 36.2672 13.9002C36.2116 13.7939 36.2509 13.6084 36.3296 13.2376L36.9561 10.2838C36.9793 10.1741 36.991 10.1193 36.9854 10.0669C36.9805 10.0204 36.966 9.97557 36.9426 9.93514C36.9163 9.88946 36.8746 9.85194 36.7914 9.77692L34.5483 7.75547C34.2667 7.50169 34.1259 7.3748 34.1084 7.25612C34.0932 7.15303 34.1271 7.04877 34.2 6.97431C34.2839 6.88858 34.4724 6.86869 34.8494 6.8289L37.8522 6.51196C37.9637 6.5002 38.0194 6.49432 38.0676 6.47286C38.1102 6.45386 38.1484 6.42613 38.1796 6.39145C38.215 6.35226 38.2378 6.30108 38.2834 6.19872L39.5128 3.44076Z" fill="#FCB63E"></path><path d="M55.5128 3.44076C55.6671 3.09451 55.7443 2.92138 55.8517 2.86807C55.9451 2.82175 56.0547 2.82175 56.148 2.86807C56.2555 2.92138 56.3327 3.09451 56.487 3.44076L57.7164 6.19872C57.762 6.30108 57.7848 6.35226 57.8201 6.39145C57.8514 6.42613 57.8895 6.45386 57.9322 6.47286C57.9803 6.49432 58.0361 6.5002 58.1475 6.51196L61.1504 6.8289C61.5274 6.86869 61.7159 6.88858 61.7998 6.97431C61.8727 7.04877 61.9066 7.15303 61.8914 7.25612C61.8739 7.3748 61.7331 7.50169 61.4514 7.75548L59.2084 9.77692C59.1251 9.85194 59.0835 9.88946 59.0571 9.93514C59.0338 9.97557 59.0192 10.0204 59.0143 10.0669C59.0088 10.1193 59.0204 10.1741 59.0437 10.2838L59.6702 13.2376C59.7489 13.6084 59.7882 13.7939 59.7326 13.9002C59.6843 13.9925 59.5956 14.0569 59.4929 14.0743C59.3746 14.0944 59.2104 13.9997 58.882 13.8103L56.2663 12.3016C56.1693 12.2456 56.1207 12.2176 56.0691 12.2067C56.0235 12.197 55.9763 12.197 55.9306 12.2067C55.879 12.2176 55.8305 12.2456 55.7334 12.3016L53.1178 13.8103C52.7894 13.9997 52.6252 14.0944 52.5069 14.0743C52.4042 14.0569 52.3155 13.9925 52.2672 13.9002C52.2116 13.7939 52.2509 13.6084 52.3296 13.2376L52.9561 10.2838C52.9793 10.1741 52.991 10.1193 52.9854 10.0669C52.9805 10.0204 52.966 9.97557 52.9426 9.93514C52.9163 9.88946 52.8746 9.85194 52.7914 9.77692L50.5483 7.75547C50.2667 7.50169 50.1259 7.3748 50.1084 7.25612C50.0932 7.15303 50.1271 7.04877 50.2 6.97431C50.2839 6.88858 50.4724 6.86869 50.8494 6.8289L53.8522 6.51196C53.9637 6.5002 54.0194 6.49432 54.0676 6.47286C54.1102 6.45386 54.1484 6.42613 54.1796 6.39145C54.215 6.35226 54.2378 6.30108 54.2834 6.19872L55.5128 3.44076Z" fill="#FCB63E"></path><path d="M71.5128 3.44076C71.6671 3.09451 71.7443 2.92138 71.8517 2.86807C71.9451 2.82175 72.0547 2.82175 72.148 2.86807C72.2555 2.92138 72.3327 3.09451 72.487 3.44076L73.7164 6.19872C73.762 6.30108 73.7848 6.35226 73.8201 6.39145C73.8514 6.42613 73.8895 6.45386 73.9322 6.47286C73.9803 6.49432 74.0361 6.5002 74.1475 6.51196L77.1504 6.8289C77.5274 6.86869 77.7159 6.88858 77.7998 6.97431C77.8727 7.04877 77.9066 7.15303 77.8914 7.25612C77.8739 7.3748 77.7331 7.50169 77.4514 7.75548L75.2084 9.77692C75.1251 9.85194 75.0835 9.88946 75.0571 9.93514C75.0338 9.97557 75.0192 10.0204 75.0143 10.0669C75.0088 10.1193 75.0204 10.1741 75.0437 10.2838L75.6702 13.2376C75.7489 13.6084 75.7882 13.7939 75.7326 13.9002C75.6843 13.9925 75.5956 14.0569 75.4929 14.0743C75.3746 14.0944 75.2104 13.9997 74.882 13.8103L72.2663 12.3016C72.1693 12.2456 72.1207 12.2176 72.0691 12.2067C72.0235 12.197 71.9763 12.197 71.9306 12.2067C71.879 12.2176 71.8305 12.2456 71.7334 12.3016L69.1178 13.8103C68.7894 13.9997 68.6252 14.0944 68.5069 14.0743C68.4042 14.0569 68.3155 13.9925 68.2672 13.9002C68.2116 13.7939 68.2509 13.6084 68.3296 13.2376L68.9561 10.2838C68.9793 10.1741 68.991 10.1193 68.9854 10.0669C68.9805 10.0204 68.966 9.97557 68.9426 9.93514C68.9163 9.88946 68.8746 9.85194 68.7914 9.77692L66.5483 7.75547C66.2667 7.50169 66.1259 7.3748 66.1084 7.25612C66.0932 7.15303 66.1271 7.04877 66.2 6.97431C66.2839 6.88858 66.4724 6.86869 66.8494 6.8289L69.8522 6.51196C69.9637 6.5002 70.0194 6.49432 70.0676 6.47286C70.1102 6.45386 70.1484 6.42613 70.1796 6.39145C70.215 6.35226 70.2378 6.30108 70.2834 6.19872L71.5128 3.44076Z" fill="#FCB63E"></path></svg>