<svg xmlns="http://www.w3.org/2000/svg" width="141" height="249" viewBox="0 0 141 249" fill="none"><circle cx="2.69816" cy="2.69816" r="2.69816" fill="#1ACDB8"></circle><circle cx="2.69816" cy="29.6795" r="2.69816" fill="#1ACDB8"></circle><circle cx="2.69816" cy="56.6611" r="2.69816" fill="#1ACDB8"></circle><circle cx="2.69816" cy="83.6425" r="2.69816" fill="#1ACDB8"></circle><circle cx="2.69816" cy="110.625" r="2.69816" fill="#1ACDB8"></circle><circle cx="2.69816" cy="137.606" r="2.69816" fill="#1ACDB8"></circle><circle cx="2.69816" cy="164.588" r="2.69816" fill="#1ACDB8"></circle><circle cx="2.69816" cy="191.569" r="2.69816" fill="#1ACDB8"></circle><circle cx="2.69816" cy="218.551" r="2.69816" fill="#1ACDB8"></circle><circle cx="2.69816" cy="245.533" r="2.69816" fill="#1ACDB8"></circle><circle cx="29.6795" cy="2.69816" r="2.69816" fill="#1ACDB8"></circle><circle cx="29.6795" cy="29.6795" r="2.69816" fill="#1ACDB8"></circle><circle cx="29.6795" cy="56.6611" r="2.69816" fill="#1ACDB8"></circle><circle cx="29.6795" cy="83.6425" r="2.69816" fill="#1ACDB8"></circle><circle cx="29.6795" cy="110.625" r="2.69816" fill="#1ACDB8"></circle><circle cx="29.6795" cy="137.606" r="2.69816" fill="#1ACDB8"></circle><circle cx="29.6795" cy="164.588" r="2.69816" fill="#1ACDB8"></circle><circle cx="29.6795" cy="191.569" r="2.69816" fill="#1ACDB8"></circle><circle cx="29.6795" cy="218.551" r="2.69816" fill="#1ACDB8"></circle><circle cx="29.6795" cy="245.533" r="2.69816" fill="#1ACDB8"></circle><circle cx="56.6611" cy="2.69816" r="2.69816" fill="#1ACDB8"></circle><circle cx="56.6611" cy="29.6795" r="2.69816" fill="#1ACDB8"></circle><circle cx="56.6611" cy="56.6611" r="2.69816" fill="#1ACDB8"></circle><circle cx="56.6611" cy="83.6425" r="2.69816" fill="#1ACDB8"></circle><circle cx="56.6611" cy="110.625" r="2.69816" fill="#1ACDB8"></circle><circle cx="56.6611" cy="137.606" r="2.69816" fill="#1ACDB8"></circle><circle cx="56.6611" cy="164.588" r="2.69816" fill="#1ACDB8"></circle><circle cx="56.6611" cy="191.569" r="2.69816" fill="#1ACDB8"></circle><circle cx="56.6611" cy="218.551" r="2.69816" fill="#1ACDB8"></circle><circle cx="56.6611" cy="245.533" r="2.69816" fill="#1ACDB8"></circle><circle cx="83.6425" cy="2.69816" r="2.69816" fill="#1ACDB8"></circle><circle cx="83.6425" cy="29.6795" r="2.69816" fill="#1ACDB8"></circle><circle cx="83.6425" cy="56.6611" r="2.69816" fill="#1ACDB8"></circle><circle cx="83.6425" cy="83.6425" r="2.69816" fill="#1ACDB8"></circle><circle cx="83.6425" cy="110.625" r="2.69816" fill="#1ACDB8"></circle><circle cx="83.6425" cy="137.606" r="2.69816" fill="#1ACDB8"></circle><circle cx="83.6425" cy="164.588" r="2.69816" fill="#1ACDB8"></circle><circle cx="83.6425" cy="191.569" r="2.69816" fill="#1ACDB8"></circle><circle cx="83.6425" cy="218.551" r="2.69816" fill="#1ACDB8"></circle><circle cx="83.6425" cy="245.533" r="2.69816" fill="#1ACDB8"></circle><circle cx="110.625" cy="2.69816" r="2.69816" fill="#1ACDB8"></circle><circle cx="110.625" cy="29.6795" r="2.69816" fill="#1ACDB8"></circle><circle cx="110.625" cy="56.6611" r="2.69816" fill="#1ACDB8"></circle><circle cx="110.625" cy="83.6425" r="2.69816" fill="#1ACDB8"></circle><circle cx="110.625" cy="110.625" r="2.69816" fill="#1ACDB8"></circle><circle cx="110.625" cy="137.606" r="2.69816" fill="#1ACDB8"></circle><circle cx="110.625" cy="164.588" r="2.69816" fill="#1ACDB8"></circle><circle cx="110.625" cy="191.569" r="2.69816" fill="#1ACDB8"></circle><circle cx="110.625" cy="218.551" r="2.69816" fill="#1ACDB8"></circle><circle cx="110.625" cy="245.533" r="2.69816" fill="#1ACDB8"></circle><circle cx="137.606" cy="2.69816" r="2.69816" fill="#1ACDB8"></circle><circle cx="137.606" cy="29.6795" r="2.69816" fill="#1ACDB8"></circle><circle cx="137.606" cy="56.6611" r="2.69816" fill="#1ACDB8"></circle><circle cx="137.606" cy="83.6425" r="2.69816" fill="#1ACDB8"></circle><circle cx="137.606" cy="110.625" r="2.69816" fill="#1ACDB8"></circle><circle cx="137.606" cy="137.606" r="2.69816" fill="#1ACDB8"></circle><circle cx="137.606" cy="164.588" r="2.69816" fill="#1ACDB8"></circle><circle cx="137.606" cy="191.569" r="2.69816" fill="#1ACDB8"></circle><circle cx="137.606" cy="218.551" r="2.69816" fill="#1ACDB8"></circle><circle cx="137.606" cy="245.533" r="2.69816" fill="#1ACDB8"></circle></svg>