<svg xmlns="http://www.w3.org/2000/svg" width="67" height="118" viewBox="0 0 67 118" fill="none"><circle cx="2.25199" cy="2.25468" r="1.26957" fill="#C7C7C7"></circle><circle cx="2.25199" cy="14.9502" r="1.26957" fill="#C7C7C7"></circle><circle cx="2.25199" cy="27.6458" r="1.26957" fill="#C7C7C7"></circle><circle cx="2.25199" cy="40.3413" r="1.26957" fill="#C7C7C7"></circle><circle cx="2.25199" cy="53.0374" r="1.26957" fill="#C7C7C7"></circle><circle cx="2.25199" cy="65.7332" r="1.26957" fill="#C7C7C7"></circle><circle cx="2.25199" cy="78.4285" r="1.26957" fill="#C7C7C7"></circle><circle cx="2.25199" cy="91.1243" r="1.26957" fill="#C7C7C7"></circle><circle cx="2.25199" cy="103.82" r="1.26957" fill="#C7C7C7"></circle><circle cx="2.25199" cy="116.516" r="1.26957" fill="#C7C7C7"></circle><circle cx="14.9475" cy="2.25468" r="1.26957" fill="#C7C7C7"></circle><circle cx="14.9475" cy="14.9502" r="1.26957" fill="#C7C7C7"></circle><circle cx="14.9475" cy="27.6458" r="1.26957" fill="#C7C7C7"></circle><circle cx="14.9475" cy="40.3413" r="1.26957" fill="#C7C7C7"></circle><circle cx="14.9475" cy="53.0374" r="1.26957" fill="#C7C7C7"></circle><circle cx="14.9475" cy="65.7332" r="1.26957" fill="#C7C7C7"></circle><circle cx="14.9475" cy="78.4285" r="1.26957" fill="#C7C7C7"></circle><circle cx="14.9475" cy="91.1243" r="1.26957" fill="#C7C7C7"></circle><circle cx="14.9475" cy="103.82" r="1.26957" fill="#C7C7C7"></circle><circle cx="14.9475" cy="116.516" r="1.26957" fill="#C7C7C7"></circle><circle cx="27.6433" cy="2.25468" r="1.26957" fill="#C7C7C7"></circle><circle cx="27.6433" cy="14.9502" r="1.26957" fill="#C7C7C7"></circle><circle cx="27.6433" cy="27.6458" r="1.26957" fill="#C7C7C7"></circle><circle cx="27.6433" cy="40.3413" r="1.26957" fill="#C7C7C7"></circle><circle cx="27.6433" cy="53.0374" r="1.26957" fill="#C7C7C7"></circle><circle cx="27.6433" cy="65.7332" r="1.26957" fill="#C7C7C7"></circle><circle cx="27.6433" cy="78.4285" r="1.26957" fill="#C7C7C7"></circle><circle cx="27.6433" cy="91.1243" r="1.26957" fill="#C7C7C7"></circle><circle cx="27.6433" cy="103.82" r="1.26957" fill="#C7C7C7"></circle><circle cx="27.6433" cy="116.516" r="1.26957" fill="#C7C7C7"></circle><circle cx="40.3391" cy="2.25468" r="1.26957" fill="#C7C7C7"></circle><circle cx="40.3391" cy="14.9502" r="1.26957" fill="#C7C7C7"></circle><circle cx="40.3391" cy="27.6458" r="1.26957" fill="#C7C7C7"></circle><circle cx="40.3391" cy="40.3413" r="1.26957" fill="#C7C7C7"></circle><circle cx="40.3391" cy="53.0374" r="1.26957" fill="#C7C7C7"></circle><circle cx="40.3391" cy="65.7332" r="1.26957" fill="#C7C7C7"></circle><circle cx="40.3391" cy="78.4285" r="1.26957" fill="#C7C7C7"></circle><circle cx="40.3391" cy="91.1243" r="1.26957" fill="#C7C7C7"></circle><circle cx="40.3391" cy="103.82" r="1.26957" fill="#C7C7C7"></circle><circle cx="40.3391" cy="116.516" r="1.26957" fill="#C7C7C7"></circle><circle cx="53.035" cy="2.25468" r="1.26957" fill="#C7C7C7"></circle><circle cx="53.035" cy="14.9502" r="1.26957" fill="#C7C7C7"></circle><circle cx="53.035" cy="27.6458" r="1.26957" fill="#C7C7C7"></circle><circle cx="53.035" cy="40.3413" r="1.26957" fill="#C7C7C7"></circle><circle cx="53.035" cy="53.0374" r="1.26957" fill="#C7C7C7"></circle><circle cx="53.035" cy="65.7332" r="1.26957" fill="#C7C7C7"></circle><circle cx="53.035" cy="78.4285" r="1.26957" fill="#C7C7C7"></circle><circle cx="53.035" cy="91.1243" r="1.26957" fill="#C7C7C7"></circle><circle cx="53.035" cy="103.82" r="1.26957" fill="#C7C7C7"></circle><circle cx="53.035" cy="116.516" r="1.26957" fill="#C7C7C7"></circle><circle cx="65.7303" cy="2.25468" r="1.26957" fill="#C7C7C7"></circle><circle cx="65.7303" cy="14.9502" r="1.26957" fill="#C7C7C7"></circle><circle cx="65.7305" cy="27.6458" r="1.26957" fill="#C7C7C7"></circle><circle cx="65.7305" cy="40.3413" r="1.26957" fill="#C7C7C7"></circle><circle cx="65.7303" cy="53.0374" r="1.26957" fill="#C7C7C7"></circle><circle cx="65.7305" cy="65.7332" r="1.26957" fill="#C7C7C7"></circle><circle cx="65.7305" cy="78.4285" r="1.26957" fill="#C7C7C7"></circle><circle cx="65.7303" cy="91.1243" r="1.26957" fill="#C7C7C7"></circle><circle cx="65.7303" cy="103.82" r="1.26957" fill="#C7C7C7"></circle><circle cx="65.7305" cy="116.516" r="1.26957" fill="#C7C7C7"></circle></svg>