<?xml version="1.0" encoding="UTF-8"?>
<svg version="1.1" xmlns="http://www.w3.org/2000/svg" width="450" height="400">
<path d="M0 0 C2.36108177 1.63909809 2.60311971 2.52543554 3.140625 5.3125 C6.43573315 24.04415083 0.17073522 44.20541969 -9.8515625 60.0703125 C-11.38441997 62.80279756 -11.57299252 64.88701686 -11.734375 68 C-12.02693225 73.1476145 -12.02693225 73.1476145 -13.109375 75.3125 C-13.29399215 77.41361904 -13.43208265 79.51891182 -13.546875 81.625 C-15.05580583 104.54188705 -15.05580583 104.54188705 -20.1328125 109.1484375 C-20.90882813 109.65632813 -21.68484375 110.16421875 -22.484375 110.6875 C-23.64066406 111.47253906 -23.64066406 111.47253906 -24.8203125 112.2734375 C-27.109375 113.3125 -27.109375 113.3125 -29.3984375 112.9765625 C-29.96304688 112.75742188 -30.52765625 112.53828125 -31.109375 112.3125 C-31.27953125 111.56226563 -31.4496875 110.81203125 -31.625 110.0390625 C-34.67315877 95.74222681 -34.67315877 95.74222681 -43.109375 84.3125 C-52.19323297 79.00741691 -52.19323297 79.00741691 -62.33984375 77.21484375 C-63.54350586 77.21967773 -63.54350586 77.21967773 -64.77148438 77.22460938 C-66.02155273 77.23717773 -66.02155273 77.23717773 -67.296875 77.25 C-68.14185547 77.25451172 -68.98683594 77.25902344 -69.85742188 77.26367188 C-71.94143655 77.27544597 -74.02541477 77.2933811 -76.109375 77.3125 C-77.42994649 74.67135703 -77.09755872 72.93362949 -76.859375 70 C-76.79234375 69.05511719 -76.7253125 68.11023438 -76.65625 67.13671875 C-75.90472257 63.25561636 -74.86241095 60.52373226 -71.50976562 58.20727539 C-69.52844664 57.07719166 -67.51830598 56.03224154 -65.484375 55 C-53.27177567 48.43877999 -45.5688411 39.69304484 -37.15234375 28.7734375 C-31.37305829 21.35806104 -11.67425333 -3.80494182 0 0 Z M-24.48046875 20.6640625 C-29.45579929 25.21803775 -29.45579929 25.21803775 -31.109375 31.3125 C-31.769375 31.3125 -32.429375 31.3125 -33.109375 31.3125 C-33.109375 32.3025 -33.109375 33.2925 -33.109375 34.3125 C-34.099375 34.6425 -35.089375 34.9725 -36.109375 35.3125 C-36.109375 36.3025 -36.109375 37.2925 -36.109375 38.3125 C-36.769375 38.3125 -37.429375 38.3125 -38.109375 38.3125 C-39.38538831 40.80997023 -40.65523671 43.31027936 -41.921875 45.8125 C-42.27830078 46.50859375 -42.63472656 47.2046875 -43.00195312 47.921875 C-47.54728805 56.70759008 -47.54728805 56.70759008 -49.109375 66.3125 C-48.39652344 66.61542969 -47.68367188 66.91835937 -46.94921875 67.23046875 C-41.14486076 69.76938712 -36.11126936 72.42213772 -31.109375 76.3125 C-21.17394815 72.26473351 -14.46030629 59.55373423 -10.109375 50.3125 C-9.95847412 49.69415283 -9.80757324 49.07580566 -9.65209961 48.4387207 C-9.09985687 46.27521102 -8.34722479 44.34136827 -7.48046875 42.28515625 C-2.41709533 29.62867666 -1.25163743 18.87292256 -2.109375 5.3125 C-10.07171786 5.3125 -18.89568963 15.40583967 -24.48046875 20.6640625 Z M-51.109375 51.3125 C-51.72683594 51.74820313 -52.34429687 52.18390625 -52.98046875 52.6328125 C-53.82738281 53.22835937 -54.67429687 53.82390625 -55.546875 54.4375 C-56.45308594 55.07945312 -57.35929687 55.72140625 -58.29296875 56.3828125 C-60.06340369 57.59584282 -61.86551769 58.76504856 -63.70703125 59.8671875 C-64.89619141 60.58261719 -64.89619141 60.58261719 -66.109375 61.3125 C-66.83125 61.725 -67.553125 62.1375 -68.296875 62.5625 C-70.866904 64.75153459 -70.866904 64.75153459 -72.109375 71.3125 C-66.829375 71.3125 -61.549375 71.3125 -56.109375 71.3125 C-55.07944527 68.35704947 -54.06013978 65.39865961 -53.046875 62.4375 C-52.75232422 61.59574219 -52.45777344 60.75398438 -52.15429688 59.88671875 C-51.88037109 59.08105469 -51.60644531 58.27539062 -51.32421875 57.4453125 C-50.93931274 56.32987061 -50.93931274 56.32987061 -50.54663086 55.19189453 C-49.88110095 53.23716288 -49.88110095 53.23716288 -51.109375 51.3125 Z M-50.109375 71.3125 C-48.89301624 74.96157629 -48.03694823 75.1953659 -44.734375 76.9375 C-43.94289063 77.36289063 -43.15140625 77.78828125 -42.3359375 78.2265625 C-40.02735642 79.41297348 -40.02735642 79.41297348 -37.109375 80.3125 C-37.109375 79.6525 -37.109375 78.9925 -37.109375 78.3125 C-39.51498086 76.48744987 -39.51498086 76.48744987 -42.484375 74.6875 C-43.48210937 74.05585938 -44.47984375 73.42421875 -45.5078125 72.7734375 C-47.90273331 71.14928682 -47.90273331 71.14928682 -50.109375 71.3125 Z M-19.109375 72.3125 C-24.00674414 77.43247683 -28.63139428 82.82336234 -33.109375 88.3125 C-32.77164063 89.10914063 -32.43390625 89.90578125 -32.0859375 90.7265625 C-31.63992188 91.78617188 -31.19390625 92.84578125 -30.734375 93.9375 C-30.29351562 94.98164063 -29.85265625 96.02578125 -29.3984375 97.1015625 C-28.17801178 100.14153202 -27.1112359 103.19455905 -26.109375 106.3125 C-23.56995437 103.3634954 -21.71544028 101.1913178 -21.109375 97.3125 C-20.94824219 96.58933594 -20.78710938 95.86617187 -20.62109375 95.12109375 C-20.02823915 91.86718189 -19.81008905 88.6760293 -19.609375 85.375 C-19.33988948 80.95255013 -18.90805856 76.67198112 -18.109375 72.3125 C-18.439375 72.3125 -18.769375 72.3125 -19.109375 72.3125 Z M-36.109375 80.3125 C-36.439375 80.9725 -36.769375 81.6325 -37.109375 82.3125 C-36.449375 82.3125 -35.789375 82.3125 -35.109375 82.3125 C-35.439375 81.6525 -35.769375 80.9925 -36.109375 80.3125 Z " fill="#1FB0CE" transform="translate(377.109375,125.6875)"/>
<path d="M0 0 C3.07565262 2.51073684 4.80926871 4.71390307 7 8 C7.5775 7.071875 8.155 6.14375 8.75 5.1875 C11.83003008 0.82412405 14.85037991 -1.49279412 20 -3 C22.95832693 -2.69658185 25.2833075 -1.89014607 28.0625 -0.8125 C31.52766908 0.14595102 31.99938309 -0.35450041 35 -2 C36.67688378 -1.72260194 38.34654738 -1.3936792 40 -1 C40.75792479 6.02433865 41.10689357 13.00174857 41.125 20.0625 C41.12951172 20.80040771 41.13402344 21.53831543 41.13867188 22.29858398 C41.12988319 25.46580711 41.00878777 27.9736367 40 31 C33.375 32.25 33.375 32.25 30 30 C28.32700041 30.65061095 26.66140763 31.32033324 25 32 C19.74581215 32.47765344 16.43294036 31.89104806 12 29 C9.60663727 26.58083282 7.53057211 24.06114423 6 21 C5.4121875 22.36125 5.4121875 22.36125 4.8125 23.75 C2.81701072 27.32811871 1.52561984 28.93061444 -2 31 C-7.43828568 32.37716292 -11.78846852 32.27169321 -17 30 C-17.68201156 35.37084106 -18.11521265 40.58500559 -18 46 C-24.75 47.125 -24.75 47.125 -27 46 C-27 30.82 -27 15.64 -27 0 C-24.69 -0.66 -22.38 -1.32 -20 -2 C-19.01 -1.34 -18.02 -0.68 -17 0 C-15.8553125 -0.8353125 -15.8553125 -0.8353125 -14.6875 -1.6875 C-9.26536131 -3.61741377 -5.19288621 -2.21647582 0 0 Z M-18 9 C-19.21884225 13.11937823 -19.32485156 16.88622321 -18.125 21 C-15.29714355 23.66151195 -13.05656746 24.05026891 -9.23046875 24.25 C-6.72426996 24.12866051 -6.72426996 24.12866051 -3.9375 22.125 C-1.4131368 18.05344646 -1.16564174 14.6899717 -2 10 C-3.72226496 6.75150023 -3.72226496 6.75150023 -7 6 C-8.954862 5.7684012 -8.954862 5.7684012 -11 5.75 C-11.680625 5.72421875 -12.36125 5.6984375 -13.0625 5.671875 C-15.64195769 6.10871864 -16.45168352 6.91394486 -18 9 Z M16 9 C14.78413491 13.38218043 14.47312041 16.79570379 16.3125 21 C18.69498144 23.82368171 19.63247996 23.96597037 23.375 24.3125 C26.92577148 24.24786874 26.92577148 24.24786874 29.4375 22.6875 C31.90670232 18.44047202 31.81233202 13.79349076 31 9 C29.82339055 7.10949347 29.82339055 7.10949347 28 6 C21.19396295 5.23945332 21.19396295 5.23945332 16 9 Z " fill="#07C4F2" transform="translate(207,181)"/>
<path d="M0 0 C4.42089146 1.47691252 5.84045291 4.76420485 7.9375 8.625 C21.89450409 32.95725315 43.89113192 52.61382023 70 63 C70.6487207 63.26506348 71.29744141 63.53012695 71.96582031 63.80322266 C87.14558552 69.91862588 103.62490819 73.47471811 120 74 C121.07894531 74.03996094 122.15789062 74.07992187 123.26953125 74.12109375 C131.63272327 74.28066083 139.76473279 73.55280136 148.01611328 72.29882812 C149.88154843 72.01784208 151.7512694 71.76574174 153.62109375 71.515625 C172.89985792 68.49630532 192.02011074 61.55612372 209 52 C210.04671875 51.43796875 211.0934375 50.8759375 212.171875 50.296875 C221.37685039 45.19359849 230.32959308 38.94773632 237.6875 31.375 C238.8321875 30.199375 238.8321875 30.199375 240 29 C240.66 29 241.32 29 242 29 C242.33 28.01 242.66 27.02 243 26 C243.99 26 244.98 26 246 26 C244.52145813 35.40695481 233.1065636 42.85432426 225.8515625 48.26953125 C213.16986629 57.4119227 199.67624937 63.73663412 185 69 C184.22430664 69.28359375 183.44861328 69.5671875 182.64941406 69.859375 C142.59604924 84.29424681 98.76241908 82.51425186 60.1875 64.6875 C36.25748407 53.18045971 8.7819373 30.61935959 -1 5 C-0.75 2 -0.75 2 0 0 Z " fill="#1FB6D2" transform="translate(81,184)"/>
<path d="M0 0 C3.0625 0.1875 3.0625 0.1875 6.0625 1.1875 C6.7225 0.8575 7.3825 0.5275 8.0625 0.1875 C12.41125891 -0.16750073 15.56678618 0.28354475 19.5625 1.875 C23.24177284 3.22198802 23.76826289 3.29403413 27.6875 1.875 C28.80125 1.318125 29.915 0.76125 31.0625 0.1875 C36.51616934 -0.39682171 40.24164889 0.59165709 45.0625 3.1875 C48.86764698 7.11948521 49.19095427 11.09336635 49.16015625 16.390625 C49.15693359 17.3703125 49.15371094 18.35 49.15039062 19.359375 C49.13782227 20.88304687 49.13782227 20.88304687 49.125 22.4375 C49.12048828 23.46875 49.11597656 24.5 49.11132812 25.5625 C49.09956088 28.10422573 49.08312011 30.64583319 49.0625 33.1875 C42.4375 34.4375 42.4375 34.4375 39.0625 32.1875 C38.63012695 29.94091797 38.63012695 29.94091797 38.55078125 27.1796875 C38.51533203 26.19355469 38.47988281 25.20742187 38.44335938 24.19140625 C38.40952148 22.64259766 38.40952148 22.64259766 38.375 21.0625 C38.34083984 20.02222656 38.30667969 18.98195312 38.27148438 17.91015625 C38.18883831 15.33632166 38.12399784 12.76192671 38.0625 10.1875 C33.1125 9.1975 33.1125 9.1975 28.0625 8.1875 C28.02511719 9.81300781 27.98773438 11.43851563 27.94921875 13.11328125 C27.88356894 15.24221096 27.81712126 17.37111617 27.75 19.5 C27.72744141 20.57185547 27.70488281 21.64371094 27.68164062 22.74804688 C27.64619141 23.77607422 27.61074219 24.80410156 27.57421875 25.86328125 C27.54803467 26.81114502 27.52185059 27.75900879 27.49487305 28.7355957 C27.00049755 31.53910394 26.25594374 32.44346964 24.0625 34.1875 C21.7525 33.5275 19.4425 32.8675 17.0625 32.1875 C17.03744385 31.5262915 17.0123877 30.86508301 16.98657227 30.18383789 C16.87096898 27.20567695 16.74808246 24.2278608 16.625 21.25 C16.58568359 20.20908203 16.54636719 19.16816406 16.50585938 18.09570312 C16.46396484 17.10634766 16.42207031 16.11699219 16.37890625 15.09765625 C16.34224854 14.18121338 16.30559082 13.26477051 16.26782227 12.32055664 C16.29246136 10.2054272 16.29246136 10.2054272 15.0625 9.1875 C13.54321962 9.11570036 12.02082518 9.10357993 10.5 9.125 C9.67371094 9.13402344 8.84742188 9.14304688 7.99609375 9.15234375 C7.35800781 9.16394531 6.71992188 9.17554688 6.0625 9.1875 C6.04791748 9.87376465 6.03333496 10.5600293 6.01831055 11.26708984 C5.94399849 14.36613901 5.84728418 17.46409055 5.75 20.5625 C5.71616211 22.18285156 5.71616211 22.18285156 5.68164062 23.8359375 C5.64619141 24.8671875 5.61074219 25.8984375 5.57421875 26.9609375 C5.54803467 27.91403809 5.52185059 28.86713867 5.49487305 29.84912109 C5.35218994 30.62078613 5.20950684 31.39245117 5.0625 32.1875 C1.2121895 34.75437367 -0.52319763 34.02038724 -4.9375 33.1875 C-4.98688149 28.80926083 -5.0232104 24.43116854 -5.04736328 20.05273438 C-5.05743043 18.5627968 -5.07108518 17.07287903 -5.08837891 15.58300781 C-5.11259653 13.44330972 -5.12397564 11.30387247 -5.1328125 9.1640625 C-5.14852295 7.23167725 -5.14852295 7.23167725 -5.16455078 5.26025391 C-4.85926269 1.12868834 -4.15825072 0.26542026 0 0 Z " fill="#19B0CB" transform="translate(128.9375,178.8125)"/>
<path d="M0 0 C2.33294775 -0.04241723 4.66702567 -0.04092937 7 0 C8 1 8 1 8.0625 4.5625 C8.041875 5.696875 8.02125 6.83125 8 8 C8.969375 7.814375 9.93875 7.62875 10.9375 7.4375 C12.4534375 7.2209375 12.4534375 7.2209375 14 7 C15 8 15 8 15.0625 11.5625 C15.041875 12.696875 15.02125 13.83125 15 15 C13.02 15.33 11.04 15.66 9 16 C9 21.28 9 26.56 9 32 C11.31 32.66 13.62 33.32 16 34 C15.67 35.98 15.34 37.96 15 40 C13.27305325 40.13609913 11.54295278 40.23249228 9.8125 40.3125 C8.84957031 40.37050781 7.88664062 40.42851562 6.89453125 40.48828125 C4 40 4 40 1.15625 38.125 C-1.93058564 33.65132516 -1.55575886 29.98305822 -1.3125 24.6875 C-1.28994141 23.75615234 -1.26738281 22.82480469 -1.24414062 21.86523438 C-1.18542078 19.5751604 -1.10336858 17.28842125 -1 15 C-1.66 15 -2.32 15 -3 15 C-2.67 16.32 -2.34 17.64 -2 19 C-5.80573129 20.2685771 -8.10569048 19.88817586 -12 19 C-12.66 18.29875 -13.32 17.5975 -14 16.875 C-14.66 16.25625 -15.32 15.6375 -16 15 C-19.69432511 15.14612895 -19.69432511 15.14612895 -23 16 C-25.19361848 21.84964928 -24.94683005 25.0570451 -23 31 C-21.83622098 32.38142556 -21.83622098 32.38142556 -18.625 32.25 C-15.07238908 32.41452435 -15.07238908 32.41452435 -13.56640625 30.49609375 C-12 29 -12 29 -9.73828125 28.70703125 C-8.93777344 28.74183594 -8.13726562 28.77664062 -7.3125 28.8125 C-6.50425781 28.83957031 -5.69601562 28.86664063 -4.86328125 28.89453125 C-4.24839844 28.92933594 -3.63351562 28.96414062 -3 29 C-3 33.08102414 -4.64010908 34.46920189 -7.29296875 37.4140625 C-10.63451208 40.51856271 -13.97934621 40.88659402 -18.375 41.375 C-24.12338181 40.78033981 -29.19425129 38.44377128 -33 34 C-34.16152902 30.51541293 -34.13270324 27.73309492 -34.125 24.0625 C-34.12757813 22.83660156 -34.13015625 21.61070312 -34.1328125 20.34765625 C-33.87511429 13.85214541 -33.87511429 13.85214541 -31.51171875 11.55078125 C-30.90972656 11.14214844 -30.30773437 10.73351562 -29.6875 10.3125 C-29.09324219 9.89613281 -28.49898437 9.47976562 -27.88671875 9.05078125 C-23.74435765 6.74375199 -19.67816275 6.68283642 -15 7 C-11.29621231 8.35805549 -8.27951517 9.81365655 -5 12 C-4.896875 11.38125 -4.79375 10.7625 -4.6875 10.125 C-4 8 -4 8 -1 6 C-0.26656572 2.93443402 -0.26656572 2.93443402 0 0 Z " fill="#05C7F6" transform="translate(283,172)"/>
<path d="M0 0 C0.66 -0.66 1.32 -1.32 2 -2 C4.64 -2 7.28 -2 10 -2 C10 10.21 10 22.42 10 35 C7.03 35 4.06 35 1 35 C0.67 34.01 0.34 33.02 0 32 C-0.61875 32.495 -1.2375 32.99 -1.875 33.5 C-7.28277969 36.09573425 -12.69253666 35.78366679 -18.3125 33.875 C-22.43843192 30.99644284 -25.37787651 27.86637047 -27 23 C-27.62909175 15.36839511 -28.03959486 9.04751384 -23 3 C-15.91727124 -3.25134751 -8.59445944 -3.52593208 0 0 Z M-15.9375 8 C-18.49439976 11.71912692 -19.29052326 14.51009511 -19 19 C-17.72834724 22.96456449 -16.61604795 24.55196513 -13.25 27 C-9.01943733 28.30171159 -7.01930808 27.78635915 -3 26 C-0.39289925 23.79399167 0.78279996 22.23378582 1.37890625 18.84765625 C1.5911089 14.73366292 1.34585687 12.55337099 -0.875 9 C-4.1165579 5.94912198 -6.48610836 5.58270197 -10.9609375 5.6640625 C-13.29970657 5.90244248 -13.29970657 5.90244248 -15.9375 8 Z " fill="#F9F9F9" transform="translate(207,138)"/>
<path d="M0 0 C5.16804465 3.60561255 8.27699653 7.72007575 9.6875 13.875 C9.875 17.1875 9.875 17.1875 9.6875 19.875 C8.6875 20.875 8.6875 20.875 6.18725586 20.98852539 C5.10323486 20.98328857 4.01921387 20.97805176 2.90234375 20.97265625 C1.73251953 20.96943359 0.56269531 20.96621094 -0.64257812 20.96289062 C-1.87427734 20.95451172 -3.10597656 20.94613281 -4.375 20.9375 C-6.22834961 20.93073242 -6.22834961 20.93073242 -8.11914062 20.92382812 C-11.18364117 20.91199608 -14.24804721 20.89551173 -17.3125 20.875 C-16.6525 22.855 -15.9925 24.835 -15.3125 26.875 C-13.89816794 27.0986337 -12.48082382 27.30326476 -11.0625 27.5 C-10.27359375 27.61601562 -9.4846875 27.73203125 -8.671875 27.8515625 C-5.9518221 27.87858289 -4.57764161 27.34834432 -2.3125 25.875 C-1.9825 25.215 -1.6525 24.555 -1.3125 23.875 C1.9875 23.875 5.2875 23.875 8.6875 23.875 C7.66684638 28.26381055 6.24803962 31.08459659 2.578125 33.828125 C-2.95512354 36.89198989 -8.53769682 37.39909379 -14.625 35.875 C-19.44709077 34.16417973 -21.56870247 32.16218364 -24.3125 27.875 C-27.23081626 21.65682083 -27.3400588 15.07856567 -25.25 8.5625 C-18.89099728 -0.25805216 -10.55257241 -3.58389252 0 0 Z M-15.3125 8.875 C-15.9725 10.525 -16.6325 12.175 -17.3125 13.875 C-11.7025 13.875 -6.0925 13.875 -0.3125 13.875 C-0.6425 12.225 -0.9725 10.575 -1.3125 8.875 C-6.81044693 5.40890302 -10.03391861 4.94990102 -15.3125 8.875 Z " fill="#F9F9F9" transform="translate(313.3125,137.125)"/>
<path d="M0 0 C4.5304841 3.05544277 7.23771888 5.91293776 9.6875 10.8125 C9.6875 14.1125 9.6875 17.4125 9.6875 20.8125 C1.1075 21.1425 -7.4725 21.4725 -16.3125 21.8125 C-13.9076215 27.09277861 -13.9076215 27.09277861 -9.5625 27.9375 C-5.19446933 28.27227607 -3.34805474 26.59981263 -0.12109375 23.89453125 C3.18125894 21.91882565 6.07447192 22.98847605 9.6875 23.8125 C7.50299957 29.03102881 5.16294039 31.54915805 0.6875 34.8125 C-5.3466684 36.82388947 -12.07755033 36.89006502 -17.8125 34.125 C-23.22115704 29.12199224 -25.93660039 24.87221576 -26.625 17.4375 C-26.12511928 11.63888367 -24.65812659 7.4414164 -20.9375 2.9375 C-14.75683046 -2.06589915 -7.44539946 -2.66910547 0 0 Z M-15.3125 8.8125 C-15.9725 10.4625 -16.6325 12.1125 -17.3125 13.8125 C-11.3725 13.8125 -5.4325 13.8125 0.6875 13.8125 C-0.85292748 9.00945965 -0.85292748 9.00945965 -3.3125 6.8125 C-8.27505925 5.34628931 -11.04096672 5.90009094 -15.3125 8.8125 Z " fill="#F8F7F7" transform="translate(169.3125,137.1875)"/>
<path d="M0 0 C4.03082699 2.26889849 7.26799196 5.42496983 9.6875 9.375 C9.6875 10.365 9.6875 11.355 9.6875 12.375 C1.69205581 13.17454442 1.69205581 13.17454442 -2.375 9.9375 C-3.8290625 8.6690625 -3.8290625 8.6690625 -5.3125 7.375 C-9.72509331 5.72837189 -13.34717449 6.06938538 -17.625 7.9375 C-21.41990866 10.13690679 -23.03818751 12.07419536 -24.3125 16.375 C-24.966941 22.19952491 -24.94087408 26.53716789 -21.3125 31.375 C-21.3125 32.035 -21.3125 32.695 -21.3125 33.375 C-15.5910725 35.890805 -11.33282864 36.86141524 -5.23046875 35.19140625 C-3.10310207 34.43750266 -3.10310207 34.43750266 -1.3125 32.25 C1.16533506 29.92702963 2.12176414 30.11470268 5.4375 30.125 C6.85517057 30.18902383 8.27256449 30.26615881 9.6875 30.375 C8.77621723 35.19632166 6.19488824 38.06734913 2.6875 41.375 C-3.49469676 45.28618571 -10.16074934 45.14600658 -17.3125 44.375 C-23.91801198 42.64472586 -28.68131859 38.03242076 -32.3125 32.375 C-35.02873864 25.82816841 -34.83743733 18.90008579 -32.59375 12.2421875 C-29.69888142 5.67882168 -25.11311708 2.04459864 -19.0625 -1.5625 C-12.57680127 -3.40011464 -6.17354392 -2.73197058 0 0 Z " fill="#F7F7F7" transform="translate(110.3125,128.625)"/>
<path d="M0 0 C0.66 0 1.32 0 2 0 C1.71125 0.70125 1.4225 1.4025 1.125 2.125 C0.568125 3.548125 0.568125 3.548125 0 5 C-0.556875 6.3303125 -0.556875 6.3303125 -1.125 7.6875 C-2.08743787 11.33101479 -2.08464383 14.36385115 -2.01171875 18.10546875 C-1.91038975 43.13373287 -1.91038975 43.13373287 -7 53 C-9.0234375 54.8359375 -9.0234375 54.8359375 -11.375 56.375 C-12.53128906 57.16003906 -12.53128906 57.16003906 -13.7109375 57.9609375 C-16 59 -16 59 -18.2890625 58.6640625 C-19.13597656 58.33535156 -19.13597656 58.33535156 -20 58 C-20.17015625 57.24976563 -20.3403125 56.49953125 -20.515625 55.7265625 C-23.56378377 41.42972681 -23.56378377 41.42972681 -32 30 C-41.08385797 24.69491691 -41.08385797 24.69491691 -51.23046875 22.90234375 C-52.43413086 22.90717773 -52.43413086 22.90717773 -53.66210938 22.91210938 C-54.91217773 22.92467773 -54.91217773 22.92467773 -56.1875 22.9375 C-57.03248047 22.94201172 -57.87746094 22.94652344 -58.74804688 22.95117188 C-60.83206155 22.96294597 -62.91603977 22.9808811 -65 23 C-65 20.69 -65 18.38 -65 16 C-64.01 16 -63.02 16 -62 16 C-62 16.99 -62 17.98 -62 19 C-57.05 19 -52.1 19 -47 19 C-46.67 18.34 -46.34 17.68 -46 17 C-45.34 17 -44.68 17 -44 17 C-42.35 11.72 -40.7 6.44 -39 1 C-38.67 1 -38.34 1 -38 1 C-38.14168137 2.43791516 -38.28851043 3.8753237 -38.4375 5.3125 C-38.51871094 6.11300781 -38.59992188 6.91351563 -38.68359375 7.73828125 C-39 10 -39 10 -40 13 C-39.34 13.33 -38.68 13.66 -38 14 C-38.99 14.33 -39.98 14.66 -41 15 C-40.67 16.65 -40.34 18.3 -40 20 C-38.80375 20.2475 -37.6075 20.495 -36.375 20.75 C-32.20550902 21.77382519 -29.4176247 23.43678148 -26 26 C-26 25.34 -26 24.68 -26 24 C-26.66 24 -27.32 24 -28 24 C-28.33 22.35 -28.66 20.7 -29 19 C-28.26394531 19.19078125 -27.52789062 19.3815625 -26.76953125 19.578125 C-20.57884996 21.19427393 -20.57884996 21.19427393 -14.8125 19.125 C-14.214375 18.42375 -13.61625 17.7225 -13 17 C-12.814375 17.9590625 -12.814375 17.9590625 -12.625 18.9375 C-12.41875 19.618125 -12.2125 20.29875 -12 21 C-11.34 21.33 -10.68 21.66 -10 22 C-13.63 25.63 -17.26 29.26 -21 33 C-19.02 38.28 -17.04 43.56 -15 49 C-14.34 49 -13.68 49 -13 49 C-10.54753723 44.10537893 -10.3375754 39.05261636 -9.875 33.6875 C-9.78863281 32.75615234 -9.70226562 31.82480469 -9.61328125 30.86523438 C-9.40209195 28.57735027 -9.19788734 26.28906654 -9 24 C-8.01 24 -7.02 24 -6 24 C-6 21.69 -6 19.38 -6 17 C-7.32 17 -8.64 17 -10 17 C-8.29231921 13.44961249 -6.25801816 10.20601621 -4.12109375 6.90234375 C-2.84878807 4.89506996 -2.84878807 4.89506996 -2 2 C-1.34 2 -0.68 2 0 2 C0 1.34 0 0.68 0 0 Z M-25 26 C-25.33 26.66 -25.66 27.32 -26 28 C-25.34 28 -24.68 28 -24 28 C-24.33 27.34 -24.66 26.68 -25 26 Z " fill="#1BB5D6" transform="translate(366,180)"/>
<path d="M0 0 C2.97 0 5.94 0 9 0 C11.97 8.25 14.94 16.5 18 25 C20.97 16.75 23.94 8.5 27 0 C29.97 0 32.94 0 36 0 C35.38499444 4.57432104 34.18307203 8.55444715 32.53125 12.859375 C32.17069519 13.80505341 32.17069519 13.80505341 31.80285645 14.76983643 C31.04046819 16.76527415 30.27024639 18.75758432 29.5 20.75 C28.98258098 22.10267651 28.46564917 23.4555395 27.94921875 24.80859375 C24.20250599 34.59498802 24.20250599 34.59498802 23 37 C19.7 37 16.4 37 13 37 C9.60067951 29.25347158 6.60099467 21.3771611 3.6875 13.4375 C3.32591797 12.46151855 2.96433594 11.48553711 2.59179688 10.47998047 C2.25599609 9.55717285 1.92019531 8.63436523 1.57421875 7.68359375 C1.11921997 6.43920532 1.11921997 6.43920532 0.6550293 5.16967773 C0 3 0 3 0 0 Z " fill="#F7F6F7" transform="translate(252,136)"/>
<path d="M0 0 C2.6875 2.6875 2.6875 2.6875 4 5 C1.50638429 3.79618552 -0.68143083 2.54571278 -3 1 C-5.73872955 0.54227937 -5.73872955 0.54227937 -8.6875 0.375 C-10.17830078 0.26285156 -10.17830078 0.26285156 -11.69921875 0.1484375 C-12.45847656 0.09945312 -13.21773437 0.05046875 -14 0 C-14.33 1.32 -14.66 2.64 -15 4 C-12.36 4 -9.72 4 -7 4 C-7 4.66 -7 5.32 -7 6 C-8.258125 6.061875 -9.51625 6.12375 -10.8125 6.1875 C-14.03081916 6.59762209 -14.72652907 6.70089117 -17 9.1875 C-18.38672886 13.08767491 -18.63881067 16.18390474 -17.25390625 20.12109375 C-16.15336467 22.16831366 -16.15336467 22.16831366 -13.9765625 22.75 C-9.0247435 23.29842734 -9.0247435 23.29842734 -4.4375 21.625 C-2.34378388 17.8016923 -2.52015837 14.27137713 -3 10 C-3.33 9.01 -3.66 8.02 -4 7 C-2.68 7.66 -1.36 8.32 0 9 C0.34422689 14.73711481 0.36694489 19.06983069 -3 24 C-5.94816472 26.16198746 -8.40855357 26.1995248 -12 26 C-12 26.66 -12 27.32 -12 28 C-9.47524538 29.26237731 -7.68799534 29.09856404 -4.875 29.0625 C-3.96492188 29.05347656 -3.05484375 29.04445312 -2.1171875 29.03515625 C-1.41851562 29.02355469 -0.71984375 29.01195312 0 29 C-3.09744903 32.09744903 -6.73834407 31.96430774 -11 32 C-14.5625 31.0625 -14.5625 31.0625 -17 30 C-17.68201156 35.37084106 -18.11521265 40.58500559 -18 46 C-24.75 47.125 -24.75 47.125 -27 46 C-27 30.82 -27 15.64 -27 0 C-24.69 -0.66 -22.38 -1.32 -20 -2 C-19.01 -1.34 -18.02 -0.68 -17 0 C-15.8553125 -0.8353125 -15.8553125 -0.8353125 -14.6875 -1.6875 C-9.29282423 -3.60763883 -5.15089323 -2.27410731 0 0 Z " fill="#32B2CC" transform="translate(207,181)"/>
<path d="M0 0 C6.15234375 -0.09765625 6.15234375 -0.09765625 8 0 C9 1 9 1 9.0625 4.5625 C9.041875 5.696875 9.02125 6.83125 9 8 C11.64 8 14.28 8 17 8 C17 10.64 17 13.28 17 16 C14.36 16 11.72 16 9 16 C9 22.93 9 29.86 9 37 C11.64 37 14.28 37 17 37 C17 39.64 17 42.28 17 45 C7.0459588 45.62757528 7.0459588 45.62757528 2.875 43.125 C-0.01210509 39.85294756 -0.12118412 38.05550935 -0.09765625 33.7734375 C-0.09443359 32.7421875 -0.09121094 31.7109375 -0.08789062 30.6484375 C-0.07951172 29.56820312 -0.07113281 28.48796875 -0.0625 27.375 C-0.05798828 26.28703125 -0.05347656 25.1990625 -0.04882812 24.078125 C-0.03701776 21.38536211 -0.02054778 18.69270812 0 16 C-1.32 16 -2.64 16 -4 16 C-4 13.36 -4 10.72 -4 8 C-3.01 7.67 -2.02 7.34 -1 7 C-0.67 4.69 -0.34 2.38 0 0 Z " fill="#FDFCFD" transform="translate(223,128)"/>
<path d="M0 0 C0 0.99 0 1.98 0 3 C-30.35845303 27.70630343 -71.47561319 32.76189665 -109 32 C-109.33 31.01 -109.66 30.02 -110 29 C-106.03978398 28.03211138 -102.56290698 28.02120845 -98.5 28.1875 C-79.89693179 28.50006213 -60.51396136 25.24260009 -43 19 C-41.41251953 18.46632813 -41.41251953 18.46632813 -39.79296875 17.921875 C-28.14979351 13.76255202 -16.70674386 8.02100585 -6.0859375 1.69140625 C-3 0 -3 0 0 0 Z " fill="#22B8CF" transform="translate(305,246)"/>
<path d="M0 0 C2.05078125 0.03255208 4.1015625 0.06510417 6.15234375 0.09765625 C6.48234375 1.08765625 6.81234375 2.07765625 7.15234375 3.09765625 C8.05984375 2.58203125 8.96734375 2.06640625 9.90234375 1.53515625 C13.15234375 0.09765625 13.15234375 0.09765625 15.52734375 0.41015625 C16.06359375 0.63703125 16.59984375 0.86390625 17.15234375 1.09765625 C17.15234375 3.73765625 17.15234375 6.37765625 17.15234375 9.09765625 C15.13411458 9.52083333 13.11588542 9.94401042 11.09765625 10.3671875 C8.78187826 11.02074463 8.78187826 11.02074463 7.15234375 14.09765625 C6.78538194 16.61267802 6.78538194 16.61267802 6.73828125 19.421875 C6.68027344 20.96391602 6.68027344 20.96391602 6.62109375 22.53710938 C6.59015625 23.60896484 6.55921875 24.68082031 6.52734375 25.78515625 C6.46933594 27.4103418 6.46933594 27.4103418 6.41015625 29.06835938 C6.31583866 31.74462092 6.2302437 34.42087468 6.15234375 37.09765625 C3.51234375 37.09765625 0.87234375 37.09765625 -1.84765625 37.09765625 C-3.37547199 34.04202478 -2.98975879 30.85141743 -2.98046875 27.5 C-2.98190384 26.37580406 -2.98190384 26.37580406 -2.98336792 25.22889709 C-2.98404866 23.64437781 -2.98220176 22.05985573 -2.97802734 20.4753418 C-2.97267008 18.0414407 -2.97797972 15.60772352 -2.984375 13.17382812 C-2.98371435 11.63671834 -2.98243345 10.09960867 -2.98046875 8.5625 C-2.98249298 7.8302269 -2.98451721 7.0979538 -2.98660278 6.3434906 C-2.95767417 0.15632527 -2.95767417 0.15632527 0 0 Z " fill="#F7F7F7" transform="translate(126.84765625,135.90234375)"/>
<path d="M0 0 C2.64 0 5.28 0 8 0 C9.06378669 4.31772244 9.1294216 8.50742256 9.09765625 12.92578125 C9.0962413 13.67337204 9.09482635 14.42096283 9.09336853 15.19120789 C9.08779764 17.56501365 9.0752506 19.93872303 9.0625 22.3125 C9.05748123 23.92773301 9.05291899 25.5429675 9.04882812 27.15820312 C9.03783775 31.10550555 9.02059332 35.05273647 9 39 C2.25 40 2.25 40 0 40 C-1.57726832 36.84546335 -1.14190506 33.46259198 -1.1328125 30 C-1.13376923 29.20851562 -1.13472595 28.41703125 -1.13571167 27.6015625 C-1.13639259 25.92708253 -1.13454444 24.25259991 -1.13037109 22.578125 C-1.12502158 20.01035654 -1.13031903 17.442763 -1.13671875 14.875 C-1.13605795 13.24999961 -1.13477676 11.62499933 -1.1328125 10 C-1.13483673 9.22914063 -1.13686096 8.45828125 -1.13894653 7.6640625 C-1.11496066 2.22992132 -1.11496066 2.22992132 0 0 Z " fill="#07C1EE" transform="translate(113,173)"/>
<path d="M0 0 C-1.03923102 3.28601922 -2.15321486 4.09609361 -5.1328125 5.96484375 C-6.45527709 6.63886323 -7.7867158 7.29546398 -9.125 7.9375 C-9.83495117 8.28377441 -10.54490234 8.63004883 -11.27636719 8.98681641 C-28.11713263 16.95445048 -44.80050619 19.33761648 -63.25 19.125 C-64.78515035 19.11494089 -66.32030715 19.10582027 -67.85546875 19.09765625 C-71.57044927 19.07589619 -75.28518161 19.04153134 -79 19 C-79 17.68 -79 16.36 -79 15 C-78.05793701 14.98018066 -77.11587402 14.96036133 -76.14526367 14.93994141 C-72.59832275 14.86112534 -69.05174685 14.77441471 -65.50512695 14.68261719 C-63.97981 14.64469716 -62.4544148 14.60978517 -60.92895508 14.578125 C-41.91398034 14.1787294 -24.9107666 10.6897057 -8.13989258 1.50341797 C-3.29930372 -1.09976791 -3.29930372 -1.09976791 0 0 Z " fill="#28B5CC" transform="translate(282,226)"/>
<path d="M0 0 C2.47532211 2.47532211 2.38704795 3.63931683 2.6875 7.0625 C2.77386719 7.96097656 2.86023438 8.85945312 2.94921875 9.78515625 C2.96597656 10.51605469 2.98273438 11.24695313 3 12 C2 13 2 13 -0.50024414 13.11352539 C-1.58426514 13.10828857 -2.66828613 13.10305176 -3.78515625 13.09765625 C-4.95498047 13.09443359 -6.12480469 13.09121094 -7.33007812 13.08789062 C-8.56177734 13.07951172 -9.79347656 13.07113281 -11.0625 13.0625 C-12.91584961 13.05573242 -12.91584961 13.05573242 -14.80664062 13.04882812 C-17.87114117 13.03699608 -20.93554721 13.02051173 -24 13 C-23.34 14.98 -22.68 16.96 -22 19 C-20.58566794 19.2236337 -19.16832382 19.42826476 -17.75 19.625 C-16.96109375 19.74101562 -16.1721875 19.85703125 -15.359375 19.9765625 C-12.6393221 20.00358289 -11.26514161 19.47334432 -9 18 C-8.67 17.34 -8.34 16.68 -8 16 C-4.7 16 -1.4 16 2 16 C0.97934638 20.38881055 -0.43946038 23.20959659 -4.109375 25.953125 C-9.68824517 29.04225146 -15.25219592 29.51786979 -21.375 27.9375 C-25.48641033 26.50238508 -27.72472419 24.82660023 -30 21 C-29.67 20.34 -29.34 19.68 -29 19 C-28.34 19 -27.68 19 -27 19 C-26.34 16.36 -25.68 13.72 -25 11 C-16.42 11 -7.84 11 1 11 C0.67 7.37 0.34 3.74 0 0 Z " fill="#F8F8F8" transform="translate(320,145)"/>
<path d="M0 0 C3.32288207 2.13005261 3.88415215 3.5531583 4.875 7.375 C5.00852367 11.24718634 4.73038605 13.53922791 3 17 C0.06635008 19.51455708 -1.69824622 19.97353037 -5.5625 20.3125 C-10.76 19.84 -10.76 19.84 -13 18 C-15.30647799 14.07898742 -16.10193404 11.85915831 -15.5625 7.3125 C-12.25904668 0.30917896 -7.14399136 -0.92180534 0 0 Z " fill="#06C4F4" transform="translate(362,154)"/>
<path d="M0 0 C2.41854446 -0.13536629 4.82949783 -0.23420279 7.25 -0.3125 C8.27287109 -0.3753418 8.27287109 -0.3753418 9.31640625 -0.43945312 C13.06928501 -0.53054242 14.64270769 -0.33481747 17.421875 2.26953125 C19.76665893 6.32647177 20.12469135 9.55308777 20.09765625 14.203125 C20.09443359 15.1828125 20.09121094 16.1625 20.08789062 17.171875 C20.07951172 18.18765625 20.07113281 19.2034375 20.0625 20.25 C20.05798828 21.28125 20.05347656 22.3125 20.04882812 23.375 C20.03706088 25.91672573 20.02062011 28.45833319 20 31 C13.375 32.25 13.375 32.25 10 30 C9.69116211 27.69335938 9.69116211 27.69335938 9.77734375 24.84375 C9.79603516 23.82152344 9.81472656 22.79929688 9.83398438 21.74609375 C9.88522461 20.13927734 9.88522461 20.13927734 9.9375 18.5 C9.99729202 16.38565227 10.04850802 14.27103906 10.08984375 12.15625 C10.11941162 11.21587891 10.14897949 10.27550781 10.17944336 9.30664062 C10.23609946 6.80267704 10.23609946 6.80267704 8 5 C5.55987051 4.75712511 5.55987051 4.75712511 2.875 4.875 C1.96492187 4.89304688 1.05484375 4.91109375 0.1171875 4.9296875 C-0.58148438 4.95289063 -1.28015625 4.97609375 -2 5 C-1.34 3.35 -0.68 1.7 0 0 Z " fill="#09C3E9" transform="translate(158,181)"/>
<path d="M0 0 C2.64 0 5.28 0 8 0 C8 12.21 8 24.42 8 37 C5.36 37 2.72 37 0 37 C-1.76072584 35.23927416 -1.12834784 32.9210371 -1.13894653 30.5760498 C-1.1369223 29.81876587 -1.13489807 29.06148193 -1.1328125 28.28125 C-1.13376923 27.50817505 -1.13472595 26.7351001 -1.13571167 25.93859863 C-1.13639341 24.30102456 -1.13453957 22.66344781 -1.13037109 21.02587891 C-1.12502271 18.51068079 -1.13031626 15.99566127 -1.13671875 13.48046875 C-1.13605797 11.89322877 -1.1347768 10.3059889 -1.1328125 8.71875 C-1.13483673 7.96146606 -1.13686096 7.20418213 -1.13894653 6.4239502 C-1.11495132 1.11495132 -1.11495132 1.11495132 0 0 Z " fill="#FBFAFB" transform="translate(243,136)"/>
<path d="M0 0 C1.2065625 0.0309375 1.2065625 0.0309375 2.4375 0.0625 C2.4375 1.3825 2.4375 2.7025 2.4375 4.0625 C3.4275 4.0625 4.4175 4.0625 5.4375 4.0625 C4.86165568 6.44814077 4.21522405 8.72932784 3.4375 11.0625 C3.39087573 13.04111741 3.39985323 15.02119142 3.4375 17 C3.51619066 26.37402442 2.9646238 35.70605251 2.4375 45.0625 C0.7875 45.7225 -0.8625 46.3825 -2.5625 47.0625 C-3.7235884 44.74032321 -3.68923847 43.39688469 -3.69189453 40.81225586 C-3.69504669 39.93472153 -3.69819885 39.05718719 -3.70144653 38.15306091 C-3.6994223 37.20407425 -3.69739807 36.25508759 -3.6953125 35.27734375 C-3.69626923 34.30591934 -3.69722595 33.33449493 -3.69821167 32.33363342 C-3.69889283 30.27832983 -3.69704299 28.22302408 -3.69287109 26.16772461 C-3.6875162 23.00955411 -3.69282122 19.85152546 -3.69921875 16.69335938 C-3.69855807 14.70052052 -3.69727712 12.70768175 -3.6953125 10.71484375 C-3.69733673 9.76383286 -3.69936096 8.81282196 -3.70144653 7.83299255 C-3.69829437 6.95861038 -3.69514221 6.08422821 -3.69189453 5.18334961 C-3.69109894 4.40994736 -3.69030334 3.6365451 -3.68948364 2.83970642 C-3.48263696 -0.05522745 -2.90830758 0.07093433 0 0 Z " fill="#04C6F9" transform="translate(184.5625,180.9375)"/>
<path d="M0 0 C0 0.66 0 1.32 0 2 C1.4540625 2.4021875 1.4540625 2.4021875 2.9375 2.8125 C3.948125 3.204375 4.95875 3.59625 6 4 C6.33 4.99 6.66 5.98 7 7 C7.66 7.33 8.32 7.66 9 8 C8.67 8.66 8.34 9.32 8 10 C8.66 10 9.32 10 10 10 C10.08710289 13.10398978 10.14042309 16.20766548 10.1875 19.3125 C10.21263672 20.19357422 10.23777344 21.07464844 10.26367188 21.98242188 C10.27333984 22.82998047 10.28300781 23.67753906 10.29296875 24.55078125 C10.3086792 25.33106689 10.32438965 26.11135254 10.34057617 26.9152832 C9.91847304 29.49903853 8.98510058 30.36292167 7 32 C4.69 31.34 2.38 30.68 0 30 C0 23.73 0 17.46 0 11 C0.66 11 1.32 11 2 11 C1.34 10.05125 0.68 9.1025 0 8.125 C-2 5 -2 5 -2 3 C-4.31 3 -6.62 3 -9 3 C-6.38997624 -0.48003168 -4.1689578 -0.27793052 0 0 Z " fill="#07BDE9" transform="translate(146,181)"/>
<path d="M0 0 C3.64637455 1.33358456 6.66829383 2.96471843 9.87109375 5.15234375 C11.22750977 6.06983398 11.22750977 6.06983398 12.61132812 7.00585938 C13.54396484 7.64330078 14.47660156 8.28074219 15.4375 8.9375 C23.44386373 14.43551518 23.44386373 14.43551518 32 19 C33.24695672 19.62984645 34.49158854 20.26430815 35.734375 20.90234375 C37.07249125 21.58156792 38.4110463 22.25992819 39.75 22.9375 C40.44939697 23.29158936 41.14879395 23.64567871 41.86938477 24.01049805 C46.57309337 26.36316529 51.29512414 28.40818105 56.27734375 30.11328125 C58 31 58 31 59 34 C53.40118191 33.49944342 48.75788902 32.41512913 43.625 30.0625 C42.9429248 29.75530029 42.26084961 29.44810059 41.55810547 29.1315918 C26.48536322 22.19033235 12.63503379 13.40666318 -1 4 C-0.67 2.68 -0.34 1.36 0 0 Z " fill="#28B6D0" transform="translate(104,238)"/>
<path d="M0 0 C0.77085937 0.0721875 1.54171875 0.144375 2.3359375 0.21875 C3.33882812 0.3115625 4.34171875 0.404375 5.375 0.5 C6.87160156 0.63921875 6.87160156 0.63921875 8.3984375 0.78125 C10.89703736 1.02792947 10.89703736 1.02792947 13 1 C13.99 1 14.98 1 16 1 C19.63687879 9.81077184 19.53405318 18.63352892 19 28 C18.67 28.66 18.34 29.32 18 30 C15.69 30 13.38 30 11 30 C10.63720544 28.71073008 10.28503302 27.41846728 9.9375 26.125 C9.74027344 25.40570313 9.54304687 24.68640625 9.33984375 23.9453125 C9 22 9 22 10 20 C10.62343986 14.96794972 10.82262012 11.22146624 7.9375 6.9375 C4.53779902 4.69514404 2.0330768 4.23723981 -2 4 C-1.34 2.68 -0.68 1.36 0 0 Z " fill="#04C7F5" transform="translate(229,181)"/>
<path d="M0 0 C3.46516908 0.95845102 3.93688309 0.45799959 6.9375 -1.1875 C9.6875 -0.8125 9.6875 -0.8125 11.9375 -0.1875 C11.9375 3.1125 11.9375 6.4125 11.9375 9.8125 C11.6075 9.8125 11.2775 9.8125 10.9375 9.8125 C10.6075 7.1725 10.2775 4.5325 9.9375 1.8125 C8.2875 2.4725 6.6375 3.1325 4.9375 3.8125 C4.6075 3.4825 4.2775 3.1525 3.9375 2.8125 C3.195 2.8125 2.4525 2.8125 1.6875 2.8125 C-1.04142751 2.8125 -3.40993233 2.41880118 -6.0625 1.8125 C-7.0525 3.2975 -7.0525 3.2975 -8.0625 4.8125 C-7.010625 4.73 -5.95875 4.6475 -4.875 4.5625 C-0.49362175 4.84980349 0.88595581 5.76095581 3.9375 8.8125 C5.17439062 11.28628124 5.07060087 12.99165317 5.0625 15.75 C5.06636719 17.06291016 5.06636719 17.06291016 5.0703125 18.40234375 C4.9375 20.8125 4.9375 20.8125 3.9375 23.8125 C4.21519908 26.1531065 4.54289977 28.48874308 4.9375 30.8125 C7.2475 30.8125 9.5575 30.8125 11.9375 30.8125 C11.9375 31.1425 11.9375 31.4725 11.9375 31.8125 C5.3125 33.0625 5.3125 33.0625 1.9375 30.8125 C0.25860979 31.44775576 -1.40666775 32.11936092 -3.0625 32.8125 C-6.375 32.9375 -6.375 32.9375 -9.0625 32.8125 C-9.0625 32.4825 -9.0625 32.1525 -9.0625 31.8125 C-5.4325 30.8225 -1.8025 29.8325 1.9375 28.8125 C1.9375 27.8225 1.9375 26.8325 1.9375 25.8125 C-4.4975 26.3075 -4.4975 26.3075 -11.0625 26.8125 C-14.44745108 21.36714391 -14.73623505 16.13528971 -15.0625 9.8125 C-14.0725 9.8125 -13.0825 9.8125 -12.0625 9.8125 C-12.124375 9.049375 -12.18625 8.28625 -12.25 7.5 C-12.0625 4.8125 -12.0625 4.8125 -10.5625 3 C-10.0675 2.608125 -9.5725 2.21625 -9.0625 1.8125 C-12.74739299 2.71325162 -14.60644647 3.18346065 -16.875 6.3125 C-17.266875 7.1375 -17.65875 7.9625 -18.0625 8.8125 C-18.3925 9.4725 -18.7225 10.1325 -19.0625 10.8125 C-19.7225 10.8125 -20.3825 10.8125 -21.0625 10.8125 C-19.78722262 5.32880725 -17.62676545 3.03433444 -13.0625 -0.1875 C-8.0934685 -2.85380958 -5.10199401 -1.97832421 0 0 Z M-12.0625 9.8125 C-13.27836509 14.19468043 -13.58937959 17.60820379 -11.75 21.8125 C-9.36751856 24.63618171 -8.43002004 24.77847037 -4.6875 25.125 C-1.13672852 25.06036874 -1.13672852 25.06036874 1.375 23.5 C3.84420232 19.25297202 3.74983202 14.60599076 2.9375 9.8125 C1.76089055 7.92199347 1.76089055 7.92199347 -0.0625 6.8125 C-6.86853705 6.05195332 -6.86853705 6.05195332 -12.0625 9.8125 Z " fill="#1EB1D1" transform="translate(235.0625,180.1875)"/>
<path d="M0 0 C0.33 0 0.66 0 1 0 C0.95359375 1.00160156 0.9071875 2.00320312 0.859375 3.03515625 C0.40011894 13.21219748 0.40011894 13.21219748 5 22 C5.99 22.33 6.98 22.66 8 23 C8 22.01 8 21.02 8 20 C7.34 19.67 6.68 19.34 6 19 C6 15.04 6 11.08 6 7 C6.66 7 7.32 7 8 7 C8.13277344 7.71027344 8.26554687 8.42054688 8.40234375 9.15234375 C8.57894531 10.07144531 8.75554687 10.99054688 8.9375 11.9375 C9.11152344 12.85402344 9.28554688 13.77054688 9.46484375 14.71484375 C9.77714988 16.95289844 9.77714988 16.95289844 11 18 C14.41624258 18.33354403 14.41624258 18.33354403 18 18 C18.47308594 17.50371094 18.94617188 17.00742188 19.43359375 16.49609375 C21 15 21 15 23.26171875 14.70703125 C24.06222656 14.74183594 24.86273438 14.77664062 25.6875 14.8125 C26.89986328 14.85310547 26.89986328 14.85310547 28.13671875 14.89453125 C28.75160156 14.92933594 29.36648438 14.96414062 30 15 C30 19.08102414 28.35989092 20.46920189 25.70703125 23.4140625 C22.36548792 26.51856271 19.02065379 26.88659402 14.625 27.375 C8.87661819 26.78033981 3.80574871 24.44377128 0 20 C-1.16698437 16.49904689 -1.13268287 13.6877768 -1.125 10 C-1.12886719 8.14375 -1.12886719 8.14375 -1.1328125 6.25 C-1 3 -1 3 0 0 Z " fill="#0DBBE8" transform="translate(250,186)"/>
<path d="M0 0 C10.55817929 -0.85916468 10.55817929 -0.85916468 15.125 2.125 C17.39193225 4.0564912 17.96731909 4.90195728 18.9375 7.8125 C18.958125 8.864375 18.97875 9.91625 19 11 C19.12375 12.9490625 19.12375 12.9490625 19.25 14.9375 C19.18691787 20.42564521 17.02550967 24.46173549 14 29 C10.47005387 30.17664871 7.70544587 30.19850603 4 30 C3.01 29.34 2.02 28.68 1 28 C1.33 27.34 1.66 26.68 2 26 C3.99609375 25.578125 3.99609375 25.578125 6.4375 25.25 C8.86665842 24.80155407 8.86665842 24.80155407 11 24 C13.75551943 19.48094814 13.20633674 14.15841854 13 9 C11.02 8.34 9.04 7.68 7 7 C7 6.01 7 5.02 7 4 C4.36 4 1.72 4 -1 4 C-0.67 2.68 -0.34 1.36 0 0 Z " fill="#05C7F6" transform="translate(193,181)"/>
<path d="M0 0 C2.41149535 7.64533339 -0.4712216 15.34369107 -3.90649414 22.21582031 C-4.62013128 23.58414265 -5.34415132 24.94711409 -6.07983398 26.30371094 C-9.36671642 32.38762975 -11.34282548 37.9720776 -11 45 C-11.66 45 -12.32 45 -13 45 C-13.39590347 37.60980189 -12.12767046 32.1915057 -8 26 C-8.66 26 -9.32 26 -10 26 C-10 26.66 -10 27.32 -10 28 C-10.66 28 -11.32 28 -12 28 C-12.09152344 28.71542969 -12.18304688 29.43085938 -12.27734375 30.16796875 C-13.12834214 33.50296243 -14.53328727 35.54539173 -16.5625 38.3125 C-17.20316406 39.19550781 -17.84382813 40.07851562 -18.50390625 40.98828125 C-18.99761719 41.65214844 -19.49132812 42.31601563 -20 43 C-18.68 43 -17.36 43 -16 43 C-16 45.31 -16 47.62 -16 50 C-16.66 50 -17.32 50 -18 50 C-18 48.35 -18 46.7 -18 45 C-18.33 45.66 -18.66 46.32 -19 47 C-19.99 47 -20.98 47 -22 47 C-22.69140625 44.7578125 -22.69140625 44.7578125 -23 42 C-21.77734375 39.9296875 -21.77734375 39.9296875 -19.9375 37.875 C-12.86729549 29.54557007 -12.86729549 29.54557007 -10.02734375 19.421875 C-9.99224231 16.31289027 -8.90826413 15.39450451 -7 13 C-5.9024739 10.18355435 -4.98806655 7.33790687 -4.0625 4.4609375 C-3 2 -3 2 0 0 Z " fill="#13BBDA" transform="translate(376,154)"/>
<path d="M0 0 C0.66 0 1.32 0 2 0 C1.41636702 3.62338806 -0.01173217 5.41616598 -2.5 8.0625 C-4.78827462 10.5055145 -5.92683757 11.78051271 -7 15 C-7.66 15 -8.32 15 -9 15 C-9 15.99 -9 16.98 -9 18 C-9.66 18.33 -10.32 18.66 -11 19 C-11.33 19.99 -11.66 20.98 -12 22 C-12.66 22 -13.32 22 -14 22 C-14.2475 22.721875 -14.495 23.44375 -14.75 24.1875 C-16.13141128 27.29567538 -17.66853254 29.52723148 -20 32 C-20.99 32 -21.98 32 -23 32 C-23.66 33.32 -24.32 34.64 -25 36 C-25 35.34 -25 34.68 -25 34 C-25.66 33.67 -26.32 33.34 -27 33 C-26 31 -26 31 -25 29 C-24.62875 28.113125 -24.2575 27.22625 -23.875 26.3125 C-21.69754578 22.46566421 -19.04092899 19.5503296 -16.0546875 16.3125 C-14.14507676 14.16328031 -12.47464887 11.96751032 -10.8125 9.625 C-8.54276265 6.51027891 -6.46764234 4.7806812 -3 3 C-2.443125 2.443125 -1.88625 1.88625 -1.3125 1.3125 C-0.879375 0.879375 -0.44625 0.44625 0 0 Z " fill="#1BB4D6" transform="translate(353,142)"/>
<path d="M0 0 C6 0 6 0 8 1 C7.67 9.91 7.34 18.82 7 28 C4.69 28 2.38 28 0 28 C0 18.76 0 9.52 0 0 Z " fill="#06C5F4" transform="translate(126,183)"/>
<path d="M0 0 C0.99 0.33 1.98 0.66 3 1 C3.33 2.65 3.66 4.3 4 6 C6.31 6 8.62 6 11 6 C11 7.32 11 8.64 11 10 C8.69 10 6.38 10 4 10 C3.67 15.94 3.34 21.88 3 28 C2.01 27.67 1.02 27.34 0 27 C-0.625 25.1875 -0.625 25.1875 -1 23 C-1.17144531 22.39285156 -1.34289062 21.78570312 -1.51953125 21.16015625 C-2.04694286 18.78894795 -2.09817566 16.67594468 -2.0625 14.25 C-2.05347656 13.45078125 -2.04445313 12.6515625 -2.03515625 11.828125 C-2.02355469 11.22484375 -2.01195312 10.6215625 -2 10 C-3.32 10 -4.64 10 -6 10 C-6.125 7.625 -6.125 7.625 -6 5 C-5.34 4.34 -4.68 3.68 -4 3 C-3.01 3 -2.02 3 -1 3 C-0.67 2.01 -0.34 1.02 0 0 Z " fill="#05C7F7" transform="translate(286,175)"/>
<path d="M0 0 C0.12375 0.639375 0.2475 1.27875 0.375 1.9375 C0.58125 2.618125 0.7875 3.29875 1 4 C1.66 4.33 2.32 4.66 3 5 C-1.71474019 10.68186638 -1.71474019 10.68186638 -5.3671875 11.5859375 C-6.95614872 11.73315755 -8.54975085 11.83843345 -10.14453125 11.89453125 C-12.01630033 11.79435415 -12.01630033 11.79435415 -13 13 C-12.01 13 -11.02 13 -10 13 C-10 15.31 -10 17.62 -10 20 C-11.051875 18.9171875 -11.051875 18.9171875 -12.125 17.8125 C-14.92770745 15.00176187 -17.92262792 12.50483774 -21 10 C-20.67 9.34 -20.34 8.68 -20 8 C-19.01 8.33 -18.02 8.66 -17 9 C-16.67 8.34 -16.34 7.68 -16 7 C-15.01 7.66 -14.02 8.32 -13 9 C-13 8.34 -13 7.68 -13 7 C-13.66 7 -14.32 7 -15 7 C-15.33 5.35 -15.66 3.7 -16 2 C-15.26394531 2.19078125 -14.52789062 2.3815625 -13.76953125 2.578125 C-7.57884996 4.19427393 -7.57884996 4.19427393 -1.8125 2.125 C-0.9153125 1.073125 -0.9153125 1.073125 0 0 Z " fill="#08C6EA" transform="translate(353,197)"/>
<path d="M0 0 C5.00083817 0.50008382 9.92386774 1.13387504 14.875 2 C20.56624373 2.98023992 26.24331404 3.56938176 32 4 C32 4.33 32 4.66 32 5 C25.565 5.495 25.565 5.495 19 6 C35.38009639 7.54165613 51.60726693 7.17540724 68 6 C68 6.33 68 6.66 68 7 C58.85281234 8.65826767 49.97967851 9.38598294 40.6875 9.375 C39.39674561 9.37483887 38.10599121 9.37467773 36.77612305 9.37451172 C7.04080078 9.02720052 7.04080078 9.02720052 -2 3 C-0.35 3 1.3 3 3 3 C3 2.34 3 1.68 3 1 C2.01 0.67 1.02 0.34 0 0 Z " fill="#2CBCDB" transform="translate(168,254)"/>
<path d="M0 0 C2.64 0 5.28 0 8 0 C9.06378669 4.31772244 9.1294216 8.50742256 9.09765625 12.92578125 C9.0962413 13.67337204 9.09482635 14.42096283 9.09336853 15.19120789 C9.08779764 17.56501365 9.0752506 19.93872303 9.0625 22.3125 C9.05748123 23.92773301 9.05291899 25.5429675 9.04882812 27.15820312 C9.03783775 31.10550555 9.02059332 35.05273647 9 39 C2.25 40 2.25 40 0 40 C-1.65497356 36.69005287 -1.10084335 33.00877 -1.0625 29.375 C-1.05798828 28.57320312 -1.05347656 27.77140625 -1.04882812 26.9453125 C-1.03703168 24.96350994 -1.01909605 22.98174567 -1 21 C-0.34 21 0.32 21 1 21 C1 26.61 1 32.22 1 38 C2.98 37.505 2.98 37.505 5 37 C5.33 25.45 5.66 13.9 6 2 C4.02 2 2.04 2 0 2 C0 1.34 0 0.68 0 0 Z " fill="#3BAECB" transform="translate(113,173)"/>
<path d="M0 0 C1.32 0 2.64 0 4 0 C4 0.66 4 1.32 4 2 C3.01 2 2.02 2 1 2 C1 3.65 1 5.3 1 7 C2.32 7 3.64 7 5 7 C5.01458252 7.64026123 5.02916504 8.28052246 5.04418945 8.94018555 C5.11891382 11.85654831 5.21549293 14.77179687 5.3125 17.6875 C5.33505859 18.69490234 5.35761719 19.70230469 5.38085938 20.74023438 C5.45780601 27.96928504 5.45780601 27.96928504 9 34 C11.48513583 34.81406498 11.48513583 34.81406498 14.1875 34.8125 C15.08855469 34.86019531 15.98960937 34.90789062 16.91796875 34.95703125 C17.60503906 34.97121094 18.29210937 34.98539063 19 35 C19 33.68 19 32.36 19 31 C17.865625 30.87625 16.73125 30.7525 15.5625 30.625 C14.386875 30.41875 13.21125 30.2125 12 30 C10.7736243 27.54724859 10.88584686 25.9494219 10.90234375 23.2109375 C10.90556641 22.26992187 10.90878906 21.32890625 10.91210938 20.359375 C10.92048828 19.37453125 10.92886719 18.3896875 10.9375 17.375 C10.94201172 16.38242188 10.94652344 15.38984375 10.95117188 14.3671875 C10.96297855 11.9113984 10.979446 9.45572896 11 7 C13.97 7 16.94 7 20 7 C20 5.02 20 3.04 20 1 C19.01 0.67 18.02 0.34 17 0 C18.32 0 19.64 0 21 0 C21 2.64 21 5.28 21 8 C18.36 8 15.72 8 13 8 C13 14.93 13 21.86 13 29 C15.64 29 18.28 29 21 29 C21 31.64 21 34.28 21 37 C11.0459588 37.62757528 11.0459588 37.62757528 6.875 35.125 C3.98789491 31.85294756 3.87881588 30.05550935 3.90234375 25.7734375 C3.90556641 24.7421875 3.90878906 23.7109375 3.91210938 22.6484375 C3.92048828 21.56820312 3.92886719 20.48796875 3.9375 19.375 C3.94201172 18.28703125 3.94652344 17.1990625 3.95117188 16.078125 C3.96298224 13.38536211 3.97945222 10.69270812 4 8 C2.68 8 1.36 8 0 8 C0 5.36 0 2.72 0 0 Z " fill="#E7E6E7" transform="translate(219,136)"/>
<path d="M0 0 C0.33 0 0.66 0 1 0 C0.85831863 1.43791516 0.71148957 2.8753237 0.5625 4.3125 C0.48128906 5.11300781 0.40007812 5.91351563 0.31640625 6.73828125 C0 9 0 9 -1 12 C-0.34 12.33 0.32 12.66 1 13 C0.01 13.33 -0.98 13.66 -2 14 C-1.67 15.65 -1.34 17.3 -1 19 C-0.43410156 19.12117188 0.13179688 19.24234375 0.71484375 19.3671875 C1.44832031 19.53476563 2.18179687 19.70234375 2.9375 19.875 C4.03384766 20.11863281 4.03384766 20.11863281 5.15234375 20.3671875 C7 21 7 21 8 23 C4.2367429 23.99033082 1.45976465 23.98031374 -2.25 23.0625 C-10.02735859 21.27969011 -18.0723374 21.84455564 -26 22 C-26 19.69 -26 17.38 -26 15 C-25.01 15 -24.02 15 -23 15 C-23 15.99 -23 16.98 -23 18 C-18.05 18 -13.1 18 -8 18 C-7.67 17.34 -7.34 16.68 -7 16 C-6.34 16 -5.68 16 -5 16 C-3.35 10.72 -1.7 5.44 0 0 Z " fill="#0FC2E6" transform="translate(327,181)"/>
<path d="M0 0 C0.495 0.99 0.495 0.99 1 2 C3.64 1.67 6.28 1.34 9 1 C9 1.66 9 2.32 9 3 C-8.79862324 6.9766989 -26.91673862 6.6519782 -45 5 C-44.67 4.34 -44.34 3.68 -44 3 C-37.11964794 1.93218548 -30.07313826 1.95855777 -23.125 2.0625 C-15.3050413 2.14247685 -7.7206864 1.12300893 0 0 Z " fill="#1BBED9" transform="translate(231,256)"/>
<path d="M0 0 C2.33294775 -0.04241723 4.66702567 -0.04092937 7 0 C8 1 8 1 8.0625 4.5625 C8.041875 5.696875 8.02125 6.83125 8 8 C8.969375 7.814375 9.93875 7.62875 10.9375 7.4375 C12.4534375 7.2209375 12.4534375 7.2209375 14 7 C15 8 15 8 15.0625 11.5625 C15.041875 12.696875 15.02125 13.83125 15 15 C13.02 15.33 11.04 15.66 9 16 C9 21.28 9 26.56 9 32 C11.31 32.66 13.62 33.32 16 34 C15.67 35.98 15.34 37.96 15 40 C11.37 40 7.74 40 4 40 C4 39.67 4 39.34 4 39 C7.3 39 10.6 39 14 39 C14 37.68 14 36.36 14 35 C12.576875 35.0928125 12.576875 35.0928125 11.125 35.1875 C10.09375 35.125625 9.0625 35.06375 8 35 C5.42055807 31.1308371 5.74191063 27.9143521 5.8125 23.4375 C5.81314453 22.65697266 5.81378906 21.87644531 5.81445312 21.07226562 C5.85942293 15.28115414 5.85942293 15.28115414 7 13 C9.31 13 11.62 13 14 13 C14 11.68 14 10.36 14 9 C11.69 9 9.38 9 7 9 C6.34 7.35 5.68 5.7 5 4 C4.34 4 3.68 4 3 4 C2.67 4.66 2.34 5.32 2 6 C1.34 6 0.68 6 0 6 C0 4.02 0 2.04 0 0 Z " fill="#27ABCA" transform="translate(283,172)"/>
<path d="M0 0 C0.99 0 1.98 0 3 0 C1.50092804 9.65578706 -10.08983244 16.70499415 -17.47265625 22.1640625 C-18.30667969 22.76992187 -19.14070313 23.37578125 -20 24 C-20.33 23.01 -20.66 22.02 -21 21 C-22.32 21.33 -23.64 21.66 -25 22 C-21.95977116 18.78521257 -18.70372797 16.22026074 -15.125 13.625 C-11.64979511 11.06097688 -8.36692973 8.55532776 -5.375 5.4375 C-4.59125 4.633125 -3.8075 3.82875 -3 3 C-2.34 3 -1.68 3 -1 3 C-0.67 2.01 -0.34 1.02 0 0 Z " fill="#24B5CC" transform="translate(324,210)"/>
<path d="M0 0 C2.64 0 5.28 0 8 0 C8 12.21 8 24.42 8 37 C5.03 37 2.06 37 -1 37 C-1.33 36.01 -1.66 35.02 -2 34 C-2.61875 34.495 -3.2375 34.99 -3.875 35.5 C-8.27811318 37.61349432 -12.19229291 37.59808796 -17 37 C-20.625 35.5 -20.625 35.5 -23 34 C-22.01 33.505 -22.01 33.505 -21 33 C-20.175 33.33 -19.35 33.66 -18.5 34 C-13.87561043 35.32125416 -9.6699192 35.14821446 -5 34 C-3.64197105 33.03380377 -2.30390124 32.03808446 -1 31 C-0.34 31 0.32 31 1 31 C1 32.32 1 33.64 1 35 C2.65 35 4.3 35 6 35 C5.67 24.11 5.34 13.22 5 2 C2.525 1.505 2.525 1.505 0 1 C0 0.67 0 0.34 0 0 Z " fill="#E4E3E4" transform="translate(209,136)"/>
<path d="M0 0 C3.67927284 1.34698802 4.20576289 1.41903413 8.125 0 C9.23875 -0.556875 10.3525 -1.11375 11.5 -1.6875 C15.96348506 -2.05945709 17.74171538 -2.19302308 21.5 0.3125 C17.54 0.3125 13.58 0.3125 9.5 0.3125 C8.84 1.9625 8.18 3.6125 7.5 5.3125 C8.16 4.9825 8.82 4.6525 9.5 4.3125 C16.89968781 3.84267855 16.89968781 3.84267855 19.10498047 5.56860352 C20.83962076 7.73705567 20.85139606 8.79688496 20.79296875 11.54296875 C20.7784668 12.74663086 20.7784668 12.74663086 20.76367188 13.97460938 C20.73853516 14.80798828 20.71339844 15.64136719 20.6875 16.5 C20.66719727 17.7674707 20.66719727 17.7674707 20.64648438 19.06054688 C20.61115799 21.14480384 20.55735139 23.22873277 20.5 25.3125 C20.17 25.3125 19.84 25.3125 19.5 25.3125 C19.17 19.7025 18.84 14.0925 18.5 8.3125 C13.55 7.3225 13.55 7.3225 8.5 6.3125 C8.17 7.6325 7.84 8.9525 7.5 10.3125 C6.84 10.3125 6.18 10.3125 5.5 10.3125 C5.2525 9.508125 5.005 8.70375 4.75 7.875 C3.77761141 5.141419 3.77761141 5.141419 1.375 4.5 C0.75625 4.438125 0.1375 4.37625 -0.5 4.3125 C-0.5 3.6525 -0.5 2.9925 -0.5 2.3125 C-1.16 2.3125 -1.82 2.3125 -2.5 2.3125 C-2.5 1.6525 -2.5 0.9925 -2.5 0.3125 C-7.28478822 0.21485126 -11.77685687 0.54137459 -16.5 1.3125 C-16.83 0.6525 -17.16 -0.0075 -17.5 -0.6875 C-11.20229192 -1.91632109 -6.02297043 -2.38260121 0 0 Z " fill="#24B3D0" transform="translate(148.5,180.6875)"/>
<path d="M0 0 C0 1.32 0 2.64 0 4 C-1.38598633 5.34033203 -1.38598633 5.34033203 -3.33203125 6.5078125 C-4.39949585 7.15097412 -4.39949585 7.15097412 -5.48852539 7.80712891 C-6.25543701 8.24202637 -7.02234863 8.67692383 -7.8125 9.125 C-8.58263428 9.57149902 -9.35276855 10.01799805 -10.14624023 10.47802734 C-15.92599774 13.69953152 -21.32061294 15.68262092 -28 16 C-28 15.34 -28 14.68 -28 14 C-27.01 14 -26.02 14 -25 14 C-25 13.01 -25 12.02 -25 11 C-22.48043257 9.72660518 -19.95941351 8.45623358 -17.4375 7.1875 C-16.73302734 6.83107422 -16.02855469 6.47464844 -15.30273438 6.10742188 C-3.14392202 0 -3.14392202 0 0 0 Z " fill="#13C1DC" transform="translate(303,231)"/>
<path d="M0 0 C1.2065625 0.0309375 1.2065625 0.0309375 2.4375 0.0625 C2.4375 1.3825 2.4375 2.7025 2.4375 4.0625 C3.4275 4.0625 4.4175 4.0625 5.4375 4.0625 C5.22287109 4.87460938 5.22287109 4.87460938 5.00390625 5.703125 C4.35829535 8.39242832 3.8611692 11.08995245 3.375 13.8125 C3.19839844 14.79734375 3.02179688 15.7821875 2.83984375 16.796875 C2.70707031 17.54453125 2.57429687 18.2921875 2.4375 19.0625 C2.1075 19.0625 1.7775 19.0625 1.4375 19.0625 C1.1075 17.4125 0.7775 15.7625 0.4375 14.0625 C-0.2225 14.0625 -0.8825 14.0625 -1.5625 14.0625 C-1.8925 24.2925 -2.2225 34.5225 -2.5625 45.0625 C-2.8925 45.0625 -3.2225 45.0625 -3.5625 45.0625 C-3.58777124 38.81454325 -3.60533344 32.56659959 -3.61743164 26.31860352 C-3.62247298 24.19131986 -3.62930591 22.06403969 -3.63793945 19.93676758 C-3.65001379 16.88622174 -3.65573014 13.83572155 -3.66015625 10.78515625 C-3.66531754 9.82787125 -3.67047882 8.87058624 -3.67579651 7.8842926 C-3.67587204 7.00345505 -3.67594757 6.12261749 -3.67602539 5.21508789 C-3.678246 4.43565323 -3.68046661 3.65621857 -3.68275452 2.85316467 C-3.48761734 -0.05254941 -2.91761094 0.07116124 0 0 Z " fill="#05BEEB" transform="translate(184.5625,180.9375)"/>
<path d="M0 0 C-0.33 0.99 -0.66 1.98 -1 3 C-1.66 3 -2.32 3 -3 3 C-3 4.65 -3 6.3 -3 8 C-3.99 8 -4.98 8 -6 8 C-5.67 8.99 -5.34 9.98 -5 11 C-4.88340402 12.49676706 -4.82501041 13.99875061 -4.8125 15.5 C-4.79832031 16.2734375 -4.78414062 17.046875 -4.76953125 17.84375 C-5 20 -5 20 -7 23 C-7.99 22.67 -8.98 22.34 -10 22 C-10.6953125 20.0390625 -10.6953125 20.0390625 -11.125 17.625 C-11.61930837 14.96267247 -12.13999007 12.5800298 -13 10 C-12.01 9.67 -11.02 9.34 -10 9 C-9.30741771 7.00882592 -8.64252365 5.0078864 -8 3 C-5.7079186 -0.274402 -3.8750181 -0.31419066 0 0 Z " fill="#05C8F6" transform="translate(226,182)"/>
<path d="M0 0 C3.46516908 0.95845102 3.93688309 0.45799959 6.9375 -1.1875 C9.6875 -0.8125 9.6875 -0.8125 11.9375 -0.1875 C11.9375 3.1125 11.9375 6.4125 11.9375 9.8125 C11.6075 9.8125 11.2775 9.8125 10.9375 9.8125 C10.6075 7.1725 10.2775 4.5325 9.9375 1.8125 C8.2875 2.4725 6.6375 3.1325 4.9375 3.8125 C4.6075 3.4825 4.2775 3.1525 3.9375 2.8125 C3.195 2.8125 2.4525 2.8125 1.6875 2.8125 C-1.04142751 2.8125 -3.40993233 2.41880118 -6.0625 1.8125 C-7.0525 3.2975 -7.0525 3.2975 -8.0625 4.8125 C-5.7525 4.8125 -3.4425 4.8125 -1.0625 4.8125 C-3.56498865 6.48082577 -5.47399187 7.43631674 -8.25 8.4375 C-8.96542969 8.69789063 -9.68085938 8.95828125 -10.41796875 9.2265625 C-10.96066406 9.41992188 -11.50335938 9.61328125 -12.0625 9.8125 C-12.43173077 5.25865385 -12.43173077 5.25865385 -10.5625 3 C-10.0675 2.608125 -9.5725 2.21625 -9.0625 1.8125 C-12.74739299 2.71325162 -14.60644647 3.18346065 -16.875 6.3125 C-17.266875 7.1375 -17.65875 7.9625 -18.0625 8.8125 C-18.3925 9.4725 -18.7225 10.1325 -19.0625 10.8125 C-19.7225 10.8125 -20.3825 10.8125 -21.0625 10.8125 C-19.78722262 5.32880725 -17.62676545 3.03433444 -13.0625 -0.1875 C-8.0934685 -2.85380958 -5.10199401 -1.97832421 0 0 Z " fill="#21BAD9" transform="translate(235.0625,180.1875)"/>
<path d="M0 0 C0.33 0.66 0.66 1.32 1 2 C1.66 2 2.32 2 3 2 C3.85373239 9.02804699 4.12109311 15.92278069 4 23 C2.02 23 0.04 23 -2 23 C-2 21.68 -2 20.36 -2 19 C-2.66 18.67 -3.32 18.34 -4 18 C-3.34 18 -2.68 18 -2 18 C-2.03480469 16.42798828 -2.03480469 16.42798828 -2.0703125 14.82421875 C-2.08907303 13.44531963 -2.10727293 12.0664128 -2.125 10.6875 C-2.14175781 9.99720703 -2.15851563 9.30691406 -2.17578125 8.59570312 C-2.21217794 4.82864604 -2.14378864 3.21568296 0 0 Z " fill="#04C8F8" transform="translate(172,188)"/>
<path d="M0 0 C5.75 0.875 5.75 0.875 8 2 C8.33 1.34 8.66 0.68 9 0 C10.32 0 11.64 0 13 0 C13 0.99 13 1.98 13 3 C12.01 3.33 11.02 3.66 10 4 C11.3921875 5.11375 11.3921875 5.11375 12.8125 6.25 C15.27126958 8.29025561 17.21647549 10.32471323 19 13 C19.33 11.02 19.66 9.04 20 7 C19.01 7 18.02 7 17 7 C17.33 6.34 17.66 5.68 18 5 C20.64 5 23.28 5 26 5 C24.02 7.97 24.02 7.97 22 11 C22.515625 11.928125 23.03125 12.85625 23.5625 13.8125 C25 17 25 17 24 20 C23.34 19.01 22.68 18.02 22 17 C22 19.64 22 22.28 22 25 C19.76159668 22.76159668 19.23968225 21.20506504 18.1875 18.25 C14.38301101 8.65607125 9.04709594 5.46809292 0 1 C0 0.67 0 0.34 0 0 Z " fill="#1DB7D4" transform="translate(323,203)"/>
<path d="M0 0 C3.28307078 0.64023602 5.61727399 1.84630771 8.4375 3.625 C14.48852092 7.35148822 20.722218 10.67415311 27 14 C27 14.99 27 15.98 27 17 C17.49315842 14.17550359 7.07936016 10.23755815 0 3 C0 2.01 0 1.02 0 0 Z " fill="#2EB1C3" transform="translate(134,226)"/>
<path d="M0 0 C1.65 1.65 3.3 3.3 5 5 C7.17764378 5.79142869 7.17764378 5.79142869 9.3125 5.8125 C10.529375 5.874375 11.74625 5.93625 13 6 C13 6.33 13 6.66 13 7 C11.35 7 9.7 7 8 7 C8 7.66 8 8.32 8 9 C10.52475462 10.26237731 12.31200466 10.09856404 15.125 10.0625 C16.03507812 10.05347656 16.94515625 10.04445312 17.8828125 10.03515625 C18.58148438 10.02355469 19.28015625 10.01195312 20 10 C16.90255097 13.09744903 13.26165593 12.96430774 9 13 C5.4375 12.0625 5.4375 12.0625 3 11 C2.31798844 16.37084106 1.88478735 21.58500559 2 27 C0.35 27 -1.3 27 -3 27 C-2.01 26.67 -1.02 26.34 0 26 C0 17.42 0 8.84 0 0 Z " fill="#12BCE6" transform="translate(187,200)"/>
<path d="M0 0 C1.21171875 0.00322266 2.4234375 0.00644531 3.671875 0.00976562 C4.94289062 0.01814453 6.21390625 0.02652344 7.5234375 0.03515625 C8.8021875 0.03966797 10.0809375 0.04417969 11.3984375 0.04882812 C14.56515042 0.06064422 17.73177106 0.0771181 20.8984375 0.09765625 C20.8984375 0.42765625 20.8984375 0.75765625 20.8984375 1.09765625 C24.1984375 1.42765625 27.4984375 1.75765625 30.8984375 2.09765625 C30.8984375 2.42765625 30.8984375 2.75765625 30.8984375 3.09765625 C22.86336015 4.21780424 14.93914673 4.2120743 6.8359375 4.16015625 C5.47981937 4.15512939 4.12369942 4.15056859 2.76757812 4.14648438 C-0.52218244 4.13477704 -3.81184844 4.11837836 -7.1015625 4.09765625 C-7.4315625 3.10765625 -7.7615625 2.11765625 -8.1015625 1.09765625 C-5.33538687 -0.28543156 -3.0913825 -0.01444571 0 0 Z " fill="#2BB6D0" transform="translate(203.1015625,273.90234375)"/>
<path d="M0 0 C0.33 -1.32 0.66 -2.64 1 -4 C1.33 -4 1.66 -4 2 -4 C2 -2.35 2 -0.7 2 1 C3.32 1 4.64 1 6 1 C6 3.31 6 5.62 6 8 C4 5 4 5 4 3 C3.34 3 2.68 3 2 3 C2.33 4.32 2.66 5.64 3 7 C-0.80573129 8.2685771 -3.10569048 7.88817586 -7 7 C-9.3125 5.0625 -9.3125 5.0625 -11 3 C-11.66 2.34 -12.32 1.68 -13 1 C-10.625 1.25 -10.625 1.25 -8 2 C-6.6875 4.0625 -6.6875 4.0625 -6 6 C-4.02 6 -2.04 6 0 6 C0 5.01 0 4.02 0 3 C-5.12793126 -2.01138736 -9.08212598 -2.54200389 -16.1328125 -2.46875 C-19.34612506 -1.9434128 -21.26456536 -0.70373092 -24 1 C-24.66 0.67 -25.32 0.34 -26 0 C-17.5373999 -7.28723898 -9.15295256 -6.10196837 0 0 Z " fill="#25AFC7" transform="translate(278,184)"/>
<path d="M0 0 C0.66 0 1.32 0 2 0 C1.566875 1.051875 1.566875 1.051875 1.125 2.125 C0.75375 3.07375 0.3825 4.0225 0 5 C-0.37125 5.886875 -0.7425 6.77375 -1.125 7.6875 C-2.30642014 12.16001911 -2.16356337 16.40205194 -2 21 C-2.66 21 -3.32 21 -4 21 C-4.33 23.31 -4.66 25.62 -5 28 C-5.66 28 -6.32 28 -7 28 C-7 27.01 -7 26.02 -7 25 C-7.66 24.67 -8.32 24.34 -9 24 C-8.01 24 -7.02 24 -6 24 C-6 21.69 -6 19.38 -6 17 C-7.32 17 -8.64 17 -10 17 C-8.29231921 13.44961249 -6.25801816 10.20601621 -4.12109375 6.90234375 C-2.84878807 4.89506996 -2.84878807 4.89506996 -2 2 C-1.34 2 -0.68 2 0 2 C0 1.34 0 0.68 0 0 Z " fill="#09C6EF" transform="translate(366,180)"/>
<path d="M0 0 C1.7325 0.1546875 1.7325 0.1546875 3.5 0.3125 C5.5 3.3125 5.5 3.3125 5.125 6.5 C4.91875 7.428125 4.7125 8.35625 4.5 9.3125 C-1.92548263 10.64609073 -1.92548263 10.64609073 -4.4375 9.1875 C-5.83812547 6.715808 -5.85877543 5.11094834 -5.5 2.3125 C-3.5 0.3125 -3.5 0.3125 0 0 Z " fill="#F8F8F8" transform="translate(246.5,122.6875)"/>
<path d="M0 0 C10.89 0 21.78 0 33 0 C33 0.33 33 0.66 33 1 C28.38 1.33 23.76 1.66 19 2 C25.93 2.495 25.93 2.495 33 3 C33 3.33 33 3.66 33 4 C22.11 4 11.22 4 0 4 C0 2.68 0 1.36 0 0 Z " fill="#3AAEC5" transform="translate(203,241)"/>
<path d="M0 0 C4.96289883 1.09721482 7.62452138 2.87452138 11.1875 6.4375 C8.69657189 7.68296405 7.77669267 7.2142578 5.1875 6.4375 C4.8575 7.4275 4.5275 8.4175 4.1875 9.4375 C0.8875 7.4575 -2.4125 5.4775 -5.8125 3.4375 C-5.4825 4.0975 -5.1525 4.7575 -4.8125 5.4375 C-3.8225 5.7675 -2.8325 6.0975 -1.8125 6.4375 C-1.8125 7.0975 -1.8125 7.7575 -1.8125 8.4375 C-6.6875 7.5625 -6.6875 7.5625 -7.8125 6.4375 C-8.0625 4 -8.0625 4 -7.8125 1.4375 C-4.37873279 -0.85167814 -3.86009585 -0.75304481 0 0 Z " fill="#10B6DC" transform="translate(332.8125,193.5625)"/>
<path d="M0 0 C4.09476568 -0.32115809 6.2960799 -0.47994552 9.75 1.875 C10.4925 2.57625 11.235 3.2775 12 4 C12.99 4.66 13.98 5.32 15 6 C14.67 6.99 14.34 7.98 14 9 C11.1875 9.25 11.1875 9.25 8 9 C6.375 7.0625 6.375 7.0625 5 5 C2.90584196 4.20376178 2.90584196 4.20376178 1 4 C0.67 4.66 0.34 5.32 0 6 C-1.2065625 6.4640625 -1.2065625 6.4640625 -2.4375 6.9375 C-5.29863959 7.84547289 -5.29863959 7.84547289 -7 11 C-6.67 9.35 -6.34 7.7 -6 6 C-5.01 5.67 -4.02 5.34 -3 5 C-3 4.34 -3 3.68 -3 3 C-2.01 3 -1.02 3 0 3 C0 2.01 0 1.02 0 0 Z " fill="#08C5F1" transform="translate(264,181)"/>
<path d="M0 0 C0.99 0.33 1.98 0.66 3 1 C1.65531683 4.23155681 0.53571115 5.61202129 -2.58984375 7.17578125 C-3.29173828 7.52833984 -3.99363281 7.88089844 -4.71679688 8.24414062 C-5.44962891 8.59669922 -6.18246094 8.94925781 -6.9375 9.3125 C-7.66646484 9.68439453 -8.39542969 10.05628906 -9.14648438 10.43945312 C-14.61164184 13.12945272 -14.61164184 13.12945272 -18 12 C-17.34 11.67 -16.68 11.34 -16 11 C-16.99 10.34 -17.98 9.68 -19 9 C-18.04738281 8.60167969 -17.09476562 8.20335937 -16.11328125 7.79296875 C-14.8462712 7.25800895 -13.57934874 6.72284168 -12.3125 6.1875 C-11.68666016 5.92646484 -11.06082031 5.66542969 -10.41601562 5.39648438 C-7.53538014 4.17485362 -4.87419306 2.9199733 -2.23046875 1.23828125 C-1.49441406 0.82964844 -0.75835937 0.42101562 0 0 Z " fill="#25B3C8" transform="translate(279,225)"/>
<path d="M0 0 C0 0.66 0 1.32 0 2 C-3.3 2.33 -6.6 2.66 -10 3 C-11.09813941 7.39255766 -11.29048588 10.49746886 -11 15 C-7.3558226 17.4294516 -5.28758728 17.16179575 -1 17 C-0.67 16.34 -0.34 15.68 0 15 C1.32 15.33 2.64 15.66 4 16 C1.07917433 18.8323158 -0.45425301 19.94255295 -4.5625 20.375 C-9.80492252 19.80309936 -9.80492252 19.80309936 -12 18 C-14.30647799 14.07898742 -15.10193404 11.85915831 -14.5625 7.3125 C-11.44239976 0.69788749 -6.99384017 -0.55950721 0 0 Z " fill="#1FB3CE" transform="translate(361,154)"/>
<path d="M0 0 C0.5259375 0.7425 0.5259375 0.7425 1.0625 1.5 C4.02552179 3.79395236 6.37042697 3.38888282 10 3 C10.47050781 2.50113281 10.94101562 2.00226563 11.42578125 1.48828125 C13 0 13 0 15.26171875 -0.29296875 C16.06222656 -0.25816406 16.86273438 -0.22335938 17.6875 -0.1875 C18.89986328 -0.14689453 18.89986328 -0.14689453 20.13671875 -0.10546875 C20.75160156 -0.07066406 21.36648438 -0.03585938 22 0 C22 4.08102414 20.35989092 5.46920189 17.70703125 8.4140625 C14.25599493 11.62028846 10.87132981 11.94092679 6.3125 12.25 C3 12 3 12 0 10 C0.88042969 9.97421875 1.76085937 9.9484375 2.66796875 9.921875 C4.41013672 9.83679688 4.41013672 9.83679688 6.1875 9.75 C7.33605469 9.70359375 8.48460937 9.6571875 9.66796875 9.609375 C13.53663712 8.90185769 15.2430917 7.76194836 18 5 C18.33 4.01 18.66 3.02 19 2 C15.20452079 2.96776098 15.20452079 2.96776098 12 5 C10.35769636 5.1245486 8.70947724 5.17568524 7.0625 5.1875 C6.16660156 5.20167969 5.27070313 5.21585938 4.34765625 5.23046875 C2 5 2 5 0 3 C0 2.01 0 1.02 0 0 Z " fill="#2DAEC8" transform="translate(258,201)"/>
<path d="M0 0 C0.33 0 0.66 0 1 0 C1.02505615 0.6705542 1.0501123 1.3411084 1.07592773 2.03198242 C1.19230801 5.0839959 1.31484348 8.13573258 1.4375 11.1875 C1.47681641 12.24259766 1.51613281 13.29769531 1.55664062 14.38476562 C1.61948242 15.91713867 1.61948242 15.91713867 1.68359375 17.48046875 C1.72025146 18.41785889 1.75690918 19.35524902 1.79467773 20.32104492 C1.99625599 22.95114982 2.42678321 25.42766414 3 28 C-3.75 29 -3.75 29 -6 29 C-7.65497356 25.69005287 -7.10084335 22.00877 -7.0625 18.375 C-7.05798828 17.57320312 -7.05347656 16.77140625 -7.04882812 15.9453125 C-7.03703168 13.96350994 -7.01909605 11.98174567 -7 10 C-6.34 10 -5.68 10 -5 10 C-5 15.61 -5 21.22 -5 27 C-3.68 26.67 -2.36 26.34 -1 26 C-0.67 17.42 -0.34 8.84 0 0 Z " fill="#11A7BF" transform="translate(119,184)"/>
<path d="M0 0 C0.99 0.33 1.98 0.66 3 1 C2.39009109 4.55780196 1.4216319 7.6828589 0 11 C-0.66 11 -1.32 11 -2 11 C-2.09152344 11.71542969 -2.18304688 12.43085938 -2.27734375 13.16796875 C-3.12834214 16.50296243 -4.53328727 18.54539173 -6.5625 21.3125 C-7.20316406 22.19550781 -7.84382813 23.07851562 -8.50390625 23.98828125 C-9.24447266 24.98408203 -9.24447266 24.98408203 -10 26 C-8.68 26 -7.36 26 -6 26 C-6 28.31 -6 30.62 -6 33 C-6.66 33 -7.32 33 -8 33 C-8 31.35 -8 29.7 -8 28 C-8.33 28.66 -8.66 29.32 -9 30 C-9.99 30 -10.98 30 -12 30 C-12.69140625 27.7578125 -12.69140625 27.7578125 -13 25 C-11.77734375 22.9296875 -11.77734375 22.9296875 -9.9375 20.875 C-4.97632322 14.91760299 0.59706103 8.09673009 0 0 Z " fill="#1EB7D1" transform="translate(366,171)"/>
<path d="M0 0 C0 0.66 0 1.32 0 2 C1.4540625 2.4021875 1.4540625 2.4021875 2.9375 2.8125 C3.948125 3.204375 4.95875 3.59625 6 4 C6.33 4.99 6.66 5.98 7 7 C7.66 7.33 8.32 7.66 9 8 C8.01 9.485 8.01 9.485 7 11 C1.5 9.53333333 1.5 9.53333333 -0.875 7 C-2 5 -2 5 -2 3 C-4.31 3 -6.62 3 -9 3 C-6.38997624 -0.48003168 -4.1689578 -0.27793052 0 0 Z " fill="#03C7FA" transform="translate(146,181)"/>
<path d="M0 0 C0.66 0.33 1.32 0.66 2 1 C1.505 1.70125 1.01 2.4025 0.5 3.125 C-1.23207859 6.44481731 -1.39312998 8.30457817 -1 12 C-0.33700439 14.16453511 -0.33700439 14.16453511 1 16 C3.96673567 17.09963948 6.85633153 17.21218366 10 17 C12.76922685 15.81426975 12.76922685 15.81426975 14 13 C14.52042965 8.75237565 14.3544973 5.0634919 13 1 C14.32 1.66 15.64 2.32 17 3 C17.34707004 8.78450072 17.27233705 12.96563531 14 18 C10.31123973 19.84438013 6.02669687 19.48788734 2 19 C-0.57637471 17.11484777 -1.59667428 15.80665143 -3 13 C-3.35512837 7.5842924 -3.36699949 4.48933265 0 0 Z " fill="#21AEC8" transform="translate(190,187)"/>
<path d="M0 0 C0.78375 0.04125 1.5675 0.0825 2.375 0.125 C2.0608889 3.05670364 1.3360478 4.16749331 -0.6875 6.375 C-4.64902106 8.7350551 -7.07144999 8.43371526 -11.625 8.125 C-11.625 7.465 -11.625 6.805 -11.625 6.125 C-12.285 6.125 -12.945 6.125 -13.625 6.125 C-13.625 5.465 -13.625 4.805 -13.625 4.125 C-12.99851562 4.00382813 -12.37203125 3.88265625 -11.7265625 3.7578125 C-10.90929687 3.59023437 -10.09203125 3.42265625 -9.25 3.25 C-8.43789063 3.08757812 -7.62578125 2.92515625 -6.7890625 2.7578125 C-3.75521698 1.87065912 -3.29744474 0.15702118 0 0 Z " fill="#04C8F7" transform="translate(274.625,202.875)"/>
<path d="M0 0 C-0.98950195 1.48168945 -0.98950195 1.48168945 -3 3 C-5.79989129 3.26159322 -8.37227929 3.34904338 -11.16796875 3.29296875 C-11.96278152 3.28872391 -12.7575943 3.28447906 -13.57649231 3.28010559 C-16.11384021 3.2633193 -18.65039238 3.22566824 -21.1875 3.1875 C-22.90819165 3.17245305 -24.62889576 3.15876466 -26.34960938 3.14648438 C-30.56671262 3.11341607 -34.78322142 3.06163495 -39 3 C-39 2.67 -39 2.34 -39 2 C-35.05338211 1.71056596 -31.10644651 1.42595645 -27.15917969 1.14550781 C-25.16844255 1.00310751 -23.17796716 0.85706307 -21.1875 0.7109375 C-14.11072155 0.21055923 -7.09496156 -0.15064501 0 0 Z " fill="#17C0DA" transform="translate(246,241)"/>
<path d="M0 0 C3.96 0 7.92 0 12 0 C12.66 1.32 13.32 2.64 14 4 C13.67 4.99 13.34 5.98 13 7 C12.38125 6.67 11.7625 6.34 11.125 6 C6.73788488 4.59612316 2.56848573 4.84032477 -2 5 C-1.34 3.35 -0.68 1.7 0 0 Z " fill="#04C7F7" transform="translate(158,181)"/>
<path d="M0 0 C1.0169313 2.65498232 1.13022151 3.69155375 0.00390625 6.359375 C-0.47175781 7.14828125 -0.94742187 7.9371875 -1.4375 8.75 C-1.91058594 9.54921875 -2.38367188 10.3484375 -2.87109375 11.171875 C-3.24363281 11.77515625 -3.61617188 12.3784375 -4 13 C-4.99 13 -5.98 13 -7 13 C-7.66 14.32 -8.32 15.64 -9 17 C-9 16.34 -9 15.68 -9 15 C-9.66 14.67 -10.32 14.34 -11 14 C-9.42219077 10.28954753 -7.09296752 7.70093616 -4.375 4.75 C-3.55773437 3.85796875 -2.74046875 2.9659375 -1.8984375 2.046875 C-1.27195312 1.37140625 -0.64546875 0.6959375 0 0 Z " fill="#09C5F1" transform="translate(337,161)"/>
<path d="M0 0 C2.81869797 4.22804696 4.16245839 7.26217669 4.8125 12.3125 C5.71258053 17.77152501 7.45520602 20.80221766 11 25 C6.61144323 23.27592413 4.08513063 20.17026127 2 16 C1.566875 16.94875 1.13375 17.8975 0.6875 18.875 C-1 22 -1 22 -4 24 C-3.71125 23.46375 -3.4225 22.9275 -3.125 22.375 C-0.58310655 17.00878049 0.2371914 12.57114424 0.125 6.625 C0.10695312 5.37976563 0.08890625 4.13453125 0.0703125 2.8515625 C0.04710937 1.91054687 0.02390625 0.96953125 0 0 Z " fill="#1EB4CE" transform="translate(211,186)"/>
<path d="M0 0 C0.33 0.66 0.66 1.32 1 2 C6.61 2 12.22 2 18 2 C16 4 16 4 12.796875 4.23046875 C11.44784333 4.22777069 10.09879965 4.21266417 8.75 4.1875 C8.04359375 4.18105469 7.3371875 4.17460937 6.609375 4.16796875 C-0.28202695 4.06952015 -7.13452678 3.60072891 -14 3 C-13.67 2.34 -13.34 1.68 -13 1 C-10.05859375 0.5859375 -10.05859375 0.5859375 -6.4375 0.375 C-5.23996094 0.30023438 -4.04242188 0.22546875 -2.80859375 0.1484375 C-1.88175781 0.09945313 -0.95492187 0.05046875 0 0 Z " fill="#0FC9ED" transform="translate(200,258)"/>
<path d="M0 0 C0.33 0 0.66 0 1 0 C1 6.93 1 13.86 1 21 C-6 22 -6 22 -9 20 C-9 18.68 -9 17.36 -9 16 C-8.34 16 -7.68 16 -7 16 C-7 17.32 -7 18.64 -7 20 C-5.02 20 -3.04 20 -1 20 C-1.09539062 18.97519531 -1.19078125 17.95039063 -1.2890625 16.89453125 C-1.40166599 15.53390569 -1.51361038 14.17322547 -1.625 12.8125 C-1.68945312 12.13896484 -1.75390625 11.46542969 -1.8203125 10.77148438 C-2.14362111 6.62909282 -1.89095265 3.71694891 0 0 Z " fill="#19A5D1" transform="translate(177,191)"/>
<path d="M0 0 C0.33 0 0.66 0 1 0 C1 10.23 1 20.46 1 31 C-1.64 31 -4.28 31 -7 31 C-8 30 -8 30 -8.09765625 28.15234375 C-8.06510417 26.1015625 -8.03255208 24.05078125 -8 22 C-7.34 21.67 -6.68 21.34 -6 21 C-6 23.64 -6 26.28 -6 29 C-5.38125 28.814375 -4.7625 28.62875 -4.125 28.4375 C-2 28 -2 28 0 29 C0 19.43 0 9.86 0 0 Z " fill="#E3E2E3" transform="translate(250,142)"/>
<path d="M0 0 C0.12375 0.639375 0.2475 1.27875 0.375 1.9375 C0.58125 2.618125 0.7875 3.29875 1 4 C1.66 4.33 2.32 4.66 3 5 C0.69 6.98 -1.62 8.96 -4 11 C-4.33 10.01 -4.66 9.02 -5 8 C-7.01508358 7.26676204 -7.01508358 7.26676204 -9 7 C-9 6.01 -9 5.02 -9 4 C-8.2575 3.896875 -7.515 3.79375 -6.75 3.6875 C-3.82985982 2.95746496 -2.26812446 1.93210602 0 0 Z " fill="#16BFE2" transform="translate(353,197)"/>
<path d="M0 0 C0 1.32 0 2.64 0 4 C-2.1171875 5.73828125 -2.1171875 5.73828125 -4.875 7.3125 C-6.23238281 8.11107422 -6.23238281 8.11107422 -7.6171875 8.92578125 C-8.40351563 9.28027344 -9.18984375 9.63476562 -10 10 C-10.66 9.67 -11.32 9.34 -12 9 C-11.01 8.67 -10.02 8.34 -9 8 C-9 7.34 -9 6.68 -9 6 C-9.66 6 -10.32 6 -11 6 C-11 5.34 -11 4.68 -11 4 C-7.46388043 1.54436141 -4.33090187 0 0 0 Z " fill="#15BFDB" transform="translate(303,231)"/>
<path d="M0 0 C1.58367747 0.14204741 3.16693318 0.28880153 4.75 0.4375 C5.63171875 0.51871094 6.5134375 0.59992188 7.421875 0.68359375 C9.69350452 0.96238465 11.79851823 1.38790577 14 2 C14 2.66 14 3.32 14 4 C14.99 4 15.98 4 17 4 C17 4.66 17 5.32 17 6 C7.88 6.152 7.88 6.152 5 5 C4.67 4.34 4.34 3.68 4 3 C1.98330173 1.86649466 1.98330173 1.86649466 0 1 C0 0.67 0 0.34 0 0 Z " fill="#19BEDF" transform="translate(154,251)"/>
<path d="M0 0 C0.33 0.99 0.66 1.98 1 3 C1.99 3.33 2.98 3.66 4 4 C3.34 5.32 2.68 6.64 2 8 C1.34 8 0.68 8 0 8 C-0.28875 8.78375 -0.5775 9.5675 -0.875 10.375 C-2 13 -2 13 -4 15 C-3.855625 14.443125 -3.71125 13.88625 -3.5625 13.3125 C-2.97230872 10.88615805 -2.476571 8.45093655 -2 6 C-4.31 7.98 -6.62 9.96 -9 12 C-7.29638905 8.5927781 -5.86767864 6.51964294 -3.375 3.75 C-2.74335938 3.04359375 -2.11171875 2.3371875 -1.4609375 1.609375 C-0.97882813 1.07828125 -0.49671875 0.5471875 0 0 Z " fill="#1EB0CE" transform="translate(339,156)"/>
<path d="M0 0 C-0.33 0.66 -0.66 1.32 -1 2 C-6.61 2 -12.22 2 -18 2 C-14.84362543 -1.15637457 -13.46548965 -1.59915655 -9.140625 -2.015625 C-5.81226561 -1.99133041 -3.12762639 -1.10770101 0 0 Z " fill="#1EBAD5" transform="translate(240,274)"/>
<path d="M0 0 C0.66 0.66 1.32 1.32 2 2 C-4.75822493 3.83273896 -9.40308575 5.01573223 -16 2 C-10.77258049 -1.01581895 -5.82588121 -1.4564703 0 0 Z " fill="#2BB8D1" transform="translate(251,271)"/>
<path d="M0 0 C-1.31125202 5.6383837 -3.328746 7.85405343 -8 11 C-8.99 10.67 -9.98 10.34 -11 10 C-9.824375 9.38125 -9.824375 9.38125 -8.625 8.75 C-5.94108344 6.9607223 -5.11901051 5.95011861 -4 3 C-6.41645782 2.83312552 -6.41645782 2.83312552 -9 3 C-9.66 3.66 -10.32 4.32 -11 5 C-11.99 4.67 -12.98 4.34 -14 4 C-10.36515075 -1.28705346 -5.79646176 -0.3982302 0 0 Z " fill="#DCDCDD" transform="translate(322,161)"/>
<path d="M0 0 C2.97 0.33 5.94 0.66 9 1 C6.88680182 6.04819565 4.58477556 8.97231803 0 12 C-2.73331924 12.66978634 -5.16760426 12.85349677 -8 13 C-5 11 -5 11 -1.5 9.625 C1.88917383 8.05145501 3.1544476 7.14829527 5 4 C2.69 3.67 0.38 3.34 -2 3 C-1.34 2.01 -0.68 1.02 0 0 Z " fill="#E3E3E3" transform="translate(170,160)"/>
<path d="M0 0 C0.33 0 0.66 0 1 0 C1.1953125 2.05078125 1.390625 4.1015625 1.5859375 6.15234375 C1.72257812 6.76207031 1.85921875 7.37179688 2 8 C2.66 8.33 3.32 8.66 4 9 C2.99806563 12.79303725 2.18975773 15.71536341 0 19 C-1.45184478 14.46298506 -2.23509196 10.81938524 -2 6 C-1.34 6 -0.68 6 0 6 C0 4.02 0 2.04 0 0 Z " fill="#0BBAE0" transform="translate(377,129)"/>
<path d="M0 0 C2.47532211 2.47532211 2.38704795 3.63931683 2.6875 7.0625 C2.77386719 7.96097656 2.86023438 8.85945312 2.94921875 9.78515625 C2.96597656 10.51605469 2.98273438 11.24695313 3 12 C2 13 2 13 -0.50024414 13.11352539 C-1.58426514 13.10828857 -2.66828613 13.10305176 -3.78515625 13.09765625 C-4.95498047 13.09443359 -6.12480469 13.09121094 -7.33007812 13.08789062 C-9.17762695 13.07532227 -9.17762695 13.07532227 -11.0625 13.0625 C-12.91584961 13.05573242 -12.91584961 13.05573242 -14.80664062 13.04882812 C-17.87114117 13.03699608 -20.93554721 13.02051173 -24 13 C-24 12.67 -24 12.34 -24 12 C-16.08 11.67 -8.16 11.34 0 11 C0 7.37 0 3.74 0 0 Z " fill="#DFDEDF" transform="translate(320,145)"/>
<path d="M0 0 C0.33 0.99 0.66 1.98 1 3 C-0.7578125 3.94401042 -2.515625 4.88802083 -4.2734375 5.83203125 C-6.30502365 7.04763493 -6.30502365 7.04763493 -8 10 C-6.68 9.67 -5.36 9.34 -4 9 C-5.32 10.32 -6.64 11.64 -8 13 C-8.33 12.34 -8.66 11.68 -9 11 C-11.31 12.98 -13.62 14.96 -16 17 C-16.66 16.67 -17.32 16.34 -18 16 C-6.66287016 4.29384966 -6.66287016 4.29384966 0 0 Z " fill="#25ABC4" transform="translate(364,131)"/>
<path d="M0 0 C2.33294775 -0.04241723 4.66702567 -0.04092937 7 0 C8 1 8 1 8.0625 4.5625 C8.041875 5.696875 8.02125 6.83125 8 8 C10.31 8.33 12.62 8.66 15 9 C15 10.98 15 12.96 15 15 C14.01 14.67 13.02 14.34 12 14 C12.66 14 13.32 14 14 14 C14 12.68 14 11.36 14 10 C11.36 10 8.72 10 6 10 C6 7.36 6 4.72 6 2 C4.35 2 2.7 2 1 2 C0.67 1.34 0.34 0.68 0 0 Z " fill="#F1EEEF" transform="translate(224,128)"/>
<path d="M0 0 C3.31815402 2.80766879 4.85477156 4.29806255 5.75 8.625 C5.8325 9.73875 5.915 10.8525 6 12 C6.33 12.99 6.66 13.98 7 15 C5.68 15 4.36 15 3 15 C1.08373163 10.01770224 0.4452885 5.27315333 0 0 Z " fill="#08C1EA" transform="translate(344,219)"/>
<path d="M0 0 C0 0.66 0 1.32 0 2 C-0.99 2 -1.98 2 -3 2 C-3 2.66 -3 3.32 -3 4 C-1.02 3.67 0.96 3.34 3 3 C0.3104472 5.6895528 -2.45327417 6.69331154 -6 8 C-6.99 7.67 -7.98 7.34 -9 7 C-8.67 6.67 -8.34 6.34 -8 6 C-9.32 5.34 -10.64 4.68 -12 4 C-10.3767313 3.3291288 -8.75132422 2.66342971 -7.125 2 C-6.22007812 1.62875 -5.31515625 1.2575 -4.3828125 0.875 C-2 0 -2 0 0 0 Z " fill="#28B5D1" transform="translate(278,243)"/>
<path d="M0 0 C1.65 1.65 3.3 3.3 5 5 C4.34 5 3.68 5 3 5 C2.31798844 10.37084106 1.88478735 15.58500559 2 21 C0.35 21 -1.3 21 -3 21 C-2.01 20.67 -1.02 20.34 0 20 C0 13.4 0 6.8 0 0 Z " fill="#2CA8C8" transform="translate(187,206)"/>
<path d="M0 0 C1.60597325 0.45196245 3.20972508 0.91182327 4.8125 1.375 C6.15248047 1.75785156 6.15248047 1.75785156 7.51953125 2.1484375 C10 3 10 3 13 5 C13 5.66 13 6.32 13 7 C8.28596212 6.52060632 4.33420699 6.03165952 0 4 C0 2.66666667 0 1.33333333 0 0 Z " fill="#31AFC0" transform="translate(150,265)"/>
<path d="M0 0 C3.46659671 5.19989506 3.01403834 8.66248129 2.83984375 14.8359375 C2.99378919 17.87729853 3.40390442 19.45876547 5 22 C2 21 2 21 0 18 C-0.22705078 16.00708008 -0.22705078 16.00708008 -0.1953125 13.76953125 C-0.18886719 12.96708984 -0.18242187 12.16464844 -0.17578125 11.33789062 C-0.15902344 10.50451172 -0.14226562 9.67113281 -0.125 8.8125 C-0.11597656 7.96751953 -0.10695313 7.12253906 -0.09765625 6.25195312 C-0.07410703 4.16784757 -0.03823647 2.08388783 0 0 Z " fill="#11BCE0" transform="translate(282,189)"/>
<path d="M0 0 C1.65 0.33 3.3 0.66 5 1 C4.67 2.65 4.34 4.3 4 6 C3.34 6 2.68 6 2 6 C2 6.99 2 7.98 2 9 C0.35 8.67 -1.3 8.34 -3 8 C-2.505 7.236875 -2.01 6.47375 -1.5 5.6875 C0.24368308 3.07636249 0.24368308 3.07636249 0 0 Z " fill="#0AC0E7" transform="translate(355,223)"/>
<path d="M0 0 C7.5250036 -0.37008214 7.5250036 -0.37008214 9.609375 1.25390625 C11.33764951 3.4239588 11.35134597 4.48673934 11.29296875 7.23046875 C11.28330078 8.03291016 11.27363281 8.83535156 11.26367188 9.66210938 C11.23853516 10.49548828 11.21339844 11.32886719 11.1875 12.1875 C11.17396484 13.03248047 11.16042969 13.87746094 11.14648438 14.74804688 C11.11115799 16.83230384 11.05735139 18.91623277 11 21 C10.67 21 10.34 21 10 21 C9.67 15.39 9.34 9.78 9 4 C4.545 3.01 4.545 3.01 0 2 C0 1.34 0 0.68 0 0 Z " fill="#33B0C8" transform="translate(158,185)"/>
<path d="M0 0 C3.73584906 1.47169811 3.73584906 1.47169811 5 4 C5.66 4 6.32 4 7 4 C7 4.66 7 5.32 7 6 C9.64 6 12.28 6 15 6 C15 6.66 15 7.32 15 8 C11.7 8 8.4 8 5 8 C5 7.34 5 6.68 5 6 C4.01 6 3.02 6 2 6 C2 4.68 2 3.36 2 2 C0.68 1.67 -0.64 1.34 -2 1 C-1.34 0.67 -0.68 0.34 0 0 Z " fill="#1ABDDA" transform="translate(185,179)"/>
<path d="M0 0 C3.12290635 0.48578543 5.99580359 0.9986012 9 2 C9 1.34 9 0.68 9 0 C14.75 0.75 14.75 0.75 17 3 C15.02 3 13.04 3 11 3 C12.32 3.66 13.64 4.32 15 5 C11.01508155 6.32830615 9.59951452 5.23204404 5.8125 3.5625 C4.72582031 3.08941406 3.63914063 2.61632812 2.51953125 2.12890625 C1.68808594 1.75636719 0.85664063 1.38382813 0 1 C0 0.67 0 0.34 0 0 Z " fill="#29B4D5" transform="translate(144,249)"/>
<path d="M0 0 C0.33 0 0.66 0 1 0 C0.95359375 1.00160156 0.9071875 2.00320312 0.859375 3.03515625 C0.57899666 11.65651963 0.73084348 17.27343385 6.75 23.9375 C7.36875 24.4634375 7.36875 24.4634375 8 25 C4.6470016 23.82191948 2.2447471 22.80593388 0 20 C-1.16698437 16.49904689 -1.13268287 13.6877768 -1.125 10 C-1.12886719 8.14375 -1.12886719 8.14375 -1.1328125 6.25 C-1 3 -1 3 0 0 Z " fill="#28AAC7" transform="translate(250,186)"/>
<path d="M0 0 C0.33 0 0.66 0 1 0 C1.03758423 1.0058313 1.03758423 1.0058313 1.07592773 2.03198242 C1.19230801 5.0839959 1.31484348 8.13573258 1.4375 11.1875 C1.47681641 12.24259766 1.51613281 13.29769531 1.55664062 14.38476562 C1.59853516 15.40634766 1.64042969 16.42792969 1.68359375 17.48046875 C1.72025146 18.41785889 1.75690918 19.35524902 1.79467773 20.32104492 C1.99625599 22.95114982 2.42678321 25.42766414 3 28 C1.68 28.33 0.36 28.66 -1 29 C-0.67 19.43 -0.34 9.86 0 0 Z " fill="#0BB0D6" transform="translate(119,184)"/>
<path d="M0 0 C2.49011361 1.9546053 2.59157223 3.4643601 3.06640625 6.55078125 C3.2159375 7.46085938 3.36546875 8.3709375 3.51953125 9.30859375 C3.66648437 10.35660156 3.66648437 10.35660156 3.81640625 11.42578125 C3.15640625 11.42578125 2.49640625 11.42578125 1.81640625 11.42578125 C1.15640625 8.12578125 0.49640625 4.82578125 -0.18359375 1.42578125 C-1.44171875 2.06515625 -2.69984375 2.70453125 -3.99609375 3.36328125 C-6.40293158 4.58642835 -8.6112286 5.5683262 -11.18359375 6.42578125 C-10.02448336 2.94845008 -9.50097834 2.71016114 -6.37109375 1.11328125 C-5.68402344 0.74589844 -4.99695313 0.37851563 -4.2890625 0 C-2.18359375 -0.57421875 -2.18359375 -0.57421875 0 0 Z " fill="#2BA2BA" transform="translate(377.18359375,125.57421875)"/>
<path d="M0 0 C2.31 0 4.62 0 7 0 C6.01 0.33 5.02 0.66 4 1 C4 1.99 4 2.98 4 4 C3.01 4 2.02 4 1 4 C0.67 4.66 0.34 5.32 0 6 C-1.2065625 6.4640625 -1.2065625 6.4640625 -2.4375 6.9375 C-5.29863959 7.84547289 -5.29863959 7.84547289 -7 11 C-6.67 9.35 -6.34 7.7 -6 6 C-5.01 5.67 -4.02 5.34 -3 5 C-3 4.34 -3 3.68 -3 3 C-2.01 3 -1.02 3 0 3 C0 2.01 0 1.02 0 0 Z " fill="#13C0E4" transform="translate(264,181)"/>
<path d="M0 0 C-1.14453125 1.953125 -1.14453125 1.953125 -3 4 C-5.69921875 4.609375 -5.69921875 4.609375 -8.6875 4.75 C-9.68136719 4.80671875 -10.67523438 4.8634375 -11.69921875 4.921875 C-12.83810547 4.96054688 -12.83810547 4.96054688 -14 5 C-14 4.34 -14 3.68 -14 3 C-9.03006806 0.56574762 -5.65394631 -0.34615998 0 0 Z " fill="#0DC3E6" transform="translate(272,248)"/>
<path d="M0 0 C0.33 0 0.66 0 1 0 C0.85831863 1.43791516 0.71148957 2.8753237 0.5625 4.3125 C0.48128906 5.11300781 0.40007812 5.91351563 0.31640625 6.73828125 C0 9 0 9 -1 12 C-0.34 12.33 0.32 12.66 1 13 C0.01 13.33 -0.98 13.66 -2 14 C-2 14.99 -2 15.98 -2 17 C-2.66 17 -3.32 17 -4 17 C-3.45018084 10.95198929 -2.09570426 5.69398894 0 0 Z " fill="#08C7F1" transform="translate(327,181)"/>
<path d="M0 0 C2 2 2 2 2.046875 4.53125 C1.94890625 5.5109375 1.8509375 6.490625 1.75 7.5 C1.61851562 8.96953125 1.61851562 8.96953125 1.484375 10.46875 C1 13 1 13 -1 15 C-1 12.03 -1 9.06 -1 6 C-1.99 6.495 -1.99 6.495 -3 7 C-2.67 5.35 -2.34 3.7 -2 2 C-1.34 2 -0.68 2 0 2 C0 1.34 0 0.68 0 0 Z " fill="#18B2CD" transform="translate(377,149)"/>
<path d="M0 0 C4.2742558 1.5830577 6.26531794 4.50568404 9 8 C5.68847126 8.36794764 4.39390748 8.29809215 1.6875 6.25 C0 4 0 4 0 0 Z " fill="#10BBDD" transform="translate(102,216)"/>
<path d="M0 0 C2.31 0 4.62 0 7 0 C7 2.31 7 4.62 7 7 C6.34 6.01 5.68 5.02 5 4 C4.34 4 3.68 4 3 4 C2.67 4.66 2.34 5.32 2 6 C1.34 6 0.68 6 0 6 C0 4.02 0 2.04 0 0 Z " fill="#21B5CF" transform="translate(283,172)"/>
<path d="M0 0 C2.91517292 1.07401108 4.77810176 1.77810176 7 4 C8.32 4 9.64 4 11 4 C11 4.66 11 5.32 11 6 C14.3 6 17.6 6 21 6 C21 6.33 21 6.66 21 7 C14.80956316 8.48032185 9.80011102 7.67309464 4 5 C1.375 2.3125 1.375 2.3125 0 0 Z " fill="#DCDEE0" transform="translate(290,166)"/>
<path d="M0 0 C2.6875 -0.3125 2.6875 -0.3125 6 0 C8.875 2.5 8.875 2.5 11 5 C7.12459955 5.17615457 4.24484731 5.28341107 1 3 C0.67 2.01 0.34 1.02 0 0 Z " fill="#20BDD5" transform="translate(142,263)"/>
<path d="M0 0 C4.455 0.99 4.455 0.99 9 2 C9.33 3.32 9.66 4.64 10 6 C6.38238619 5.67112602 4.44334967 5.37334709 1.625 3 C0 1 0 1 0 0 Z " fill="#1DBADB" transform="translate(126,254)"/>
<path d="M0 0 C2.65877957 0.36672822 3.79835472 0.79088638 5.6875 2.75 C7.17399611 5.29827905 7.78451648 7.05505852 8 10 C7.0625 12.8125 7.0625 12.8125 6 15 C5.67 15 5.34 15 5 15 C4.97421875 14.33613281 4.9484375 13.67226562 4.921875 12.98828125 C4.56648998 7.45558259 4.16881722 4.03433925 0 0 Z " fill="#16C3D9" transform="translate(170,181)"/>
<path d="M0 0 C0 4.87140024 -2.99424286 7.93836747 -6.25 11.375 C-6.8275 11.91125 -7.405 12.4475 -8 13 C-8.66 12.67 -9.32 12.34 -10 12 C-10 10 -10 10 -7.8125 7.6875 C-6.884375 6.800625 -5.95625 5.91375 -5 5 C-4.071875 4.071875 -3.14375 3.14375 -2.1875 2.1875 C-1.1046875 1.1046875 -1.1046875 1.1046875 0 0 Z " fill="#16BBDD" transform="translate(329,168)"/>
<path d="M0 0 C2.97 0 5.94 0 9 0 C8.319375 0.9075 7.63875 1.815 6.9375 2.75 C4.73017191 5.71472615 4.73017191 5.71472615 5.25 8.375 C5.4975 8.91125 5.745 9.4475 6 10 C5.01 9.67 4.02 9.34 3 9 C3 6.69 3 4.38 3 2 C2.01 2 1.02 2 0 2 C0 1.34 0 0.68 0 0 Z " fill="#21B6D4" transform="translate(340,208)"/>
<path d="M0 0 C0.66 0 1.32 0 2 0 C4 2 4 2 5 5 C4.07796291 7.36522558 3.08301035 9.70401807 2 12 C0.93453047 8.8035914 0.92572162 6.34252724 1 3 C0.34 3 -0.32 3 -1 3 C-0.67 2.01 -0.34 1.02 0 0 Z " fill="#1BB9D3" transform="translate(371,162)"/>
<path d="M0 0 C0.80566406 0.04833984 1.61132812 0.09667969 2.44140625 0.14648438 C3.28316406 0.20255859 4.12492188 0.25863281 4.9921875 0.31640625 C6.26642578 0.3947168 6.26642578 0.3947168 7.56640625 0.47460938 C9.66697874 0.60442003 11.76712941 0.74102365 13.8671875 0.87890625 C13.8671875 1.20890625 13.8671875 1.53890625 13.8671875 1.87890625 C11.2839463 2.0471173 8.70061051 2.21353142 6.1171875 2.37890625 C5.38757813 2.42660156 4.65796875 2.47429687 3.90625 2.5234375 C0.54908586 2.73707522 -2.76717526 2.87890625 -6.1328125 2.87890625 C-6.1328125 2.21890625 -6.1328125 1.55890625 -6.1328125 0.87890625 C-3.77622853 -0.29938574 -2.60708014 -0.16523747 0 0 Z " fill="#40A7B5" transform="translate(201.1328125,274.12109375)"/>
<path d="M0 0 C2.31 0.33 4.62 0.66 7 1 C7 4.3 7 7.6 7 11 C6.67 11 6.34 11 6 11 C5.67 8.36 5.34 5.72 5 3 C3.35 3.66 1.7 4.32 0 5 C0 3.35 0 1.7 0 0 Z " fill="#12C3E1" transform="translate(240,179)"/>
<path d="M0 0 C1.13643966 3.40931897 0.86747764 4.00335456 -0.4375 7.1875 C-0.72496094 7.90292969 -1.01242187 8.61835938 -1.30859375 9.35546875 C-1.53675781 9.89816406 -1.76492188 10.44085938 -2 11 C-2.33 10.34 -2.66 9.68 -3 9 C-3.66 8.67 -4.32 8.34 -5 8 C-3.62845496 5.04590299 -2.01136276 2.55991624 0 0 Z " fill="#05BEE4" transform="translate(331,167)"/>
<path d="M0 0 C1 3 1 3 1 7 C0.34 7 -0.32 7 -1 7 C-1.33 7.99 -1.66 8.98 -2 10 C-2.99 9.67 -3.98 9.34 -5 9 C-4.42647107 5.12867972 -2.51295648 2.91827204 0 0 Z " fill="#0CC1E3" transform="translate(345,150)"/>
<path d="M0 0 C2.64 0 5.28 0 8 0 C7.44894091 3.9492568 6.61064629 7.34920174 5 11 C4.34 9.68 3.68 8.36 3 7 C3.66 6.67 4.32 6.34 5 6 C4.67 4.68 4.34 3.36 4 2 C2.68 1.67 1.36 1.34 0 1 C0 0.67 0 0.34 0 0 Z " fill="#E9E8E8" transform="translate(280,136)"/>
<path d="M0 0 C0 0.99 0 1.98 0 3 C-3 5.1875 -3 5.1875 -6 7 C-6.66 6.67 -7.32 6.34 -8 6 C-8 5.01 -8 4.02 -8 3 C-5.11165997 0.89229241 -3.61537605 0 0 0 Z " fill="#32ACBB" transform="translate(305,246)"/>
<path d="M0 0 C-0.33 1.32 -0.66 2.64 -1 4 C-3.31 4.66 -5.62 5.32 -8 6 C-8.33 5.01 -8.66 4.02 -9 3 C-3.375 0 -3.375 0 0 0 Z " fill="#10BEE8" transform="translate(317,181)"/>
<path d="M0 0 C3.37503669 1.1858237 5.64722731 2.27573689 8 5 C5.1875 5.625 5.1875 5.625 2 6 C1.01 5.34 0.02 4.68 -1 4 C-0.67 2.68 -0.34 1.36 0 0 Z " fill="#2BAABF" transform="translate(104,238)"/>
<path d="M0 0 C2.99693138 0.99897713 4.02709413 1.65130253 6 4 C6 4.66 6 5.32 6 6 C7.32 6.66 8.64 7.32 10 8 C9.01 8.33 8.02 8.66 7 9 C1.41176471 5.08823529 1.41176471 5.08823529 0.125 1.6875 C0.08375 1.130625 0.0425 0.57375 0 0 Z " fill="#09C4E7" transform="translate(114,226)"/>
<path d="M0 0 C1.98 0 3.96 0 6 0 C7 3 7 3 6 7 C2.37 7 -1.26 7 -5 7 C-5 6.67 -5 6.34 -5 6 C-1.7 6 1.6 6 5 6 C5 4.68 5 3.36 5 2 C3.35 1.67 1.7 1.34 0 1 C0 0.67 0 0.34 0 0 Z " fill="#2DA4C8" transform="translate(292,205)"/>
<path d="M0 0 C2.97 0 5.94 0 9 0 C9.33 1.65 9.66 3.3 10 5 C9.34 4.67 8.68 4.34 8 4 C8 3.34 8 2.68 8 2 C5.69 2.66 3.38 3.32 1 4 C0.67 2.68 0.34 1.36 0 0 Z " fill="#EBEAEA" transform="translate(252,136)"/>
<path d="M0 0 C6.625 -0.25 6.625 -0.25 10 2 C9.67 2.66 9.34 3.32 9 4 C4.545 3.01 4.545 3.01 0 2 C0 1.34 0 0.68 0 0 Z " fill="#0EC3E1" transform="translate(144,247)"/>
<path d="M0 0 C6.75 2.75 6.75 2.75 9 5 C7.68 5 6.36 5 5 5 C5 5.66 5 6.32 5 7 C3.68 6.34 2.36 5.68 1 5 C1.66 5 2.32 5 3 5 C2.2575 4.319375 2.2575 4.319375 1.5 3.625 C0 2 0 2 0 0 Z " fill="#21B2D2" transform="translate(139,242)"/>
<path d="M0 0 C4.75 0.75 4.75 0.75 7 3 C2.545 3.495 2.545 3.495 -2 4 C-1.34 2.68 -0.68 1.36 0 0 Z " fill="#03C8FB" transform="translate(229,181)"/>
<path d="M0 0 C0.33 0 0.66 0 1 0 C1 2.64 1 5.28 1 8 C-1.64 8 -4.28 8 -7 8 C-7 7.01 -7 6.02 -7 5 C-5.02 5 -3.04 5 -1 5 C-0.67 3.35 -0.34 1.7 0 0 Z " fill="#DEE0E1" transform="translate(132,165)"/>
<path d="M0 0 C0.309375 0.639375 0.61875 1.27875 0.9375 1.9375 C4.09768575 5.09768575 7.68333908 4.81900793 12 5 C12 5.66 12 6.32 12 7 C8.7 7 5.4 7 2 7 C0 3 0 3 0 0 Z " fill="#DBDDDF" transform="translate(263,166)"/>
<path d="M0 0 C0.66 0.33 1.32 0.66 2 1 C1.34 1.66 0.68 2.32 0 3 C0.33 3.66 0.66 4.32 1 5 C-0.65 5.33 -2.3 5.66 -4 6 C-4 5.67 -4 5.34 -4 5 C-5.65 4.67 -7.3 4.34 -9 4 C-6.06195683 2.47657021 -3.13439441 1.07229283 0 0 Z " fill="#33ADC0" transform="translate(265,264)"/>
<path d="M0 0 C0.66 0.33 1.32 0.66 2 1 C2 1.66 2 2.32 2 3 C3.98 3 5.96 3 8 3 C7.67 3.99 7.34 4.98 7 6 C6.154375 5.67 5.30875 5.34 4.4375 5 C0.79010784 3.93894046 -2.22274664 3.84890987 -6 4 C-4.03617993 2.49440461 -2.21736634 1.10868317 0 0 Z " fill="#F2F2F2" transform="translate(100,131)"/>
<path d="M0 0 C0 0.99 0 1.98 0 3 C0.66 3.66 1.32 4.32 2 5 C-0.375 6.5625 -0.375 6.5625 -3 8 C-3.66 7.67 -4.32 7.34 -5 7 C-4.01 6.67 -3.02 6.34 -2 6 C-2 5.34 -2 4.68 -2 4 C-2.66 4 -3.32 4 -4 4 C-4 3.34 -4 2.68 -4 2 C-2.68 1.34 -1.36 0.68 0 0 Z " fill="#28B1D2" transform="translate(296,233)"/>
<path d="M0 0 C1.65 0 3.3 0 5 0 C5 0.99 5 1.98 5 3 C4.01 2.34 3.02 1.68 2 1 C2.33 1.66 2.66 2.32 3 3 C3.99 3.33 4.98 3.66 6 4 C6 4.66 6 5.32 6 6 C4.35 5.67 2.7 5.34 1 5 C0.67 3.35 0.34 1.7 0 0 Z " fill="#1DB9CE" transform="translate(325,196)"/>
<path d="M0 0 C2.05078125 0.03255208 4.1015625 0.06510417 6.15234375 0.09765625 C5.82234375 1.41765625 5.49234375 2.73765625 5.15234375 4.09765625 C5.15234375 3.10765625 5.15234375 2.11765625 5.15234375 1.09765625 C3.17234375 1.75765625 1.19234375 2.41765625 -0.84765625 3.09765625 C-1.17765625 4.74765625 -1.50765625 6.39765625 -1.84765625 8.09765625 C-2.17765625 8.09765625 -2.50765625 8.09765625 -2.84765625 8.09765625 C-2.89007348 5.7647085 -2.88858562 3.43063058 -2.84765625 1.09765625 C-1.84765625 0.09765625 -1.84765625 0.09765625 0 0 Z " fill="#E3E1E2" transform="translate(244.84765625,135.90234375)"/>
<path d="M0 0 C2.31 0.33 4.62 0.66 7 1 C7.33 2.32 7.66 3.64 8 5 C4.5625 4.1875 4.5625 4.1875 1 3 C0.67 2.01 0.34 1.02 0 0 Z " fill="#17C4DD" transform="translate(116,248)"/>
<path d="M0 0 C3.45925163 1.2491742 6.14693203 2.67527795 9 5 C6 6 6 6 3.375 5.3125 C1 4 1 4 0.1875 1.875 C0.125625 1.25625 0.06375 0.6375 0 0 Z " fill="#11BFE0" transform="translate(127,237)"/>
<path d="M0 0 C3 2 3 2 4 4 C-0.625 6.125 -0.625 6.125 -4 5 C-3.34 4.67 -2.68 4.34 -2 4 C-2.99 3.34 -3.98 2.68 -5 2 C-2.6875 0.875 -2.6875 0.875 0 0 Z " fill="#28ADC0" transform="translate(265,232)"/>
<path d="M0 0 C2.64 0.33 5.28 0.66 8 1 C6.824375 1.928125 6.824375 1.928125 5.625 2.875 C3.03162353 4.89858661 3.03162353 4.89858661 1 7 C0.67 4.69 0.34 2.38 0 0 Z " fill="#1FB1D7" transform="translate(305,185)"/>
<path d="M0 0 C0.33 0 0.66 0 1 0 C1 2.97 1 5.94 1 9 C0.01 9 -0.98 9 -2 9 C-1.125 1.125 -1.125 1.125 0 0 Z " fill="#28A4EA" transform="translate(177,191)"/>
<path d="M0 0 C0.66 0.33 1.32 0.66 2 1 C-1.17320782 4.53586014 -3.16743695 6.58578031 -8 7 C-5.4837822 4.39391727 -2.94865641 2.10618315 0 0 Z " fill="#36ACC3" transform="translate(307,225)"/>
<path d="M0 0 C1.65 1.65 3.3 3.3 5 5 C4.34 5 3.68 5 3 5 C2.67 5.99 2.34 6.98 2 8 C1.34 8 0.68 8 0 8 C0 5.36 0 2.72 0 0 Z " fill="#11B0CF" transform="translate(187,206)"/>
<path d="M0 0 C6.52307692 0.61538462 6.52307692 0.61538462 8.9375 2.5625 C9.288125 3.036875 9.63875 3.51125 10 4 C5.74357648 4.3648363 3.46444495 3.47460354 0 1 C0 0.67 0 0.34 0 0 Z " fill="#0AC5ED" transform="translate(154,251)"/>
<path d="M0 0 C1.32 0.33 2.64 0.66 4 1 C4.33 2.32 4.66 3.64 5 5 C3.68 4.67 2.36 4.34 1 4 C0.67 2.68 0.34 1.36 0 0 Z " fill="#34AEB6" transform="translate(134,226)"/>
<path d="M0 0 C1.98 0.99 1.98 0.99 4 2 C3.67 3.98 3.34 5.96 3 8 C0.37613513 4.93882432 0 4.26826873 0 0 Z " fill="#18B7CC" transform="translate(81,184)"/>
<path d="M0 0 C1.65 0 3.3 0 5 0 C5 0.99 5 1.98 5 3 C3.35 3.66 1.7 4.32 0 5 C0 3.35 0 1.7 0 0 Z " fill="#08CCF2" transform="translate(182,181)"/>
<path d="M0 0 C0.99 0.33 1.98 0.66 3 1 C1 4 1 4 -1.625 4.6875 C-2.800625 4.8421875 -2.800625 4.8421875 -4 5 C-2.25 1.125 -2.25 1.125 0 0 Z " fill="#0FBFE1" transform="translate(360,136)"/>
<path d="M0 0 C2.64 0 5.28 0 8 0 C8 0.66 8 1.32 8 2 C2.25 3.125 2.25 3.125 0 2 C0 1.34 0 0.68 0 0 Z " fill="#0CC3E4" transform="translate(242,255)"/>
<path d="M0 0 C0 2.31 0 4.62 0 7 C-1.32 6.01 -2.64 5.02 -4 4 C-3.67 3.01 -3.34 2.02 -3 1 C-1 0 -1 0 0 0 Z " fill="#08C5F3" transform="translate(343,210)"/>
<path d="M0 0 C1.4540625 0.0309375 1.4540625 0.0309375 2.9375 0.0625 C1.65687515 1.7699998 0.31982443 3.43623596 -1.0625 5.0625 C-1.7225 5.0625 -2.3825 5.0625 -3.0625 5.0625 C-3.625 3.125 -3.625 3.125 -4.0625 1.0625 C-3.0625 0.0625 -3.0625 0.0625 0 0 Z " fill="#F5F3F4" transform="translate(211.0625,136.9375)"/>
<path d="M0 0 C0.66 0.99 1.32 1.98 2 3 C0.625 4.5 0.625 4.5 -1 6 C-1.66 6 -2.32 6 -3 6 C-2.625 3.5625 -2.625 3.5625 -2 1 C-1.34 0.67 -0.68 0.34 0 0 Z " fill="#1CC2DA" transform="translate(281,257)"/>
<path d="M0 0 C2.64 0 5.28 0 8 0 C6.25 1.5625 6.25 1.5625 4 3 C1.75 2.6875 1.75 2.6875 0 2 C0 1.34 0 0.68 0 0 Z " fill="#19BDD5" transform="translate(257,235)"/>
<path d="M0 0 C2 1.3125 2 1.3125 4 3 C4 3.99 4 4.98 4 6 C4.66 6.33 5.32 6.66 6 7 C5.01 7.33 4.02 7.66 3 8 C2.67 7.01 2.34 6.02 2 5 C1.34 4.67 0.68 4.34 0 4 C0 2.68 0 1.36 0 0 Z " fill="#0CB2E4" transform="translate(336,204)"/>
<path d="M0 0 C3.04386724 -0.08226668 5.07175348 0.02391783 8 1 C8 1.66 8 2.32 8 3 C6.02 3.33 4.04 3.66 2 4 C2 3.34 2 2.68 2 2 C1.34 2 0.68 2 0 2 C0 1.34 0 0.68 0 0 Z " fill="#0FD0EA" transform="translate(146,181)"/>
<path d="M0 0 C0.66 0.33 1.32 0.66 2 1 C0.02 3.31 -1.96 5.62 -4 8 C-4.66 7.67 -5.32 7.34 -6 7 C-4.02 4.69 -2.04 2.38 0 0 Z " fill="#F3F1F2" transform="translate(85,131)"/>
</svg>
