<svg xmlns="http://www.w3.org/2000/svg" width="107" height="31" viewBox="0 0 107 31" fill="none"><g clip-path="url(#clip0_316_244)"><path d="M17.5068 10.9714C16.5389 10.2859 15.4747 9.76263 14.3126 9.39835C13.1506 9.03407 11.9548 8.85194 10.7236 8.85194C8.6627 8.85194 6.81684 9.33709 5.18446 10.3074C3.55208 11.2777 2.28084 12.6123 1.36754 14.3095C0.455847 16.0067 0 17.9042 0 20.0005C0 22.0967 0.467083 23.981 1.39964 25.6501C2.33381 27.3191 3.63233 28.6289 5.30003 29.576C6.96612 30.5248 8.85692 30.9983 10.9724 30.9983C11.8857 30.9983 12.7878 30.9023 13.6802 30.7102C14.5727 30.5182 15.3704 30.2582 16.0766 29.9287C16.2837 29.8293 16.4298 29.7184 16.5116 29.5975C16.5951 29.4767 16.6561 29.2879 16.6978 29.0296L17.1328 25.0275C17.1745 24.7858 17.1264 24.6169 16.9867 24.5241C16.8487 24.4314 16.6689 24.4281 16.4474 24.5142C15.6722 24.857 14.8953 25.1269 14.1136 25.3272C13.3319 25.5276 12.5615 25.6269 11.8007 25.6269C10.653 25.6269 9.60489 25.3587 8.65789 24.8238C7.71088 24.289 6.96772 23.5472 6.42841 22.5984C5.8891 21.6497 5.61944 20.5684 5.61944 19.3564C5.61944 18.2718 5.81205 17.328 6.20049 16.5216C6.58731 15.7153 7.117 15.0993 7.78793 14.6704C8.45886 14.2432 9.21646 14.028 10.0591 14.028C10.9018 14.028 11.6739 14.177 12.4555 14.4767C13.2356 14.7764 13.9932 15.2036 14.7268 15.76C14.8648 15.8891 15.0093 15.9388 15.1617 15.909C15.3142 15.8808 15.4378 15.7881 15.5357 15.6308L17.693 11.7794C17.7893 11.6221 17.8246 11.4764 17.7957 11.3406C17.7684 11.2048 17.6721 11.0807 17.5052 10.9664L17.5068 10.9714Z" fill="#1ACDB8"></path><path d="M82.0637 9.83714C81.006 9.18145 79.7716 8.8536 78.3608 8.8536C77.0606 8.8536 75.8777 9.15661 74.8135 9.76263C73.7493 10.3687 72.836 11.2644 72.0752 12.4484V9.98782C72.0752 9.80237 72.0239 9.65997 71.9195 9.56062C71.8152 9.46128 71.6804 9.4116 71.515 9.4116H67.2214C67.0416 9.4116 66.9036 9.46128 66.8057 9.56062C66.7094 9.65997 66.6612 9.80403 66.6612 9.98782V29.8674C66.6612 30.038 66.7094 30.1771 66.8057 30.2847C66.902 30.3923 67.04 30.4453 67.2214 30.4453H71.7847C71.9645 30.4453 72.1025 30.3923 72.1988 30.2847C72.2951 30.1771 72.3433 30.038 72.3433 29.8674V16.4703C72.966 15.8428 73.6161 15.3642 74.2935 15.0364C74.9708 14.7085 75.6835 14.5446 76.4298 14.5446C77.1072 14.5446 77.6914 14.6903 78.1826 14.9834C78.6738 15.2765 79.0461 15.6937 79.303 16.2352C79.5582 16.7783 79.6866 17.4191 79.6866 18.1609V29.8658C79.6866 30.0363 79.7347 30.1754 79.831 30.283C79.9273 30.3907 80.0654 30.4437 80.2452 30.4437H84.8084C84.9882 30.4437 85.1263 30.3907 85.2242 30.283C85.3205 30.1754 85.3686 30.0363 85.3686 29.8658V16.5349C85.3686 15.0513 85.0813 13.7283 84.5083 12.5659C83.9337 11.4035 83.1183 10.4945 82.0605 9.83714H82.0637Z" fill="#1ACDB8"></path><path d="M106.784 26.6022C106.694 25.6815 106.649 24.6235 106.649 23.4247V17.6261C106.649 15.8858 106.296 14.3558 105.591 13.0362C104.887 11.7165 103.859 10.6899 102.511 9.9547C101.163 9.21953 99.5545 8.85194 97.6877 8.85194C96.5401 8.85194 95.4133 8.96619 94.3058 9.19469C93.1999 9.42319 92.1823 9.76594 91.2561 10.2213C91.0764 10.2925 90.9351 10.3968 90.8308 10.5309C90.7265 10.6667 90.6687 10.8406 90.6542 11.0558L90.1984 15.1423C90.1839 15.3427 90.2465 15.4884 90.3846 15.5811C90.5226 15.6739 90.6879 15.6772 90.8821 15.5911C91.9463 15.1059 92.9704 14.7433 93.9527 14.4999C94.935 14.2581 95.8884 14.1356 96.8146 14.1356C97.8097 14.1356 98.6299 14.2995 99.272 14.6274C99.9156 14.9552 100.384 15.3692 100.683 15.8692C100.98 16.3693 101.129 16.9041 101.129 17.4737V17.7519L95.4246 18.5864C94.0972 18.7868 92.9591 19.1577 92.0121 19.6991C91.0651 20.2422 90.3428 20.9575 89.8453 21.85C89.3477 22.7425 89.0989 23.7873 89.0989 24.9845C89.0989 26.1816 89.3894 27.2595 89.9705 28.1735C90.5515 29.0859 91.3332 29.7863 92.3139 30.2698C93.2962 30.7549 94.3812 30.9967 95.5706 30.9967C96.6348 30.9967 97.6797 30.7748 98.7038 30.3327C99.7278 29.8906 100.633 29.2631 101.421 28.4501C101.545 29.1637 101.676 29.7548 101.814 30.2267C101.856 30.384 101.935 30.5016 102.054 30.5794C102.171 30.6572 102.326 30.6904 102.521 30.6755L106.773 30.2267C106.952 30.2118 107.084 30.1489 107.167 30.0347C107.251 29.9204 107.278 29.778 107.251 29.6058C107.029 28.5213 106.874 27.5195 106.784 26.5989V26.6022ZM101.172 24.6864C100.55 25.1997 99.8835 25.6252 99.1709 25.9597C98.4582 26.2959 97.7841 26.4631 97.1484 26.4631C96.4021 26.4631 95.8066 26.2528 95.3652 25.8322C94.9222 25.4116 94.7007 24.8801 94.7007 24.2377C94.7007 23.8519 94.7873 23.5025 94.9607 23.1896C95.134 22.8766 95.3828 22.6183 95.7071 22.4196C96.0313 22.2193 96.4229 22.0851 96.8788 22.0123L101.172 21.3698V24.6864Z" fill="#1ACDB8"></path><path d="M35.654 10.319C34.0553 9.3404 32.2416 8.85194 30.2079 8.85194C28.1743 8.85194 26.4183 9.33874 24.8132 10.3074C23.2097 11.2777 21.9513 12.6007 21.0396 14.2764C20.1247 15.952 19.6689 17.8314 19.6689 19.916C19.6689 22.0007 20.1119 23.8602 20.9963 25.5425C21.3189 26.1601 21.6913 26.7247 22.1102 27.2463C22.2707 27.4798 22.5949 27.8142 22.8277 28.0444C22.9898 28.205 23.2241 28.258 23.4376 28.1851L26.1518 27.2579L27.1229 25.8488L27.7296 24.9613L28.545 23.7741L30.1774 21.3864L30.3748 22.5405L30.9479 25.8869L30.988 26.127L31.1918 25.8587L32.2769 24.438L32.8258 25.2461L33.4374 26.1452L34.2014 27.2595L37.0809 28.2C37.2029 28.2398 37.3377 28.21 37.4308 28.1206C37.6684 27.8887 37.8963 27.6453 38.1114 27.387L38.1628 27.3274C38.2077 27.2794 38.2494 27.2297 38.2896 27.1784L38.2848 27.1734C38.6748 26.685 39.0231 26.1551 39.3329 25.5839C40.2446 23.9016 40.702 22.0106 40.702 19.9144C40.702 17.8181 40.2606 15.9901 39.3746 14.3078C38.4902 12.6239 37.2495 11.2943 35.6524 10.3173L35.654 10.319ZM34.8771 22.1712C34.8771 22.1712 31.9157 18.093 30.7055 16.4256C30.4519 16.0762 29.9447 16.0762 29.6911 16.4256C28.5065 18.0466 25.6623 21.9378 25.6623 21.9394C25.4151 21.1778 25.2915 20.3598 25.2915 19.4888C25.2915 18.4043 25.4857 17.4423 25.8725 16.5995C26.2594 15.7583 26.8019 15.1059 27.5017 14.6423C28.1983 14.1787 28.9912 13.9469 29.8773 13.9469C30.8451 13.9469 31.7247 14.2283 32.5209 14.793C33.3154 15.3559 33.9414 16.1292 34.3972 17.1144C34.8563 18.098 35.0842 19.1742 35.0842 20.3432C35.0842 20.9973 35.0152 21.6083 34.8771 22.1729V22.1712Z" fill="#1ACDB8"></path><path d="M60.7818 9.40829H56.2185C56.0387 9.40829 55.9007 9.45797 55.8028 9.55731C55.7064 9.65666 55.6583 9.80072 55.6583 9.98451V29.8641C55.6583 30.0347 55.7064 30.1738 55.8028 30.2814C55.8991 30.389 56.0371 30.442 56.2185 30.442H60.7818C60.9615 30.442 61.0996 30.389 61.1959 30.2814C61.2922 30.1738 61.3403 30.0347 61.3403 29.8641V9.98617C61.3403 9.80072 61.2922 9.65832 61.1959 9.55897C61.0996 9.45962 60.9599 9.40995 60.7818 9.40995V9.40829Z" fill="#1ACDB8"></path><path d="M49.3936 0.0927234L44.9989 2.77182C44.803 2.89104 44.6826 3.1096 44.6826 3.34307V29.8658C44.6826 30.0363 44.7308 30.1754 44.8271 30.283C44.9234 30.3907 45.0614 30.4436 45.2428 30.4436H49.8061C49.9859 30.4436 50.1239 30.3907 50.2202 30.283C50.3165 30.1754 50.3647 30.0363 50.3647 29.8658V0.665632C50.3647 0.150677 49.8222 -0.168894 49.3936 0.0943792V0.0927234Z" fill="#1ACDB8"></path><path d="M56.371 7.28389H60.6293C60.9712 7.28389 61.2472 6.99909 61.2472 6.6464V2.30488C61.2472 1.97206 60.9856 1.70217 60.663 1.70217H60.2168C60.0466 1.70217 59.8797 1.74853 59.7336 1.83794L56.013 4.09315C55.8525 4.19084 55.753 4.36802 55.753 4.56009V6.6464C55.753 6.99909 56.0291 7.28389 56.371 7.28389Z" fill="#1ACDB8"></path></g><defs><clipPath id="clip0_316_244"><rect width="107" height="31" fill="white"></rect></clipPath></defs></svg>