<svg xmlns="http://www.w3.org/2000/svg" width="190" height="32" viewBox="0 0 190 32" fill="none"><g clip-path="url(#clip0_46_39)"><path d="M17.5068 11.4714C16.5389 10.7859 15.4747 10.2626 14.3126 9.89835C13.1505 9.53407 11.9548 9.35194 10.7236 9.35194C8.6627 9.35194 6.81684 9.83709 5.18446 10.8074C3.55208 11.7777 2.28084 13.1123 1.36754 14.8095C0.455847 16.5067 0 18.4042 0 20.5005C0 22.5967 0.467083 24.481 1.39964 26.1501C2.33381 27.8191 3.63233 29.1289 5.30003 30.076C6.96612 31.0248 8.85692 31.4983 10.9724 31.4983C11.8857 31.4983 12.7878 31.4023 13.6802 31.2102C14.5727 31.0182 15.3704 30.7582 16.0766 30.4287C16.2837 30.3293 16.4298 30.2184 16.5116 30.0975C16.5951 29.9767 16.6561 29.7879 16.6978 29.5296L17.1328 25.5275C17.1745 25.2858 17.1264 25.1169 16.9867 25.0241C16.8487 24.9314 16.6689 24.9281 16.4474 25.0142C15.6722 25.357 14.8953 25.6269 14.1136 25.8272C13.3319 26.0276 12.5615 26.1269 11.8007 26.1269C10.653 26.1269 9.60489 25.8587 8.65789 25.3238C7.71088 24.789 6.96772 24.0472 6.42841 23.0984C5.8891 22.1497 5.61944 21.0684 5.61944 19.8564C5.61944 18.7718 5.81205 17.828 6.20049 17.0216C6.58731 16.2153 7.117 15.5993 7.78793 15.1704C8.45886 14.7432 9.21646 14.528 10.0591 14.528C10.9018 14.528 11.6739 14.677 12.4555 14.9767C13.2356 15.2764 13.9932 15.7036 14.7268 16.26C14.8648 16.3891 15.0093 16.4388 15.1617 16.409C15.3142 16.3808 15.4378 16.2881 15.5357 16.1308L17.693 12.2794C17.7893 12.1221 17.8246 11.9764 17.7957 11.8406C17.7684 11.7048 17.6721 11.5807 17.5052 11.4664L17.5068 11.4714Z" fill="#1ACDB8"></path><path d="M82.0637 10.3371C81.006 9.68145 79.7716 9.3536 78.3608 9.3536C77.0606 9.3536 75.8777 9.65661 74.8135 10.2626C73.7493 10.8687 72.836 11.7644 72.0752 12.9484V10.4878C72.0752 10.3024 72.0239 10.16 71.9195 10.0606C71.8152 9.96128 71.6804 9.9116 71.515 9.9116H67.2214C67.0416 9.9116 66.9036 9.96128 66.8057 10.0606C66.7094 10.16 66.6612 10.304 66.6612 10.4878V30.3674C66.6612 30.538 66.7094 30.6771 66.8057 30.7847C66.902 30.8923 67.04 30.9453 67.2214 30.9453H71.7847C71.9645 30.9453 72.1025 30.8923 72.1988 30.7847C72.2951 30.6771 72.3433 30.538 72.3433 30.3674V16.9703C72.966 16.3428 73.6161 15.8642 74.2935 15.5364C74.9708 15.2085 75.6835 15.0446 76.4298 15.0446C77.1072 15.0446 77.6914 15.1903 78.1826 15.4834C78.6738 15.7765 79.0461 16.1937 79.303 16.7352C79.5582 17.2783 79.6866 17.9191 79.6866 18.6609V30.3658C79.6866 30.5363 79.7347 30.6754 79.831 30.783C79.9273 30.8907 80.0654 30.9436 80.2452 30.9436H84.8084C84.9882 30.9436 85.1263 30.8907 85.2242 30.783C85.3205 30.6754 85.3686 30.5363 85.3686 30.3658V17.0349C85.3686 15.5513 85.0813 14.2283 84.5083 13.0659C83.9337 11.9035 83.1183 10.9945 82.0605 10.3371H82.0637Z" fill="#1ACDB8"></path><path d="M106.784 27.1022C106.694 26.1815 106.649 25.1235 106.649 23.9247V18.1261C106.649 16.3858 106.296 14.8558 105.591 13.5362C104.887 12.2165 103.859 11.1899 102.511 10.4547C101.163 9.71953 99.5545 9.35194 97.6877 9.35194C96.5401 9.35194 95.4133 9.46619 94.3058 9.69469C93.1999 9.92319 92.1823 10.2659 91.2561 10.7213C91.0764 10.7925 90.9351 10.8968 90.8308 11.0309C90.7265 11.1667 90.6687 11.3406 90.6542 11.5558L90.1984 15.6423C90.1839 15.8427 90.2465 15.9884 90.3846 16.0811C90.5226 16.1739 90.6879 16.1772 90.8821 16.0911C91.9463 15.6059 92.9704 15.2433 93.9527 14.9999C94.935 14.7581 95.8884 14.6356 96.8146 14.6356C97.8097 14.6356 98.6299 14.7995 99.272 15.1274C99.9156 15.4552 100.384 15.8692 100.683 16.3692C100.98 16.8693 101.129 17.4041 101.129 17.9737V18.2519L95.4246 19.0864C94.0972 19.2868 92.9591 19.6577 92.0121 20.1991C91.0651 20.7422 90.3428 21.4575 89.8453 22.35C89.3477 23.2425 89.0989 24.2873 89.0989 25.4845C89.0989 26.6816 89.3894 27.7595 89.9705 28.6735C90.5515 29.5859 91.3332 30.2863 92.3139 30.7698C93.2962 31.2549 94.3812 31.4967 95.5706 31.4967C96.6348 31.4967 97.6797 31.2748 98.7038 30.8327C99.7278 30.3906 100.633 29.7631 101.421 28.9501C101.545 29.6637 101.676 30.2548 101.814 30.7267C101.856 30.884 101.935 31.0016 102.054 31.0794C102.171 31.1572 102.326 31.1904 102.521 31.1755L106.773 30.7267C106.952 30.7118 107.084 30.6489 107.167 30.5347C107.251 30.4204 107.278 30.278 107.251 30.1058C107.029 29.0213 106.874 28.0195 106.784 27.0989V27.1022ZM101.172 25.1864C100.55 25.6997 99.8835 26.1252 99.1709 26.4597C98.4582 26.7959 97.7841 26.9631 97.1484 26.9631C96.4021 26.9631 95.8066 26.7528 95.3652 26.3322C94.9222 25.9116 94.7007 25.3801 94.7007 24.7377C94.7007 24.3519 94.7873 24.0025 94.9607 23.6896C95.134 23.3766 95.3828 23.1183 95.7071 22.9196C96.0313 22.7193 96.4229 22.5851 96.8788 22.5123L101.172 21.8698V25.1864Z" fill="#1ACDB8"></path><path d="M35.654 10.819C34.0553 9.8404 32.2416 9.35194 30.2079 9.35194C28.1743 9.35194 26.4183 9.83874 24.8132 10.8074C23.2097 11.7777 21.9513 13.1007 21.0396 14.7764C20.1247 16.452 19.6689 18.3314 19.6689 20.416C19.6689 22.5007 20.1119 24.3602 20.9963 26.0425C21.3189 26.6601 21.6913 27.2247 22.1102 27.7463C22.2707 27.9798 22.5949 28.3142 22.8277 28.5444C22.9898 28.705 23.2241 28.758 23.4376 28.6851L26.1518 27.7579L27.1229 26.3488L27.7296 25.4613L28.545 24.2741L30.1774 21.8864L30.3748 23.0405L30.9479 26.3869L30.988 26.627L31.1918 26.3587L32.2769 24.938L32.8258 25.7461L33.4374 26.6452L34.2014 27.7595L37.0809 28.7C37.2029 28.7398 37.3377 28.71 37.4308 28.6206C37.6684 28.3887 37.8963 28.1453 38.1114 27.887L38.1628 27.8274C38.2077 27.7794 38.2494 27.7297 38.2896 27.6784L38.2848 27.6734C38.6748 27.185 39.0231 26.6551 39.3329 26.0839C40.2446 24.4016 40.702 22.5106 40.702 20.4144C40.702 18.3181 40.2606 16.4901 39.3746 14.8078C38.4902 13.1239 37.2495 11.7943 35.6524 10.8173L35.654 10.819ZM34.8771 22.6712C34.8771 22.6712 31.9157 18.593 30.7055 16.9256C30.4519 16.5762 29.9447 16.5762 29.6911 16.9256C28.5065 18.5466 25.6623 22.4378 25.6623 22.4394C25.4151 21.6778 25.2915 20.8598 25.2915 19.9888C25.2915 18.9043 25.4857 17.9423 25.8725 17.0995C26.2594 16.2583 26.8019 15.6059 27.5017 15.1423C28.1983 14.6787 28.9912 14.4469 29.8773 14.4469C30.8451 14.4469 31.7247 14.7283 32.5209 15.293C33.3154 15.8559 33.9414 16.6292 34.3972 17.6144C34.8563 18.598 35.0842 19.6742 35.0842 20.8432C35.0842 21.4973 35.0152 22.1083 34.8771 22.6729V22.6712Z" fill="#1ACDB8"></path><path d="M60.7818 9.90829H56.2185C56.0387 9.90829 55.9007 9.95797 55.8028 10.0573C55.7064 10.1567 55.6583 10.3007 55.6583 10.4845V30.3641C55.6583 30.5347 55.7064 30.6738 55.8028 30.7814C55.8991 30.889 56.0371 30.942 56.2185 30.942H60.7818C60.9615 30.942 61.0996 30.889 61.1959 30.7814C61.2922 30.6738 61.3403 30.5347 61.3403 30.3641V10.4862C61.3403 10.3007 61.2922 10.1583 61.1959 10.059C61.0996 9.95962 60.9599 9.90995 60.7818 9.90995V9.90829Z" fill="#1ACDB8"></path><path d="M49.3936 0.592723L44.9989 3.27182C44.803 3.39104 44.6827 3.6096 44.6827 3.84307V30.3658C44.6827 30.5363 44.7308 30.6754 44.8271 30.783C44.9234 30.8907 45.0615 30.9436 45.2428 30.9436H49.8061C49.9859 30.9436 50.1239 30.8907 50.2202 30.783C50.3165 30.6754 50.3647 30.5363 50.3647 30.3658V1.16563C50.3647 0.650677 49.8222 0.331106 49.3936 0.594379V0.592723Z" fill="#1ACDB8"></path><path d="M145.25 10.8289C143.915 9.97287 142.314 9.54567 140.448 9.54567C138.581 9.54567 136.897 10.0126 135.396 10.9465C133.895 11.8804 132.724 13.1752 131.88 14.831C131.035 16.4868 130.615 18.3479 130.615 20.416C130.615 22.6414 131.082 24.5854 132.014 26.2478C132.948 27.9102 134.231 29.1902 135.862 30.0893C137.494 30.9884 139.334 31.4371 141.38 31.4371C142.513 31.4371 143.589 31.3328 144.606 31.1274C145.622 30.9205 146.512 30.6456 147.272 30.3045C147.452 30.2184 147.576 30.1257 147.646 30.0263C147.715 29.927 147.764 29.7697 147.791 29.5561L148.06 26.9449C148.088 26.7313 148.046 26.5889 147.937 26.516C147.826 26.4448 147.68 26.4514 147.5 26.5375C146.643 26.9234 145.741 27.2148 144.794 27.4151C143.847 27.6155 142.897 27.7148 141.942 27.7148C140.683 27.7148 139.549 27.4863 138.541 27.0293C137.531 26.5723 136.692 25.8951 136.021 24.996C135.35 24.0969 134.897 23.014 134.661 21.744H148.207C148.483 21.744 148.69 21.6943 148.829 21.595C148.967 21.4956 149.064 21.3168 149.12 21.0601C149.174 20.8035 149.219 20.5104 149.255 20.1826C149.288 19.8547 149.306 19.5269 149.306 19.199C149.306 17.4157 148.964 15.7897 148.279 14.3194C147.595 12.8507 146.585 11.6866 145.25 10.8306V10.8289ZM134.557 18.4473C134.709 17.3346 135.03 16.3759 135.521 15.5695C136.013 14.7631 136.645 14.1472 137.42 13.7183C138.194 13.2911 139.072 13.0758 140.054 13.0758C141.037 13.0758 141.911 13.2795 142.679 13.6852C143.446 14.0925 144.065 14.6985 144.536 15.5033C145.006 16.3096 145.296 17.2899 145.407 18.4456H134.558L134.557 18.4473Z" fill="white"></path><path d="M169.012 11.4714C168.098 10.8438 167.11 10.3653 166.046 10.0374C164.98 9.70959 163.874 9.54567 162.726 9.54567C160.776 9.54567 159.014 10.0159 157.437 10.9581C155.861 11.9002 154.624 13.2083 153.725 14.884C152.826 16.5597 152.377 18.4473 152.377 20.5435C152.377 22.6398 152.84 24.5373 153.767 26.1931C154.693 27.8473 155.958 29.1355 157.563 30.0561C159.166 30.9768 160.951 31.4371 162.914 31.4371C163.867 31.4371 164.787 31.3328 165.673 31.1274C166.558 30.9205 167.36 30.6539 168.079 30.3244C168.273 30.2383 168.4 30.1422 168.463 30.0363C168.525 29.9286 168.57 29.7763 168.598 29.576L168.888 26.7942C168.915 26.5806 168.874 26.4382 168.765 26.3653C168.654 26.2941 168.508 26.3008 168.33 26.3869C167.514 26.7429 166.708 27.0293 165.912 27.2429C165.118 27.4565 164.325 27.5641 163.537 27.5641C162.251 27.5641 161.068 27.2512 159.99 26.622C158.911 25.9944 158.06 25.1069 157.437 23.9578C156.815 22.8103 156.503 21.494 156.503 20.0104C156.503 18.641 156.749 17.4538 157.24 16.4471C157.731 15.442 158.405 14.6754 159.262 14.1472C160.12 13.619 161.087 13.3557 162.166 13.3557C162.981 13.3557 163.787 13.4915 164.583 13.763C165.378 14.0346 166.184 14.4336 167.001 14.9618C167.126 15.0479 167.246 15.0761 167.363 15.0479C167.48 15.0198 167.574 14.9486 167.643 14.8343L169.156 12.1387C169.225 12.0244 169.253 11.9068 169.24 11.786C169.225 11.6651 169.15 11.5608 169.012 11.4763V11.4714Z" fill="white"></path><path d="M189.117 13.1719C188.53 12.0377 187.703 11.1501 186.639 10.5077C185.573 9.86524 184.35 9.54401 182.968 9.54401C181.71 9.54401 180.554 9.84702 179.504 10.453C178.453 11.0591 177.533 11.9267 176.745 13.0527V3.97885C176.745 3.97885 176.745 3.97222 176.745 3.96891V0.998397C176.745 0.624185 176.35 0.390716 176.037 0.581134L172.83 2.52505C172.686 2.61281 172.598 2.77177 172.598 2.94231V30.4949C172.598 30.6224 172.639 30.7301 172.721 30.8162C172.803 30.9023 172.907 30.9437 173.033 30.9437H176.31C176.435 30.9437 176.538 30.9006 176.622 30.8162C176.705 30.7301 176.745 30.6241 176.745 30.4949V16.1788C177.491 15.3377 178.28 14.7068 179.109 14.2846C179.939 13.864 180.803 13.6537 181.702 13.6537C182.531 13.6537 183.26 13.8392 183.891 14.2101C184.52 14.581 185.008 15.1125 185.353 15.8046C185.698 16.4967 185.872 17.2998 185.872 18.2122V30.4949C185.872 30.6224 185.91 30.7301 185.986 30.8162C186.061 30.9023 186.169 30.9437 186.307 30.9437H189.563C189.701 30.9437 189.809 30.9006 189.884 30.8162C189.96 30.7301 189.998 30.6241 189.998 30.4949V17.0779C189.998 15.6092 189.705 14.3061 189.117 13.1719Z" fill="white"></path><path d="M128.066 26.8025C127.955 26.7098 127.809 26.7064 127.631 26.7925C127.133 27.021 126.639 27.1999 126.148 27.3274C125.657 27.4549 125.135 27.5194 124.581 27.5194C123.862 27.5194 123.246 27.3704 122.735 27.0707C122.223 26.771 121.836 26.3438 121.573 25.7875C121.31 25.2311 121.178 24.5671 121.178 23.7972V13.7829H127.069C127.207 13.7829 127.315 13.7431 127.39 13.6653C127.465 13.5875 127.504 13.4766 127.504 13.3342V10.4878C127.504 10.3454 127.465 10.2345 127.39 10.1567C127.315 10.0788 127.207 10.0391 127.069 10.0391H121.178V6.91956C121.178 6.91956 121.178 6.91294 121.178 6.90963V3.89772C121.178 3.5235 120.783 3.29003 120.47 3.48045L117.263 5.42437C117.119 5.51213 117.031 5.67108 117.031 5.84163V10.0374H114.837C114.699 10.0374 114.588 10.0656 114.504 10.1235C114.421 10.1798 114.373 10.2875 114.36 10.4448L114.09 13.2481C114.076 13.4186 114.111 13.5511 114.195 13.6438C114.278 13.7365 114.389 13.7829 114.527 13.7829H117.032V24.3105C117.032 25.809 117.305 27.0922 117.851 28.1619C118.397 29.2315 119.182 30.0445 120.206 30.6009C121.23 31.1572 122.417 31.4354 123.774 31.4354C124.397 31.4354 125.035 31.3642 125.692 31.2218C126.348 31.0794 126.905 30.9006 127.361 30.687C127.526 30.6158 127.655 30.5297 127.745 30.4303C127.835 30.331 127.892 30.1952 127.921 30.023L128.191 27.2628C128.218 27.0492 128.177 26.8952 128.067 26.8025H128.066Z" fill="white"></path><path d="M56.371 7.78389H60.6293C60.9712 7.78389 61.2472 7.49909 61.2472 7.1464V2.80488C61.2472 2.47206 60.9856 2.20217 60.663 2.20217H60.2168C60.0466 2.20217 59.8797 2.24853 59.7336 2.33794L56.013 4.59315C55.8525 4.69084 55.753 4.86802 55.753 5.06009V7.1464C55.753 7.49909 56.0291 7.78389 56.371 7.78389Z" fill="#1ACDB8"></path></g><defs><clipPath id="clip0_46_39"><rect width="190" height="31" fill="white" transform="translate(0 0.5)"></rect></clipPath></defs></svg>