<svg xmlns="http://www.w3.org/2000/svg" width="14" height="15" viewBox="0 0 14 15" fill="none"><path d="M13.6667 5.16666C13.6667 6.07999 12.92 6.83333 12 6.83333C11.08 6.83333 10.3333 6.07999 10.3333 5.16666C10.3333 6.07999 9.58668 6.83333 8.66668 6.83333C7.74668 6.83333 7.00001 6.07999 7.00001 5.16666C7.00001 6.07999 6.25334 6.83333 5.33334 6.83333C4.41334 6.83333 3.66668 6.07999 3.66668 5.16666C3.66668 6.07999 2.92001 6.83333 2.00001 6.83333C1.08001 6.83333 0.333344 6.07999 0.333344 5.16666L1.26001 1.55333C1.26001 1.55333 1.45334 0.833328 2.13334 0.833328H11.8667C12.5467 0.833328 12.74 1.55333 12.74 1.55333L13.6667 5.16666ZM13 7.63333V12.8333C13 13.5667 12.4 14.1667 11.6667 14.1667H2.33334C1.60001 14.1667 1.00001 13.5667 1.00001 12.8333V7.63333C1.43826 7.81428 1.91716 7.87387 2.38639 7.80583C2.85562 7.73779 3.29787 7.54464 3.66668 7.24666C4.12668 7.61333 4.70668 7.83333 5.33334 7.83333C5.96668 7.83333 6.54668 7.61333 7.00001 7.24666C7.46001 7.61333 8.04001 7.83333 8.66668 7.83333C9.30001 7.83333 9.88001 7.61333 10.3333 7.24666C10.7867 7.61333 11.3733 7.83333 12 7.83333C12.3533 7.83333 12.6933 7.75999 13 7.63333ZM11.6667 11.0533C11.6667 10.92 11.6667 10.78 11.6333 10.6333L11.6133 10.5267H9.63334V11.3067H10.84C10.8 11.4533 10.7467 11.6 10.6333 11.72C10.4133 11.94 10.1133 12.06 9.79334 12.06C9.46001 12.06 9.13334 11.92 8.89334 11.6867C8.43334 11.2133 8.43334 10.4467 8.90668 9.96666C9.36668 9.49999 10.1267 9.49999 10.6067 9.94666L10.7 10.0333L11.26 9.46666L11.1533 9.37333C10.78 9.02666 10.2867 8.83333 9.76668 8.83333H9.76001C9.22001 8.83333 8.71334 9.03999 8.33334 9.41333C7.94001 9.79999 7.72001 10.3067 7.72001 10.8333C7.72001 11.3667 7.92668 11.86 8.30668 12.2267C8.70266 12.6132 9.23333 12.8307 9.78668 12.8333H9.80001C10.3333 12.8333 10.8067 12.64 11.1533 12.3C11.4667 11.98 11.6667 11.5 11.6667 11.0533Z" fill="white"></path></svg>