<svg xmlns="http://www.w3.org/2000/svg" width="194" height="180" viewBox="0 0 194 180" fill="none"><g clip-path="url(#clip0_276_621)"><mask id="path-1-inside-1_276_621" fill="white"><path d="M3.05176e-05 0.5H193.4V179.5H3.05176e-05V0.5Z"></path></mask><g clip-path="url(#clip1_276_621)"><path d="M107.946 72.25L108.35 72.5921C108.499 72.7227 108.667 72.8471 108.829 72.9715C109.152 73.2265 109.451 73.4815 109.824 73.7241C110.496 74.2155 111.211 74.6633 111.926 75.1112C113.369 76.0005 114.882 76.7722 116.448 77.4188C118.009 78.0836 119.616 78.6325 121.256 79.0609C121.667 79.1728 122.09 79.2475 122.5 79.3408L123.122 79.4776C123.253 79.4776 123.122 79.4776 123.122 79.5087C123.038 79.5286 122.957 79.5645 122.886 79.6144C122.83 79.6704 122.83 79.6704 122.855 79.658C122.978 79.4756 123.074 79.2766 123.141 79.0671C123.362 78.3494 123.498 77.6083 123.545 76.859C123.62 76.0442 123.645 75.1858 123.639 74.3212C123.639 72.5858 123.502 70.8131 123.365 69.0342C123.228 67.2553 123.011 65.4702 122.78 63.6788C122.55 61.8874 122.295 60.0961 122.028 58.3296L124.366 57.7947C125.397 61.3448 126.227 64.9497 126.854 68.5926C127.18 70.4452 127.407 72.3138 127.532 74.1906C127.605 75.1591 127.628 76.1307 127.601 77.1016C127.592 78.1733 127.456 79.2402 127.197 80.28C127.021 80.9449 126.735 81.5756 126.351 82.146C126.082 82.5348 125.747 82.8737 125.362 83.1474C124.919 83.4636 124.411 83.6762 123.875 83.7694C123.414 83.8471 122.943 83.8471 122.482 83.7694L121.767 83.6512C121.288 83.5704 120.802 83.5082 120.33 83.4024C118.422 83.0237 116.55 82.4869 114.732 81.7977C112.914 81.1002 111.156 80.2556 109.476 79.2723C108.636 78.7685 107.815 78.2398 107.019 77.6614C106.621 77.3752 106.229 77.0394 105.837 76.7657C105.644 76.604 105.451 76.4485 105.259 76.2743C105.066 76.1001 104.885 75.9571 104.637 75.7207L107.946 72.25Z" fill="#E4897B"></path><path d="M101.185 69.4199C108.027 68.4931 113.525 74.0102 113.525 74.0102L107.268 83.6637C107.268 83.6637 100.563 79.3719 99.3808 76.4485C98.1616 73.4069 97.6827 69.8739 101.185 69.4199Z" fill="#1ACDB8"></path><path opacity="0.6" d="M101.185 69.4199C108.027 68.4931 113.525 74.0102 113.525 74.0102L107.268 83.6637C107.268 83.6637 100.563 79.3719 99.3808 76.4485C98.1616 73.4069 97.6827 69.8739 101.185 69.4199Z" fill="#FAFAFA"></path><path d="M122.084 59.1692L119.813 54.6162L125.766 54.5664C125.766 54.5664 125.884 57.7448 124.379 59.5424L122.084 59.1692Z" fill="#E4897B"></path><path d="M120.871 49.7212L125.299 50.5111L125.766 54.5666L119.813 54.6163L120.871 49.7212Z" fill="#E4897B"></path><path d="M107.927 65.5572C107.883 61.0353 103.791 59.4554 103.791 59.4554C103.791 59.4554 108.91 49.7646 106.279 43.3332C103.648 36.9017 94.977 35.7696 92.2278 38.7739C87.3948 38.5686 85.8585 45.5102 85.8585 45.5102C85.8585 45.5102 81.8155 46.1881 80.727 49.1302C79.6385 52.0723 82.9537 55.3875 82.9537 55.3875C82.9537 55.3875 78.3385 56.0095 76.6404 59.5611C74.9424 63.1128 75.9873 67.8275 81.0877 71.8954C88.502 77.8044 102.13 70.3902 102.13 70.3902C102.13 70.3902 107.977 70.7571 107.927 65.5572Z" fill="#263238"></path><path d="M107.05 70.0542C107.05 70.0542 109.538 71.1427 101.228 103.966L78.2141 101.969C79.4083 92.639 79.9246 86.842 77.1069 67.2116C80.3904 66.8233 83.6979 66.6757 87.003 66.77C90.5072 66.8228 94.0034 67.1242 97.465 67.6719C100.698 68.3054 103.897 69.1005 107.05 70.0542Z" fill="#1ACDB8"></path><path opacity="0.6" d="M107.05 70.0542C107.05 70.0542 109.538 71.1427 101.228 103.966L78.2141 101.969C79.4083 92.639 79.9246 86.842 77.1069 67.2116C80.3904 66.8233 83.6979 66.6757 87.003 66.77C90.5072 66.8228 94.0034 67.1242 97.465 67.6719C100.698 68.3054 103.897 69.1005 107.05 70.0542Z" fill="#FAFAFA"></path><path d="M101.085 68.4495C99.8908 68.1634 98.597 67.8897 97.4152 67.672C93.9538 67.1222 90.4576 66.8187 86.9532 66.7639C85.7527 66.7203 84.5523 66.7203 83.4265 66.7639L84.1977 68.2318C84.3346 68.493 87.6187 74.6197 93.8574 78.0967L95.5741 79.0546L97.1726 77.9163C101.203 75.0365 101.8 71.292 101.085 68.4495Z" fill="#FAFAFA"></path><path d="M89.012 55.0764C89.379 58.5036 89.5034 64.7298 86.9594 66.77C86.9594 66.77 89.8704 72.2996 95.3813 75.3661C100.258 71.8953 97.4214 67.6719 97.4214 67.6719C93.7454 66.4279 94.0813 63.6787 94.9335 61.116L89.012 55.0764Z" fill="#E4897B"></path><path d="M91.4316 57.5396L94.9521 61.1161C94.7376 61.7104 94.5753 62.3222 94.467 62.9447C93.055 62.6151 91.0024 61.1409 90.9775 59.6233C91.0058 58.9075 91.1595 58.2022 91.4316 57.5396Z" fill="#CE6F64"></path><path d="M88.8627 47.3015C88.1847 52.8995 87.7805 55.2693 90.0632 58.6343C93.4966 63.6849 100.538 63.2868 102.87 58.0123C104.973 53.2478 105.725 44.8756 100.693 41.6723C99.5899 40.9622 98.3236 40.5455 97.0142 40.4618C95.7048 40.378 94.3958 40.6299 93.211 41.1936C92.0262 41.7574 91.005 42.6143 90.244 43.6831C89.4831 44.752 89.0076 45.9974 88.8627 47.3015Z" fill="#E4897B"></path><path d="M93.2043 40.4036C97.5272 41.5232 93.254 54.6722 86.3623 50.8594C86.3623 50.8594 86.6733 45.3049 88.5891 42.9475C89.7476 41.5431 91.3982 40.6333 93.2043 40.4036Z" fill="#263238"></path><path d="M92.744 41.1313C94.61 44.1666 108.449 49.9201 103.797 43.3891C99.1444 36.8581 92.744 41.1313 92.744 41.1313Z" fill="#263238"></path><path d="M87.0838 52.147C87.0062 53.2376 87.3615 54.3148 88.0728 55.1451C89.0307 56.2336 90.2933 55.5742 90.6914 54.2556C91.046 53.0738 90.9775 51.0834 89.7024 50.4738C89.421 50.3497 89.1133 50.2971 88.8067 50.3207C88.5 50.3442 88.204 50.4432 87.9448 50.6088C87.6856 50.7744 87.4714 51.0014 87.3212 51.2698C87.171 51.5382 87.0894 51.8395 87.0838 52.147Z" fill="#E4897B"></path><path d="M77.9342 100.588L76.7213 102.56C76.6218 102.716 76.8021 102.896 77.0634 102.915L101.228 105.005C101.44 105.005 101.62 104.936 101.645 104.805L102.03 102.765C102.03 102.622 101.887 102.485 101.657 102.467L78.3261 100.445C78.2539 100.433 78.1799 100.44 78.1113 100.465C78.0426 100.49 77.9816 100.533 77.9342 100.588Z" fill="#1ACDB8"></path><path opacity="0.3" d="M77.9342 100.588L76.7213 102.56C76.6218 102.716 76.8021 102.896 77.0634 102.915L101.228 105.005C101.44 105.005 101.62 104.936 101.645 104.805L102.03 102.765C102.03 102.622 101.887 102.485 101.657 102.467L78.3261 100.445C78.2539 100.433 78.1799 100.44 78.1113 100.465C78.0426 100.49 77.9816 100.533 77.9342 100.588Z" fill="black"></path><path d="M80.8451 103.462L80.2231 103.406C80.0987 103.406 80.0117 103.325 80.0241 103.244L80.5528 100.594C80.5528 100.514 80.6834 100.458 80.8078 100.47L81.4298 100.526C81.5542 100.526 81.6413 100.607 81.6289 100.688L81.1064 103.337C81.0815 103.424 80.9695 103.462 80.8451 103.462Z" fill="#263238"></path><path d="M99.4554 105.079L98.8334 105.023C98.709 105.023 98.6219 104.942 98.6344 104.861L99.1631 102.205C99.1631 102.131 99.2937 102.075 99.4181 102.087L100.04 102.143C100.164 102.143 100.252 102.224 100.239 102.299L99.7166 104.955C99.6918 105.035 99.586 105.085 99.4554 105.079Z" fill="#263238"></path><path d="M90.1503 104.271L89.5283 104.221C89.4039 104.221 89.3168 104.134 89.3292 104.059L89.8579 101.403C89.8579 101.328 89.9885 101.272 90.1129 101.285L90.7349 101.335C90.8593 101.335 90.9464 101.422 90.934 101.496L90.4115 104.152C90.3866 104.227 90.256 104.283 90.1503 104.271Z" fill="#263238"></path><path d="M78.805 75.4719C77.8695 77.328 76.8312 79.1304 75.695 80.8709C74.5754 82.5876 73.3936 84.267 72.1185 85.8842C70.8301 87.5071 69.449 89.0543 67.9822 90.5181C67.2233 91.2334 66.4832 91.9611 65.6683 92.6329L65.0463 93.1429L64.8971 93.2673L64.698 93.4228C64.5668 93.5298 64.4298 93.6295 64.2875 93.7214C63.722 94.1088 63.1069 94.4185 62.4588 94.6419C61.2383 95.04 59.9487 95.1819 58.6708 95.0587C57.5261 94.9442 56.3988 94.6958 55.312 94.3185C53.2988 93.6161 51.3791 92.6698 49.5959 91.5008C46.1648 89.2752 43.0045 86.6576 40.1788 83.701L41.8333 81.9656C43.3199 83.1598 44.8873 84.3478 46.4921 85.4239C48.0639 86.5249 49.7007 87.5302 51.3934 88.4344C53.0051 89.3197 54.7066 90.0307 56.469 90.5554C58.1484 91.0219 59.834 91.1028 60.9971 90.6176C61.6543 90.3318 62.242 89.9075 62.7201 89.3736C63.4105 88.7516 64.0511 88.0612 64.7042 87.3894C65.9793 86.0024 67.1611 84.5158 68.3243 83.0354C69.4874 81.5551 70.5386 79.9254 71.5587 78.3082C72.0749 77.4996 72.5663 76.6786 73.0515 75.8575C73.5366 75.0365 74.0031 74.1719 74.4074 73.4006L78.805 75.4719Z" fill="#E4897B"></path><path d="M43.407 82.7059L41.1926 78.1279L37.5104 82.8054C37.5104 82.8054 39.9486 84.8393 42.3185 84.7647L43.407 82.7059Z" fill="#E4897B"></path><path d="M38.7731 76.7905L36.6894 80.7775L37.5104 82.8053L41.1927 78.1278L38.7731 76.7905Z" fill="#E4897B"></path><path d="M77.0572 67.2118C74.2333 67.7094 70.2711 75.8141 70.2711 75.8141L78.0275 82.824C78.0275 82.824 83.0533 76.0753 82.7547 72.3931C82.4997 69.252 80.6523 66.5774 77.0572 67.2118Z" fill="#1ACDB8"></path><path opacity="0.6" d="M77.0572 67.2118C74.2333 67.7094 70.2711 75.8141 70.2711 75.8141L78.0275 82.824C78.0275 82.824 83.0533 76.0753 82.7547 72.3931C82.4997 69.252 80.6523 66.5774 77.0572 67.2118Z" fill="#FAFAFA"></path><path opacity="0.6" d="M50.7528 14.2236L32.522 132.074L135.102 147.923L153.333 30.066L50.7528 14.2236ZM92.8995 81.2566C88.1911 80.5279 83.8046 78.419 80.295 75.1967C76.7854 71.9745 74.3104 67.7837 73.1831 63.1545C72.0558 58.5253 72.3268 53.6658 73.962 49.1907C75.5971 44.7156 78.5228 40.826 82.369 38.0141C86.2152 35.2021 90.809 33.5942 95.5692 33.3936C100.329 33.193 105.042 34.4089 109.111 36.8873C113.18 39.3658 116.423 42.9955 118.429 47.3172C120.435 51.6389 121.113 56.4584 120.379 61.166C119.396 67.4726 115.95 73.131 110.797 76.8981C105.645 80.6652 99.2072 82.2328 92.8995 81.2566Z" fill="#1ACDB8"></path><g style="mix-blend-mode:multiply" opacity="0.3"><path d="M132.005 143.45H131.849L29.1134 127.533V127.378L47.394 9.39062H47.5433L150.279 25.3076V25.4631L132.005 143.45ZM29.4679 127.278L131.743 143.096L149.924 25.5377L47.649 9.74516L29.4679 127.278Z" fill="#1ACDB8"></path></g><path d="M96.5942 82.4757C95.3092 82.4743 94.0262 82.3745 92.7565 82.1771C86.3754 81.1816 80.6279 77.7534 76.7199 72.6117C72.8119 67.4701 71.0472 61.0147 71.7959 54.6C72.5447 48.1853 75.7488 42.3099 80.736 38.2066C85.7231 34.1033 92.1057 32.091 98.5445 32.5919C104.983 33.0928 110.978 36.068 115.27 40.8933C119.563 45.7185 121.82 52.0187 121.567 58.472C121.315 64.9253 118.573 71.0301 113.917 75.5055C109.261 79.9809 103.052 82.479 96.5942 82.4757ZM93.0426 80.336C97.5661 81.0349 102.195 80.3768 106.345 78.445C110.494 76.5131 113.978 73.3943 116.355 69.4828C118.732 65.5713 119.896 61.0428 119.7 56.4699C119.503 51.8969 117.955 47.4848 115.252 43.7915C112.548 40.0982 108.81 37.2895 104.51 35.7204C100.21 34.1514 95.5418 33.8926 91.0949 34.9766C86.6479 36.0607 82.6222 38.439 79.5268 41.8108C76.4314 45.1825 74.4053 49.3965 73.7046 53.9197C72.7732 59.986 74.2861 66.1741 77.9114 71.1264C81.5367 76.0787 86.9784 79.3908 93.0426 80.336Z" fill="#FAFAFA"></path><path d="M73.0846 88.5477L50.4885 85.0537L49.7034 90.1311L72.2995 93.6251L73.0846 88.5477Z" fill="#1ACDB8"></path><path opacity="0.6" d="M73.0846 88.5477L50.4885 85.0537L49.7034 90.1311L72.2995 93.6251L73.0846 88.5477Z" fill="#FAFAFA"></path><path d="M91.3485 91.3727L76.0611 89.0088L75.276 94.0862L90.5634 96.4501L91.3485 91.3727Z" fill="#1ACDB8"></path><path opacity="0.6" d="M91.3485 91.3727L76.0611 89.0088L75.276 94.0862L90.5634 96.4501L91.3485 91.3727Z" fill="#FAFAFA"></path><path d="M130.605 107.977L48.8937 95.3423L48.1086 100.42L129.82 113.055L130.605 107.977Z" fill="#FAFAFA"></path><path d="M88.5226 112.244L47.8196 106.077L47.0489 111.163L87.752 117.33L88.5226 112.244Z" fill="#FAFAFA"></path><path d="M121.993 117.7L94.8112 113.497L94.0261 118.574L121.208 122.777L121.993 117.7Z" fill="#FAFAFA"></path><path d="M110.882 127.039L45.558 116.938L44.7729 122.015L110.097 132.116L110.882 127.039Z" fill="#FAFAFA"></path><path d="M154.428 147.923H153.806C153.808 146.379 153.618 144.841 153.24 143.345L153.862 143.195C154.246 144.741 154.437 146.329 154.428 147.923ZM151.99 139.886C150.621 137.022 148.552 134.549 145.975 132.696L146.336 132.192C148.997 134.103 151.136 136.653 152.556 139.606L151.99 139.886Z" fill="#1ACDB8"></path><path opacity="0.6" d="M154.428 147.923H153.806C153.808 146.379 153.618 144.841 153.24 143.345L153.862 143.195C154.246 144.741 154.437 146.329 154.428 147.923ZM151.99 139.886C150.621 137.022 148.552 134.549 145.975 132.696L146.336 132.192C148.997 134.103 151.136 136.653 152.556 139.606L151.99 139.886Z" fill="#FAFAFA"></path><path d="M135.102 130.774C131.711 130.774 128.395 131.78 125.575 133.664C122.755 135.548 120.557 138.227 119.259 141.36C117.961 144.493 117.622 147.941 118.283 151.268C118.945 154.594 120.578 157.65 122.976 160.048C125.375 162.447 128.43 164.08 131.757 164.742C135.083 165.403 138.531 165.064 141.665 163.766C144.798 162.468 147.476 160.27 149.361 157.45C151.245 154.63 152.251 151.314 152.251 147.922C152.251 143.374 150.444 139.013 147.228 135.797C144.012 132.581 139.65 130.774 135.102 130.774ZM135.102 162.85C132.15 162.85 129.264 161.975 126.809 160.335C124.354 158.694 122.44 156.363 121.311 153.635C120.181 150.907 119.885 147.906 120.461 145.01C121.037 142.114 122.459 139.454 124.547 137.367C126.634 135.279 129.294 133.857 132.19 133.281C135.086 132.705 138.087 133.001 140.815 134.131C143.543 135.261 145.874 137.174 147.514 139.629C149.155 142.084 150.03 144.97 150.03 147.922C150.03 151.882 148.457 155.679 145.658 158.478C142.858 161.278 139.061 162.85 135.102 162.85Z" fill="#1ACDB8"></path><path opacity="0.6" d="M135.102 130.774C131.711 130.774 128.395 131.78 125.575 133.664C122.755 135.548 120.557 138.227 119.259 141.36C117.961 144.493 117.622 147.941 118.283 151.268C118.945 154.594 120.578 157.65 122.976 160.048C125.375 162.447 128.43 164.08 131.757 164.742C135.083 165.403 138.531 165.064 141.665 163.766C144.798 162.468 147.476 160.27 149.361 157.45C151.245 154.63 152.251 151.314 152.251 147.922C152.251 143.374 150.444 139.013 147.228 135.797C144.012 132.581 139.65 130.774 135.102 130.774ZM135.102 162.85C132.15 162.85 129.264 161.975 126.809 160.335C124.354 158.694 122.44 156.363 121.311 153.635C120.181 150.907 119.885 147.906 120.461 145.01C121.037 142.114 122.459 139.454 124.547 137.367C126.634 135.279 129.294 133.857 132.19 133.281C135.086 132.705 138.087 133.001 140.815 134.131C143.543 135.261 145.874 137.174 147.514 139.629C149.155 142.084 150.03 144.97 150.03 147.922C150.03 151.882 148.457 155.679 145.658 158.478C142.858 161.278 139.061 162.85 135.102 162.85Z" fill="#FAFAFA"></path><path d="M135.102 162.844C143.343 162.844 150.024 156.164 150.024 147.923C150.024 139.681 143.343 133.001 135.102 133.001C126.861 133.001 120.18 139.681 120.18 147.923C120.18 156.164 126.861 162.844 135.102 162.844Z" fill="#1ACDB8"></path><path opacity="0.2" d="M135.102 162.844C143.343 162.844 150.024 156.164 150.024 147.923C150.024 139.681 143.343 133.001 135.102 133.001C126.861 133.001 120.18 139.681 120.18 147.923C120.18 156.164 126.861 162.844 135.102 162.844Z" fill="black"></path><path d="M132.782 157.364L124.024 148.607L126.226 146.411L132.782 152.967L143.984 141.765L146.18 143.967L132.782 157.364Z" fill="#FAFAFA"></path></g></g><path d="M193.4 179.5V178.5H3.05176e-05V179.5V180.5H193.4V179.5Z" fill="black" fill-opacity="0.3" mask="url(#path-1-inside-1_276_621)"></path><defs><clipPath id="clip0_276_621"><path d="M3.05176e-05 0.5H193.4V179.5H3.05176e-05V0.5Z" fill="white"></path></clipPath><clipPath id="clip1_276_621"><rect width="311" height="199" fill="white" transform="translate(-64 -34)"></rect></clipPath></defs></svg>