<svg xmlns="http://www.w3.org/2000/svg" width="125" height="219" viewBox="0 0 125 219" fill="none"><circle cx="2.87794" cy="2.37794" r="2.37794" fill="#E5E5E5"></circle><circle cx="2.87794" cy="26.157" r="2.37794" fill="#E5E5E5"></circle><circle cx="2.87794" cy="49.9363" r="2.37794" fill="#E5E5E5"></circle><circle cx="2.87794" cy="73.7156" r="2.37794" fill="#E5E5E5"></circle><circle cx="2.87794" cy="97.4954" r="2.37794" fill="#E5E5E5"></circle><circle cx="2.87794" cy="121.275" r="2.37794" fill="#E5E5E5"></circle><circle cx="2.87794" cy="145.054" r="2.37794" fill="#E5E5E5"></circle><circle cx="2.87794" cy="168.833" r="2.37794" fill="#E5E5E5"></circle><circle cx="2.87794" cy="192.613" r="2.37794" fill="#E5E5E5"></circle><circle cx="2.87794" cy="216.393" r="2.37794" fill="#E5E5E5"></circle><circle cx="26.6572" cy="2.37794" r="2.37794" fill="#E5E5E5"></circle><circle cx="26.6572" cy="26.157" r="2.37794" fill="#E5E5E5"></circle><circle cx="26.6572" cy="49.9363" r="2.37794" fill="#E5E5E5"></circle><circle cx="26.6572" cy="73.7156" r="2.37794" fill="#E5E5E5"></circle><circle cx="26.6572" cy="97.4954" r="2.37794" fill="#E5E5E5"></circle><circle cx="26.6572" cy="121.275" r="2.37794" fill="#E5E5E5"></circle><circle cx="26.6572" cy="145.054" r="2.37794" fill="#E5E5E5"></circle><circle cx="26.6572" cy="168.833" r="2.37794" fill="#E5E5E5"></circle><circle cx="26.6572" cy="192.613" r="2.37794" fill="#E5E5E5"></circle><circle cx="26.6572" cy="216.393" r="2.37794" fill="#E5E5E5"></circle><circle cx="50.4368" cy="2.37794" r="2.37794" fill="#E5E5E5"></circle><circle cx="50.4368" cy="26.157" r="2.37794" fill="#E5E5E5"></circle><circle cx="50.4368" cy="49.9363" r="2.37794" fill="#E5E5E5"></circle><circle cx="50.4368" cy="73.7156" r="2.37794" fill="#E5E5E5"></circle><circle cx="50.4368" cy="97.4954" r="2.37794" fill="#E5E5E5"></circle><circle cx="50.4368" cy="121.275" r="2.37794" fill="#E5E5E5"></circle><circle cx="50.4368" cy="145.054" r="2.37794" fill="#E5E5E5"></circle><circle cx="50.4368" cy="168.833" r="2.37794" fill="#E5E5E5"></circle><circle cx="50.4368" cy="192.613" r="2.37794" fill="#E5E5E5"></circle><circle cx="50.4368" cy="216.393" r="2.37794" fill="#E5E5E5"></circle><circle cx="74.2161" cy="2.37794" r="2.37794" fill="#E5E5E5"></circle><circle cx="74.2161" cy="26.157" r="2.37794" fill="#E5E5E5"></circle><circle cx="74.2161" cy="49.9363" r="2.37794" fill="#E5E5E5"></circle><circle cx="74.2161" cy="73.7156" r="2.37794" fill="#E5E5E5"></circle><circle cx="74.2161" cy="97.4954" r="2.37794" fill="#E5E5E5"></circle><circle cx="74.2161" cy="121.275" r="2.37794" fill="#E5E5E5"></circle><circle cx="74.2161" cy="145.054" r="2.37794" fill="#E5E5E5"></circle><circle cx="74.2161" cy="168.833" r="2.37794" fill="#E5E5E5"></circle><circle cx="74.2161" cy="192.613" r="2.37794" fill="#E5E5E5"></circle><circle cx="74.2161" cy="216.393" r="2.37794" fill="#E5E5E5"></circle><circle cx="97.9956" cy="2.37794" r="2.37794" fill="#E5E5E5"></circle><circle cx="97.9956" cy="26.157" r="2.37794" fill="#E5E5E5"></circle><circle cx="97.9956" cy="49.9363" r="2.37794" fill="#E5E5E5"></circle><circle cx="97.9956" cy="73.7156" r="2.37794" fill="#E5E5E5"></circle><circle cx="97.9956" cy="97.4954" r="2.37794" fill="#E5E5E5"></circle><circle cx="97.9956" cy="121.275" r="2.37794" fill="#E5E5E5"></circle><circle cx="97.9956" cy="145.054" r="2.37794" fill="#E5E5E5"></circle><circle cx="97.9956" cy="168.833" r="2.37794" fill="#E5E5E5"></circle><circle cx="97.9956" cy="192.613" r="2.37794" fill="#E5E5E5"></circle><circle cx="97.9956" cy="216.393" r="2.37794" fill="#E5E5E5"></circle><circle cx="121.775" cy="2.37794" r="2.37794" fill="#E5E5E5"></circle><circle cx="121.775" cy="26.157" r="2.37794" fill="#E5E5E5"></circle><circle cx="121.775" cy="49.9363" r="2.37794" fill="#E5E5E5"></circle><circle cx="121.775" cy="73.7156" r="2.37794" fill="#E5E5E5"></circle><circle cx="121.775" cy="97.4954" r="2.37794" fill="#E5E5E5"></circle><circle cx="121.775" cy="121.275" r="2.37794" fill="#E5E5E5"></circle><circle cx="121.775" cy="145.054" r="2.37794" fill="#E5E5E5"></circle><circle cx="121.775" cy="168.833" r="2.37794" fill="#E5E5E5"></circle><circle cx="121.775" cy="192.613" r="2.37794" fill="#E5E5E5"></circle><circle cx="121.775" cy="216.393" r="2.37794" fill="#E5E5E5"></circle></svg>