<svg xmlns="http://www.w3.org/2000/svg" width="185" height="185" viewBox="0 0 185 185" fill="none"><path d="M185 141.488H0V141.581H185V141.488Z" fill="#EBEBEB"></path><path d="M31.6646 145.01H19.4102V145.103H31.6646V145.01Z" fill="#EBEBEB"></path><path d="M79.0579 144.008H63.3218V144.1H79.0579V144.008Z" fill="#EBEBEB"></path><path d="M41.6842 146.309H34.5839V146.402H41.6842V146.309Z" fill="#EBEBEB"></path><path d="M166.463 147.826H160.828V147.919H166.463V147.826Z" fill="#EBEBEB"></path><path d="M157.531 147.826H144.844V147.919H157.531V147.826Z" fill="#EBEBEB"></path><path d="M122.777 145.162H113.96V145.255H122.777V145.162Z" fill="#EBEBEB"></path><path d="M87.69 124.986H16.2467C15.687 124.985 15.1506 124.762 14.7552 124.366C14.3598 123.97 14.1377 123.433 14.1377 122.873V22.4443C14.1426 21.8878 14.3668 21.3557 14.7617 20.9636C15.1566 20.5715 15.6902 20.3511 16.2467 20.3501H87.69C88.2503 20.3501 88.7877 20.5727 89.1839 20.9689C89.5801 21.3651 89.8027 21.9025 89.8027 22.4628V122.873C89.8027 123.434 89.5801 123.971 89.1839 124.367C88.7877 124.764 88.2503 124.986 87.69 124.986ZM16.2467 20.4241C15.7115 20.4251 15.1987 20.6384 14.8206 21.0171C14.4425 21.3959 14.2302 21.9091 14.2302 22.4443V122.873C14.2302 123.409 14.4425 123.922 14.8206 124.301C15.1987 124.679 15.7115 124.893 16.2467 124.894H87.69C88.2255 124.893 88.7388 124.679 89.1174 124.301C89.4961 123.922 89.7092 123.409 89.7102 122.873V22.4443C89.7092 21.9088 89.4961 21.3955 89.1174 21.0169C88.7388 20.6382 88.2255 20.4251 87.69 20.4241H16.2467Z" fill="#EBEBEB"></path><path d="M167.725 124.986H96.2777C95.7177 124.985 95.1809 124.762 94.7849 124.366C94.3889 123.97 94.166 123.433 94.165 122.873V22.4443C94.1708 21.8875 94.3959 21.3554 94.7913 20.9634C95.1868 20.5714 95.7208 20.351 96.2777 20.3501H167.725C168.281 20.352 168.813 20.5729 169.207 20.9649C169.601 21.3569 169.825 21.8885 169.83 22.4443V122.873C169.83 123.432 169.608 123.969 169.214 124.365C168.819 124.761 168.284 124.984 167.725 124.986ZM96.2777 20.4241C95.7422 20.4251 95.2289 20.6382 94.8503 21.0169C94.4716 21.3955 94.2585 21.9088 94.2575 22.4443V122.873C94.2585 123.409 94.4716 123.922 94.8503 124.301C95.2289 124.679 95.7422 124.893 96.2777 124.894H167.725C168.26 124.893 168.773 124.679 169.152 124.301C169.531 123.922 169.744 123.409 169.745 122.873V22.4443C169.744 21.9088 169.531 21.3955 169.152 21.0169C168.773 20.6382 168.26 20.4251 167.725 20.4241H96.2777Z" fill="#EBEBEB"></path><path d="M160.251 28.738H42.4279V132.538H160.251V28.738Z" fill="#E0E0E0"></path><path d="M158.112 37.6179H40.2893V132.538H158.112V37.6179Z" fill="#F5F5F5"></path><path d="M140.681 53.5686H55.9921V116.587H140.681V53.5686Z" fill="white"></path><path d="M24.7493 132.534H40.2893L40.2893 37.6144H24.7493L24.7493 132.534Z" fill="#F0F0F0"></path><path d="M24.7493 43.6602H40.2893V37.6181H24.7493V43.6602Z" fill="#EBEBEB"></path><path d="M24.7493 37.6143L158.112 37.6143V28.7343L24.7493 28.7343V37.6143Z" fill="#E6E6E6"></path><path d="M40.2893 41.3142L76.1793 41.3142V37.6142L40.2893 37.6142V41.3142Z" fill="#FAFAFA"></path><path d="M112.069 37.6179H76.1793V41.3179H112.069V37.6179Z" fill="#EBEBEB"></path><path d="M31.3538 44.8921H25.9148V50.3311H31.3538V44.8921Z" fill="#E6E6E6"></path><path d="M39.1238 44.8921H33.6848V50.3311H39.1238V44.8921Z" fill="#E6E6E6"></path><path d="M33.6848 58.105H39.1238V52.666H33.6848V58.105Z" fill="#E6E6E6"></path><path d="M25.9148 58.105H31.3538V52.666H25.9148V58.105Z" fill="#E6E6E6"></path><path d="M31.3538 60.4321H25.9148V65.8711H31.3538V60.4321Z" fill="#E6E6E6"></path><path d="M39.1238 60.4321H33.6848V65.8711H39.1238V60.4321Z" fill="#E6E6E6"></path><path d="M33.6848 73.645H39.1238V68.206H33.6848V73.645Z" fill="#E6E6E6"></path><path d="M25.9148 73.645H31.3538V68.206H25.9148V73.645Z" fill="#E6E6E6"></path><path d="M31.3538 75.9722H25.9148V81.4112H31.3538V75.9722Z" fill="#E6E6E6"></path><path d="M39.1238 75.9722H33.6848V81.4112H39.1238V75.9722Z" fill="#E6E6E6"></path><path d="M33.6848 89.1848H39.1238V83.7458H33.6848V89.1848Z" fill="#E6E6E6"></path><path d="M25.9148 89.1848H31.3538V83.7458H25.9148V89.1848Z" fill="#E6E6E6"></path><path d="M25.9148 110.386H29.2485V107.052H25.9148V110.386Z" fill="#E6E6E6"></path><path d="M35.7901 110.386H39.1238V107.052H35.7901V110.386Z" fill="#E6E6E6"></path><path d="M30.8506 110.386H34.1843V107.052H30.8506V110.386Z" fill="#E6E6E6"></path><path d="M31.006 104.688H39.0905V96.6035H31.006V104.688Z" fill="#E6E6E6"></path><path d="M25.9148 99.6003H33.9993V91.5158H25.9148V99.6003Z" fill="white"></path><path d="M130.084 76.8827C131.284 69.4862 126.262 62.5168 118.865 61.3162C111.469 60.1156 104.499 65.1384 103.299 72.5349C102.098 79.9314 107.121 86.9008 114.517 88.1014C121.914 89.302 128.883 84.2793 130.084 76.8827Z" fill="#F5F5F5"></path><path d="M121.138 107.056V83.7458H112.232V107.056H121.138Z" fill="#F5F5F5"></path><path d="M104.814 89.8731L94.35 100.351C94.35 100.351 87.8935 93.1106 79.3428 93.9283C76.183 86.9871 72.5718 72.1982 71.5728 67.9802L85.84 82.2474C85.5826 82.7159 85.503 83.2615 85.6156 83.784C85.7282 84.3065 86.0256 84.7709 86.4531 85.0917C86.8806 85.4126 87.4095 85.5685 87.9427 85.5307C88.4759 85.4929 88.9775 85.264 89.3555 84.886C89.7335 84.508 89.9624 84.0064 90.0002 83.4732C90.038 82.94 89.8821 82.4111 89.5613 81.9836C89.2404 81.5561 88.776 81.2587 88.2535 81.1461C87.731 81.0334 87.1854 81.1131 86.7169 81.3705L72.4497 67.1033C76.6714 68.0986 91.4603 71.7098 98.4015 74.8733C97.5727 83.4166 104.814 89.8731 104.814 89.8731Z" fill="#1ACDB8"></path><path opacity="0.2" d="M98.3867 74.8733C91.4492 71.7098 76.6566 68.0986 72.4349 67.1033L86.7021 81.3705C87.1669 81.1162 87.7079 81.0381 88.2257 81.1506C88.7434 81.263 89.2033 81.5584 89.5209 81.9825C89.8384 82.4067 89.9923 82.9311 89.9544 83.4596C89.9164 83.9881 89.6892 84.4851 89.3143 84.8596L99.5707 95.1123L104.814 89.8731C104.814 89.8731 97.5727 83.4166 98.3867 74.8733Z" fill="black"></path><path d="M133.718 129.263C132.83 130.147 131.629 130.642 130.377 130.642C129.125 130.642 127.923 130.147 127.036 129.263L96.3258 98.5531L103.008 91.8672L133.718 122.577C134.602 123.465 135.098 124.667 135.098 125.92C135.098 127.173 134.602 128.375 133.718 129.263Z" fill="#1ACDB8"></path><path opacity="0.7" d="M133.718 129.263C132.83 130.147 131.629 130.642 130.377 130.642C129.125 130.642 127.923 130.147 127.036 129.263L96.3258 98.5531L103.008 91.8672L133.718 122.577C134.602 123.465 135.098 124.667 135.098 125.92C135.098 127.173 134.602 128.375 133.718 129.263Z" fill="white"></path><path d="M103.315 91.5323L95.9899 98.8579C95.5665 99.2813 95.5665 99.9677 95.9899 100.391L97.8422 102.243C98.2656 102.667 98.952 102.667 99.3754 102.243L106.701 94.9178C107.124 94.4944 107.124 93.808 106.701 93.3847L104.849 91.5323C104.425 91.1089 103.739 91.1089 103.315 91.5323Z" fill="#1ACDB8"></path><path d="M102.984 88.1553L92.616 98.5236C92.1074 99.0323 92.1074 99.8569 92.616 100.366L94.3192 102.069C94.8278 102.577 95.6524 102.577 96.1611 102.069L106.529 91.7003C107.038 91.1917 107.038 90.3671 106.529 89.8585L104.826 88.1553C104.318 87.6466 103.493 87.6467 102.984 88.1553Z" fill="#1ACDB8"></path><path opacity="0.4" d="M102.984 88.1553L92.616 98.5236C92.1074 99.0323 92.1074 99.8569 92.616 100.366L94.3192 102.069C94.8278 102.577 95.6524 102.577 96.1611 102.069L106.529 91.7003C107.038 91.1917 107.038 90.3671 106.529 89.8585L104.826 88.1553C104.318 87.6466 103.493 87.6467 102.984 88.1553Z" fill="black"></path><path d="M95.5697 95.57L94.0784 97.0613L97.6235 100.606L99.1148 99.1151L95.5697 95.57Z" fill="white"></path><path d="M100.123 98.1173L100.735 97.5051L97.1897 93.96L96.5774 94.5723L100.123 98.1173Z" fill="white"></path><path d="M69.1456 134.036C50.024 114.918 50.024 83.8088 69.1456 64.6871C88.2672 45.5655 119.377 45.5655 138.495 64.6871L137.929 65.2532C119.121 46.4461 88.5188 46.4461 69.7117 65.2532C50.9046 84.0604 50.9046 114.663 69.7117 133.47L69.1456 134.036Z" fill="#1ACDB8"></path><path d="M103.533 30.2979L34.7502 99.0803L35.3179 99.6481L104.1 30.8657L103.533 30.2979Z" fill="#1ACDB8"></path><path d="M69.4266 59.836L64.2882 64.9744L69.4266 70.1128L74.565 64.9744L69.4266 59.836Z" fill="white"></path><path d="M69.4268 70.67L63.7214 64.972L69.4268 59.2629L75.1359 64.972L69.4268 70.67ZM64.8573 64.972L69.4268 69.56L74 64.972L69.4268 60.3988L64.8573 64.972Z" fill="#1ACDB8"></path><path d="M69.427 128.616L64.2886 133.754L69.427 138.893L74.5654 133.754L69.427 128.616Z" fill="white"></path><path d="M69.4268 139.46L63.7214 133.755L69.4268 128.046L75.1359 133.755L69.4268 139.46ZM64.8573 133.755L69.4268 138.324L74 133.755L69.4268 129.182L64.8573 133.755Z" fill="#1ACDB8"></path><path d="M138.362 59.6802L133.223 64.8186L138.362 69.957L143.5 64.8186L138.362 59.6802Z" fill="white"></path><path d="M138.38 70.5295L132.671 64.8204L138.38 59.115L144.085 64.8204L138.38 70.5295ZM133.807 64.8204L138.38 69.3936L142.949 64.8204L138.38 60.2509L133.807 64.8204Z" fill="#1ACDB8"></path><path d="M103.97 34.0622C105.977 34.0622 107.603 32.4355 107.603 30.4288C107.603 28.4221 105.977 26.7954 103.97 26.7954C101.963 26.7954 100.337 28.4221 100.337 30.4288C100.337 32.4355 101.963 34.0622 103.97 34.0622Z" fill="white"></path><path d="M103.97 34.4655C103.306 34.466 102.652 34.3027 102.066 33.9901C101.48 33.6774 100.981 33.225 100.611 32.6731C100.242 32.1211 100.015 31.4865 99.9495 30.8257C99.8842 30.1648 99.983 29.498 100.237 28.8845C100.491 28.2709 100.893 27.7295 101.406 27.3082C101.919 26.887 102.529 26.5989 103.18 26.4695C103.831 26.3401 104.505 26.3734 105.14 26.5664C105.775 26.7594 106.353 27.1062 106.823 27.5761C107.387 28.1406 107.77 28.8596 107.926 29.6422C108.081 30.4248 108.002 31.2359 107.696 31.9731C107.391 32.7103 106.874 33.3405 106.211 33.7841C105.548 34.2277 104.768 34.4648 103.97 34.4655ZM103.97 27.1987C103.224 27.1994 102.501 27.4587 101.924 27.9325C101.348 28.4062 100.954 29.0652 100.808 29.7971C100.663 30.529 100.776 31.2886 101.128 31.9466C101.48 32.6046 102.049 33.1203 102.738 33.4059C103.428 33.6914 104.195 33.7292 104.909 33.5128C105.623 33.2964 106.24 32.8391 106.655 32.2189C107.07 31.5987 107.257 30.8538 107.184 30.1112C107.111 29.3686 106.784 28.674 106.257 28.1459C105.957 27.8448 105.601 27.606 105.208 27.4435C104.816 27.2809 104.395 27.1977 103.97 27.1987Z" fill="#1ACDB8"></path><path d="M35.0353 102.997C37.042 102.997 38.6687 101.37 38.6687 99.3634C38.6687 97.3567 37.042 95.73 35.0353 95.73C33.0286 95.73 31.4019 97.3567 31.4019 99.3634C31.4019 101.37 33.0286 102.997 35.0353 102.997Z" fill="white"></path><path d="M35.0353 103.396C34.3714 103.396 33.7177 103.233 33.1322 102.919C32.5467 102.606 32.0475 102.154 31.6788 101.602C31.31 101.05 31.0832 100.415 31.0183 99.7543C30.9534 99.0935 31.0524 98.427 31.3067 97.8137C31.561 97.2004 31.9626 96.6593 32.476 96.2383C32.9894 95.8173 33.5987 95.5294 34.2499 95.4002C34.9012 95.271 35.5742 95.3044 36.2095 95.4974C36.8447 95.6905 37.4225 96.0373 37.8917 96.507C38.4558 97.0717 38.8398 97.7911 38.9951 98.574C39.1505 99.357 39.0702 100.168 38.7645 100.906C38.4588 101.643 37.9414 102.273 37.2776 102.717C36.6138 103.16 35.8335 103.396 35.0353 103.396ZM35.0353 96.1296C34.2871 96.1296 33.5621 96.389 32.9838 96.8636C32.4054 97.3382 32.0095 97.9987 31.8636 98.7324C31.7176 99.4662 31.8305 100.228 32.1832 100.888C32.5359 101.548 33.1064 102.065 33.7976 102.351C34.4888 102.637 35.2579 102.675 35.9739 102.458C36.6898 102.241 37.3083 101.782 37.724 101.16C38.1396 100.538 38.3268 99.7911 38.2534 99.0465C38.1801 98.3019 37.8509 97.6058 37.3219 97.0768C37.0219 96.7762 36.6654 96.5378 36.273 96.3752C35.8806 96.2127 35.46 96.1292 35.0353 96.1296Z" fill="#1ACDB8"></path></svg>