<svg xmlns="http://www.w3.org/2000/svg" width="36" height="24" viewBox="0 0 36 24" fill="none"><path d="M4.28041 15.7384C4.28041 17.1103 4.57381 18.1636 4.95717 18.8008C5.45988 19.6355 6.20951 19.9891 6.97391 19.9891C7.95979 19.9891 8.86172 19.7378 10.5997 17.2702C11.9922 15.2924 13.6329 12.5159 14.7368 10.7754L16.6064 7.82667C17.9051 5.77881 19.4082 3.50232 21.1318 1.95916C22.5385 0.699649 24.0564 0 25.5838 0C28.1484 0 30.5911 1.52561 32.4607 4.38695C34.5067 7.52056 35.5 11.4676 35.5 15.5409C35.5 17.9624 35.0352 19.7416 34.244 21.1474C33.4796 22.5068 31.9897 23.865 29.4837 23.865V19.9891C31.6295 19.9891 32.165 17.9649 32.165 15.6484C32.165 12.3474 31.4153 8.68379 29.7637 6.06625C28.5915 4.2094 27.0725 3.07495 25.4014 3.07495C23.594 3.07495 22.1394 4.47425 20.5048 6.96968C19.6358 8.2953 18.7436 9.91088 17.742 11.7338L16.6392 13.7392C14.424 17.7712 13.8629 18.6895 12.7553 20.2052C10.8139 22.8592 9.15635 23.865 6.97391 23.865C4.38514 23.865 2.74793 22.7141 1.73416 20.9799C0.906465 19.5667 0.5 17.7126 0.5 15.5997L4.28041 15.7384Z" fill="#0081FB"></path><path d="M3.48071 4.66049C5.21403 1.91804 7.71517 0 10.5839 0C12.2455 0 13.897 0.504842 15.6217 1.95046C17.5082 3.53095 19.5189 6.13361 22.0274 10.4232L22.927 11.9624C25.0983 15.6759 26.3337 17.5862 27.0566 18.4873C27.9866 19.6442 28.6378 19.9891 29.4837 19.9891C31.6295 19.9891 32.165 17.9649 32.165 15.6484L35.5 15.5409C35.5 17.9624 35.0351 19.7416 34.2439 21.1474C33.4795 22.5068 31.9897 23.865 29.4837 23.865C27.9258 23.865 26.5456 23.5176 25.0192 22.0394C23.8459 20.905 22.4742 18.8895 21.4189 17.0778L18.2798 11.695C16.705 8.99368 15.2601 6.97965 14.4241 6.06737C13.5248 5.0866 12.3684 3.90204 10.5232 3.90204C9.02985 3.90204 7.76151 4.97797 6.70017 6.62344L3.48071 4.66049Z" fill="url(#paint0_linear_282_1750)"></path><path d="M10.5231 3.90204C9.02975 3.90204 7.76141 4.97797 6.70006 6.62344C5.19943 8.94877 4.28041 12.4122 4.28041 15.7384C4.28041 17.1103 4.57381 18.1636 4.95717 18.8008L1.73416 20.9799C0.906465 19.5667 0.5 17.7126 0.5 15.5997C0.5 11.7575 1.5273 7.75298 3.48074 4.66049C5.21406 1.91804 7.7152 0 10.584 0L10.5231 3.90204Z" fill="url(#paint1_linear_282_1750)"></path><defs><linearGradient id="paint0_linear_282_1750" x1="447.844" y1="1334.86" x2="2855.22" y2="1453.31" gradientUnits="userSpaceOnUse"><stop stop-color="#0064E1"></stop><stop offset="0.4" stop-color="#0064E1"></stop><stop offset="0.83" stop-color="#0073EE"></stop><stop offset="1" stop-color="#0082FB"></stop></linearGradient><linearGradient id="paint1_linear_282_1750" x1="548.211" y1="1736.76" x2="548.211" y2="824.658" gradientUnits="userSpaceOnUse"><stop stop-color="#0082FB"></stop><stop offset="1" stop-color="#0064E0"></stop></linearGradient></defs></svg>