<svg xmlns="http://www.w3.org/2000/svg" width="17" height="16" viewBox="0 0 17 16" fill="none"><path d="M8.5 0C4.08175 0 0.5 3.58181 0.5 8C0.5 12.4185 4.08181 16 8.5 16C12.9186 16 16.5 12.4185 16.5 8C16.5 3.58213 12.9186 0.0004375 8.49988 0.0004375L8.5 0ZM12.1687 11.5384C12.0254 11.7734 11.7177 11.8479 11.4827 11.7036C9.60444 10.5563 7.23994 10.2964 4.45525 10.9327C4.3263 10.962 4.19096 10.939 4.07901 10.8686C3.96706 10.7982 3.88765 10.6862 3.85825 10.5573C3.84361 10.4934 3.8417 10.4273 3.85263 10.3628C3.86356 10.2982 3.88711 10.2364 3.92194 10.181C3.95677 10.1255 4.0022 10.0775 4.05562 10.0396C4.10903 10.0017 4.1694 9.97472 4.23325 9.96019C7.28075 9.26394 9.89469 9.56369 12.0034 10.8524C12.2384 10.9967 12.3129 11.3034 12.1687 11.5384ZM13.1479 9.36006C12.9672 9.6535 12.5833 9.74619 12.29 9.56563C10.1396 8.24388 6.86169 7.86106 4.31825 8.63313C3.98837 8.73275 3.64 8.54688 3.53988 8.21756C3.4405 7.88769 3.6265 7.53994 3.95581 7.43969C6.86112 6.55806 10.473 6.98513 12.9425 8.50263C13.2358 8.68325 13.3284 9.06719 13.1479 9.36006ZM13.2319 7.09175C10.6536 5.56025 6.39962 5.41937 3.93794 6.16663C3.54262 6.2865 3.12456 6.06331 3.00481 5.668C2.885 5.2725 3.10794 4.85475 3.50356 4.73456C6.32938 3.87669 11.0271 4.0425 13.9956 5.80475C14.3519 6.01575 14.4684 6.475 14.2573 6.83006C14.0472 7.18569 13.5867 7.30288 13.2323 7.09175H13.2319Z" fill="#1ED760"></path></svg>