<svg xmlns="http://www.w3.org/2000/svg" width="17" height="16" viewBox="0 0 17 16" fill="none"><path d="M0.5 8.00012C0.5 11.276 2.46988 14.0903 5.28869 15.3276C5.26619 14.7689 5.28469 14.0983 5.42794 13.4905C5.58175 12.8411 6.45731 9.13125 6.45731 9.13125C6.45731 9.13125 6.20175 8.62044 6.20175 7.8655C6.20175 6.67994 6.88888 5.7945 7.74463 5.7945C8.47231 5.7945 8.82388 6.34106 8.82388 6.99556C8.82388 7.72706 8.35731 8.82125 8.11737 9.83469C7.91694 10.6833 8.54287 11.3755 9.38006 11.3755C10.8958 11.3755 11.9167 9.42869 11.9167 7.12206C11.9167 5.36869 10.7358 4.05631 8.58781 4.05631C6.16106 4.05631 4.64925 5.86606 4.64925 7.88756C4.64925 8.58456 4.85475 9.07606 5.17662 9.45669C5.32463 9.6315 5.34519 9.70181 5.29163 9.90256C5.25325 10.0497 5.16512 10.4041 5.12862 10.5446C5.07538 10.7472 4.91119 10.8196 4.72806 10.7448C3.61031 10.2885 3.08975 9.06444 3.08975 7.68844C3.08975 5.41587 5.00637 2.69088 8.80737 2.69088C11.8617 2.69088 13.8721 4.90112 13.8721 7.27369C13.8721 10.412 12.1273 12.7566 9.55544 12.7566C8.69175 12.7566 7.87931 12.2897 7.601 11.7594C7.601 11.7594 7.13656 13.6026 7.03819 13.9586C6.86856 14.5754 6.53656 15.1919 6.233 15.6724C6.9691 15.89 7.73271 16.0005 8.50031 16.0004C12.9181 16.0004 16.5001 12.4186 16.5001 8.00012C16.5001 3.58181 12.9181 0 8.50031 0C4.08213 0 0.5 3.58181 0.5 8.00012Z" fill="#CB1F27"></path></svg>