<svg xmlns="http://www.w3.org/2000/svg" width="214" height="197" viewBox="0 0 214 197" fill="none"><path d="M96.2101 122.592C111.126 117.722 120.696 114.032 131.589 113.904C131.589 113.904 147.104 115.903 153.524 113.904C172.296 108.049 173.931 86.7259 163.796 70.9841C153.301 54.6815 134.413 59.3339 134.413 59.3339C111.806 63.4855 96.7237 58.9059 88.8357 55.0924C82.5141 52.0451 74.8743 53.1793 70.0037 58.2211C68.9065 59.3091 68.048 60.6137 67.4828 62.0517C60.5449 81.0506 68.5356 99.6173 71.3861 110.955C72.439 115.158 81.29 127.463 96.2101 122.592Z" stroke="white" stroke-linecap="round" stroke-linejoin="round" stroke-dasharray="2 2"></path><path d="M103.118 43.9987C102.515 51.112 101.881 58.3238 102.04 65.4329C102.412 82.6556 104.141 99.8227 105.237 117.007C105.892 127.249 107.916 138.073 105.853 148.251C103.923 157.791 96.3257 165.666 86.3747 166.372C75.4222 167.151 67.5085 156.926 68.7026 146.642C69.5971 138.938 74.2281 131.82 74.502 124.056C74.8658 113.604 62.6507 114.953 54.7113 108.22C45.368 100.311 36.1446 89.7947 33.4311 77.5367C32.6479 74.0143 32.4467 70.2607 33.7521 66.8753C39.6628 51.5871 64.7522 47.7479 74.502 60.742C84.5472 74.1384 80.5882 93.621 97.0276 95.4485C113.467 97.2761 129.603 90.274 145.434 86.315C161.266 82.356 178.921 92.1016 176.182 112.8C173.443 133.498 147.87 132.916 135.997 118.586C124.124 104.257 129.603 75.0501 132.038 63.4641C133.378 57.1126 136.819 51.4116 139.836 45.7449C142.212 41.2766 145.208 36.6114 144.437 31.3341C142.165 15.7763 116.189 11.3765 108.293 24.8029C108.284 24.82 104.274 30.3369 103.118 43.9987Z" stroke="white" stroke-linecap="round" stroke-linejoin="round" stroke-dasharray="2 2"></path><path d="M106.529 106.589C102.527 106.589 98.6882 104.999 95.858 102.169C93.0278 99.339 91.4379 95.5005 91.4379 91.498C91.4379 87.4956 93.0278 83.657 95.858 80.8269C98.6882 77.9967 102.527 76.4067 106.529 76.4067C110.532 76.4067 114.37 77.9967 117.2 80.8269C120.03 83.657 121.62 87.4956 121.62 91.498C121.62 95.5005 120.03 99.339 117.2 102.169C114.37 104.999 110.532 106.589 106.529 106.589Z" fill="#292929" stroke="#292929" stroke-miterlimit="10"></path><path d="M104.137 100.619H107.813V91.4209H110.381L110.651 88.3393H107.813V86.5759C107.813 85.8526 107.959 85.5658 108.669 85.5658H110.655V82.3687H108.113C105.378 82.3687 104.145 83.5713 104.145 85.874V88.3307H102.236V91.4508H104.145L104.137 100.619Z" fill="#1ACDB8"></path><path d="M112.444 79.1289C113.859 79.8045 115.148 80.718 116.253 81.8296" stroke="white" stroke-width="0.75" stroke-linecap="round" stroke-linejoin="round"></path><path d="M98.0333 80.738C98.3458 80.4898 98.6753 80.2544 99.0177 80.0276C100.843 78.8305 102.928 78.087 105.099 77.8592C107.27 77.6314 109.464 77.9258 111.498 78.7179" stroke="white" stroke-width="0.75" stroke-linecap="round" stroke-linejoin="round"></path><path d="M104.86 105.104C102.883 104.862 100.982 104.191 99.2907 103.138C97.5994 102.085 96.1581 100.676 95.0673 99.0095C93.5257 96.6595 92.7444 93.8921 92.8294 91.0829C92.9144 88.2737 93.8615 85.5586 95.5424 83.3062" stroke="white" stroke-width="0.75" stroke-linecap="round" stroke-linejoin="round"></path><path d="M109.928 104.783C109.036 105.019 108.122 105.162 107.201 105.211" stroke="white" stroke-width="0.75" stroke-linecap="round" stroke-linejoin="round"></path><path d="M116.253 81.8296C116.904 82.4844 117.488 83.2012 118 83.9696C118.988 85.4753 119.67 87.1611 120.006 88.9306C120.341 90.7001 120.325 92.5185 119.957 94.2817C119.59 96.0449 118.878 97.7182 117.862 99.2058C116.847 100.694 115.548 101.966 114.041 102.951C113.051 103.598 111.982 104.116 110.86 104.492" stroke="white" stroke-width="0.75" stroke-linecap="round" stroke-linejoin="round"></path><path d="M169.06 106.589C165.058 106.589 161.219 104.999 158.389 102.169C155.559 99.339 153.969 95.5005 153.969 91.498C153.969 87.4956 155.559 83.657 158.389 80.8269C161.219 77.9967 165.058 76.4067 169.06 76.4067C173.062 76.4067 176.901 77.9967 179.731 80.8269C182.561 83.657 184.151 87.4956 184.151 91.498C184.151 95.5005 182.561 99.339 179.731 102.169C176.901 104.999 173.062 106.589 169.06 106.589Z" fill="#292929" stroke="#292929" stroke-miterlimit="10"></path><path d="M161.883 103.17C160.547 102.348 159.362 101.303 158.381 100.079" stroke="white" stroke-width="0.75" stroke-linecap="round" stroke-linejoin="round"></path><path d="M176.383 103.097C176.041 103.311 175.69 103.525 175.326 103.7C173.384 104.696 171.233 105.214 169.051 105.21C166.869 105.207 164.719 104.682 162.781 103.679" stroke="white" stroke-width="0.75" stroke-linecap="round" stroke-linejoin="round"></path><path d="M172.189 78.1487C174.129 78.5988 175.948 79.4674 177.517 80.6939C179.087 81.9204 180.369 83.4751 181.275 85.2492C182.558 87.7494 183.041 90.5836 182.658 93.3675C182.275 96.1514 181.045 98.7502 179.135 100.811" stroke="white" stroke-width="0.75" stroke-linecap="round" stroke-linejoin="round"></path><path d="M167.104 77.9262C168.017 77.7939 168.94 77.7552 169.86 77.8106" stroke="white" stroke-width="0.75" stroke-linecap="round" stroke-linejoin="round"></path><path d="M158.381 100.079C157.803 99.3555 157.298 98.5755 156.875 97.7511C156.052 96.1493 155.554 94.401 155.408 92.6063C155.261 90.8116 155.471 89.0057 156.023 87.2919C156.576 85.5782 157.461 83.9902 158.628 82.6188C159.795 81.2475 161.221 80.1197 162.824 79.3001C163.877 78.7609 164.994 78.3596 166.15 78.106" stroke="white" stroke-width="0.75" stroke-linecap="round" stroke-linejoin="round"></path><path d="M169.06 84.7143C171.273 84.7143 171.534 84.7143 172.407 84.7614C172.932 84.7679 173.452 84.8649 173.944 85.0481C174.3 85.1871 174.623 85.3985 174.894 85.6688C175.164 85.9392 175.375 86.2627 175.514 86.6189C175.696 87.111 175.792 87.6308 175.797 88.1554C175.835 89.0114 175.844 89.2896 175.844 91.4981C175.844 93.7066 175.844 93.9677 175.797 94.8408C175.792 95.3654 175.696 95.8851 175.514 96.3773C175.377 96.7346 175.166 97.059 174.896 97.3296C174.625 97.6002 174.301 97.8109 173.944 97.9481C173.452 98.1313 172.932 98.2283 172.407 98.2348C171.551 98.2733 171.273 98.2819 169.06 98.2819C166.847 98.2819 166.591 98.2819 165.717 98.2348C165.193 98.2283 164.673 98.1313 164.181 97.9481C163.823 97.8147 163.498 97.6043 163.231 97.3317C162.965 97.0616 162.763 96.7355 162.64 96.3773C162.458 95.8851 162.363 95.3654 162.358 94.8408C162.315 93.9848 162.306 93.7066 162.306 91.4981C162.306 89.2896 162.306 89.0285 162.358 88.1554C162.363 87.6308 162.458 87.111 162.64 86.6189C162.772 86.2592 162.984 85.9343 163.261 85.6687C163.527 85.3936 163.852 85.1815 164.211 85.0481C164.703 84.8649 165.223 84.7679 165.747 84.7614C166.603 84.7229 166.882 84.7143 169.09 84.7143M169.09 83.2249C166.843 83.2249 166.565 83.2249 165.666 83.2719C164.98 83.2866 164.301 83.4168 163.659 83.6571C163.108 83.8663 162.609 84.1918 162.195 84.6116C161.773 85.0252 161.447 85.5263 161.241 86.0796C160.998 86.7217 160.868 87.4007 160.855 88.0869C160.813 88.9686 160.804 89.2511 160.804 91.5109C160.804 93.7708 160.804 94.0404 160.855 94.9349C160.868 95.6225 160.998 96.3029 161.241 96.9465C161.454 97.4954 161.779 97.9938 162.195 98.4101C162.611 98.8265 163.11 99.1516 163.659 99.3647C164.301 99.6051 164.98 99.7353 165.666 99.7499C166.552 99.7885 166.83 99.797 169.09 99.797C171.35 99.797 171.62 99.797 172.514 99.7499C173.2 99.7348 173.879 99.6046 174.521 99.3647C175.07 99.1516 175.569 98.8265 175.985 98.4101C176.401 97.9938 176.726 97.4954 176.94 96.9465C177.182 96.3029 177.312 95.6225 177.325 94.9349C177.368 94.0533 177.376 93.7708 177.376 91.5109C177.376 89.2511 177.376 88.9815 177.325 88.0869C177.312 87.4007 177.182 86.7217 176.94 86.0796C176.733 85.5263 176.407 85.0252 175.985 84.6116C175.572 84.1918 175.072 83.8663 174.521 83.6571C173.879 83.4173 173.2 83.2871 172.514 83.2719C171.628 83.2334 171.346 83.2249 169.09 83.2249Z" fill="#1ACDB8"></path><path d="M169.06 87.248C168.221 87.254 167.402 87.5082 166.707 87.9788C166.012 88.4494 165.472 89.1152 165.155 89.8923C164.838 90.6694 164.758 91.523 164.925 92.3454C165.093 93.1679 165.5 93.9224 166.095 94.5137C166.691 95.1051 167.448 95.5069 168.272 95.6685C169.095 95.8301 169.948 95.7442 170.723 95.4217C171.498 95.0991 172.16 94.5544 172.626 93.8561C173.092 93.1579 173.34 92.3374 173.34 91.4981C173.34 90.3709 172.892 89.2899 172.095 88.4928C171.298 87.6958 170.217 87.248 169.09 87.248M169.06 94.2801C168.514 94.2801 167.98 94.1182 167.526 93.8148C167.072 93.5115 166.719 93.0804 166.51 92.5759C166.301 92.0715 166.246 91.5164 166.352 90.9809C166.459 90.4454 166.722 89.9535 167.108 89.5674C167.494 89.1814 167.986 88.9184 168.521 88.8119C169.057 88.7054 169.612 88.7601 170.116 88.969C170.621 89.178 171.052 89.5318 171.355 89.9858C171.659 90.4398 171.821 90.9735 171.821 91.5195C171.821 91.8822 171.75 92.2414 171.612 92.5766C171.473 92.9118 171.27 93.2163 171.013 93.4728C170.757 93.7292 170.452 93.9326 170.117 94.0711C169.782 94.2096 169.423 94.2806 169.06 94.2801Z" fill="#1ACDB8"></path><path d="M174.483 87.0811C174.483 87.2775 174.425 87.4695 174.315 87.6328C174.206 87.796 174.051 87.9233 173.87 87.9985C173.688 88.0736 173.489 88.0933 173.296 88.055C173.103 88.0167 172.927 87.9221 172.788 87.7832C172.649 87.6444 172.554 87.4674 172.516 87.2748C172.478 87.0822 172.497 86.8825 172.572 86.7011C172.648 86.5197 172.775 86.3646 172.938 86.2555C173.101 86.1464 173.293 86.0881 173.49 86.0881C173.753 86.0881 174.006 86.1927 174.192 86.379C174.378 86.5652 174.483 86.8177 174.483 87.0811Z" fill="#1ACDB8"></path><path d="M106.529 161.729C102.527 161.729 98.6882 160.139 95.858 157.308C93.0278 154.478 91.4379 150.64 91.4379 146.637C91.4379 142.634 93.0277 138.795 95.8577 135.965C98.6878 133.134 102.526 131.543 106.529 131.542C110.532 131.543 114.371 133.134 117.201 135.965C120.031 138.795 121.62 142.634 121.62 146.637C121.62 150.64 120.03 154.478 117.2 157.308C114.37 160.139 110.532 161.729 106.529 161.729Z" fill="#292929" stroke="#292929" stroke-miterlimit="10"></path><path d="M99.42 134.91C100.759 134.093 102.228 133.514 103.764 133.198" stroke="white" stroke-width="0.75" stroke-linecap="round" stroke-linejoin="round"></path><path d="M92.8759 147.848C92.8417 147.45 92.8246 147.044 92.8246 146.637C92.823 144.455 93.343 142.303 94.3414 140.362C95.3398 138.421 96.7875 136.747 98.5641 135.479" stroke="white" stroke-width="0.75" stroke-linecap="round" stroke-linejoin="round"></path><path d="M116.989 155.484C115.705 157.007 114.103 158.23 112.296 159.069C110.49 159.907 108.521 160.34 106.529 160.338C103.721 160.338 100.98 159.476 98.6764 157.869C96.3732 156.262 94.619 153.986 93.6506 151.35" stroke="white" stroke-width="0.75" stroke-linecap="round" stroke-linejoin="round"></path><path d="M119.506 151.071C119.207 151.942 118.822 152.781 118.355 153.575" stroke="white" stroke-width="0.75" stroke-linecap="round" stroke-linejoin="round"></path><path d="M103.764 133.228C104.674 133.042 105.6 132.949 106.529 132.95C110.162 132.95 113.645 134.393 116.214 136.961C118.782 139.53 120.225 143.014 120.225 146.646C120.226 147.829 120.073 149.007 119.771 150.151" stroke="white" stroke-width="0.75" stroke-linecap="round" stroke-linejoin="round"></path><path fill-rule="evenodd" clip-rule="evenodd" d="M115.273 151.067C115.094 150.973 114.902 150.904 114.704 150.862C113.774 150.539 112.964 149.942 112.38 149.15C112.045 148.729 111.776 148.26 111.584 147.759C111.543 147.664 111.525 147.561 111.53 147.458C111.535 147.355 111.564 147.254 111.614 147.164C111.825 146.919 112.103 146.742 112.414 146.654C112.808 146.541 113.176 146.352 113.497 146.098C113.559 146.04 113.612 145.972 113.651 145.897C113.663 145.872 113.671 145.846 113.677 145.82C113.702 145.726 113.694 145.626 113.655 145.537C113.57 145.381 113.439 145.256 113.279 145.178C113.181 145.122 113.072 145.088 112.96 145.078C112.847 145.068 112.734 145.084 112.628 145.122C112.441 145.191 112.25 145.247 112.055 145.289C111.841 145.341 111.618 145.341 111.404 145.289C111.404 145.263 111.404 145.212 111.404 145.144C111.404 144.75 111.426 144.347 111.43 143.924C111.47 143.27 111.453 142.614 111.378 141.964C111.145 140.851 110.486 139.875 109.542 139.241C108.876 138.782 108.102 138.506 107.295 138.441C107.021 138.415 106.756 138.407 106.486 138.407C105.384 138.387 104.306 138.73 103.418 139.383C102.762 139.897 102.247 140.568 101.92 141.334C101.666 142.102 101.583 142.915 101.676 143.718C101.726 144.239 101.739 144.762 101.714 145.285C101.715 145.296 101.715 145.308 101.714 145.319C101.459 145.364 101.199 145.364 100.944 145.319C100.764 145.289 100.571 145.216 100.353 145.156C100.254 145.135 100.151 145.136 100.052 145.158C99.9534 145.18 99.8604 145.223 99.7796 145.285C99.6918 145.331 99.6168 145.398 99.5615 145.48C99.5062 145.562 99.4723 145.657 99.4629 145.756C99.4608 145.771 99.4608 145.787 99.4629 145.803C99.4911 145.929 99.5604 146.041 99.6598 146.124C99.7454 146.192 99.8181 146.239 99.8609 146.273C100.244 146.493 100.65 146.67 101.072 146.8C101.195 146.839 101.307 146.906 101.401 146.995C101.494 147.084 101.566 147.193 101.611 147.314C101.647 147.638 101.573 147.965 101.402 148.242C100.971 149.084 100.339 149.806 99.5613 150.344C99.1503 150.624 98.6943 150.833 98.2131 150.96C98.0249 150.992 97.8546 151.091 97.7338 151.238L97.7081 151.294C97.6913 151.359 97.6899 151.426 97.704 151.492C97.7181 151.557 97.7474 151.619 97.7894 151.671C97.8442 151.737 97.9128 151.791 97.9906 151.829C98.3848 152.03 98.8056 152.174 99.2403 152.257C99.5055 152.296 99.7663 152.361 100.019 152.45C100.019 152.45 100.049 152.539 100.101 152.664C100.173 152.882 100.208 153.143 100.289 153.417C100.301 153.454 100.323 153.488 100.353 153.514C100.382 153.54 100.417 153.558 100.456 153.567C100.555 153.596 100.661 153.588 100.755 153.545H100.781C101.426 153.387 102.096 153.363 102.75 153.472C103.408 153.724 104.029 154.06 104.599 154.474C105.035 154.781 105.544 154.967 106.075 155.013C106.492 155.031 106.91 155.022 107.325 154.988C107.675 154.951 108.011 154.835 108.31 154.649C108.977 154.269 109.568 153.815 110.219 153.528C110.469 153.466 110.727 153.436 110.985 153.438C111.525 153.422 112.066 153.45 112.603 153.52H112.654C112.726 153.509 112.791 153.472 112.838 153.417C112.868 153.384 112.888 153.344 112.898 153.301C112.898 153.25 112.928 153.224 112.898 153.267C112.9 153.253 112.9 153.238 112.898 153.224C112.949 152.942 113.053 152.671 113.206 152.428C113.301 152.354 113.42 152.317 113.54 152.325H113.57C114.01 152.255 114.441 152.134 114.854 151.966C115.057 151.9 115.238 151.779 115.376 151.615C115.405 151.574 115.426 151.528 115.437 151.478C115.447 151.429 115.447 151.378 115.436 151.329C115.426 151.28 115.405 151.233 115.376 151.193C115.346 151.152 115.308 151.118 115.265 151.093L115.273 151.067Z" fill="#1ACDB8"></path><path d="M44.9401 106.589C42.9572 106.591 40.9934 106.202 39.1609 105.444C37.3285 104.687 35.6633 103.575 34.2606 102.174C32.8579 100.772 31.7451 99.108 30.9859 97.2762C30.2267 95.4444 29.8359 93.4809 29.8359 91.498C29.8359 89.5151 30.2267 87.5517 30.9859 85.7199C31.7451 83.8881 32.8579 82.2239 34.2606 80.8223C35.6633 79.4208 37.3285 78.3095 39.1609 77.5518C40.9934 76.7942 42.9572 76.4051 44.9401 76.4067C48.9425 76.4067 52.781 77.9967 55.6112 80.8269C58.4414 83.657 60.0313 87.4956 60.0313 91.498C60.0313 95.5005 58.4414 99.339 55.6112 102.169C52.781 104.999 48.9425 106.589 44.9401 106.589Z" fill="#292929" stroke="#292929" stroke-miterlimit="10"></path><path d="M37.8181 79.775C39.1564 78.9576 40.6262 78.3783 42.1623 78.063" stroke="white" stroke-width="0.75" stroke-linecap="round" stroke-linejoin="round"></path><path d="M31.2697 92.7136C31.2355 92.3113 31.2184 91.9089 31.2184 91.4981C31.2168 89.3154 31.7368 87.164 32.7352 85.2231C33.7336 83.2822 35.1813 81.6081 36.9579 80.3401" stroke="white" stroke-width="0.75" stroke-linecap="round" stroke-linejoin="round"></path><path d="M55.3875 100.358C54.1027 101.876 52.5025 103.096 50.6983 103.934C48.8941 104.771 46.9291 105.206 44.94 105.207C42.1307 105.21 39.3883 104.35 37.0846 102.742C34.7808 101.134 33.0272 98.8569 32.0615 96.2188" stroke="white" stroke-width="0.75" stroke-linecap="round" stroke-linejoin="round"></path><path d="M57.8999 95.9321C57.6039 96.8057 57.2181 97.6463 56.7485 98.4402" stroke="white" stroke-width="0.75" stroke-linecap="round" stroke-linejoin="round"></path><path d="M42.1624 78.0673C43.0722 77.881 43.9986 77.7878 44.9272 77.7891C48.5596 77.7891 52.0433 79.232 54.6118 81.8005C57.1803 84.369 58.6232 87.8527 58.6232 91.4851C58.624 92.6682 58.4715 93.8465 58.1696 94.9904" stroke="white" stroke-width="0.75" stroke-linecap="round" stroke-linejoin="round"></path><path d="M36.8851 96.5483C38.3935 97.5196 40.15 98.0353 41.9441 98.0335C48.0688 98.0335 51.527 92.8589 51.3216 88.2194C51.9659 87.7499 52.5222 87.1703 52.9651 86.5074C52.3634 86.772 51.7259 86.9465 51.0733 87.0253C51.7618 86.6143 52.2763 85.9659 52.52 85.202C51.8722 85.5844 51.1647 85.855 50.4271 86.0024C49.931 85.473 49.2743 85.1218 48.5585 85.0031C47.8427 84.8845 47.1078 85.0051 46.4675 85.3462C45.8272 85.6873 45.3171 86.23 45.0163 86.8902C44.7154 87.5504 44.6405 88.2913 44.8031 88.9984C43.4915 88.9328 42.2085 88.5918 41.0374 87.9974C39.8664 87.403 38.8337 86.5687 38.0065 85.5487C37.5847 86.2755 37.4552 87.1355 37.6444 87.9543C37.8336 88.773 38.3272 89.4891 39.0251 89.9571C38.5001 89.9362 37.9878 89.7894 37.5314 89.5291C37.5211 90.2982 37.7798 91.0467 38.2628 91.6453C38.7457 92.2439 39.4226 92.655 40.1765 92.8076C39.6905 92.9381 39.1813 92.9572 38.687 92.8632C38.8976 93.5187 39.308 94.0918 39.8605 94.5024C40.4131 94.913 41.0803 95.1405 41.7686 95.153C41.0866 95.6958 40.3041 96.0984 39.4661 96.3379C38.628 96.5773 37.7509 96.6488 36.8851 96.5483Z" fill="#1ACDB8"></path><path d="M106.529 47.9489C102.527 47.9489 98.6882 46.3589 95.858 43.5288C93.0278 40.6986 91.4379 36.8601 91.4379 32.8576C91.4379 28.8552 93.0278 25.0167 95.858 22.1865C98.6882 19.3563 102.527 17.7664 106.529 17.7664C110.532 17.7664 114.37 19.3563 117.2 22.1865C120.03 25.0167 121.62 28.8552 121.62 32.8576C121.62 36.8601 120.03 40.6986 117.2 43.5288C114.37 46.3589 110.532 47.9489 106.529 47.9489Z" fill="#292929" stroke="#292929" stroke-miterlimit="10"></path><path fill-rule="evenodd" clip-rule="evenodd" d="M115.226 32.4895C115.245 30.3328 114.407 28.2567 112.896 26.718C111.384 25.1793 109.324 24.304 107.167 24.2847C105.01 24.2655 102.934 25.1037 101.395 26.6151C99.8567 28.1265 98.9815 30.1872 98.9622 32.344C98.9622 32.4596 98.9622 32.5794 98.9622 32.695C98.9615 34.1649 99.3642 35.6068 100.126 36.8637L98.6754 41.2079L103.178 39.7741C104.412 40.4529 105.8 40.7999 107.208 40.7809C108.616 40.762 109.995 40.3778 111.21 39.6659C112.425 38.9541 113.434 37.939 114.139 36.7201C114.843 35.5011 115.22 34.1201 115.23 32.7121C115.23 32.6479 115.23 32.558 115.226 32.4895ZM107.094 39.4788C105.758 39.4821 104.451 39.0904 103.336 38.3531L100.708 39.2091L101.564 36.6882C100.724 35.5332 100.274 34.1403 100.28 32.7121C100.28 32.4938 100.28 32.2841 100.315 32.0572C100.518 30.3852 101.33 28.8467 102.596 27.7358C103.862 26.6249 105.493 26.0195 107.177 26.0354C108.862 26.0513 110.481 26.6874 111.726 27.8219C112.97 28.9565 113.753 30.5101 113.925 32.1856C113.942 32.3625 113.951 32.538 113.951 32.7121C113.942 34.5196 113.215 36.2495 111.931 37.5216C110.647 38.7937 108.91 39.5038 107.103 39.4959L107.094 39.4788Z" fill="#1ACDB8"></path><path fill-rule="evenodd" clip-rule="evenodd" d="M110.826 34.3256C110.625 34.2271 109.649 33.7478 109.465 33.6836C109.281 33.6194 109.148 33.5851 109.037 33.782C108.926 33.9789 108.519 34.424 108.408 34.5524C108.297 34.6808 108.173 34.7022 107.98 34.6038C107.393 34.3726 106.851 34.0393 106.379 33.6194C105.943 33.2233 105.569 32.7629 105.271 32.2541C105.16 32.0572 105.271 31.9502 105.361 31.8517C105.451 31.7533 105.558 31.6206 105.66 31.5051L105.733 31.4109C105.776 31.3381 105.81 31.2697 105.857 31.1755C105.886 31.1223 105.901 31.0627 105.901 31.0022C105.901 30.9416 105.886 30.882 105.857 30.8288C105.806 30.7304 105.429 29.7545 105.241 29.3608C105.053 28.967 104.907 29.0312 104.813 29.0312C104.719 29.0312 104.565 29.0312 104.432 29.0312C104.33 29.0332 104.23 29.0563 104.138 29.0991C104.046 29.1418 103.964 29.2032 103.897 29.2795C103.673 29.491 103.496 29.7467 103.377 30.0304C103.257 30.3141 103.198 30.6195 103.204 30.9273C103.205 31.1564 103.24 31.3842 103.306 31.6035C103.461 32.0981 103.702 32.5616 104.017 32.9731C104.115 33.1015 105.395 35.1645 107.441 35.9691C109.487 36.7737 109.465 36.4913 109.833 36.457C110.111 36.4046 110.374 36.294 110.606 36.1324C110.837 35.9708 111.032 35.762 111.177 35.5197C111.309 35.2244 111.349 34.8965 111.293 34.5781C111.16 34.4754 111.027 34.424 110.826 34.3256Z" fill="#1ACDB8"></path><path d="M99.42 21.1305C100.759 20.3136 102.228 19.7344 103.764 19.4185" stroke="white" stroke-width="0.75" stroke-linecap="round" stroke-linejoin="round"></path><path d="M92.8759 34.0689C92.8417 33.6709 92.8246 33.2643 92.8246 32.8577C92.823 30.675 93.343 28.5237 94.3414 26.5828C95.3398 24.6419 96.7875 22.9677 98.5641 21.6997" stroke="white" stroke-width="0.75" stroke-linecap="round" stroke-linejoin="round"></path><path d="M116.989 41.7171C115.704 43.2386 114.102 44.4609 112.296 45.2985C110.489 46.1361 108.521 46.5688 106.529 46.5664C103.721 46.5668 100.98 45.7051 98.6764 44.0978C96.3732 42.4904 94.619 40.2148 93.6506 37.5784" stroke="white" stroke-width="0.75" stroke-linecap="round" stroke-linejoin="round"></path><path d="M119.506 37.2917C119.207 38.164 118.821 39.0042 118.355 39.7998" stroke="white" stroke-width="0.75" stroke-linecap="round" stroke-linejoin="round"></path><path d="M103.764 19.4269C104.674 19.2407 105.6 19.1474 106.529 19.1487C110.162 19.1487 113.645 20.5917 116.214 23.1602C118.782 25.7287 120.225 29.2123 120.225 32.8447C120.226 34.0278 120.073 35.206 119.771 36.35" stroke="white" stroke-width="0.75" stroke-linecap="round" stroke-linejoin="round"></path><path d="M137.897 135.779C147.809 135.779 155.843 127.744 155.843 117.833C155.843 107.922 147.809 99.887 137.897 99.887C127.986 99.887 119.951 107.922 119.951 117.833C119.951 127.744 127.986 135.779 137.897 135.779Z" fill="#1ACDB8" stroke="#292929" stroke-miterlimit="10"></path><path opacity="0.3" d="M137.897 135.779C147.809 135.779 155.843 127.744 155.843 117.833C155.843 107.922 147.809 99.887 137.897 99.887C127.986 99.887 119.951 107.922 119.951 117.833C119.951 127.744 127.986 135.779 137.897 135.779Z" fill="white" stroke="#292929" stroke-miterlimit="10"></path><path d="M137.897 99.8869C137.897 99.8869 128.819 98.9025 127.373 103.392C125.926 107.882 132.029 107.086 131.066 109.17C130.103 111.255 126.089 113.968 127.694 117.033C129.299 120.097 132.188 123.453 128.978 122.331C125.768 121.21 124.967 120.885 125.609 124.416C126.251 127.947 129.62 128.91 135.077 128.426C140.534 127.942 140.05 130.515 143.098 130.836C146.145 131.157 149.197 129.389 149.197 124.895C149.197 120.401 145.507 121.368 148.876 119.121C152.244 116.874 151.606 111.096 150.643 109.333C149.68 107.569 147.754 108.37 147.754 106.123C147.754 103.876 143.123 99.5873 137.897 99.8869Z" fill="#292929" stroke="#292929" stroke-miterlimit="10"></path><path d="M132.903 101.984C132.903 101.984 129.543 101.535 129.654 103.662C129.765 105.789 135.595 109.936 141.086 110.052C146.577 110.167 147.134 107.36 146.35 106.799" stroke="white" stroke-width="0.75" stroke-linecap="round" stroke-linejoin="round"></path><path d="M136.378 103.765C136.378 103.765 133.69 104.098 134.024 105.905C134.358 107.711 136.04 108.592 138.621 109.603" stroke="white" stroke-width="0.75" stroke-linecap="round" stroke-linejoin="round"></path><path d="M149.821 114.743C149.821 114.743 149.599 117.546 146.128 119.339C142.657 121.133 139.528 123.812 142.524 125.164C145.52 126.517 147.232 128.075 146.111 128.413" stroke="white" stroke-width="0.75" stroke-linecap="round" stroke-linejoin="round"></path><path d="M132.68 123.033C132.68 123.033 131.336 126.17 129.32 125.601C127.304 125.032 126.628 123.461 127.976 123.461C129.325 123.461 129.432 124.133 129.432 124.133" stroke="white" stroke-width="0.75" stroke-linecap="round" stroke-linejoin="round"></path><path d="M143.38 110.193C143.38 110.193 146.132 110.15 145.683 112.838C145.233 115.526 142.657 115.753 141.985 117.769" stroke="white" stroke-width="0.75" stroke-linecap="round" stroke-linejoin="round"></path><path d="M137.897 135.796C141.925 135.801 145.837 134.443 148.995 131.944C147.737 131.015 145.494 129.376 144.189 128.52C142.301 127.262 139.785 123.346 136.425 124.043C133.729 124.608 126.513 127.716 123.765 128.922C125.444 131.066 127.589 132.8 130.038 133.991C132.486 135.182 135.174 135.799 137.897 135.796Z" fill="white" stroke="#292929" stroke-miterlimit="10"></path><path d="M135.877 123.453C135.877 123.453 130.904 124.895 130.262 129.068C129.62 133.241 134.353 130.232 134.353 130.232C134.353 130.232 136.84 133.883 139.087 132.762C141.334 131.64 141.655 127.784 140.371 125.216C139.087 122.648 135.877 123.453 135.877 123.453Z" fill="white" stroke="#292929" stroke-miterlimit="10"></path><path d="M135.745 120.388C135.771 121.755 135.585 123.118 135.192 124.428C134.563 126.367 132.513 129.038 134.336 130.236C136.16 131.435 138.497 127.621 139.104 124.42C139.712 121.218 140.153 117.392 140.153 117.392L135.745 120.388Z" fill="white"></path><mask id="mask0_280_233" style="mask-type:luminance" maskUnits="userSpaceOnUse" x="133" y="117" width="8" height="14"><path d="M135.745 120.388C135.771 121.755 135.585 123.118 135.192 124.428C134.563 126.367 132.513 129.038 134.336 130.236C136.16 131.435 138.497 127.621 139.104 124.42C139.712 121.218 140.153 117.392 140.153 117.392L135.745 120.388Z" fill="white"></path></mask><g mask="url(#mask0_280_233)"><g style="mix-blend-mode:multiply" opacity="0.5"><path d="M135.321 124C135.908 124.213 136.519 124.357 137.14 124.428C137.696 124.493 137.919 124.373 137.996 124.231C137.927 125.032 137.666 127.227 136.755 128.845C136.476 129.342 136.25 129.761 136.07 130.129C137.422 129.218 138.685 126.675 139.113 124.433C139.721 121.235 140.144 117.418 140.144 117.418L135.736 120.414C135.757 121.622 135.618 122.829 135.321 124Z" fill="#1ACDB8"></path></g></g><path d="M135.745 120.388C135.771 121.755 135.585 123.118 135.192 124.428C134.563 126.367 132.513 129.038 134.336 130.236C136.16 131.435 138.497 127.621 139.104 124.42C139.712 121.218 140.153 117.392 140.153 117.392L135.745 120.388Z" stroke="#292929" stroke-miterlimit="10"></path><path d="M133.052 107.976C133.052 107.976 131.512 114.396 131.512 116.789C131.512 119.181 133.712 122.109 136.502 122.353C140.063 122.639 141.373 117.854 142.143 115.128C142.811 112.761 143.264 110.715 143.376 110.21C137.962 112.256 133.052 107.976 133.052 107.976Z" fill="white"></path><mask id="mask1_280_233" style="mask-type:luminance" maskUnits="userSpaceOnUse" x="131" y="107" width="13" height="16"><path d="M133.052 107.976C133.052 107.976 131.512 114.396 131.512 116.789C131.512 119.181 133.712 122.109 136.502 122.353C140.063 122.639 141.373 117.854 142.143 115.128C142.811 112.761 143.264 110.715 143.376 110.21C137.962 112.256 133.052 107.976 133.052 107.976Z" fill="white"></path></mask><g mask="url(#mask1_280_233)"><g style="mix-blend-mode:multiply" opacity="0.5"><path d="M143.38 110.193C142.842 110.399 142.284 110.549 141.715 110.643C141.463 112.273 140.688 116.284 138.912 118.749C137.405 120.842 135.792 121.599 134.876 121.873C135.386 122.128 135.939 122.284 136.506 122.335C140.067 122.622 141.377 117.837 142.147 115.111" fill="#1ACDB8"></path></g></g><path d="M133.052 107.976C133.052 107.976 131.512 114.396 131.512 116.789C131.512 119.181 133.712 122.109 136.502 122.353C140.063 122.639 141.373 117.854 142.143 115.128C142.811 112.761 143.264 110.715 143.376 110.21C137.962 112.256 133.052 107.976 133.052 107.976Z" stroke="#292929" stroke-miterlimit="10"></path><path d="M135.988 112.521C135.793 113.22 135.485 113.882 135.077 114.482C134.52 115.179 133.331 114.55 133.682 114.97C133.876 115.215 134.118 115.418 134.394 115.566C134.671 115.713 134.974 115.801 135.287 115.826" stroke="#292929" stroke-linecap="round" stroke-linejoin="round"></path><path d="M133.296 117.152C133.296 117.152 134.345 118.693 136.511 117.923" stroke="#292929" stroke-linecap="round" stroke-linejoin="round"></path><path d="M134.97 112.025C134.906 112.406 134.683 112.688 134.473 112.65C134.264 112.611 134.144 112.277 134.208 111.897C134.272 111.516 134.495 111.237 134.704 111.272C134.914 111.306 135.034 111.644 134.97 112.025Z" fill="#292929"></path><path d="M138.497 113.031C138.402 113.407 138.163 113.673 137.957 113.621C137.752 113.57 137.658 113.228 137.748 112.851C137.837 112.474 138.077 112.213 138.287 112.26C138.497 112.307 138.586 112.658 138.497 113.031Z" fill="#292929"></path><path d="M133.536 110.142C133.536 110.142 134.097 108.815 135.774 109.585" stroke="#292929" stroke-linecap="round" stroke-linejoin="round"></path><path d="M137.726 110.711C137.726 110.711 139.267 110.223 139.686 111.76" stroke="#292929" stroke-linecap="round" stroke-linejoin="round"></path><path d="M75.4264 135.779C85.3377 135.779 93.3724 127.744 93.3724 117.833C93.3724 107.921 85.3377 99.8867 75.4264 99.8867C65.5151 99.8867 57.4803 107.921 57.4803 117.833C57.4803 127.744 65.5151 135.779 75.4264 135.779Z" fill="#1ACDB8" stroke="#292929" stroke-miterlimit="10"></path><path opacity="0.3" d="M75.4264 135.779C85.3377 135.779 93.3724 127.744 93.3724 117.833C93.3724 107.921 85.3377 99.8867 75.4264 99.8867C65.5151 99.8867 57.4803 107.921 57.4803 117.833C57.4803 127.744 65.5151 135.779 75.4264 135.779Z" fill="white" stroke="#292929" stroke-miterlimit="10"></path><path d="M64.2 131.816C67.7193 134.651 72.1795 136.052 76.6879 135.74C81.1963 135.427 85.4203 133.423 88.5146 130.129C86.4945 127.527 82.3557 123.067 77.7504 123.067C72.6401 123.067 66.5711 129.166 64.2 131.816Z" fill="white" stroke="#292929" stroke-miterlimit="10"></path><path d="M73.4404 121.741C73.4404 121.741 70.3973 122.087 70.1362 124.437C69.8752 126.787 71.6984 130.699 71.8739 131.131C72.0494 131.563 75.9613 127.656 77.4379 127.656C78.9145 127.656 82.7409 129.74 82.7409 129.74C82.7409 129.74 81.5253 124.869 79.3511 123.042C77.1768 121.214 74.0439 121.043 73.4404 121.741Z" fill="white" stroke="#292929" stroke-miterlimit="10"></path><path opacity="0.5" d="M69.4387 113.112C69.4387 113.112 68.1333 111.807 67.4399 112.851C66.7465 113.895 67.35 115.111 68.2959 115.894C69.2418 116.677 70.7312 116.75 70.7312 116.155C70.7312 115.56 69.4387 113.112 69.4387 113.112Z" fill="#1ACDB8" stroke="#292929" stroke-miterlimit="10"></path><path d="M69.4387 113.112C69.4387 113.112 68.1333 111.807 67.4399 112.851C66.7465 113.895 67.35 115.111 68.2959 115.894C69.2418 116.677 70.7312 116.75 70.7312 116.155C70.7312 115.56 69.4387 113.112 69.4387 113.112Z" stroke="#292929" stroke-miterlimit="10"></path><path d="M80.6609 110.086C80.6609 110.086 81.2686 108.52 82.1375 110.172C83.0063 111.824 81.3542 113.3 81.3542 113.3L80.6609 110.086Z" fill="white" stroke="#292929" stroke-miterlimit="10"></path><path d="M70.744 116.172C70.744 116.172 72.4817 122.434 72.9183 124.608C73.3548 126.782 75.3536 129.915 76.8302 128.888C78.3068 127.861 78.2255 125.931 77.3523 124.278C76.7776 123.136 76.3119 121.943 75.9613 120.713L70.744 116.172Z" fill="white"></path><mask id="mask2_280_233" style="mask-type:luminance" maskUnits="userSpaceOnUse" x="70" y="116" width="8" height="14"><path d="M70.744 116.172C70.744 116.172 72.4817 122.434 72.9183 124.608C73.3548 126.782 75.3536 129.915 76.8302 128.888C78.3068 127.861 78.2255 125.931 77.3523 124.278C76.7776 123.136 76.3119 121.943 75.9613 120.713L70.744 116.172Z" fill="white"></path></mask><g mask="url(#mask2_280_233)"><g style="mix-blend-mode:multiply" opacity="0.5"><path d="M77.3523 124.261C76.7776 123.119 76.3119 121.926 75.9613 120.696L70.744 116.172C70.744 116.172 72.1693 121.308 72.7599 123.876C73.5142 124.465 74.3722 124.908 75.2894 125.182C76.0823 125.398 76.9282 125.302 77.6519 124.912C77.5659 124.689 77.4658 124.472 77.3523 124.261Z" fill="#1ACDB8"></path></g></g><path d="M70.744 116.172C70.744 116.172 72.4817 122.434 72.9183 124.608C73.3548 126.782 75.3536 129.915 76.8302 128.888C78.3068 127.861 78.2255 125.931 77.3523 124.278C76.7776 123.136 76.3119 121.943 75.9613 120.713L70.744 116.172Z" stroke="#292929" stroke-miterlimit="10"></path><path d="M67.624 109.649C67.624 109.649 71.7114 119.493 73.4534 121.74C75.1953 123.987 79.8734 124.176 81.8892 120.884C83.9051 117.593 81.6282 113.146 81.2815 111.143C80.9348 109.14 79.9975 105.84 80.5838 105.233C81.1702 104.625 83.6269 104.188 82.6725 102.622C81.718 101.055 80.3228 101.838 80.1516 100.709C79.9804 99.5786 80.8449 96.7923 77.6264 96.3601C74.4078 95.9278 68.7539 99.7498 66.4983 102.707C64.2428 105.665 63.5238 108.344 67.624 109.649Z" fill="#292929" stroke="#292929" stroke-miterlimit="10"></path><path d="M68.908 106.692C68.908 106.692 66.2287 106.491 67.5726 103.914C68.9165 101.338 77.8831 97.8666 77.9944 99.7712C78.1057 101.676 76.0898 102.237 76.0898 102.237" stroke="white" stroke-width="0.75" stroke-linecap="round" stroke-linejoin="round"></path><path d="M72.5117 104.252C72.5117 104.252 70.4958 103.803 71.1678 102.348C71.8397 100.893 76.7703 100.208 75.8758 101.115C75.3454 101.647 74.7415 102.099 74.0825 102.459" stroke="white" stroke-width="0.75" stroke-linecap="round" stroke-linejoin="round"></path><path d="M79.0044 115.564C79.0044 115.564 77.5278 117.91 75.1781 116.78" stroke="white" stroke-width="0.75" stroke-linecap="round" stroke-linejoin="round"></path><path d="M81.2686 111.126C80.9433 109.256 80.083 106.238 80.4725 105.361C80.2114 104.732 79.3126 103.264 76.659 103.127C73.265 102.951 69.6141 104.864 68.9165 106.692C68.2188 108.519 69.8752 107.548 70.483 108.866C71.0907 110.184 69.5242 111.738 69.8752 112.692C70.2262 113.647 71.874 117.4 71.874 117.4C72.135 116.356 76.0512 114.614 76.0512 114.614C76.6176 114.764 77.2041 114.823 77.7889 114.79C78.5722 114.704 78.1356 114.006 78.1356 114.006L82.146 114.246C81.8036 112.984 81.397 111.884 81.2686 111.126Z" fill="white"></path><mask id="mask3_280_233" style="mask-type:luminance" maskUnits="userSpaceOnUse" x="68" y="103" width="15" height="15"><path d="M81.2686 111.126C80.9433 109.256 80.083 106.238 80.4725 105.361C80.2114 104.732 79.3126 103.264 76.659 103.127C73.265 102.951 69.6141 104.864 68.9165 106.692C68.2188 108.519 69.8752 107.548 70.483 108.866C71.0907 110.184 69.5242 111.738 69.8752 112.692C70.2262 113.647 71.874 117.4 71.874 117.4C72.135 116.356 76.0512 114.614 76.0512 114.614C76.6176 114.764 77.2041 114.823 77.7889 114.79C78.5722 114.704 78.1356 114.006 78.1356 114.006L82.146 114.246C81.8036 112.984 81.397 111.884 81.2686 111.126Z" fill="white"></path></mask><g mask="url(#mask3_280_233)"><g style="mix-blend-mode:multiply" opacity="0.5"><path d="M72.0066 107.39C71.844 105.678 70.7226 105.34 69.9779 105.31C69.5155 105.678 69.1485 106.152 68.9079 106.692C68.2145 108.52 69.8666 107.548 70.4744 108.866C71.0821 110.184 69.5157 111.738 69.8666 112.693C70.2176 113.647 71.8654 117.401 71.8654 117.401C71.951 117.067 72.4047 116.66 72.9867 116.266C72.1307 115.047 71.0864 113.561 70.4958 112.701C69.383 111.053 72.2591 110.043 72.0066 107.39Z" fill="#1ACDB8"></path></g></g><path d="M81.2686 111.126C80.9433 109.256 80.083 106.238 80.4725 105.361C80.2114 104.732 79.3126 103.264 76.659 103.127C73.265 102.951 69.6141 104.864 68.9165 106.692C68.2188 108.519 69.8752 107.548 70.483 108.866C71.0907 110.184 69.5242 111.738 69.8752 112.692C70.2262 113.647 71.874 117.4 71.874 117.4C72.135 116.356 76.0512 114.614 76.0512 114.614C76.6176 114.764 77.2041 114.823 77.7889 114.79C78.5722 114.704 78.1356 114.006 78.1356 114.006L82.146 114.246C81.8036 112.984 81.397 111.884 81.2686 111.126Z" stroke="#292929" stroke-miterlimit="10"></path><path d="M73.8985 110.707C74.0097 111.19 73.8985 111.631 73.6802 111.682C73.4619 111.734 73.1709 111.383 73.0639 110.895C72.9569 110.407 73.0639 109.97 73.2821 109.919C73.5004 109.868 73.7915 110.219 73.8985 110.707Z" fill="#292929"></path><path d="M79.0772 109.641C79.1885 110.129 79.0772 110.565 78.859 110.617C78.6407 110.668 78.3496 110.317 78.2384 109.829C78.1271 109.341 78.2384 108.905 78.4609 108.853C78.6835 108.802 78.966 109.153 79.0772 109.641Z" fill="#292929"></path><path d="M71.874 108.43C71.874 108.43 72.2207 106.516 74.2237 107.3" stroke="#292929" stroke-linecap="round" stroke-linejoin="round"></path><path d="M79.6079 106.431C78.127 105.472 77.6049 106.859 77.6049 106.859C77.6049 106.859 76.6675 107.886 77.0485 109.782" stroke="#292929" stroke-linecap="round" stroke-linejoin="round"></path><path d="M72.135 113.561L74.6559 112.521" stroke="#292929" stroke-width="0.5" stroke-linecap="round" stroke-linejoin="round"></path><path d="M78.2255 111.738L80.3098 111.563" stroke="#292929" stroke-width="0.5" stroke-linecap="round" stroke-linejoin="round"></path><path d="M142.094 79.3981C151.73 77.0793 157.662 67.3878 155.344 57.7516C153.025 48.1153 143.333 42.1833 133.697 44.5021C124.061 46.8209 118.129 56.5124 120.448 66.1487C122.766 75.7849 132.458 81.7169 142.094 79.3981Z" fill="#1ACDB8" stroke="#292929" stroke-miterlimit="10"></path><path opacity="0.3" d="M142.094 79.3981C151.73 77.0793 157.662 67.3878 155.344 57.7516C153.025 48.1153 143.333 42.1833 133.697 44.5021C124.061 46.8209 118.129 56.5124 120.448 66.1487C122.766 75.7849 132.458 81.7169 142.094 79.3981Z" fill="white" stroke="#292929" stroke-miterlimit="10"></path><path d="M153.224 58.3777C155.642 51.8598 152.1 44.5355 145.314 42.0184C138.528 39.5014 131.067 42.7449 128.65 49.2629C126.232 55.7808 129.773 63.1051 136.56 65.6221C143.346 68.1391 150.807 64.8957 153.224 58.3777Z" fill="#292929" stroke="#292929" stroke-miterlimit="10"></path><path d="M153.13 51.3259C153.723 53.4465 153.685 55.6941 153.019 57.793" stroke="white" stroke-width="0.75" stroke-linecap="round" stroke-linejoin="round"></path><path d="M152.222 59.4922C152.222 59.4922 151.426 60.5151 150.973 61.0843" stroke="white" stroke-width="0.75" stroke-linecap="round" stroke-linejoin="round"></path><path d="M133.613 45.8774C133.613 45.8774 131.798 48.0174 132.932 50.6454" stroke="white" stroke-width="0.75" stroke-linecap="round" stroke-linejoin="round"></path><path d="M137.897 79.8993C141.204 79.9052 144.448 78.9924 147.266 77.2628C145.173 75.3325 139.725 70.5261 137.157 70.3164C134.469 70.0981 126.624 72.6104 124.111 73.445C125.794 75.4673 127.902 77.0939 130.285 78.2095C132.667 79.325 135.266 79.9019 137.897 79.8993Z" fill="white" stroke="#292929" stroke-miterlimit="10"></path><path d="M140.547 72.5805C140.619 72.3665 140.684 72.1525 140.752 71.977C139.374 71.0611 138.077 70.3934 137.157 70.3164C136.04 70.3049 134.925 70.4328 133.84 70.6973C133.365 71.9813 133.241 73.2653 132.855 75.4524C132.333 78.4099 133.117 79.2787 135.291 78.1488C137.465 77.0189 139.678 75.187 140.547 72.5805Z" fill="white" stroke="#292929" stroke-miterlimit="10"></path><path d="M135.329 67.0979C135.329 67.0979 135.851 68.0566 135.244 70.3164C134.636 72.5763 133.104 76.3084 133.814 77.0189C134.525 77.7294 138.809 74.4937 138.98 72.0584C139.151 69.6231 139.156 64.7524 139.156 64.7524L135.329 67.0979Z" fill="white"></path><mask id="mask4_280_233" style="mask-type:luminance" maskUnits="userSpaceOnUse" x="133" y="64" width="7" height="14"><path d="M135.329 67.0979C135.329 67.0979 135.851 68.0566 135.244 70.3164C134.636 72.5763 133.104 76.3084 133.814 77.0189C134.525 77.7294 138.809 74.4937 138.98 72.0584C139.151 69.6231 139.156 64.7524 139.156 64.7524L135.329 67.0979Z" fill="white"></path></mask><g mask="url(#mask4_280_233)"><g style="mix-blend-mode:multiply" opacity="0.5"><path d="M135.53 68.5615L138.278 70.7015L138.068 74.1255C138.555 73.531 138.871 72.8147 138.98 72.054C139.156 69.6187 139.156 64.748 139.156 64.748L135.329 67.0935C135.515 67.5591 135.584 68.0631 135.53 68.5615Z" fill="#1ACDB8"></path></g></g><path d="M135.329 67.0979C135.329 67.0979 135.851 68.0566 135.244 70.3164C134.636 72.5763 133.104 76.3084 133.814 77.0189C134.525 77.7294 138.809 74.4937 138.98 72.0584C139.151 69.6231 139.156 64.7524 139.156 64.7524L135.329 67.0979Z" stroke="#292929" stroke-miterlimit="10"></path><path d="M130.968 56.4021C130.968 56.4021 130.36 54.8356 129.577 55.9741C128.794 57.1125 129.748 58.495 130.185 58.495C130.621 58.495 130.968 56.4021 130.968 56.4021Z" fill="white" stroke="#292929" stroke-miterlimit="10"></path><path d="M132.98 51.356C132.98 51.356 130.459 56.3122 129.851 59.7062C129.243 63.1003 131.764 68.2277 134.285 68.2277C136.806 68.2277 140.705 64.3158 140.705 64.3158C140.705 64.3158 144.356 64.4014 144.878 63.1859C145.4 61.9704 144.792 61.0116 143.834 61.0116H141.921C141.921 61.0116 141.398 61.2727 141.659 58.8374C141.921 56.4021 142.704 55.2722 142.704 55.2722C142.704 55.2722 136.104 55.79 132.98 51.356Z" fill="white"></path><mask id="mask5_280_233" style="mask-type:luminance" maskUnits="userSpaceOnUse" x="129" y="51" width="17" height="18"><path d="M132.98 51.356C132.98 51.356 130.459 56.3122 129.851 59.7062C129.243 63.1003 131.764 68.2277 134.285 68.2277C136.806 68.2277 140.705 64.3158 140.705 64.3158C140.705 64.3158 144.356 64.4014 144.878 63.1859C145.4 61.9704 144.792 61.0116 143.834 61.0116H141.921C141.921 61.0116 141.398 61.2727 141.659 58.8374C141.921 56.4021 142.704 55.2722 142.704 55.2722C142.704 55.2722 136.104 55.79 132.98 51.356Z" fill="white"></path></mask><g mask="url(#mask5_280_233)"><g style="mix-blend-mode:multiply" opacity="0.5"><path d="M139.665 62.745C139.136 64.0905 138.266 65.2752 137.14 66.1825C136.015 67.0897 134.672 67.6884 133.245 67.9195H133.219C133.548 68.1117 133.921 68.2163 134.302 68.2234C136.823 68.2234 140.722 64.3115 140.722 64.3115C140.722 64.3115 144.373 64.3971 144.895 63.1815C145.417 61.966 144.809 61.0073 143.851 61.0073H141.938C141.938 61.0073 141.415 61.2684 141.677 58.8331C141.938 56.3977 142.721 55.2678 142.721 55.2678C142.721 55.2678 142.293 55.2978 141.587 55.2678H141.557" fill="#1ACDB8"></path></g></g><path d="M132.98 51.356C132.98 51.356 130.459 56.3122 129.851 59.7062C129.243 63.1003 131.764 68.2277 134.285 68.2277C136.806 68.2277 140.705 64.3158 140.705 64.3158C140.705 64.3158 144.356 64.4014 144.878 63.1859C145.4 61.9704 144.792 61.0116 143.834 61.0116H141.921C141.921 61.0116 141.398 61.2727 141.659 58.8374C141.921 56.4021 142.704 55.2722 142.704 55.2722C142.704 55.2722 136.104 55.79 132.98 51.356Z" stroke="#292929" stroke-miterlimit="10"></path><path d="M133.442 56.9029C133.339 57.3566 133.125 57.6947 132.967 57.6605C132.808 57.6263 132.766 57.2325 132.868 56.7703C132.971 56.308 133.185 55.9785 133.343 56.0127C133.502 56.0469 133.536 56.445 133.442 56.9029Z" fill="#292929"></path><path d="M137.529 58.7261C137.426 59.1798 137.212 59.5222 137.054 59.4837C136.896 59.4451 136.853 59.0557 136.956 58.5977C137.058 58.1397 137.272 57.8016 137.431 57.8401C137.589 57.8787 137.632 58.2724 137.529 58.7261Z" fill="#292929"></path><path d="M134.109 58.0542C134.109 58.0542 132.196 59.4452 132.457 59.7919C133.171 60.4059 134.049 60.7986 134.983 60.9218C135.766 60.9218 135.59 59.9674 135.59 59.9674" stroke="#292929" stroke-linecap="round" stroke-linejoin="round"></path><path d="M132.719 62.0559C133.675 62.5773 134.769 62.7896 135.851 62.6637C136.298 62.6199 136.728 62.471 137.106 62.2293C137.484 61.9875 137.799 61.6597 138.026 61.2727" stroke="#292929" stroke-linecap="round" stroke-linejoin="round"></path><path d="M132.894 54.8356C132.894 54.8356 133.416 53.7056 134.46 55.011" stroke="#292929" stroke-linecap="round" stroke-linejoin="round"></path><path d="M137.328 56.4019C137.328 56.4019 139.07 55.8798 139.07 57.6175" stroke="#292929" stroke-linecap="round" stroke-linejoin="round"></path><path d="M78.3398 79.6627C88.1197 78.0541 94.7439 68.822 93.1354 59.042C91.5269 49.2621 82.2947 42.6379 72.5148 44.2464C62.7348 45.855 56.1106 55.0871 57.7192 64.8671C59.3277 74.647 68.5599 81.2712 78.3398 79.6627Z" fill="#1ACDB8" stroke="#292929" stroke-miterlimit="10"></path><path opacity="0.3" d="M78.3398 79.6627C88.1197 78.0541 94.7439 68.822 93.1354 59.042C91.5269 49.2621 82.2947 42.6379 72.5148 44.2464C62.7348 45.855 56.1106 55.0871 57.7192 64.8671C59.3277 74.647 68.5599 81.2712 78.3398 79.6627Z" fill="white" stroke="#292929" stroke-miterlimit="10"></path><path d="M63.0787 71.0567C62.7705 72.285 61.3667 72.1138 61.7947 73.6247C64.6623 76.9816 68.6673 79.163 73.043 79.7513C77.4187 80.3396 81.8576 79.2935 85.5101 76.8133C86.7941 75.2939 87.5645 73.6974 87.5988 72.4134C87.7143 68.4929 83.5713 65.5654 83.3487 63.6779C83.1262 61.7905 84.9152 57.5233 84.9152 57.5233C84.9152 57.5233 88.0482 57.0739 89.1695 54.2791C90.2909 51.4842 86.028 45.1969 82.2188 43.2923C78.4096 41.3877 72.0324 43.0697 68.8994 47.6579C65.7665 52.2461 69.5714 56.2778 67.5555 58.405C65.5396 60.5321 60.2795 60.6434 59.7188 64.8977C59.1582 69.1521 63.4125 69.7127 63.0787 71.0567Z" fill="#292929" stroke="#292929" stroke-miterlimit="10"></path><path d="M82.2317 47.5596C82.2317 47.5596 83.3659 50.3373 78.949 51.9765C74.532 53.6158 71.1251 52.7341 69.9867 55.6359C68.8482 58.5378 69.7341 60.5622 69.8625 62.0559C69.9909 63.5497 66.4385 63.3143 64.2985 65.2103C62.1585 67.1063 66.4385 69.3747 67.5813 70.6373C68.7241 71.8999 68.463 73.7917 66.4428 74.4251" stroke="white" stroke-width="0.75" stroke-linecap="round" stroke-linejoin="round"></path><path d="M68.8524 53.3674C68.8524 53.3674 70.4917 49.3271 73.0169 48.6937C75.5421 48.0602 78.3198 49.9563 80.2115 48.1886C82.1033 46.421 81.7267 45.1627 80.3357 44.1526" stroke="white" stroke-width="0.75" stroke-linecap="round" stroke-linejoin="round"></path><path d="M84.1234 49.1987C84.1234 49.1987 88.5447 52.1049 87.0295 54.3775C85.5144 56.6502 85.0094 53.8725 85.0094 53.8725" stroke="white" stroke-width="0.75" stroke-linecap="round" stroke-linejoin="round"></path><path d="M65.6937 77.0273C69.0462 79.1939 73.0257 80.1802 77.002 79.8297C80.9783 79.4793 84.724 77.8123 87.6458 75.0927C86.3245 73.8789 84.9232 72.755 83.4514 71.7286C80.6523 69.824 78.4139 69.1606 76.8474 69.2634C76.8474 69.2634 75.6148 69.824 73.265 72.0625C71.7328 73.522 68.052 75.6919 65.6937 77.0273Z" fill="white" stroke="#292929" stroke-miterlimit="10"></path><path d="M80.9862 72.3408C80.9875 71.596 80.8808 70.855 80.6694 70.1408C79.4842 69.5484 78.1721 69.2545 76.8474 69.2848C76.8474 69.2848 75.8673 69.7128 73.9969 71.4248C73.9574 71.7415 73.9374 72.0602 73.937 72.3793C73.937 75.3196 75.512 77.6993 77.4595 77.6993C79.4068 77.6993 80.9862 75.2811 80.9862 72.3408Z" fill="white" stroke="#292929" stroke-miterlimit="10"></path><path d="M75.9486 63.5537C75.9486 63.5537 75.9486 66.6909 75.6148 69.6013C75.2809 72.5117 75.726 75.6447 77.8532 75.8673C79.9804 76.0898 79.6422 71.0565 79.4197 69.0407C79.2876 67.7758 79.2876 66.5006 79.4197 65.2357L75.9486 63.5537Z" fill="white"></path><mask id="mask6_280_233" style="mask-type:luminance" maskUnits="userSpaceOnUse" x="75" y="63" width="5" height="13"><path d="M75.9486 63.5537C75.9486 63.5537 75.9486 66.6909 75.6148 69.6013C75.2809 72.5117 75.726 75.6447 77.8532 75.8673C79.9804 76.0898 79.6422 71.0565 79.4197 69.0407C79.2876 67.7758 79.2876 66.5006 79.4197 65.2357L75.9486 63.5537Z" fill="white"></path></mask><g mask="url(#mask6_280_233)"><g style="mix-blend-mode:multiply" opacity="0.5"><path d="M75.5505 70.2777L79.3298 66.614C79.3298 66.4984 79.3298 66.3872 79.3298 66.2844L78.5594 64.8507L75.9357 63.5667C75.9357 63.5667 75.9357 66.7039 75.6019 69.6143C75.5891 69.824 75.5677 70.0508 75.5505 70.2777Z" fill="#1ACDB8"></path></g></g><path d="M75.9486 63.5537C75.9486 63.5537 75.9486 66.6909 75.6148 69.6013C75.2809 72.5117 75.726 75.6447 77.8532 75.8673C79.9804 76.0898 79.6422 71.0565 79.4197 69.0407C79.2876 67.7758 79.2876 66.5006 79.4197 65.2357L75.9486 63.5537Z" stroke="#292929" stroke-miterlimit="10"></path><path d="M83.5627 49.5625C83.5627 49.5625 83.7853 51.0177 79.9804 52.811C76.1754 54.6043 74.2709 56.0553 73.937 57.733C73.6032 59.4108 73.4876 60.087 73.4876 60.087C73.4876 60.087 72.7044 58.5163 71.2492 59.2995C69.794 60.0827 71.1379 63.1087 72.4818 63.22C73.8257 63.3313 74.1596 62.8819 74.1596 62.8819C74.1596 62.8819 78.5252 67.2475 81.0974 67.2475C83.6697 67.2475 84.6798 64.7865 85.2405 60.3995C85.7841 56.1879 83.5627 49.5625 83.5627 49.5625Z" fill="white"></path><mask id="mask7_280_233" style="mask-type:luminance" maskUnits="userSpaceOnUse" x="70" y="49" width="16" height="19"><path d="M83.5627 49.5625C83.5627 49.5625 83.7853 51.0177 79.9804 52.811C76.1754 54.6043 74.2709 56.0553 73.937 57.733C73.6032 59.4108 73.4876 60.087 73.4876 60.087C73.4876 60.087 72.7044 58.5163 71.2492 59.2995C69.794 60.0827 71.1379 63.1087 72.4818 63.22C73.8257 63.3313 74.1596 62.8819 74.1596 62.8819C74.1596 62.8819 78.5252 67.2475 81.0974 67.2475C83.6697 67.2475 84.6798 64.7865 85.2405 60.3995C85.7841 56.1879 83.5627 49.5625 83.5627 49.5625Z" fill="white"></path></mask><g mask="url(#mask7_280_233)"><g style="mix-blend-mode:multiply" opacity="0.5"><path d="M75.1611 58.5419C75.2968 57.1321 75.7985 55.7821 76.6163 54.6257C75.0198 55.6701 74.151 56.6545 73.937 57.733C73.5989 59.4151 73.4876 60.087 73.4876 60.087C73.4876 60.087 72.7044 58.5163 71.2492 59.2995C69.794 60.0827 71.1379 63.1087 72.4818 63.22C73.8257 63.3312 74.1596 62.8819 74.1596 62.8819C74.1596 62.8819 78.5252 67.2474 81.0974 67.2474C80.3338 66.8679 79.6158 66.4027 78.9574 65.8607C77.4338 64.7479 75.037 61.3239 75.1611 58.5419Z" fill="#1ACDB8"></path></g></g><path d="M83.5627 49.5625C83.5627 49.5625 83.7853 51.0177 79.9804 52.811C76.1754 54.6043 74.2709 56.0553 73.937 57.733C73.6032 59.4108 73.4876 60.087 73.4876 60.087C73.4876 60.087 72.7044 58.5163 71.2492 59.2995C69.794 60.0827 71.1379 63.1087 72.4818 63.22C73.8257 63.3313 74.1596 62.8819 74.1596 62.8819C74.1596 62.8819 78.5252 67.2475 81.0974 67.2475C83.6697 67.2475 84.6798 64.7865 85.2405 60.3995C85.7841 56.1879 83.5627 49.5625 83.5627 49.5625Z" stroke="#292929" stroke-miterlimit="10"></path><path d="M82.7881 56.355C82.6611 56.702 82.6084 57.0718 82.6334 57.4404C82.6585 57.8091 82.7608 58.1684 82.9337 58.495C83.52 59.5949 83.8153 59.9587 83.5971 60.2541C83.5345 60.3556 83.4524 60.4438 83.3557 60.5136C83.259 60.5834 83.1495 60.6334 83.0334 60.6608C82.9173 60.6883 82.797 60.6925 82.6792 60.6734C82.5615 60.6543 82.4487 60.6121 82.3473 60.5494" stroke="#292929" stroke-linecap="round" stroke-linejoin="round"></path><path d="M82.3472 63.1815C82.3472 63.1815 80.2072 63.9904 79.4839 62.4453" stroke="#292929" stroke-linecap="round" stroke-linejoin="round"></path><path d="M80.2201 58.0069C80.2201 58.4734 80.0875 58.8629 79.9248 58.8629C79.7622 58.8629 79.6338 58.4862 79.6338 58.0069C79.6338 57.5275 79.7622 57.1509 79.9248 57.1509C80.0875 57.1509 80.2201 57.5404 80.2201 58.0069Z" fill="#292929"></path><path d="M83.8153 57.8955C83.9784 57.8955 84.1107 57.5181 84.1107 57.0524C84.1107 56.5867 83.9784 56.2092 83.8153 56.2092C83.6522 56.2092 83.52 56.5867 83.52 57.0524C83.52 57.5181 83.6522 57.8955 83.8153 57.8955Z" fill="#292929"></path><path d="M78.0929 55.5503C78.0929 55.5503 78.5209 54.3733 80.2928 54.5959" stroke="#292929" stroke-linecap="round" stroke-linejoin="round"></path><path d="M82.8608 54.3731C82.8608 54.3731 83.3744 53.1277 84.4744 54.1549" stroke="#292929" stroke-linecap="round" stroke-linejoin="round"></path></svg>