<svg xmlns="http://www.w3.org/2000/svg" width="215" height="211" viewBox="0 0 215 211" fill="none"><path d="M188.51 35.8438H26.49C22.0717 35.8438 18.49 39.4255 18.49 43.8437V140.241C18.49 144.66 22.0717 148.241 26.49 148.241H188.51C192.928 148.241 196.51 144.66 196.51 140.241V43.8438C196.51 39.4255 192.928 35.8438 188.51 35.8438Z" fill="#1ACDB8"></path><path opacity="0.6" d="M188.51 35.8438H26.49C22.0717 35.8438 18.49 39.4255 18.49 43.8437V140.241C18.49 144.66 22.0717 148.241 26.49 148.241H188.51C192.928 148.241 196.51 144.66 196.51 140.241V43.8438C196.51 39.4255 192.928 35.8438 188.51 35.8438Z" fill="white"></path><path d="M187.366 34.6011H27.6381C23.2198 34.6011 19.6381 38.1828 19.6381 42.6011V139.132C19.6381 143.55 23.2198 147.132 27.6381 147.132H187.366C191.784 147.132 195.366 143.55 195.366 139.132V42.6011C195.366 38.1828 191.784 34.6011 187.366 34.6011Z" fill="#1ACDB8"></path><path opacity="0.8" d="M187.366 34.6011H27.6381C23.2198 34.6011 19.6381 38.1828 19.6381 42.6011V139.132C19.6381 143.55 23.2198 147.132 27.6381 147.132H187.366C191.784 147.132 195.366 143.55 195.366 139.132V42.6011C195.366 38.1828 191.784 34.6011 187.366 34.6011Z" fill="white"></path><path opacity="0.3" d="M145.34 141.658C144.579 141.658 143.805 141.658 143.022 141.611C127.542 140.966 117.571 134.477 106.993 127.61C102.43 124.647 97.7132 121.59 92.3425 118.825C83.162 114.095 76.7421 116.284 69.9438 118.584C65.4675 120.098 60.845 121.663 55.212 121.302C48.7319 120.872 43.9073 118.494 40.8758 114.19C36.1888 107.538 36.7478 97.4197 38.829 90.1613C42.9527 75.8036 52.7266 64.6881 67.0929 58.0231C80.8056 51.6548 98.1733 49.5005 117.308 51.7924C142.45 54.8024 164.608 67.0617 175.083 83.7844C182.071 94.9257 183.503 107.404 179.22 119.874C174.438 133.802 162.157 141.658 145.34 141.658ZM81.6656 115.811C84.9035 115.811 88.408 116.563 92.4414 118.636C97.8207 121.397 102.542 124.462 107.109 127.429C117.661 134.279 127.628 140.759 143.031 141.396C160.936 142.144 174.051 134.271 179.018 119.806C183.279 107.396 181.856 94.9816 174.898 83.9005C164.441 67.2294 142.36 55.0088 117.278 52.0074C77.1635 47.2043 47.1882 61.8458 39.0182 90.2215C36.9499 97.4283 36.3909 107.477 41.0349 114.065C44.0449 118.318 48.7749 120.678 55.2249 121.087C60.8149 121.444 65.4159 119.887 69.8707 118.378C73.7364 117.075 77.4774 115.811 81.6656 115.811Z" fill="white"></path><path d="M179.701 69.0614C190.881 86.1238 188.701 111.382 167.21 126.174C143.783 142.299 121.475 138.106 110.063 121.306C98.6506 104.506 103.673 83.1095 121.595 67.7585C139.518 52.4075 167.872 50.9971 179.701 69.0614Z" fill="white"></path><g opacity="0.5"><path d="M40.2222 41.137H31.1621C30.8177 41.137 30.5386 41.4161 30.5386 41.7605V41.8895C30.5386 42.2338 30.8177 42.513 31.1621 42.513H40.2222C40.5665 42.513 40.8457 42.2338 40.8457 41.8895V41.7605C40.8457 41.4161 40.5665 41.137 40.2222 41.137Z" fill="#1ACDB8"></path><path d="M60.8321 41.137H51.772C51.4277 41.137 51.1485 41.4161 51.1485 41.7605V41.8895C51.1485 42.2338 51.4277 42.513 51.772 42.513H60.8321C61.1764 42.513 61.4556 42.2338 61.4556 41.8895V41.7605C61.4556 41.4161 61.1764 41.137 60.8321 41.137Z" fill="#1ACDB8"></path><path d="M81.4463 41.137H72.3862C72.0418 41.137 71.7627 41.4161 71.7627 41.7605V41.8895C71.7627 42.2338 72.0418 42.513 72.3862 42.513H81.4463C81.7906 42.513 82.0698 42.2338 82.0698 41.8895V41.7605C82.0698 41.4161 81.7906 41.137 81.4463 41.137Z" fill="#1ACDB8"></path><path d="M102.06 41.137H93.0004C92.656 41.137 92.3769 41.4161 92.3769 41.7605V41.8895C92.3769 42.2338 92.656 42.513 93.0004 42.513H102.06C102.405 42.513 102.684 42.2338 102.684 41.8895V41.7605C102.684 41.4161 102.405 41.137 102.06 41.137Z" fill="#1ACDB8"></path></g><path d="M185.627 41.137H169.166C168.542 41.137 168.035 41.6433 168.035 42.2679V42.5087C168.035 43.1332 168.542 43.6396 169.166 43.6396H185.627C186.251 43.6396 186.758 43.1332 186.758 42.5087V42.2679C186.758 41.6433 186.251 41.137 185.627 41.137Z" fill="#1ACDB8"></path><path d="M81.3173 61.2998H33.1487C31.7072 61.2998 30.5386 62.4684 30.5386 63.9099V63.9142C30.5386 65.3557 31.7072 66.5243 33.1487 66.5243H81.3173C82.7588 66.5243 83.9274 65.3557 83.9274 63.9142V63.9099C83.9274 62.4684 82.7588 61.2998 81.3173 61.2998Z" fill="white"></path><path d="M94.3248 71.7703H32.8692C31.582 71.7703 30.5386 72.8137 30.5386 74.1009V80.3574C30.5386 81.6445 31.582 82.688 32.8692 82.688H94.3248C95.6119 82.688 96.6554 81.6445 96.6554 80.3574V74.1009C96.6554 72.8137 95.6119 71.7703 94.3248 71.7703Z" fill="white"></path><path d="M74.9232 87.1343H32.8692C31.582 87.1343 30.5386 88.1777 30.5386 89.4649V95.7214C30.5386 97.0085 31.582 98.052 32.8692 98.052H74.9232C76.2103 98.052 77.2538 97.0085 77.2538 95.7214V89.4649C77.2538 88.1777 76.2103 87.1343 74.9232 87.1343Z" fill="white"></path><path opacity="0.3" d="M75.4951 105.521H31.5018C31.3742 105.522 31.2477 105.498 31.1295 105.45C31.0114 105.402 30.904 105.33 30.8136 105.24C30.7232 105.15 30.6516 105.043 30.6029 104.925C30.5542 104.808 30.5294 104.681 30.53 104.554C30.53 104.298 30.6315 104.053 30.8121 103.872C30.9927 103.692 31.2377 103.59 31.4932 103.59H75.4951C75.7505 103.59 75.9955 103.692 76.1762 103.872C76.3568 104.053 76.4583 104.298 76.4583 104.554C76.4588 104.68 76.4343 104.806 76.3862 104.923C76.338 105.041 76.2672 105.147 76.1777 105.237C76.0882 105.327 75.9818 105.399 75.8647 105.447C75.7475 105.496 75.6219 105.521 75.4951 105.521Z" fill="#1ACDB8"></path><path opacity="0.3" d="M62.0189 109.245H31.4889C31.2342 109.244 30.9903 109.142 30.8106 108.961C30.6309 108.781 30.53 108.536 30.53 108.282C30.53 108.155 30.5549 108.03 30.6033 107.913C30.6517 107.796 30.7226 107.69 30.8121 107.6C30.9015 107.511 31.0077 107.44 31.1246 107.392C31.2414 107.343 31.3667 107.318 31.4932 107.318H62.0232C62.1497 107.318 62.2749 107.343 62.3918 107.392C62.5086 107.44 62.6148 107.511 62.7043 107.6C62.7937 107.69 62.8646 107.796 62.9131 107.913C62.9615 108.03 62.9864 108.155 62.9864 108.282C62.9864 108.408 62.9613 108.534 62.9126 108.651C62.864 108.768 62.7926 108.875 62.7027 108.964C62.6128 109.054 62.5061 109.125 62.3888 109.173C62.2714 109.221 62.1457 109.245 62.0189 109.245Z" fill="#1ACDB8"></path><path opacity="0.1" d="M67.2821 118.511H37.0703C33.4629 118.511 30.5386 121.436 30.5386 125.043C30.5386 128.65 33.4629 131.575 37.0703 131.575H67.2821C70.8894 131.575 73.8138 128.65 73.8138 125.043C73.8138 121.436 70.8894 118.511 67.2821 118.511Z" fill="#1ACDB8"></path><path d="M66.7618 130.298H37.5218C36.6893 130.301 35.8645 130.139 35.0946 129.822C34.3247 129.506 33.6249 129.04 33.0352 128.453C32.4456 127.865 31.9777 127.167 31.6585 126.398C31.3393 125.629 31.175 124.805 31.175 123.972C31.1761 122.296 31.843 120.688 33.0291 119.503C34.2152 118.317 35.8235 117.651 37.5003 117.651H66.7618C67.5932 117.65 68.4167 117.812 69.1853 118.129C69.954 118.446 70.6526 118.911 71.2413 119.498C71.8299 120.085 72.2971 120.782 72.616 121.55C72.935 122.318 73.0994 123.141 73.1 123.972C73.1 124.804 72.936 125.628 72.6173 126.396C72.2986 127.164 71.8315 127.862 71.2428 128.45C70.6541 129.037 69.9552 129.503 69.1863 129.82C68.4174 130.137 67.5935 130.299 66.7618 130.298Z" fill="#1ACDB8"></path><path opacity="0.4" d="M59.4131 125.649H44.849C44.4042 125.649 43.9777 125.473 43.6632 125.158C43.3487 124.844 43.172 124.417 43.172 123.972C43.1731 123.528 43.3503 123.103 43.6647 122.789C43.9791 122.476 44.405 122.3 44.849 122.3H59.4131C59.6331 122.299 59.8511 122.342 60.0545 122.426C60.258 122.509 60.4429 122.633 60.5987 122.788C60.7544 122.943 60.878 123.128 60.9624 123.331C61.0467 123.534 61.0901 123.752 61.0901 123.972C61.0907 124.193 61.0477 124.411 60.9636 124.615C60.8795 124.818 60.756 125.004 60.6002 125.159C60.4443 125.315 60.2592 125.439 60.0555 125.523C59.8518 125.607 59.6335 125.65 59.4131 125.649Z" fill="white"></path><path d="M125.517 53.19C125.931 54.72 125.805 56.3461 125.159 57.7936C124.513 59.2411 123.387 60.421 121.971 61.1339C120.555 61.8469 118.936 62.0491 117.389 61.7063C115.841 61.3636 114.459 60.497 113.477 59.253C114.621 59.5584 115.825 59.5584 116.969 59.253C118.08 58.9626 119.1 58.3987 119.938 57.6127C120.775 56.8267 121.402 55.8436 121.762 54.753C122.122 53.6625 122.203 52.4992 121.998 51.3692C121.794 50.2392 121.309 49.1784 120.589 48.2837C121.772 48.5901 122.852 49.2061 123.719 50.0684C124.585 50.9308 125.205 52.0082 125.517 53.19Z" fill="white"></path><path opacity="0.6" d="M187.983 73.7354C188.194 73.7354 188.366 73.564 188.366 73.3527C188.366 73.1413 188.194 72.97 187.983 72.97C187.772 72.97 187.6 73.1413 187.6 73.3527C187.6 73.564 187.772 73.7354 187.983 73.7354Z" fill="white"></path><path opacity="0.6" d="M159.711 52.8373C159.711 52.913 159.688 52.987 159.646 53.0499C159.604 53.1128 159.544 53.1619 159.474 53.1909C159.404 53.2198 159.327 53.2274 159.253 53.2126C159.179 53.1979 159.111 53.1614 159.057 53.1079C159.004 53.0544 158.967 52.9862 158.953 52.912C158.938 52.8377 158.945 52.7608 158.974 52.6908C159.003 52.6209 159.052 52.5611 159.115 52.5191C159.178 52.477 159.252 52.4546 159.328 52.4546C159.429 52.4546 159.527 52.4949 159.599 52.5667C159.67 52.6385 159.711 52.7358 159.711 52.8373Z" fill="white"></path><path opacity="0.6" d="M130.075 58.9778C130.286 58.9778 130.458 58.8065 130.458 58.5951C130.458 58.3837 130.286 58.2124 130.075 58.2124C129.864 58.2124 129.692 58.3837 129.692 58.5951C129.692 58.8065 129.864 58.9778 130.075 58.9778Z" fill="white"></path><path opacity="0.6" d="M146.742 70.261C146.953 70.261 147.124 70.0897 147.124 69.8783C147.124 69.6669 146.953 69.4956 146.742 69.4956C146.53 69.4956 146.359 69.6669 146.359 69.8783C146.359 70.0897 146.53 70.261 146.742 70.261Z" fill="#1ACDB8"></path><path opacity="0.6" d="M177.779 89.882C177.779 89.9577 177.757 90.0317 177.715 90.0946C177.673 90.1575 177.613 90.2066 177.543 90.2355C177.473 90.2645 177.396 90.2721 177.322 90.2573C177.248 90.2425 177.179 90.2061 177.126 90.1526C177.072 90.0991 177.036 90.0309 177.021 89.9566C177.006 89.8824 177.014 89.8054 177.043 89.7355C177.072 89.6656 177.121 89.6058 177.184 89.5638C177.247 89.5217 177.321 89.4993 177.396 89.4993C177.498 89.4993 177.595 89.5396 177.667 89.6114C177.739 89.6831 177.779 89.7805 177.779 89.882Z" fill="#1ACDB8"></path><path opacity="0.7" d="M141.276 51.0141C140.146 51.3968 139.836 51.7064 139.453 52.8373C139.071 51.7064 138.761 51.3968 137.63 51.0141C138.761 50.6314 139.071 50.3218 139.453 49.1909C139.836 50.3218 140.146 50.6314 141.276 51.0141Z" fill="white"></path><path opacity="0.7" d="M180.157 59.3819C180.801 59.3819 181.322 58.8601 181.322 58.2166C181.322 57.573 180.801 57.0513 180.157 57.0513C179.514 57.0513 178.992 57.573 178.992 58.2166C178.992 58.8601 179.514 59.3819 180.157 59.3819Z" fill="white"></path><path opacity="0.7" d="M107.896 63.9099C107.607 63.965 107.342 64.1056 107.134 64.3134C106.926 64.5212 106.785 64.7866 106.73 65.0752C106.675 64.7866 106.535 64.5212 106.327 64.3134C106.119 64.1056 105.854 63.965 105.565 63.9099C105.854 63.8548 106.119 63.7143 106.327 63.5065C106.535 63.2987 106.675 63.0333 106.73 62.7446C106.785 63.0333 106.926 63.2987 107.134 63.5065C107.342 63.7143 107.607 63.8548 107.896 63.9099Z" fill="white"></path><path opacity="0.7" d="M134.882 70.1278C133.988 70.4288 133.747 70.6739 133.442 71.5683C133.141 70.6739 132.896 70.4288 132.001 70.1278C132.896 69.8268 133.141 69.5817 133.442 68.6873C133.73 69.5817 133.988 69.8268 134.882 70.1278Z" fill="#1ACDB8"></path><path opacity="0.7" d="M149.004 59.2701C149.376 59.2701 149.679 58.9679 149.679 58.595C149.679 58.2222 149.376 57.9199 149.004 57.9199C148.631 57.9199 148.328 58.2222 148.328 58.595C148.328 58.9679 148.631 59.2701 149.004 59.2701Z" fill="#1ACDB8"></path><path d="M164.307 99.9309C164.479 99.2988 167.373 99.5353 170.757 100.46C174.141 101.384 176.777 102.653 176.597 103.285L180.17 104.261C180.445 103.263 176.3 101.251 170.938 99.7976C165.576 98.3442 160.992 97.9529 160.721 98.9376L164.307 99.9309Z" fill="#1ACDB8"></path><path opacity="0.2" d="M165.89 98.6926C167.596 98.9668 169.286 99.3357 170.951 99.7977C172.618 100.249 174.26 100.788 175.87 101.415C175.912 101.764 175.922 102.117 175.9 102.468C174.284 101.574 172.556 100.899 170.762 100.46C168.517 99.8493 166.487 99.5354 165.322 99.5784C165.481 99.2648 165.671 98.968 165.89 98.6926Z" fill="black"></path><path d="M172.391 106.091C174.871 105.025 176.018 102.15 174.952 99.6688C173.885 97.1881 171.01 96.0415 168.529 97.1078C166.048 98.1742 164.902 101.05 165.968 103.53C167.034 106.011 169.91 107.158 172.391 106.091Z" fill="#1ACDB8"></path><path opacity="0.4" d="M170.461 106.497C173.161 106.497 175.35 104.308 175.35 101.608C175.35 98.9077 173.161 96.7188 170.461 96.7188C167.76 96.7188 165.571 98.9077 165.571 101.608C165.571 104.308 167.76 106.497 170.461 106.497Z" fill="white"></path><path opacity="0.1" d="M166.621 100.198C166.659 101.126 167.369 101.574 168.203 101.204C168.635 100.981 168.998 100.643 169.25 100.227C169.503 99.8113 169.636 99.3339 169.635 98.8474C169.596 97.9186 168.887 97.4671 168.057 97.8412C167.623 98.0633 167.26 98.401 167.006 98.8169C166.753 99.2327 166.619 99.7106 166.621 100.198Z" fill="white"></path><path opacity="0.1" d="M171.295 99.5654C171.338 99.6849 171.415 99.789 171.518 99.8643C171.62 99.9397 171.742 99.9829 171.869 99.9885C171.996 99.9941 172.122 99.9619 172.231 99.8959C172.339 99.8298 172.426 99.733 172.479 99.6177C172.532 99.5024 172.55 99.3739 172.53 99.2484C172.511 99.1229 172.454 99.0061 172.368 98.9129C172.281 98.8197 172.169 98.7543 172.045 98.725C171.922 98.6957 171.792 98.7039 171.673 98.7484C171.515 98.8074 171.387 98.9263 171.316 99.0792C171.245 99.2321 171.238 99.4068 171.295 99.5654Z" fill="white"></path><path opacity="0.1" d="M172.469 104.79C172.493 104.857 172.53 104.919 172.578 104.972C172.626 105.025 172.684 105.068 172.749 105.098C172.814 105.129 172.884 105.146 172.955 105.149C173.027 105.152 173.098 105.141 173.165 105.117C173.292 105.06 173.392 104.958 173.446 104.831C173.5 104.703 173.503 104.56 173.456 104.43C173.408 104.3 173.313 104.193 173.19 104.131C173.067 104.068 172.924 104.055 172.791 104.093C172.724 104.117 172.662 104.154 172.609 104.203C172.556 104.251 172.514 104.309 172.484 104.374C172.454 104.439 172.437 104.509 172.434 104.58C172.432 104.652 172.443 104.723 172.469 104.79Z" fill="white"></path><path opacity="0.5" d="M170.022 103.208C171.545 103.641 173.106 103.929 174.683 104.068C174.523 104.343 174.334 104.601 174.12 104.837C172.83 104.605 171.355 104.278 169.841 103.866C168.328 103.453 166.905 103.006 165.658 102.528C165.593 102.217 165.563 101.9 165.567 101.582C166.999 102.261 168.49 102.805 170.022 103.208Z" fill="#1ACDB8"></path><path d="M164.307 99.931C164.131 100.563 166.745 101.827 170.142 102.756C173.539 103.685 176.438 103.917 176.592 103.285L180.166 104.261C179.895 105.263 175.32 104.885 169.945 103.401C164.57 101.918 160.442 99.9396 160.717 98.9377L164.307 99.931Z" fill="#1ACDB8"></path><path d="M96.0362 117.69L91.3492 125.43L98.8011 123.344L106.253 121.263L97.1628 117.393C96.9709 117.298 96.751 117.276 96.5438 117.33C96.3367 117.385 96.1564 117.513 96.0362 117.69Z" fill="#1ACDB8"></path><path opacity="0.5" d="M96.0362 117.69L91.3492 125.43L98.8011 123.344L106.253 121.263L97.1628 117.393C96.9709 117.298 96.751 117.276 96.5438 117.33C96.3367 117.385 96.1564 117.513 96.0362 117.69Z" fill="white"></path><path d="M109.65 131.218L95.46 135.187C95.2852 135.228 95.1012 135.205 94.9427 135.12C94.7843 135.035 94.6624 134.895 94.6 134.727L91.2159 125.813C91.1804 125.736 91.162 125.652 91.162 125.567C91.1621 125.482 91.1805 125.398 91.216 125.32C91.2516 125.243 91.3034 125.175 91.3679 125.119C91.4325 125.064 91.5082 125.023 91.59 125L105.78 121.035C105.955 120.993 106.139 121.016 106.298 121.101C106.457 121.186 106.578 121.326 106.64 121.496L110.024 130.409C110.06 130.486 110.078 130.57 110.078 130.655C110.078 130.74 110.059 130.823 110.024 130.9C109.988 130.977 109.936 131.045 109.872 131.1C109.807 131.155 109.732 131.195 109.65 131.218Z" fill="#1ACDB8"></path><path opacity="0.3" d="M109.65 131.218L95.46 135.187C95.2852 135.228 95.1012 135.205 94.9427 135.12C94.7843 135.035 94.6624 134.895 94.6 134.727L91.2159 125.813C91.1804 125.736 91.162 125.652 91.162 125.567C91.1621 125.482 91.1805 125.398 91.216 125.32C91.2516 125.243 91.3034 125.175 91.3679 125.119C91.4325 125.064 91.5082 125.023 91.59 125L105.78 121.035C105.955 120.993 106.139 121.016 106.298 121.101C106.457 121.186 106.578 121.326 106.64 121.496L110.024 130.409C110.06 130.486 110.078 130.57 110.078 130.655C110.078 130.74 110.059 130.823 110.024 130.9C109.988 130.977 109.936 131.045 109.872 131.1C109.807 131.155 109.732 131.195 109.65 131.218Z" fill="white"></path><path opacity="0.2" d="M100.93 129.515L92.3511 125.378C92.2918 125.356 92.2407 125.317 92.2047 125.265C92.1686 125.213 92.1492 125.151 92.1492 125.088C92.1492 125.025 92.1686 124.963 92.2047 124.911C92.2407 124.86 92.2918 124.82 92.3511 124.798L98.685 123.026L105.023 121.255C105.086 121.24 105.151 121.242 105.212 121.262C105.273 121.283 105.327 121.319 105.368 121.368C105.409 121.418 105.436 121.477 105.445 121.541C105.454 121.604 105.445 121.669 105.419 121.728L101.325 129.408C101.287 129.474 101.223 129.522 101.149 129.542C101.075 129.562 100.996 129.553 100.93 129.515Z" fill="#1ACDB8"></path><path d="M101.123 127.52C100.869 127.388 100.574 127.36 100.3 127.44C100.025 127.52 99.7918 127.702 99.6482 127.95L95.46 135.187L109.65 131.218L101.123 127.52Z" fill="#263238"></path><path d="M100.702 127.455L95.4514 135.195L102.546 133.213L109.65 131.218L101.777 127.15C101.591 127.065 101.38 127.048 101.183 127.104C100.986 127.16 100.815 127.285 100.702 127.455Z" fill="#1ACDB8"></path><path opacity="0.12" d="M101.777 127.15C101.591 127.064 101.381 127.047 101.184 127.102C100.987 127.158 100.816 127.281 100.702 127.451L95.4514 135.191L109.641 131.222L101.777 127.15Z" fill="white"></path><path d="M117.055 70.8414C118.486 69.2977 120.641 72.914 120.641 72.914C120.641 72.914 122.051 73.43 120.731 74.5609C116.625 72.7162 117.055 70.8414 117.055 70.8414Z" fill="#263238"></path><path d="M129.658 121.947C126.39 116.387 150.298 111.558 150.56 106.798C146.914 99.6472 140.64 91.3181 140.64 91.3181L119.854 100.464C119.854 100.464 123.565 119.26 129.658 121.947Z" fill="black"></path><path d="M135.579 113.295L142.119 102.924C142.119 102.924 164.049 118.98 165.769 122.437C167.489 125.894 168.134 154.012 168.134 154.012L164.011 153.926C164.011 153.926 158.756 139.736 158.455 126.999C145.899 121.56 135.579 113.295 135.579 113.295Z" fill="#263238"></path><path d="M145.607 116.133C145.431 117.696 145.693 119.277 146.363 120.7C144.781 119.741 143.332 118.808 142.038 117.948L141.827 117.557L145.607 116.133Z" fill="black"></path><path d="M172.245 159.662C172.245 159.662 167.463 156.106 167.326 153.702L163.886 153.939L163.176 157.628L165.008 158.273L165.382 157.843L165.752 158.548C167.236 159.069 171.2 160.402 172.249 160.393C172.313 160.282 172.346 160.155 172.345 160.027C172.344 159.899 172.31 159.773 172.245 159.662Z" fill="#263238"></path><path d="M168.349 154.984L163.52 154.7L163.164 152.584L168.586 152.546L168.349 154.984Z" fill="#1ACDB8"></path><path d="M129.959 112.723L141.397 108.312C141.397 108.312 149.373 134.279 148.707 138.089C148.04 141.899 131.735 164.822 131.735 164.822L128.484 162.289C128.484 162.289 132.75 147.764 140.094 137.38C133.3 125.524 129.959 112.723 129.959 112.723Z" fill="#263238"></path><path d="M131.657 171.81C131.657 171.81 129.937 166.099 131.275 164.091L128.377 162.234L125.603 164.766L126.687 166.379L127.25 166.246L127.125 167.032C127.985 168.322 130.385 171.762 131.232 172.399C131.348 172.346 131.448 172.264 131.522 172.161C131.597 172.057 131.644 171.936 131.657 171.81Z" fill="#263238"></path><path d="M131.326 165.729L127.624 162.621L128.6 160.707L132.973 163.919L131.326 165.729Z" fill="#1ACDB8"></path><path d="M133.562 81.3505C134.543 81.9697 135.613 82.6405 136.65 83.2683C137.686 83.8961 138.748 84.5153 139.797 85.1087C140.846 85.7021 141.904 86.2482 142.945 86.7384C143.889 87.1941 144.872 87.5639 145.882 87.8435L144.807 87.8736C145.019 87.8536 145.225 87.7922 145.413 87.693C145.762 87.5411 146.098 87.3628 146.419 87.1598C147.12 86.7298 147.868 86.2052 148.595 85.6419C149.322 85.0786 150.07 84.4938 150.805 83.8918L153.024 82.0729L153.054 82.0471C153.339 81.8101 153.698 81.6807 154.068 81.6815C154.438 81.6824 154.796 81.8134 155.08 82.0518C155.363 82.2901 155.554 82.6205 155.618 82.9852C155.683 83.3499 155.617 83.7256 155.432 84.0466C154.921 84.9339 154.366 85.795 153.768 86.6266C153.17 87.4608 152.538 88.2735 151.854 89.0647C151.15 89.8867 150.387 90.6569 149.571 91.3695C149.114 91.7652 148.632 92.1301 148.126 92.4617C147.484 92.8889 146.777 93.2098 146.032 93.412C145.752 93.4869 145.46 93.5059 145.172 93.4679L144.966 93.4378C143.483 93.2171 142.032 92.8246 140.64 92.2682C139.986 92.0188 139.35 91.7522 138.727 91.4813C138.103 91.2104 137.501 90.9094 136.899 90.6213C135.699 90.0236 134.543 89.3786 133.403 88.7121C132.264 88.0456 131.171 87.349 130.041 86.5621C129.387 86.0843 128.942 85.3727 128.799 84.5755C128.657 83.7783 128.827 82.9567 129.274 82.2816C129.721 81.6066 130.412 81.13 131.202 80.9509C131.992 80.7719 132.82 80.9042 133.515 81.3204L133.562 81.3505Z" fill="#263238"></path><path d="M154.864 83.7198C156.425 83.8316 157.681 81.2129 157.681 81.2129L158.717 79.7466C158.887 79.5054 158.966 79.2116 158.939 78.9178C158.912 78.6239 158.782 78.3492 158.571 78.1427L157.483 77.0677C157.365 76.9516 157.225 76.8603 157.07 76.7991C156.916 76.7378 156.752 76.708 156.586 76.7112C156.42 76.7144 156.257 76.7506 156.105 76.8177C155.953 76.8849 155.817 76.9815 155.703 77.1021L154.482 78.3921C154.265 78.6248 154.1 78.9002 153.996 79.2005L153.566 80.426C153.391 80.9401 153.367 81.4932 153.495 82.0208C153.623 82.5484 153.898 83.0288 154.288 83.4059L154.391 83.5048C154.517 83.6334 154.685 83.7101 154.864 83.7198Z" fill="#FFB573"></path><path d="M152.001 82.5933C152.001 82.5933 152.375 81.7333 152.676 81.1485C153.643 80.9808 156.051 83.0061 156.365 83.8618C156.155 84.3219 154.981 85.2421 154.981 85.2421C154.245 84.4165 152.573 83.1738 152.001 82.5933Z" fill="#E0E0E0"></path><path d="M116.724 89.3098C120.219 86.6524 125.633 83.565 129.624 82.0944C130.62 81.7393 131.702 81.7051 132.718 81.9967C133.735 82.2882 134.634 82.8908 135.291 83.7198C139.217 88.7336 142.42 96.0651 147.507 105.942C140.902 113.553 130.535 115.746 130.535 115.746C129.112 113.983 127.779 109.829 126.265 106.183C123.556 103.078 119.785 99.9136 116.134 95.8243C115.714 95.3725 115.394 94.8372 115.194 94.2534C114.995 93.6695 114.92 93.0502 114.976 92.4357C115.031 91.8211 115.216 91.2252 115.517 90.6866C115.818 90.1481 116.229 89.6789 116.724 89.3098Z" fill="white"></path><path d="M141.827 108.78C141.784 108.78 141.742 108.767 141.706 108.742C141.671 108.718 141.644 108.683 141.629 108.643C138.099 99.7588 128.411 89.1894 126.437 87.822C126.398 87.7874 126.372 87.7395 126.365 87.6873C126.359 87.6351 126.371 87.5823 126.401 87.5388C126.431 87.4954 126.475 87.4643 126.526 87.4515C126.577 87.4387 126.631 87.4451 126.678 87.4694C128.677 88.8497 138.469 99.5094 142.029 108.484C142.049 108.537 142.048 108.595 142.025 108.648C142.003 108.7 141.961 108.741 141.909 108.763C141.883 108.775 141.855 108.781 141.827 108.78Z" fill="#E6E6E6"></path><path d="M119.54 87.3491C126.902 91.1632 123.573 114.087 135.093 124.14C128.308 124.101 123.573 119.259 123.573 119.259C123.573 119.259 119.273 100.602 114.995 95.1794C112.389 91.8899 116.074 89.0992 119.54 87.3491Z" fill="#263238"></path><path d="M126.394 83.5909C130.191 85.0314 150.904 103.62 151.36 114.121C153.428 106.639 149.945 100.361 149.945 100.361C149.945 100.361 142.958 92.522 139.905 88.3639C136.852 84.2058 133.248 80.1939 130.402 81.0926C126.76 82.2063 126.394 83.5909 126.394 83.5909Z" fill="#263238"></path><path d="M116.272 79.9402L122.606 80.9679C122.911 82.7696 123.629 84.4079 126.394 83.5909C127.465 84.0424 126.932 85.5775 126.171 86.6009C124.451 87.3405 121.841 88.1274 120.069 87.3448C119.759 86.0763 117.958 81.8838 116.272 79.9402Z" fill="#FFB573"></path><path d="M126.678 85.096C126.798 85.7159 126.761 86.3559 126.571 86.9579C125.913 87.3363 124.528 87.1514 124.528 87.1514C124.528 87.1514 124.296 85.9001 124.691 85.3884C126.209 84.9412 126.678 85.096 126.678 85.096Z" fill="#1ACDB8"></path><path d="M125.483 86.9106C125.577 86.5603 125.773 86.246 126.046 86.0076C129.555 89.2498 138.06 91.2192 140.085 92.7457C141.057 93.4165 142.807 95.1537 142.786 97.3553C140.89 95.7557 138.486 96.3104 137.368 95.4332C134.229 92.4103 127.216 90.1184 125.483 86.9106Z" fill="#1ACDB8"></path><path opacity="0.2" d="M118.912 80.3701L122.606 80.9678C122.668 81.3888 122.773 81.8023 122.92 82.2019C121.991 82.834 120.073 82.6319 119.48 81.7719C119.208 81.3423 119.016 80.8675 118.912 80.3701Z" fill="black"></path><path d="M113.877 79.2608C116.302 81.2646 117.618 82.5632 119.871 82.4987C123.26 82.3955 124.838 78.5556 123.057 75.8595C121.454 73.43 117.76 70.5576 114.763 71.968C114.099 72.2808 113.525 72.757 113.095 73.3519C112.665 73.9468 112.394 74.641 112.305 75.3696C112.217 76.0982 112.314 76.8374 112.589 77.5179C112.864 78.1984 113.307 78.7981 113.877 79.2608Z" fill="#FFB573"></path><path d="M115.025 80.2154C116.483 78.9254 115.674 77.6827 114.883 77.8375C115.575 76.8958 114.143 75.3177 113.004 75.5542C114.827 74.2642 118.375 72.742 117.798 70.1491C117.261 67.7153 112.677 67.8658 112.789 70.9446C113.559 70.6823 113.739 71.8605 111.499 72.8194C107.887 74.3674 108.24 77.0205 110.119 77.2097C108.725 78.0654 111.667 80.9636 115.025 80.2154Z" fill="#263238"></path><path d="M116.908 72.7678C118.263 70.8715 118.108 69.3278 117.919 68.4893C118.929 70.1534 118.302 72.1357 116.908 72.7678Z" fill="#263238"></path><path d="M107.896 76.9131C110.183 77.3689 111.512 76.6035 112.217 76.0789C111.112 77.7 109.048 77.9236 107.896 76.9131Z" fill="#263238"></path><path d="M114.406 81.4066C114.704 81.6023 115.038 81.7369 115.389 81.8026C115.739 81.8683 116.099 81.8638 116.448 81.7893C117.386 81.5872 117.412 80.6369 116.784 79.9833C116.216 79.3985 115.064 78.7965 114.285 79.3469C114.121 79.469 113.99 79.63 113.903 79.8154C113.817 80.0009 113.778 80.2049 113.79 80.4092C113.802 80.6135 113.864 80.8116 113.972 80.9857C114.079 81.1598 114.229 81.3044 114.406 81.4066Z" fill="#FFB573"></path><path d="M119.992 87.0524C119.992 87.0524 119.901 86.7858 119.906 86.7858C119.703 86.7858 118.955 87.4652 119.325 87.8436C120.589 89.0992 123.801 89.0089 125.1 88.6262C124.691 88.2435 124.502 86.1408 124.67 85.3926C123.634 86.0763 122.275 86.6009 119.992 87.0524Z" fill="#E6E6E6"></path><path d="M124.7 85.3883C125.996 85.2307 127.301 85.5942 128.329 86.3988C128.665 85.857 128.196 84.7777 127.99 84.4466C127.345 83.3329 126.648 82.7739 125.474 83.7844C125.401 84.2531 125.779 84.6745 124.7 85.3883Z" fill="#E6E6E6"></path><path d="M120.06 94.3925L118.25 96.8779C117.652 97.7379 117.072 98.5635 116.509 99.402C115.945 100.241 115.416 101.092 114.943 101.913C114.707 102.343 114.513 102.735 114.316 103.122C114.148 103.451 114.005 103.791 113.886 104.141C113.712 104.844 113.669 105.572 113.757 106.291C113.853 107.226 114.019 108.154 114.255 109.064C114.772 111.037 115.395 112.981 116.122 114.886L116.147 114.964C116.272 115.311 116.271 115.691 116.144 116.038C116.017 116.384 115.772 116.675 115.453 116.859C115.133 117.044 114.759 117.11 114.395 117.046C114.032 116.983 113.702 116.794 113.464 116.512C112.728 115.63 112.052 114.699 111.443 113.725C110.824 112.747 110.266 111.73 109.775 110.681C109.254 109.577 108.84 108.425 108.541 107.241C108.165 105.851 108.08 104.399 108.291 102.975C108.417 102.276 108.603 101.588 108.846 100.92C109.07 100.305 109.31 99.7331 109.564 99.1999C110.058 98.138 110.607 97.1031 111.211 96.0996C111.791 95.1149 112.411 94.1689 113.047 93.2444C113.683 92.3199 114.337 91.4341 115.085 90.5182C115.607 89.9011 116.347 89.5084 117.15 89.4215C117.954 89.3347 118.76 89.5604 119.402 90.0518C120.044 90.5433 120.472 91.2628 120.598 92.0613C120.723 92.8598 120.537 93.676 120.078 94.3409L120.06 94.3925Z" fill="#263238"></path><path d="M113.245 115.759C113.334 115.613 113.471 115.5 113.632 115.441L115.025 114.916C115.158 114.868 115.301 114.857 115.44 114.886C115.578 114.915 115.705 114.982 115.808 115.08L116.715 115.94C117.591 116.788 118.274 117.815 118.719 118.95L118.869 119.328C118.928 119.483 118.956 119.648 118.951 119.813C118.946 119.979 118.909 120.142 118.84 120.292C118.772 120.443 118.674 120.579 118.553 120.692C118.432 120.804 118.289 120.892 118.134 120.949L116.698 121.474C116.42 121.576 116.115 121.576 115.838 121.473C115.56 121.371 115.329 121.173 115.184 120.915L114.303 119.35C114.303 119.35 112.475 117.122 113.245 115.759Z" fill="#FFB573"></path><path d="M115.907 114.43C116.372 114.786 116.781 115.211 117.119 115.69C116.728 116.589 113.709 117.475 112.819 117.268C112.548 116.838 112.432 115.351 112.432 115.351C113.52 115.196 115.107 114.59 115.907 114.43Z" fill="#E0E0E0"></path><path d="M157.29 75.5714L177.384 68.0335C177.462 68.0077 177.533 67.9641 177.591 67.9062C177.65 67.8484 177.694 67.7777 177.721 67.6998C177.748 67.6219 177.756 67.5389 177.745 67.4573C177.734 67.3757 177.705 67.2977 177.659 67.2294L171.084 56.0494C170.987 55.894 170.841 55.7758 170.668 55.7142C170.496 55.6525 170.307 55.6509 170.134 55.7097L150.04 63.2476C149.962 63.2741 149.892 63.3181 149.834 63.3761C149.776 63.4341 149.732 63.5046 149.705 63.5822C149.679 63.6598 149.67 63.7425 149.68 63.8238C149.691 63.9052 149.72 63.9832 149.765 64.0517L156.339 75.2317C156.436 75.3871 156.583 75.5053 156.755 75.5669C156.928 75.6286 157.116 75.6302 157.29 75.5714Z" fill="#1ACDB8"></path><path d="M156.249 91.0298L176.343 83.4919C176.527 83.4029 176.686 83.2687 176.804 83.1017C176.922 82.9347 176.996 82.7406 177.018 82.5373L178.226 68.4247C178.261 68.0248 178.016 67.8055 177.676 67.9302L157.582 75.4638C157.399 75.5514 157.24 75.6841 157.122 75.8496C157.004 76.0151 156.93 76.2078 156.907 76.4098L155.699 90.5267C155.66 90.9266 155.914 91.1502 156.249 91.0298Z" fill="#1ACDB8"></path><path opacity="0.2" d="M157.621 76.8828C157.645 76.68 157.72 76.4866 157.839 76.3205C157.957 76.1544 158.116 76.0209 158.3 75.9325L177.517 68.7171C177.592 68.6895 177.673 68.6811 177.752 68.693C177.831 68.7048 177.906 68.7363 177.97 68.7847C178.034 68.8331 178.085 68.8968 178.117 68.9699C178.15 69.043 178.164 69.1232 178.158 69.203L177.018 82.533C176.997 82.7368 176.924 82.9317 176.806 83.0989C176.688 83.2661 176.528 83.4 176.343 83.4876L157.122 90.6987C157.047 90.7276 156.966 90.7369 156.886 90.7256C156.806 90.7143 156.731 90.6828 156.666 90.6341C156.602 90.5855 156.552 90.5212 156.519 90.4475C156.487 90.3738 156.474 90.293 156.481 90.2128L157.621 76.8828Z" fill="black"></path></svg>