<svg xmlns="http://www.w3.org/2000/svg" width="226" height="176" viewBox="0 0 226 176" fill="none"><path d="M192.516 37.0164H39.48C37.2708 37.0164 35.48 38.8072 35.48 41.0164V134.98C35.48 137.189 37.2708 138.98 39.48 138.98H192.516C194.726 138.98 196.516 137.189 196.516 134.98V41.0164C196.516 38.8072 194.726 37.0164 192.516 37.0164Z" fill="#EBEBEB"></path><path d="M194.624 37.0164H37.3755C36.2917 37.0164 35.4131 37.895 35.4131 38.9788C35.4131 40.0626 36.2917 40.9412 37.3755 40.9412H194.624C195.708 40.9412 196.587 40.0626 196.587 38.9788C196.587 37.895 195.708 37.0164 194.624 37.0164Z" fill="#191919"></path><path d="M38.5317 38.9804C38.5317 39.1734 38.4745 39.3621 38.3672 39.5225C38.2599 39.6829 38.1074 39.8079 37.929 39.8816C37.7507 39.9553 37.5544 39.9744 37.3652 39.9365C37.176 39.8985 37.0022 39.8053 36.866 39.6686C36.7298 39.5319 36.6372 39.3578 36.6 39.1685C36.5627 38.9791 36.5826 38.7829 36.6569 38.6048C36.7312 38.4267 36.8568 38.2747 37.0176 38.168C37.1784 38.0613 37.3672 38.0047 37.5602 38.0054C37.8182 38.0063 38.0653 38.1094 38.2474 38.2922C38.4295 38.475 38.5317 38.7224 38.5317 38.9804Z" fill="#C7C7C7"></path><path d="M41.5308 39.9521C42.0674 39.9521 42.5024 39.5171 42.5024 38.9806C42.5024 38.444 42.0674 38.009 41.5308 38.009C40.9943 38.009 40.5593 38.444 40.5593 38.9806C40.5593 39.5171 40.9943 39.9521 41.5308 39.9521Z" fill="white"></path><path d="M46.48 38.9804C46.48 39.1733 46.4228 39.3618 46.3157 39.5221C46.2085 39.6825 46.0562 39.8074 45.8781 39.8812C45.6999 39.955 45.5039 39.9743 45.3147 39.9367C45.1256 39.8991 44.9519 39.8062 44.8155 39.6699C44.6791 39.5335 44.5863 39.3598 44.5486 39.1706C44.511 38.9815 44.5303 38.7854 44.6041 38.6073C44.6779 38.4291 44.8029 38.2768 44.9632 38.1697C45.1236 38.0626 45.3121 38.0054 45.5049 38.0054C45.7635 38.0054 46.0115 38.1081 46.1944 38.291C46.3773 38.4738 46.48 38.7218 46.48 38.9804Z" fill="#1ACDB8"></path><path d="M196.583 137.384V42.5375C196.583 41.6559 195.869 40.9412 194.987 40.9412C194.105 40.9412 193.391 41.6559 193.391 42.5375V137.384C193.391 138.266 194.105 138.98 194.987 138.98C195.869 138.98 196.583 138.266 196.583 137.384Z" fill="#DBDBDB"></path><path d="M194.989 41.9126H194.985C194.53 41.9126 194.162 42.2814 194.162 42.7363V91.4284C194.162 91.8833 194.53 92.2521 194.985 92.2521H194.989C195.444 92.2521 195.813 91.8833 195.813 91.4284V42.7363C195.813 42.2814 195.444 41.9126 194.989 41.9126Z" fill="#191919"></path><path d="M54.1887 62.0366H49.8345V84.1563H54.1887V62.0366Z" fill="#1ACDB8"></path><path d="M61.6722 65.7148H57.318V84.1596H61.6722V65.7148Z" fill="#1ACDB8"></path><path d="M69.1523 72.417H64.7981V84.1562H69.1523V72.417Z" fill="#1ACDB8"></path><path d="M76.6359 65.3911H72.2816V84.1562H76.6359V65.3911Z" fill="#1ACDB8"></path><path d="M84.1158 68.4746H79.7616V84.1597H84.1158V68.4746Z" fill="#1ACDB8"></path><path d="M91.5958 58.9529H87.2416V84.1561H91.5958V58.9529Z" fill="#1ACDB8"></path><path d="M47.3107 57.4182L47.3635 64.1062L47.3881 70.7942L47.4233 84.1702L47.3107 84.0611C57.8707 84.0294 68.4588 84.0611 79.0329 84.0822L87.8329 84.1069L95.6543 84.1702L87.8329 84.2371L79.0329 84.2582C68.4729 84.2582 57.8847 84.311 47.3107 84.2829H47.2015V84.1737L47.2367 70.7977L47.2614 64.1097L47.3107 57.4182Z" fill="white"></path><path d="M46.3533 58.9531C46.9822 58.7888 47.6428 58.7888 48.2717 58.9531C47.6428 59.1174 46.9822 59.1174 46.3533 58.9531Z" fill="white"></path><path d="M46.3533 61.6C46.6654 61.5161 46.9875 61.4747 47.3107 61.4768C47.6352 61.4727 47.9587 61.5142 48.2717 61.6C47.6428 61.7644 46.9822 61.7644 46.3533 61.6Z" fill="white"></path><path d="M46.3533 64.2612C46.6651 64.1756 46.9874 64.1341 47.3107 64.138C47.6353 64.1321 47.959 64.1736 48.2717 64.2612C47.959 64.3488 47.6353 64.3903 47.3107 64.3844C46.9874 64.3883 46.6651 64.3468 46.3533 64.2612Z" fill="white"></path><path d="M46.3533 66.9152C46.9822 66.7509 47.6428 66.7509 48.2717 66.9152C47.6428 67.0795 46.9822 67.0795 46.3533 66.9152Z" fill="white"></path><path d="M46.3533 69.5694C46.9816 69.4004 47.6434 69.4004 48.2717 69.5694C47.6428 69.7337 46.9822 69.7337 46.3533 69.5694Z" fill="white"></path><path d="M46.3533 72.2199C46.9822 72.0556 47.6428 72.0556 48.2717 72.2199C47.6428 72.3842 46.9822 72.3842 46.3533 72.2199Z" fill="white"></path><path d="M46.3533 74.874C46.6654 74.79 46.9875 74.7486 47.3107 74.7508C47.6352 74.7466 47.9587 74.7881 48.2717 74.874C47.6428 75.0383 46.9822 75.0383 46.3533 74.874Z" fill="white"></path><path d="M46.3533 77.528C46.6651 77.4424 46.9874 77.4009 47.3107 77.4048C47.6353 77.3989 47.959 77.4405 48.2717 77.528C47.959 77.6156 47.6353 77.6572 47.3107 77.6513C46.9874 77.6552 46.6651 77.6137 46.3533 77.528Z" fill="white"></path><path d="M46.3533 80.1821C46.9822 80.0178 47.6428 80.0178 48.2717 80.1821C47.6428 80.3464 46.9822 80.3464 46.3533 80.1821Z" fill="white"></path><path d="M120.829 57.6401H102.8V84.2795H120.829V57.6401Z" fill="white"></path><path d="M117.236 65.7747C117.229 67.0898 116.745 68.3576 115.873 69.3419C115.001 70.3261 113.8 70.9595 112.495 71.1239C111.191 71.2882 109.871 70.9724 108.782 70.2353C107.693 69.4981 106.909 68.39 106.577 67.1176C106.245 65.8452 106.386 64.4954 106.976 63.32C107.566 62.1445 108.563 61.2237 109.781 60.7293C111 60.2348 112.357 60.2005 113.599 60.6328C114.841 61.065 115.883 61.9343 116.532 63.0784C116.997 63.9005 117.24 64.83 117.236 65.7747Z" fill="#292929"></path><path d="M116.521 63.0783L111.815 65.7747V60.3503C112.77 60.3501 113.708 60.6022 114.535 61.0813C115.361 61.5603 116.046 62.2493 116.521 63.0783Z" fill="#1ACDB8"></path><path d="M109.312 73.628L108.96 73.8321C108.951 73.8384 108.94 73.8427 108.929 73.8446C108.918 73.8466 108.907 73.8463 108.896 73.8436C108.885 73.841 108.875 73.8361 108.866 73.8293C108.857 73.8224 108.849 73.8138 108.844 73.804C108.838 73.7944 108.834 73.7837 108.832 73.7725C108.83 73.7612 108.831 73.7498 108.834 73.7388C108.837 73.7279 108.842 73.7177 108.849 73.7089C108.856 73.7001 108.865 73.6929 108.876 73.6878L109.351 73.3992C109.37 73.3887 109.393 73.3861 109.415 73.392C109.437 73.3979 109.455 73.4118 109.467 73.4308C109.474 73.4514 109.474 73.4736 109.467 73.4942V75.7576C109.467 75.78 109.458 75.8014 109.442 75.8173C109.426 75.8331 109.405 75.842 109.382 75.842C109.36 75.842 109.338 75.8331 109.323 75.8173C109.307 75.8014 109.298 75.78 109.298 75.7576L109.312 73.628Z" fill="#A6A6A6"></path><path d="M110.136 75.599C110.127 75.5911 110.121 75.5815 110.116 75.5709C110.111 75.5603 110.109 75.5489 110.109 75.5374C110.109 75.5258 110.111 75.5144 110.116 75.5038C110.121 75.4932 110.127 75.4837 110.136 75.4758C110.144 75.4672 110.154 75.4605 110.165 75.4558C110.175 75.4512 110.187 75.4488 110.199 75.4488C110.211 75.4488 110.223 75.4512 110.233 75.4558C110.244 75.4605 110.254 75.4672 110.262 75.4758C110.382 75.6012 110.547 75.6745 110.72 75.6799C110.894 75.679 111.061 75.6094 111.184 75.4861C111.308 75.3629 111.377 75.196 111.378 75.0217C111.378 74.8917 111.339 74.7648 111.267 74.6568C111.194 74.5489 111.092 74.4648 110.972 74.4151C110.852 74.3654 110.719 74.3523 110.592 74.3776C110.465 74.4029 110.347 74.4653 110.255 74.557C110.247 74.5655 110.238 74.5722 110.227 74.5768C110.217 74.5813 110.205 74.5837 110.194 74.5837C110.182 74.5837 110.171 74.5813 110.16 74.5768C110.15 74.5722 110.14 74.5655 110.132 74.557C110.122 74.5502 110.115 74.5403 110.111 74.5289C110.109 74.5196 110.109 74.51 110.111 74.5007L110.231 73.5081C110.231 73.4954 110.234 73.4829 110.24 73.4718C110.246 73.4607 110.255 73.4514 110.266 73.4447C110.281 73.4307 110.301 73.4231 110.322 73.4236H111.47C111.493 73.4236 111.515 73.4329 111.532 73.4494C111.548 73.4659 111.558 73.4883 111.558 73.5116C111.558 73.5233 111.556 73.535 111.552 73.5459C111.548 73.5568 111.541 73.5667 111.533 73.5749C111.525 73.5832 111.515 73.5897 111.504 73.5939C111.493 73.5982 111.481 73.6001 111.47 73.5996H110.396L110.308 74.3318C110.435 74.2578 110.58 74.2189 110.727 74.2191C110.836 74.2191 110.945 74.2407 111.046 74.2827C111.147 74.3247 111.239 74.3862 111.316 74.4637C111.393 74.5412 111.454 74.6332 111.496 74.7344C111.537 74.8356 111.558 74.944 111.558 75.0534C111.559 75.1631 111.538 75.272 111.496 75.3736C111.454 75.4751 111.393 75.5673 111.315 75.6447C111.157 75.7991 110.945 75.8861 110.724 75.8876C110.611 75.8816 110.501 75.853 110.4 75.8034C110.299 75.7538 110.209 75.6842 110.136 75.599Z" fill="#A6A6A6"></path><path d="M112.212 73.9869C112.2 73.9084 112.204 73.828 112.226 73.7514C112.247 73.6749 112.285 73.6038 112.336 73.5433C112.388 73.4827 112.452 73.4341 112.524 73.4007C112.596 73.3674 112.675 73.3501 112.755 73.3501C112.834 73.3501 112.913 73.3674 112.985 73.4007C113.057 73.4341 113.121 73.4827 113.173 73.5433C113.224 73.6038 113.262 73.6749 113.283 73.7514C113.305 73.828 113.309 73.9084 113.297 73.9869C113.303 74.0642 113.294 74.142 113.269 74.2157C113.245 74.2895 113.207 74.3576 113.156 74.4163C113.105 74.4749 113.043 74.5229 112.974 74.5573C112.904 74.5918 112.828 74.6121 112.751 74.6169C112.674 74.6121 112.598 74.5918 112.529 74.5573C112.46 74.5227 112.399 74.4746 112.348 74.4159C112.298 74.3571 112.26 74.2889 112.237 74.2152C112.214 74.1415 112.205 74.0638 112.212 73.9869ZM113.114 73.9869C113.114 73.7123 112.948 73.5081 112.762 73.5081C112.575 73.5081 112.41 73.7229 112.41 73.9798C112.41 74.2579 112.575 74.4585 112.762 74.4585C112.948 74.4585 113.114 74.2509 113.114 73.9869ZM112.547 75.7469L114.261 73.4131C114.268 73.4016 114.278 73.392 114.29 73.3853C114.301 73.3785 114.315 73.3748 114.328 73.3744C114.338 73.3739 114.348 73.3755 114.357 73.379C114.367 73.3825 114.375 73.3878 114.383 73.3948C114.39 73.4017 114.396 73.41 114.4 73.4192C114.403 73.4284 114.405 73.4383 114.405 73.4483C114.411 73.4631 114.411 73.4792 114.405 73.4941L112.691 75.8278C112.684 75.8393 112.674 75.8489 112.663 75.8557C112.651 75.8624 112.638 75.8662 112.624 75.8665C112.614 75.867 112.604 75.8655 112.595 75.862C112.586 75.8585 112.577 75.8531 112.57 75.8462C112.563 75.8393 112.557 75.831 112.553 75.8218C112.549 75.8125 112.547 75.8026 112.547 75.7926C112.543 75.7837 112.541 75.7742 112.541 75.7645C112.541 75.7548 112.543 75.7452 112.547 75.7363V75.7469ZM113.642 75.2576C113.635 75.1803 113.645 75.1024 113.669 75.0287C113.693 74.955 113.732 74.8868 113.782 74.8282C113.833 74.7695 113.895 74.7216 113.965 74.6871C114.034 74.6527 114.11 74.6324 114.187 74.6275C114.263 74.6328 114.338 74.6532 114.406 74.6875C114.474 74.7218 114.535 74.7693 114.585 74.8273C114.635 74.8852 114.672 74.9525 114.696 75.0251C114.72 75.0978 114.728 75.1744 114.722 75.2505C114.728 75.3276 114.719 75.4051 114.695 75.4786C114.671 75.5522 114.633 75.6202 114.583 75.6788C114.532 75.7374 114.471 75.7854 114.402 75.8201C114.333 75.8547 114.257 75.8753 114.18 75.8806C114.103 75.8758 114.027 75.8554 113.958 75.8206C113.888 75.7859 113.826 75.7375 113.776 75.6783C113.726 75.6192 113.688 75.5505 113.665 75.4764C113.642 75.4023 113.634 75.3243 113.642 75.247V75.2576ZM114.539 75.2576C114.539 74.983 114.377 74.7789 114.187 74.7789C113.997 74.7789 113.835 74.9936 113.835 75.2505C113.835 75.5286 114.001 75.7293 114.187 75.7293C114.374 75.7293 114.539 75.511 114.539 75.247V75.2576Z" fill="#A6A6A6"></path><path d="M116.278 77.4788H107.351V78.0525H116.278V77.4788Z" fill="#A6A6A6"></path><path d="M117.771 78.686H105.855V79.2598H117.771V78.686Z" fill="#EBEBEB"></path><path d="M117.774 79.7703H105.859V80.344H117.774V79.7703Z" fill="#EBEBEB"></path><path d="M117.771 80.8579H105.855V81.4317H117.771V80.8579Z" fill="#EBEBEB"></path><path d="M141.626 57.6401H123.596V84.2795H141.626V57.6401Z" fill="white"></path><path d="M138.032 65.7746C138.031 66.0398 138.011 66.3045 137.972 66.5666C137.764 67.9507 137.028 69.2003 135.918 70.0527C134.808 70.9051 133.411 71.2938 132.02 71.1371C130.629 70.9805 129.353 70.2906 128.461 69.2127C127.568 68.1347 127.128 66.7526 127.234 65.357C127.339 63.9615 127.982 62.6612 129.026 61.7296C130.07 60.7979 131.435 60.3076 132.834 60.3617C134.232 60.4158 135.555 61.0101 136.525 62.0196C137.494 63.029 138.034 64.3751 138.032 65.7746Z" fill="#292929"></path><path d="M138.032 65.7747C138.031 66.0398 138.011 66.3045 137.972 66.5667L132.611 65.7747V60.3503C133.323 60.3499 134.029 60.4899 134.687 60.7624C135.345 61.0348 135.943 61.4344 136.446 61.9383C136.95 62.4421 137.349 63.0403 137.621 63.6986C137.893 64.3569 138.033 65.0624 138.032 65.7747Z" fill="#1ACDB8"></path><path d="M129.246 75.6801L130.397 74.6417C130.463 74.582 130.516 74.5093 130.552 74.4281C130.588 74.3469 130.607 74.259 130.608 74.17C130.607 74.0026 130.54 73.8423 130.421 73.7242C130.302 73.6062 130.142 73.5399 129.974 73.5399C129.816 73.539 129.663 73.5967 129.545 73.7018L129.425 73.811C129.409 73.8264 129.387 73.8346 129.365 73.834C129.342 73.8333 129.321 73.8238 129.306 73.8074C129.29 73.7911 129.282 73.7693 129.282 73.7469C129.283 73.7244 129.293 73.7032 129.309 73.6878L129.429 73.5751C129.579 73.4419 129.773 73.368 129.974 73.3674C130.187 73.3693 130.39 73.4544 130.54 73.6045C130.69 73.7546 130.775 73.9577 130.777 74.17C130.777 74.2826 130.753 74.394 130.708 74.497C130.663 74.6001 130.596 74.6925 130.513 74.7684L129.527 75.659H130.692C130.712 75.663 130.73 75.6738 130.743 75.6895C130.756 75.7052 130.763 75.7249 130.763 75.7452C130.763 75.7655 130.756 75.7852 130.743 75.8009C130.73 75.8166 130.712 75.8274 130.692 75.8314H129.306C129.294 75.8322 129.282 75.8303 129.271 75.8261C129.26 75.8218 129.25 75.8152 129.242 75.8068C129.226 75.7893 129.218 75.7663 129.218 75.7427C129.219 75.7191 129.229 75.6967 129.246 75.6801Z" fill="#A6A6A6"></path><path d="M131.379 75.5991C131.37 75.5912 131.364 75.5817 131.359 75.5711C131.355 75.5605 131.352 75.5491 131.352 75.5375C131.352 75.526 131.355 75.5146 131.359 75.504C131.364 75.4934 131.37 75.4838 131.379 75.4759C131.387 75.4674 131.397 75.4606 131.408 75.456C131.419 75.4514 131.43 75.449 131.442 75.449C131.454 75.449 131.466 75.4514 131.477 75.456C131.488 75.4606 131.497 75.4674 131.506 75.4759C131.629 75.5979 131.796 75.6661 131.97 75.666C132.144 75.6651 132.311 75.5954 132.435 75.4722C132.558 75.3489 132.628 75.1821 132.628 75.0078C132.628 74.8778 132.589 74.7509 132.517 74.6429C132.445 74.535 132.342 74.4508 132.222 74.4011C132.102 74.3515 131.97 74.3384 131.842 74.3637C131.715 74.389 131.598 74.4514 131.506 74.5431C131.498 74.5515 131.488 74.5583 131.478 74.5628C131.467 74.5674 131.456 74.5698 131.444 74.5698C131.432 74.5698 131.421 74.5674 131.41 74.5628C131.4 74.5583 131.39 74.5515 131.382 74.5431C131.373 74.5362 131.365 74.5264 131.361 74.515C131.359 74.5057 131.359 74.4961 131.361 74.4868L131.481 73.4942C131.481 73.4815 131.484 73.469 131.49 73.4579C131.496 73.4468 131.505 73.4375 131.516 73.4308C131.531 73.4168 131.552 73.4092 131.572 73.4097H132.72C132.743 73.4097 132.766 73.419 132.782 73.4355C132.799 73.452 132.808 73.4743 132.808 73.4977C132.808 73.5094 132.807 73.521 132.802 73.5319C132.798 73.5428 132.792 73.5527 132.783 73.561C132.775 73.5693 132.765 73.5758 132.754 73.58C132.743 73.5843 132.732 73.5862 132.72 73.5857H131.646L131.558 74.3178C131.686 74.2439 131.83 74.205 131.977 74.2052C132.087 74.2052 132.195 74.2268 132.296 74.2688C132.397 74.3107 132.489 74.3722 132.566 74.4498C132.643 74.5273 132.704 74.6193 132.746 74.7205C132.787 74.8217 132.808 74.9301 132.808 75.0394C132.809 75.1492 132.788 75.2581 132.746 75.3597C132.705 75.4612 132.643 75.5534 132.565 75.6308C132.407 75.7852 132.195 75.8722 131.974 75.8737C131.861 75.8704 131.75 75.8444 131.648 75.7973C131.546 75.7501 131.454 75.6827 131.379 75.5991Z" fill="#A6A6A6"></path><path d="M133.456 73.9869C133.443 73.9084 133.447 73.828 133.469 73.7514C133.49 73.6749 133.528 73.6038 133.58 73.5433C133.631 73.4827 133.695 73.4341 133.767 73.4007C133.84 73.3674 133.918 73.3501 133.998 73.3501C134.077 73.3501 134.156 73.3674 134.228 73.4007C134.3 73.4341 134.364 73.4827 134.416 73.5433C134.467 73.6038 134.505 73.6749 134.527 73.7514C134.548 73.828 134.553 73.9084 134.54 73.9869C134.546 74.0642 134.537 74.142 134.513 74.2157C134.488 74.2895 134.45 74.3576 134.399 74.4163C134.348 74.4749 134.286 74.5229 134.217 74.5573C134.147 74.5918 134.072 74.6121 133.994 74.6169C133.917 74.6121 133.842 74.5918 133.772 74.5573C133.703 74.5227 133.642 74.4746 133.592 74.4159C133.541 74.3571 133.503 74.2889 133.48 74.2152C133.457 74.1415 133.448 74.0638 133.456 73.9869ZM134.357 73.9869C134.357 73.7123 134.191 73.5081 134.005 73.5081C133.818 73.5081 133.653 73.7229 133.653 73.9798C133.653 74.2579 133.818 74.4585 134.005 74.4585C134.191 74.4585 134.357 74.2509 134.357 73.9869ZM133.79 75.7469L135.504 73.4131C135.511 73.4016 135.521 73.392 135.533 73.3853C135.544 73.3785 135.558 73.3748 135.571 73.3744C135.581 73.3739 135.591 73.3755 135.601 73.379C135.61 73.3825 135.618 73.3878 135.626 73.3948C135.633 73.4017 135.639 73.41 135.643 73.4192C135.647 73.4284 135.649 73.4383 135.649 73.4483C135.654 73.4631 135.654 73.4792 135.649 73.4941L133.934 75.8278C133.927 75.8393 133.918 75.8489 133.906 75.8557C133.894 75.8624 133.881 75.8662 133.867 75.8665C133.857 75.867 133.848 75.8655 133.838 75.862C133.829 75.8585 133.82 75.8531 133.813 75.8462C133.806 75.8393 133.8 75.831 133.796 75.8218C133.792 75.8125 133.79 75.8026 133.79 75.7926C133.786 75.7837 133.784 75.7742 133.784 75.7645C133.784 75.7548 133.786 75.7452 133.79 75.7363V75.7469ZM134.885 75.2576C134.872 75.1791 134.877 75.0988 134.898 75.0222C134.919 74.9456 134.957 74.8745 135.009 74.814C135.06 74.7534 135.124 74.7048 135.197 74.6714C135.269 74.6381 135.347 74.6208 135.427 74.6208C135.506 74.6208 135.585 74.6381 135.657 74.6714C135.729 74.7048 135.793 74.7534 135.845 74.814C135.897 74.8745 135.934 74.9456 135.956 75.0222C135.977 75.0988 135.982 75.1791 135.969 75.2576C135.975 75.3349 135.966 75.4127 135.942 75.4865C135.918 75.5602 135.879 75.6284 135.828 75.687C135.777 75.7457 135.715 75.7936 135.646 75.8281C135.576 75.8625 135.501 75.8828 135.423 75.8877C135.345 75.8829 135.269 75.8623 135.199 75.8271C135.129 75.7919 135.067 75.7429 135.017 75.6829C134.966 75.623 134.929 75.5535 134.906 75.4785C134.883 75.4036 134.876 75.3248 134.885 75.247V75.2576ZM135.786 75.2576C135.786 74.983 135.62 74.7789 135.434 74.7789C135.247 74.7789 135.082 74.9936 135.082 75.2505C135.082 75.5286 135.247 75.7293 135.434 75.7293C135.62 75.7293 135.786 75.511 135.786 75.247V75.2576Z" fill="#A6A6A6"></path><path d="M137.074 77.4788H128.147V78.0525H137.074V77.4788Z" fill="#A6A6A6"></path><path d="M138.567 78.686H126.651V79.2598H138.567V78.686Z" fill="#EBEBEB"></path><path d="M138.567 79.7703H126.651V80.344H138.567V79.7703Z" fill="#EBEBEB"></path><path d="M138.567 80.8579H126.651V81.4317H138.567V80.8579Z" fill="#EBEBEB"></path><path d="M162.422 57.6401H144.392V84.2795H162.422V57.6401Z" fill="white"></path><path d="M158.828 65.7748C158.822 67.0917 158.337 68.3615 157.464 69.3474C156.591 70.3333 155.389 70.9678 154.083 71.1326C152.776 71.2975 151.454 70.9814 150.363 70.2433C149.273 69.5052 148.488 68.3955 148.155 67.1213C147.823 65.8471 147.965 64.4954 148.555 63.3183C149.146 62.1413 150.145 61.2192 151.365 60.7243C152.585 60.2294 153.944 60.1953 155.188 60.6285C156.431 61.0617 157.475 61.9325 158.124 63.0785C158.589 63.9006 158.832 64.83 158.828 65.7748Z" fill="#292929"></path><path d="M158.828 65.7747C158.828 66.871 158.495 67.9415 157.874 68.8451C157.253 69.7487 156.373 70.443 155.35 70.8364L153.403 65.7747V60.3503C154.116 60.3503 154.821 60.4906 155.479 60.7632C156.137 61.0358 156.735 61.4354 157.239 61.9391C157.743 62.4428 158.142 63.0408 158.415 63.6989C158.687 64.357 158.828 65.0623 158.828 65.7747Z" fill="#1ACDB8"></path><path d="M151.327 75.328H149.982C149.963 75.3292 149.944 75.3229 149.929 75.3104C149.921 75.3028 149.914 75.2936 149.91 75.2833C149.905 75.273 149.903 75.2618 149.903 75.2506C149.903 75.2393 149.905 75.2282 149.91 75.2179C149.914 75.2076 149.921 75.1983 149.929 75.1907L151.355 73.4307C151.362 73.4224 151.372 73.4157 151.382 73.4112C151.392 73.4066 151.403 73.4043 151.415 73.4043C151.426 73.4043 151.437 73.4066 151.447 73.4112C151.458 73.4157 151.467 73.4224 151.475 73.4307C151.487 73.4425 151.497 73.4569 151.503 73.473V75.1731H151.668C151.691 75.1731 151.712 75.182 151.728 75.1979C151.744 75.2137 151.753 75.2352 151.753 75.2576C151.753 75.28 151.744 75.3015 151.728 75.3173C151.712 75.3332 151.691 75.3421 151.668 75.3421H151.503V75.7645C151.499 75.7844 151.488 75.8023 151.472 75.8151C151.456 75.828 151.437 75.835 151.416 75.835C151.396 75.835 151.376 75.828 151.361 75.8151C151.345 75.8023 151.334 75.7844 151.33 75.7645L151.327 75.328ZM151.327 75.159V73.7158L150.162 75.159H151.327Z" fill="#A6A6A6"></path><path d="M152.305 75.5991C152.297 75.5912 152.29 75.5817 152.286 75.5711C152.281 75.5605 152.279 75.5491 152.279 75.5375C152.279 75.526 152.281 75.5146 152.286 75.504C152.29 75.4934 152.297 75.4838 152.305 75.4759C152.313 75.4674 152.323 75.4606 152.334 75.456C152.345 75.4514 152.357 75.449 152.369 75.449C152.38 75.449 152.392 75.4514 152.403 75.456C152.414 75.4606 152.424 75.4674 152.432 75.4759C152.556 75.5979 152.723 75.6661 152.897 75.666C153.071 75.6651 153.238 75.5954 153.361 75.4722C153.484 75.3489 153.554 75.1821 153.555 75.0078C153.555 74.8778 153.516 74.7509 153.443 74.6429C153.371 74.535 153.268 74.4508 153.148 74.4011C153.028 74.3515 152.896 74.3384 152.769 74.3637C152.641 74.389 152.524 74.4514 152.432 74.5431C152.424 74.5515 152.415 74.5583 152.404 74.5628C152.393 74.5674 152.382 74.5698 152.37 74.5698C152.359 74.5698 152.347 74.5674 152.337 74.5628C152.326 74.5583 152.317 74.5515 152.309 74.5431C152.299 74.5362 152.291 74.5264 152.288 74.515C152.286 74.5057 152.286 74.4961 152.288 74.4868L152.407 73.4942C152.407 73.4815 152.41 73.469 152.417 73.4579C152.423 73.4468 152.432 73.4375 152.443 73.4308C152.458 73.4168 152.478 73.4092 152.499 73.4097H153.646C153.67 73.4097 153.692 73.419 153.709 73.4355C153.725 73.452 153.734 73.4743 153.734 73.4977C153.735 73.5094 153.733 73.521 153.729 73.5319C153.724 73.5428 153.718 73.5527 153.71 73.561C153.701 73.5693 153.692 73.5758 153.681 73.58C153.67 73.5843 153.658 73.5862 153.646 73.5857H152.573L152.485 74.3178C152.612 74.2439 152.756 74.205 152.904 74.2052C153.013 74.2052 153.121 74.2268 153.222 74.2688C153.323 74.3107 153.415 74.3722 153.492 74.4498C153.569 74.5273 153.631 74.6193 153.672 74.7205C153.714 74.8217 153.735 74.9301 153.734 75.0394C153.735 75.1492 153.714 75.2581 153.673 75.3597C153.631 75.4612 153.569 75.5534 153.491 75.6308C153.333 75.7852 153.121 75.8722 152.9 75.8737C152.788 75.8704 152.677 75.8444 152.575 75.7973C152.472 75.7501 152.381 75.6827 152.305 75.5991Z" fill="#A6A6A6"></path><path d="M154.368 73.9869C154.355 73.9084 154.36 73.828 154.381 73.7514C154.403 73.6749 154.44 73.6038 154.492 73.5433C154.544 73.4827 154.608 73.4341 154.68 73.4007C154.752 73.3674 154.831 73.3501 154.91 73.3501C154.99 73.3501 155.068 73.3674 155.14 73.4007C155.213 73.4341 155.277 73.4827 155.328 73.5433C155.38 73.6038 155.418 73.6749 155.439 73.7514C155.46 73.828 155.465 73.9084 155.452 73.9869C155.458 74.0642 155.449 74.142 155.425 74.2157C155.401 74.2895 155.362 74.3576 155.311 74.4163C155.261 74.4749 155.199 74.5229 155.129 74.5573C155.06 74.5918 154.984 74.6121 154.907 74.6169C154.829 74.6121 154.754 74.5918 154.685 74.5573C154.616 74.5227 154.554 74.4746 154.504 74.4159C154.454 74.3571 154.416 74.2889 154.392 74.2152C154.369 74.1415 154.361 74.0638 154.368 73.9869ZM155.269 73.9869C155.269 73.7123 155.104 73.5081 154.917 73.5081C154.731 73.5081 154.565 73.7229 154.565 73.9798C154.565 74.2579 154.731 74.4585 154.917 74.4585C155.104 74.4585 155.283 74.2509 155.283 73.9869H155.269ZM154.702 75.7469L156.417 73.4131C156.424 73.4016 156.433 73.392 156.445 73.3853C156.457 73.3785 156.47 73.3748 156.484 73.3744C156.494 73.3739 156.504 73.3755 156.513 73.379C156.522 73.3825 156.531 73.3878 156.538 73.3948C156.545 73.4017 156.551 73.41 156.555 73.4192C156.559 73.4284 156.561 73.4383 156.561 73.4483C156.566 73.4631 156.566 73.4792 156.561 73.4941L154.847 75.8278C154.84 75.8393 154.83 75.8489 154.818 75.8557C154.807 75.8624 154.793 75.8662 154.78 75.8665C154.77 75.867 154.76 75.8655 154.75 75.862C154.741 75.8585 154.733 75.8531 154.725 75.8462C154.718 75.8393 154.712 75.831 154.708 75.8218C154.704 75.8125 154.702 75.8026 154.702 75.7926C154.701 75.7825 154.702 75.7723 154.705 75.7625C154.708 75.7528 154.713 75.7439 154.72 75.7363L154.702 75.7469ZM155.797 75.2576C155.784 75.1791 155.789 75.0988 155.81 75.0222C155.832 74.9456 155.87 74.8745 155.921 74.814C155.973 74.7534 156.037 74.7048 156.109 74.6714C156.181 74.6381 156.26 74.6208 156.339 74.6208C156.419 74.6208 156.497 74.6381 156.569 74.6714C156.642 74.7048 156.706 74.7534 156.757 74.814C156.809 74.8745 156.847 74.9456 156.868 75.0222C156.889 75.0988 156.894 75.1791 156.881 75.2576C156.888 75.3349 156.878 75.4127 156.854 75.4865C156.83 75.5602 156.791 75.6284 156.741 75.687C156.69 75.7457 156.628 75.7936 156.558 75.8281C156.489 75.8625 156.413 75.8828 156.336 75.8877C156.259 75.8811 156.184 75.8592 156.116 75.8232C156.047 75.7872 155.987 75.7379 155.938 75.6782C155.889 75.6184 155.853 75.5495 155.831 75.4755C155.809 75.4014 155.802 75.3237 155.811 75.247L155.797 75.2576ZM156.698 75.2576C156.698 74.983 156.533 74.7789 156.346 74.7789C156.16 74.7789 155.994 74.9936 155.994 75.2505C155.994 75.5286 156.16 75.7293 156.346 75.7293C156.533 75.7293 156.712 75.511 156.712 75.247L156.698 75.2576Z" fill="#A6A6A6"></path><path d="M157.87 77.4788H148.944V78.0525H157.87V77.4788Z" fill="#A6A6A6"></path><path d="M159.363 78.686H147.448V79.2598H159.363V78.686Z" fill="#EBEBEB"></path><path d="M159.363 79.7703H147.448V80.344H159.363V79.7703Z" fill="#EBEBEB"></path><path d="M159.363 80.8579H147.448V81.4317H159.363V80.8579Z" fill="#EBEBEB"></path><path d="M183.214 57.6401H165.185V84.2795H183.214V57.6401Z" fill="white"></path><path d="M179.642 65.7748C179.634 67.096 179.147 68.3693 178.27 69.3574C177.393 70.3456 176.186 70.9809 174.875 71.1449C173.565 71.309 172.239 70.9906 171.145 70.249C170.052 69.5075 169.266 68.3935 168.933 67.1149C168.6 65.8363 168.744 64.4804 169.338 63.3001C169.932 62.1198 170.934 61.1958 172.159 60.7003C173.384 60.2049 174.747 60.172 175.994 60.6076C177.241 61.0432 178.288 61.9177 178.938 63.0679C179.406 63.8929 179.648 64.8264 179.642 65.7748Z" fill="#292929"></path><path d="M179.642 65.7747C179.641 66.8138 179.342 67.8308 178.781 68.7057C178.221 69.5806 177.421 70.2766 176.478 70.7116C175.534 71.1466 174.486 71.3023 173.456 71.1604C172.427 71.0185 171.46 70.5848 170.669 69.9107L174.189 65.7747V60.3328C175.632 60.3328 177.017 60.9061 178.037 61.9267C179.058 62.9472 179.631 64.3314 179.631 65.7747H179.642Z" fill="#1ACDB8"></path><path d="M170.866 75.5991C170.858 75.5912 170.851 75.5817 170.847 75.5711C170.842 75.5605 170.84 75.5491 170.84 75.5375C170.84 75.526 170.842 75.5146 170.847 75.504C170.851 75.4934 170.858 75.4838 170.866 75.4759C170.874 75.4674 170.884 75.4606 170.895 75.456C170.906 75.4514 170.918 75.449 170.93 75.449C170.941 75.449 170.953 75.4514 170.964 75.456C170.975 75.4606 170.985 75.4674 170.993 75.4759C171.117 75.5979 171.284 75.6661 171.458 75.666C171.632 75.6651 171.799 75.5954 171.922 75.4722C172.045 75.3489 172.115 75.1821 172.116 75.0078C172.116 74.8778 172.077 74.7509 172.004 74.6429C171.932 74.535 171.829 74.4508 171.709 74.4011C171.589 74.3515 171.457 74.3384 171.33 74.3637C171.202 74.389 171.085 74.4514 170.993 74.5431C170.985 74.5515 170.976 74.5583 170.965 74.5628C170.954 74.5674 170.943 74.5698 170.931 74.5698C170.92 74.5698 170.908 74.5674 170.898 74.5628C170.887 74.5583 170.878 74.5515 170.87 74.5431C170.86 74.5362 170.853 74.5264 170.849 74.515C170.847 74.5057 170.847 74.4961 170.849 74.4868L170.968 73.4942C170.968 73.4815 170.971 73.469 170.978 73.4579C170.984 73.4468 170.993 73.4375 171.004 73.4308C171.019 73.4168 171.039 73.4092 171.06 73.4097H172.207C172.231 73.4097 172.253 73.419 172.27 73.4355C172.286 73.452 172.295 73.4743 172.295 73.4977C172.296 73.5094 172.294 73.521 172.29 73.5319C172.285 73.5428 172.279 73.5527 172.271 73.561C172.262 73.5693 172.253 73.5758 172.242 73.58C172.231 73.5843 172.219 73.5862 172.207 73.5857H171.151L171.063 74.3178C171.191 74.2439 171.335 74.205 171.482 74.2052C171.592 74.2052 171.7 74.2268 171.801 74.2688C171.902 74.3107 171.994 74.3722 172.071 74.4498C172.148 74.5273 172.209 74.6193 172.251 74.7205C172.292 74.8217 172.313 74.9301 172.313 75.0394C172.314 75.1492 172.293 75.2581 172.251 75.3597C172.21 75.4612 172.148 75.5534 172.07 75.6308C171.912 75.7852 171.7 75.8722 171.479 75.8737C171.363 75.8728 171.249 75.848 171.144 75.8007C171.038 75.7535 170.944 75.6848 170.866 75.5991Z" fill="#A6A6A6"></path><path d="M172.996 75.5991C172.987 75.5912 172.981 75.5817 172.976 75.5711C172.971 75.5605 172.969 75.5491 172.969 75.5375C172.969 75.526 172.971 75.5146 172.976 75.504C172.981 75.4934 172.987 75.4838 172.996 75.4759C173.004 75.4674 173.014 75.4606 173.025 75.456C173.036 75.4514 173.047 75.449 173.059 75.449C173.071 75.449 173.083 75.4514 173.094 75.456C173.104 75.4606 173.114 75.4674 173.123 75.4759C173.246 75.5979 173.413 75.6661 173.587 75.666C173.761 75.6651 173.928 75.5954 174.052 75.4722C174.175 75.3489 174.244 75.1821 174.245 75.0078C174.245 74.8778 174.206 74.7509 174.134 74.6429C174.062 74.535 173.959 74.4508 173.839 74.4011C173.719 74.3515 173.587 74.3384 173.459 74.3637C173.332 74.389 173.215 74.4514 173.123 74.5431C173.115 74.5515 173.105 74.5583 173.094 74.5628C173.084 74.5674 173.072 74.5698 173.061 74.5698C173.049 74.5698 173.038 74.5674 173.027 74.5628C173.017 74.5583 173.007 74.5515 172.999 74.5431C172.989 74.5362 172.982 74.5264 172.978 74.515C172.976 74.5057 172.976 74.4961 172.978 74.4868L173.098 73.4942C173.098 73.4815 173.101 73.469 173.107 73.4579C173.113 73.4468 173.122 73.4375 173.133 73.4308C173.148 73.4168 173.169 73.4092 173.189 73.4097H174.337C174.36 73.4097 174.383 73.419 174.399 73.4355C174.416 73.452 174.425 73.4743 174.425 73.4977C174.425 73.5094 174.423 73.521 174.419 73.5319C174.415 73.5428 174.409 73.5527 174.4 73.561C174.392 73.5693 174.382 73.5758 174.371 73.58C174.36 73.5843 174.349 73.5862 174.337 73.5857H173.263L173.175 74.3178C173.302 74.2439 173.447 74.205 173.594 74.2052C173.704 74.2052 173.812 74.2268 173.913 74.2688C174.014 74.3107 174.106 74.3722 174.183 74.4498C174.26 74.5273 174.321 74.6193 174.363 74.7205C174.404 74.8217 174.425 74.9301 174.425 75.0394C174.426 75.1492 174.405 75.2581 174.363 75.3597C174.321 75.4612 174.26 75.5534 174.182 75.6308C174.024 75.7852 173.812 75.8722 173.591 75.8737C173.478 75.8704 173.367 75.8444 173.265 75.7973C173.163 75.7501 173.071 75.6827 172.996 75.5991Z" fill="#A6A6A6"></path><path d="M175.073 73.9869C175.06 73.9084 175.064 73.828 175.086 73.7514C175.107 73.6749 175.145 73.6038 175.197 73.5433C175.248 73.4827 175.312 73.4341 175.384 73.4007C175.457 73.3674 175.535 73.3501 175.615 73.3501C175.694 73.3501 175.773 73.3674 175.845 73.4007C175.917 73.4341 175.981 73.4827 176.033 73.5433C176.084 73.6038 176.122 73.6749 176.144 73.7514C176.165 73.828 176.169 73.9084 176.157 73.9869C176.163 74.0642 176.154 74.142 176.13 74.2157C176.105 74.2895 176.067 74.3576 176.016 74.4163C175.965 74.4749 175.903 74.5229 175.834 74.5573C175.764 74.5918 175.689 74.6121 175.611 74.6169C175.534 74.6121 175.459 74.5918 175.389 74.5573C175.32 74.5227 175.259 74.4746 175.209 74.4159C175.158 74.3571 175.12 74.2889 175.097 74.2152C175.074 74.1415 175.065 74.0638 175.073 73.9869ZM175.974 73.9869C175.974 73.7123 175.808 73.5081 175.622 73.5081C175.435 73.5081 175.27 73.7229 175.27 73.9798C175.27 74.2579 175.435 74.4585 175.622 74.4585C175.808 74.4585 175.974 74.2509 175.974 73.9869ZM175.407 75.7469L177.121 73.4131C177.128 73.4016 177.138 73.392 177.15 73.3853C177.161 73.3785 177.175 73.3748 177.188 73.3744C177.198 73.3739 177.208 73.3755 177.217 73.379C177.227 73.3825 177.235 73.3878 177.243 73.3948C177.25 73.4017 177.256 73.41 177.26 73.4192C177.264 73.4284 177.266 73.4383 177.266 73.4483C177.271 73.4631 177.271 73.4792 177.266 73.4941L175.551 75.8278C175.544 75.8393 175.534 75.8489 175.523 75.8557C175.511 75.8624 175.498 75.8662 175.484 75.8665C175.474 75.867 175.464 75.8655 175.455 75.862C175.446 75.8585 175.437 75.8531 175.43 75.8462C175.423 75.8393 175.417 75.831 175.413 75.8218C175.409 75.8125 175.407 75.8026 175.407 75.7926C175.403 75.7837 175.401 75.7742 175.401 75.7645C175.401 75.7548 175.403 75.7452 175.407 75.7363V75.7469ZM176.502 75.2576C176.489 75.1791 176.494 75.0988 176.515 75.0222C176.536 74.9456 176.574 74.8745 176.626 74.814C176.677 74.7534 176.741 74.7048 176.813 74.6714C176.886 74.6381 176.964 74.6208 177.044 74.6208C177.123 74.6208 177.202 74.6381 177.274 74.6714C177.346 74.7048 177.41 74.7534 177.462 74.814C177.513 74.8745 177.551 74.9456 177.573 75.0222C177.594 75.0988 177.599 75.1791 177.586 75.2576C177.592 75.3349 177.583 75.4127 177.559 75.4865C177.535 75.5602 177.496 75.6284 177.445 75.687C177.394 75.7457 177.332 75.7936 177.263 75.8281C177.193 75.8625 177.118 75.8828 177.04 75.8877C176.962 75.8829 176.886 75.8623 176.816 75.8271C176.746 75.7919 176.684 75.7429 176.633 75.6829C176.583 75.623 176.545 75.5535 176.523 75.4785C176.5 75.4036 176.493 75.3248 176.502 75.247V75.2576ZM177.403 75.2576C177.403 74.983 177.237 74.7789 177.051 74.7789C176.864 74.7789 176.699 74.9936 176.699 75.2505C176.699 75.5286 176.864 75.7293 177.051 75.7293C177.237 75.7293 177.403 75.511 177.403 75.247V75.2576Z" fill="#A6A6A6"></path><path d="M178.666 77.4788H169.74V78.0525H178.666V77.4788Z" fill="#A6A6A6"></path><path d="M180.159 78.686H168.244V79.2598H180.159V78.686Z" fill="#EBEBEB"></path><path d="M180.159 79.7703H168.244V80.344H180.159V79.7703Z" fill="#EBEBEB"></path><path d="M180.159 80.8579H168.244V81.4317H180.159V80.8579Z" fill="#EBEBEB"></path><path d="M97.439 44.8271L97.5058 55.6195L97.527 66.4153L97.5727 88L97.527 109.585L97.5058 120.38L97.439 131.173L97.3756 120.38L97.351 109.585L97.3087 88L97.3545 66.4153L97.3756 55.6195L97.439 44.8271Z" fill="#A6A6A6"></path><path d="M187.343 88.0001L169.508 88.0635L151.672 88.0881L116 88.1303L80.3283 88.0881L62.4925 88.0635L44.6566 88.0001L62.4925 87.9368L80.3283 87.9121L116 87.8699L151.672 87.9121L169.508 87.9368L187.343 88.0001Z" fill="#A6A6A6"></path><path d="M103.177 99.3731C116.683 99.3062 129.506 99.3238 143.012 99.2957C156.515 99.3238 169.712 99.2957 183.214 99.3731C169.712 99.44 156.515 99.4224 143.012 99.4505C129.506 99.4224 116.683 99.44 103.177 99.3731Z" fill="white"></path><path d="M103.177 105.741C116.683 105.674 129.506 105.691 143.012 105.663C156.515 105.691 169.712 105.663 183.214 105.741C169.712 105.808 156.515 105.79 143.012 105.818C129.506 105.79 116.683 105.808 103.177 105.741Z" fill="white"></path><path d="M103.177 112.108C116.683 112.042 129.506 112.059 143.012 112.031C156.515 112.059 169.712 112.031 183.214 112.108C169.712 112.175 156.515 112.158 143.012 112.186C129.506 112.158 116.683 112.175 103.177 112.108Z" fill="white"></path><path d="M103.177 118.476C116.683 118.409 129.506 118.427 143.012 118.399C156.515 118.427 169.712 118.399 183.214 118.476C169.712 118.543 156.515 118.525 143.012 118.554C129.506 118.525 116.683 118.543 103.177 118.476Z" fill="white"></path><path d="M103.177 124.844C116.683 124.777 129.506 124.795 143.012 124.766C156.515 124.795 169.712 124.766 183.214 124.844C169.712 124.911 156.515 124.893 143.012 124.921C129.506 124.893 116.683 124.911 103.177 124.844Z" fill="white"></path><path d="M110.853 95.2336C110.92 101.182 110.902 107.131 110.931 113.084C110.902 119.032 110.931 124.981 110.853 130.933C110.787 124.981 110.804 119.032 110.776 113.084C110.804 107.131 110.787 101.182 110.853 95.2336Z" fill="white"></path><path d="M117.76 95.2336C117.826 101.182 117.809 107.131 117.837 113.084C117.865 119.036 117.837 124.981 117.76 130.933C117.693 124.981 117.711 119.032 117.682 113.084C117.721 107.131 117.704 101.182 117.76 95.2336Z" fill="white"></path><path d="M124.691 95.2336C124.757 101.182 124.74 107.131 124.768 113.084C124.74 119.032 124.768 124.981 124.691 130.933C124.624 124.981 124.638 119.032 124.613 113.084C124.589 107.135 124.624 101.182 124.691 95.2336Z" fill="white"></path><path d="M131.607 95.2336C131.674 101.182 131.656 107.131 131.684 113.084C131.656 119.032 131.684 124.981 131.607 130.933C131.541 124.981 131.558 119.032 131.53 113.084C131.558 107.131 131.541 101.182 131.607 95.2336Z" fill="white"></path><path d="M138.528 95.2336C138.594 101.182 138.577 107.131 138.605 113.084C138.577 119.032 138.605 124.981 138.528 130.933C138.461 124.981 138.475 119.032 138.45 113.084C138.426 107.135 138.461 101.182 138.528 95.2336Z" fill="white"></path><path d="M145.444 95.2336C145.511 101.182 145.494 107.131 145.522 113.084C145.494 119.032 145.522 124.981 145.444 130.933C145.378 124.981 145.395 119.032 145.367 113.084C145.395 107.131 145.378 101.182 145.444 95.2336Z" fill="white"></path><path d="M152.365 95.2336C152.431 101.182 152.414 107.131 152.442 113.084C152.414 119.032 152.442 124.981 152.365 130.933C152.298 124.981 152.312 119.032 152.288 113.084C152.263 107.135 152.298 101.182 152.365 95.2336Z" fill="white"></path><path d="M159.296 95.2336C159.362 101.182 159.345 107.131 159.373 113.084C159.345 119.032 159.373 124.981 159.296 130.933C159.229 124.981 159.247 119.032 159.219 113.084C159.233 107.131 159.215 101.182 159.296 95.2336Z" fill="white"></path><path d="M166.198 95.2336C166.265 101.182 166.251 107.131 166.279 113.084C166.251 119.032 166.279 124.981 166.198 130.933C166.132 124.981 166.149 119.032 166.121 113.084C166.149 107.131 166.135 101.182 166.198 95.2336Z" fill="white"></path><path d="M173.119 95.2336C173.185 101.182 173.168 107.131 173.196 113.084C173.168 119.032 173.196 124.981 173.119 130.933C173.052 124.981 173.07 119.032 173.042 113.084C173.07 107.131 173.052 101.182 173.119 95.2336Z" fill="white"></path><path d="M180.036 95.2336C180.102 101.182 180.088 107.131 180.113 113.084C180.137 119.036 180.113 124.981 180.036 130.933C179.969 124.981 179.986 119.032 179.958 113.084C179.986 107.131 179.969 101.182 180.036 95.2336Z" fill="white"></path><path d="M103.06 95.6208C103.148 101.506 103.226 107.392 103.233 113.277L103.328 130.944L103.071 130.796L142.562 130.835L162.309 130.863L183.535 130.944L162.309 131.021L142.562 131.053L103.071 131.088H102.811V130.944L102.895 113.288C102.892 107.392 102.976 101.506 103.06 95.6208Z" fill="white"></path><path d="M103.177 130.944C103.177 130.944 106.894 115.456 110.667 115.456C113.835 115.456 115.176 120.032 117.749 120.032C121.146 120.032 121.621 108.212 124.892 108.212C128.162 108.212 128.869 112.834 131.682 112.834C134.494 112.834 135.733 107.36 138.644 107.36C141.555 107.36 142.27 115.379 145.374 115.379C148.479 115.379 148.542 102.735 152.34 102.735C156.139 102.735 157.138 108.18 159.363 108.18C161.588 108.18 162.883 104.199 166.153 104.199C172.355 104.192 180.036 130.944 180.036 130.944H103.177Z" fill="#1ACDB8"></path><path opacity="0.2" d="M103.177 130.944C103.177 130.944 106.894 115.456 110.667 115.456C113.835 115.456 115.176 120.032 117.749 120.032C121.146 120.032 121.621 108.212 124.892 108.212C128.162 108.212 128.869 112.834 131.682 112.834C134.494 112.834 135.733 107.36 138.644 107.36C141.555 107.36 142.27 115.379 145.374 115.379C148.479 115.379 148.542 102.735 152.34 102.735C156.139 102.735 157.138 108.18 159.363 108.18C161.588 108.18 162.883 104.199 166.153 104.199C172.355 104.192 180.036 130.944 180.036 130.944H103.177Z" fill="black"></path><path d="M103.177 130.944C103.177 130.944 107.179 113.767 110.727 113.767C114.275 113.767 114.652 118.487 117.64 118.487C120.629 118.487 120.675 110.197 124.68 110.197C127.447 110.197 128.422 113.562 131.477 113.562C135.68 113.562 135.05 105.751 138.482 105.751C142.872 105.751 141.098 116.512 145.674 116.512C148.571 116.512 149.338 111.686 152.795 111.686C155.083 111.686 156.082 115.153 159.074 115.153C162.066 115.153 162.717 108.23 166.466 108.23C172.588 108.23 180.159 130.944 180.159 130.944H103.177Z" fill="#1ACDB8"></path><g opacity="0.1"><path d="M103.177 130.944C103.177 130.944 107.179 113.767 110.727 113.767C114.275 113.767 114.652 118.487 117.64 118.487C120.629 118.487 120.675 110.197 124.68 110.197C127.447 110.197 128.422 113.562 131.477 113.562C135.68 113.562 135.05 105.751 138.482 105.751C142.872 105.751 141.098 116.512 145.674 116.512C148.571 116.512 149.338 111.686 152.795 111.686C155.083 111.686 156.082 115.153 159.074 115.153C162.066 115.153 162.717 108.23 166.466 108.23C172.588 108.23 180.159 130.944 180.159 130.944H103.177Z" fill="black"></path></g><path d="M103.177 130.944C103.177 130.944 106.785 123.063 110.854 123.063C113.906 123.063 114.455 125.133 117.809 125.133C119.921 125.133 120.724 116.85 124.768 116.85C128.813 116.85 128.89 121.736 131.66 121.736C134.431 121.736 135.209 117.132 138.605 117.132C142.002 117.132 142.411 119.67 145.445 119.67C148.905 119.67 148.796 109.405 152.365 109.405C155.934 109.405 157.092 117.016 159.359 117.016C162.288 117.016 162.58 114.284 166.121 114.284C171.07 114.284 180.159 130.944 180.159 130.944H103.177Z" fill="#1ACDB8"></path><path d="M47.1769 95.0929V123.936H91.5958V95.0929H47.1769Z" fill="#DBDBDB"></path><path d="M49.2819 96.6241V122.405H51.5628V96.6241H49.2819Z" fill="white"></path><path d="M49.2819 109.229V122.408H51.5628V109.229H49.2819Z" fill="#1ACDB8"></path><path d="M53.4954 96.6241V122.405H55.7763V96.6241H53.4954Z" fill="white"></path><path d="M53.4989 102.052V122.408H55.7799V102.052H53.4989Z" fill="#1ACDB8"></path><path d="M57.7087 96.6275V122.408H59.9897V96.6275H57.7087Z" fill="white"></path><path d="M57.7123 106.019V122.408H59.9932V106.019H57.7123Z" fill="#1ACDB8"></path><path d="M61.9222 96.6275V122.408H64.2032V96.6275H61.9222Z" fill="white"></path><path d="M61.9222 114.213V122.408H64.2032V114.213H61.9222Z" fill="#1ACDB8"></path><path d="M66.1392 96.6275V122.408H68.4201V96.6275H66.1392Z" fill="white"></path><path d="M66.1392 100.211V122.405H68.4201V100.211H66.1392Z" fill="#1ACDB8"></path><path d="M70.3527 96.6275V122.408H72.6336V96.6275H70.3527Z" fill="white"></path><path d="M70.3527 102.052V122.408H72.6336V102.052H70.3527Z" fill="#1ACDB8"></path><path d="M74.566 96.6241V122.405H76.847V96.6241H74.566Z" fill="white"></path><path d="M74.5696 106.015V122.405H76.8505V106.015H74.5696Z" fill="#1ACDB8"></path><path d="M78.7795 96.6241V122.405H81.0605V96.6241H78.7795Z" fill="white"></path><path d="M78.7795 102.052V122.408H81.0605V102.052H78.7795Z" fill="#1ACDB8"></path><path d="M82.9929 96.6241V122.405H85.2739V96.6241H82.9929Z" fill="white"></path><path d="M82.9929 114.21V122.405H85.2739V114.21H82.9929Z" fill="#1ACDB8"></path><path d="M87.2064 96.6275V122.408H89.4874V96.6275H87.2064Z" fill="white"></path><path d="M87.2098 106.019V122.408H89.4908V106.019H87.2098Z" fill="#1ACDB8"></path><path d="M49.7782 126.097H47.2015V128.674H49.7782V126.097Z" fill="#1ACDB8"></path><path d="M79.7616 126.097H51.5664V126.857H79.7616V126.097Z" fill="#DBDBDB"></path><path d="M69.7859 127.91H51.5664V128.67H69.7859V127.91Z" fill="#DBDBDB"></path><path d="M183.218 46.8372H144.392V50.7479H183.218V46.8372Z" fill="white"></path><path d="M183.214 46.8372H179.304V50.7479H183.214V46.8372Z" fill="#1ACDB8"></path><path d="M182.5 49.889L182.148 50.16L181.472 49.28L181.229 48.9597C181.278 48.9388 181.324 48.9116 181.366 48.8788C181.45 48.8178 181.514 48.7349 181.553 48.6394L181.813 48.9914L182.5 49.889Z" fill="white"></path><path d="M181.789 47.8087C181.674 47.6598 181.519 47.5469 181.342 47.4832C181.166 47.4195 180.974 47.4076 180.791 47.4491C180.608 47.4905 180.44 47.5835 180.308 47.7171C180.176 47.8506 180.084 48.0192 180.045 48.203C180.005 48.3867 180.019 48.5779 180.084 48.754C180.15 48.9302 180.264 49.0839 180.414 49.1971C180.565 49.3103 180.744 49.3783 180.931 49.393C181.119 49.4077 181.306 49.3685 181.472 49.2801C181.521 49.2561 181.567 49.2266 181.609 49.1921C181.688 49.1325 181.757 49.0613 181.813 48.9809C181.935 48.8084 181.998 48.6016 181.994 48.3907C181.989 48.1799 181.917 47.9759 181.789 47.8087ZM181.363 48.8647C181.321 48.8975 181.275 48.9248 181.226 48.9457C181.123 48.9866 181.012 48.9982 180.903 48.9791C180.795 48.96 180.694 48.911 180.612 48.8377C180.53 48.7643 180.47 48.6694 180.438 48.5638C180.407 48.4582 180.406 48.346 180.436 48.2398C180.465 48.1336 180.523 48.0377 180.604 47.9629C180.685 47.888 180.785 47.8372 180.893 47.8162C181.001 47.7952 181.113 47.8048 181.216 47.8439C181.319 47.8829 181.409 47.95 181.476 48.0375C181.537 48.1208 181.577 48.2187 181.59 48.3217C181.603 48.4247 181.589 48.5293 181.549 48.6253C181.512 48.7247 181.448 48.8114 181.363 48.8753V48.8647Z" fill="white"></path><path d="M145.419 47.6045H145.209V49.977H145.419V47.6045Z" fill="#292929"></path><path d="M51.408 46.8372H47.1628V47.6045H51.408V46.8372Z" fill="#A6A6A6"></path><path d="M51.408 48.407H47.1628V49.1743H51.408V48.407Z" fill="#A6A6A6"></path><path d="M51.408 49.9771H47.1628V50.7444H51.408V49.9771Z" fill="#A6A6A6"></path><path d="M42.4315 81.4909L39.1169 77.8584L27.8659 88.1248L31.1805 91.7573L42.4315 81.4909Z" fill="#455A64"></path><path d="M71.0742 52.0291C68.3017 48.9911 64.6906 46.8434 60.6975 45.8576C56.7044 44.8718 52.5087 45.0922 48.6408 46.491C44.773 47.8897 41.4068 50.4039 38.9679 53.7158C36.5289 57.0276 35.1268 60.9882 34.9387 65.0969C34.7507 69.2056 35.7852 73.2777 37.9115 76.7985C40.0377 80.3192 43.1602 83.1304 46.8841 84.8765C50.608 86.6227 54.7661 87.2254 58.8325 86.6085C62.899 85.9916 66.6912 84.1827 69.7296 81.4106C71.7472 79.5698 73.3825 77.3495 74.5421 74.8767C75.7016 72.4038 76.3627 69.7267 76.4876 66.9984C76.6124 64.27 76.1986 61.5438 75.2698 58.9753C74.341 56.4069 72.9153 54.0466 71.0742 52.0291ZM43.583 77.1162C41.3938 74.7181 39.9648 71.7248 39.4768 68.5146C38.9889 65.3044 39.4638 62.0217 40.8415 59.0814C42.2192 56.1411 44.4379 53.6754 47.217 51.9961C49.9961 50.3168 53.2107 49.4993 56.4544 49.647C59.6981 49.7947 62.8251 50.9009 65.4401 52.8258C68.0551 54.7507 70.0405 57.4078 71.1453 60.4611C72.2502 63.5144 72.4248 66.8268 71.6471 69.9793C70.8694 73.1319 69.1744 75.983 66.7763 78.1722C63.5602 81.1068 59.3103 82.6442 54.961 82.4461C50.6117 82.2481 46.5191 80.3309 43.583 77.1162Z" fill="#292929"></path><path d="M33.8688 88.0233L31.8307 85.7897C31.0091 84.8893 29.6131 84.8255 28.7127 85.6471L17.1653 96.1839C16.2649 97.0055 16.201 98.4015 17.0226 99.3019L19.0607 101.535C19.8823 102.436 21.2782 102.5 22.1786 101.678L33.7261 91.1413C34.6265 90.3197 34.6904 88.9237 33.8688 88.0233Z" fill="#292929"></path><g opacity="0.4"><path d="M66.7763 78.1757C64.3783 80.3649 61.3849 81.7939 58.1747 82.2819C54.9646 82.7699 51.6818 82.295 48.7415 80.9172C45.8013 79.5395 43.3356 77.3208 41.6563 74.5417C39.977 71.7627 39.1595 68.548 39.3072 65.3044C39.4548 62.0607 40.5611 58.9336 42.486 56.3187C44.4109 53.7037 47.068 51.7182 50.1213 50.6134C53.1746 49.5085 56.4869 49.3339 59.6395 50.1116C62.792 50.8893 65.6431 52.5844 67.8323 54.9824C70.7679 58.1981 72.3058 62.4482 72.1077 66.7978C71.9097 71.1474 69.9919 75.2401 66.7763 78.1757Z" fill="white"></path><path d="M62.9395 80.7946C59.0502 82.6965 54.5676 82.9869 50.4655 81.6028C46.3633 80.2188 42.973 77.2719 41.031 73.4026L62.9395 80.7946Z" fill="#EBEBEB"></path><path d="M72.1021 66.9891L42.0977 56.8726C42.8263 55.7911 43.6819 54.8008 44.6461 53.9228C45.748 52.9121 46.9847 52.0592 48.321 51.3884L70.4759 58.8543C71.7044 61.3823 72.2643 64.1831 72.1021 66.9891Z" fill="#EBEBEB"></path><path d="M67.9308 77.0141L39.3484 67.3763C39.2633 66.3034 39.2822 65.2248 39.4047 64.1555L69.8387 74.4163C69.2919 75.3443 68.6527 76.2147 67.9308 77.0141Z" fill="#EBEBEB"></path><path d="M71.8169 69.2174L40.9712 58.8194C41.0592 58.6398 41.1472 58.4674 41.2387 58.2878L71.9225 68.6402C71.8944 68.8267 71.8627 69.0238 71.8169 69.2174Z" fill="#EBEBEB"></path><path d="M67.2691 54.3877L53.5763 49.7694C54.0656 49.7061 54.5549 49.6638 55.0477 49.6462L66.1814 53.3986C66.5581 53.7083 66.9171 54.0357 67.2691 54.3877Z" fill="#EBEBEB"></path></g><path d="M47.5288 57.2739L47.5817 57.2317C47.8281 57.0275 47.3282 57.4218 47.5007 57.295C47.6732 57.1683 47.9125 56.9888 48.1237 56.8409C48.8684 56.3376 49.6537 55.8972 50.4716 55.5245L50.8236 55.3696C50.8623 55.352 50.5455 55.4857 50.7989 55.3696L51.0137 55.2816C51.2917 55.1725 51.5733 55.0704 51.8584 54.9789C52.485 54.771 53.1247 54.6052 53.7733 54.4825L54.238 54.4016C54.4492 54.3664 53.9986 54.4297 54.2837 54.4016L54.5653 54.3664C54.9173 54.3277 55.2693 54.303 55.646 54.2925C56.0226 54.2819 56.4239 54.2925 56.8146 54.2925C56.9941 54.2925 57.1666 54.3171 57.3497 54.3312C57.6594 54.3594 57.2229 54.3101 57.4447 54.3312L57.7615 54.3769C58.7223 54.5264 59.6656 54.7716 60.5775 55.1091L60.6232 55.1267L60.7183 55.1654C60.8485 55.2217 60.9823 55.2745 61.1125 55.3344C61.3625 55.447 61.6124 55.5632 61.8552 55.6864C62.3748 55.9493 62.88 56.2395 63.3689 56.5558C63.6556 56.6993 63.9868 56.7261 64.2929 56.6305C64.5989 56.5349 64.856 56.3243 65.0101 56.0431C65.1641 55.7619 65.2031 55.4319 65.119 55.1225C65.0348 54.8131 64.8339 54.5484 64.5586 54.384C61.464 52.3407 57.7425 51.4671 54.062 51.92C51.5748 52.2755 49.197 53.177 47.0994 54.56C46.6279 54.861 46.1775 55.1939 45.7512 55.5561C45.6369 55.6732 45.5468 55.8117 45.4862 55.9638C45.4257 56.1158 45.3959 56.2784 45.3985 56.442C45.4011 56.6057 45.4361 56.7672 45.5015 56.9172C45.5669 57.0672 45.6613 57.2028 45.7794 57.3161C46.0193 57.5404 46.3368 57.6628 46.6651 57.6575C46.9934 57.6523 47.3069 57.5198 47.5394 57.288L47.5288 57.2739Z" fill="white"></path><path d="M45.0086 59.9598C44.841 60.1314 44.6263 60.2496 44.3915 60.2994C44.1568 60.3491 43.9126 60.3282 43.6897 60.2393C43.4669 60.1504 43.2753 59.9975 43.1393 59.7999C43.0033 59.6022 42.9289 59.3687 42.9254 59.1288C42.922 58.8888 42.9897 58.6533 43.12 58.4518C43.2503 58.2503 43.4374 58.092 43.6576 57.9968C43.8779 57.9015 44.1214 57.8736 44.3574 57.9167C44.5935 57.9597 44.8115 58.0717 44.984 58.2385C45.2153 58.4635 45.3479 58.7713 45.3525 59.094C45.3571 59.4168 45.2334 59.7281 45.0086 59.9598Z" fill="white"></path></svg>