<svg xmlns="http://www.w3.org/2000/svg" width="25" height="24" viewBox="0 0 25 24" fill="none"><path d="M18.875 0H6.125C3.0184 0 0.5 2.5184 0.5 5.625V18.375C0.5 21.4816 3.0184 24 6.125 24H18.875C21.9816 24 24.5 21.4816 24.5 18.375V5.625C24.5 2.5184 21.9816 0 18.875 0Z" fill="white"></path><path d="M18.875 0H6.125C3.0184 0 0.5 2.5184 0.5 5.625V18.375C0.5 21.4816 3.0184 24 6.125 24H18.875C21.9816 24 24.5 21.4816 24.5 18.375V5.625C24.5 2.5184 21.9816 0 18.875 0Z" fill="#0A66C2"></path><path d="M17.817 20.408H20.5611C20.6605 20.408 20.7559 20.3685 20.8262 20.2982C20.8965 20.2279 20.9361 20.1325 20.9361 20.0331L20.9375 14.2354C20.9375 11.2051 20.2845 8.87588 16.7433 8.87588C15.3972 8.82581 14.1277 9.51975 13.4427 10.6785C13.4393 10.6841 13.4342 10.6885 13.4281 10.691C13.4221 10.6934 13.4154 10.6938 13.409 10.6921C13.4027 10.6904 13.3971 10.6867 13.3931 10.6815C13.3891 10.6763 13.3869 10.67 13.3869 10.6634V9.53063C13.3869 9.43117 13.3474 9.33579 13.277 9.26546C13.2067 9.19513 13.1113 9.15563 13.0119 9.15563H10.4078C10.3083 9.15563 10.2129 9.19513 10.1426 9.26546C10.0723 9.33579 10.0328 9.43117 10.0328 9.53063V20.0325C10.0328 20.132 10.0723 20.2273 10.1426 20.2977C10.2129 20.368 10.3083 20.4075 10.4078 20.4075H13.1517C13.2511 20.4075 13.3465 20.368 13.4168 20.2977C13.4871 20.2273 13.5267 20.132 13.5267 20.0325V14.8413C13.5267 13.3734 13.8051 11.9519 15.6249 11.9519C17.4188 11.9519 17.442 13.6315 17.442 14.9363V20.033C17.442 20.1324 17.4815 20.2278 17.5519 20.2981C17.6222 20.3685 17.7176 20.408 17.817 20.408ZM4.0625 5.59012C4.0625 6.70237 4.97816 7.61756 6.0905 7.61756C7.20256 7.61747 8.11766 6.70172 8.11766 5.58966C8.11747 4.47759 7.20228 3.5625 6.09012 3.5625C4.97769 3.5625 4.0625 4.47787 4.0625 5.59012ZM4.71491 20.408H7.46244C7.56189 20.408 7.65728 20.3685 7.7276 20.2981C7.79793 20.2278 7.83744 20.1324 7.83744 20.033V9.53063C7.83744 9.43117 7.79793 9.33579 7.7276 9.26546C7.65728 9.19513 7.56189 9.15563 7.46244 9.15563H4.71491C4.61545 9.15563 4.52007 9.19513 4.44974 9.26546C4.37942 9.33579 4.33991 9.43117 4.33991 9.53063V20.033C4.33991 20.1324 4.37942 20.2278 4.44974 20.2981C4.52007 20.3685 4.61545 20.408 4.71491 20.408Z" fill="white"></path></svg>