<svg xmlns="http://www.w3.org/2000/svg" width="27" height="24" viewBox="0 0 27 24" fill="none"><path d="M1.09801 17.364L9.73001 2.18091C10.8265 2.84414 16.3555 5.98793 17.2485 6.58585L8.61648 21.7698C7.67245 23.0512 -0.0979929 19.3086 1.09801 17.3632V17.364Z" fill="#FBBC04"></path><path d="M25.8992 17.3637L17.2672 2.18149C16.0604 0.118115 13.4614 -0.631728 11.3267 0.58695C9.19194 1.80563 8.54194 4.43081 9.7487 6.58632L18.3807 21.7704C19.5875 23.8328 22.1866 24.5826 24.3213 23.364C26.3627 22.1452 27.1059 19.4269 25.8992 17.3655V17.3637Z" fill="#4285F4"></path><path d="M4.83306 23.9506C7.22615 23.9506 9.16613 22.007 9.16613 19.6094C9.16613 17.2117 7.22615 15.2681 4.83306 15.2681C2.43998 15.2681 0.5 17.2117 0.5 19.6094C0.5 22.007 2.43998 23.9506 4.83306 23.9506Z" fill="#34A853"></path></svg>