<svg xmlns="http://www.w3.org/2000/svg" width="298" height="15" viewBox="0 0 298 15" fill="none"><path d="M294.765 7.82016C277.819 7.47735 260.871 7.22306 243.922 7.05729C245.184 6.7692 246.284 6.29281 247.025 5.50258C247.483 5.01492 247.238 4.27459 247.015 3.76762C246.831 3.34756 246.404 2.40282 245.603 2.26602C230.666 -0.265607 214.966 -0.0660378 199.61 0.0707634C183.587 0.214003 167.569 0.609922 151.578 1.2553C119.664 2.54445 88.0434 5.03263 56.4788 8.15975C47.5365 9.04493 38.5893 9.91724 29.6352 10.7654C25.3162 11.1742 20.9937 11.5637 16.6628 11.921C14.4095 12.1061 12.163 12.3072 9.91137 12.4988C8.79317 12.5921 7.67666 12.7032 6.55847 12.8046C6.18348 12.8384 5.8085 12.8738 5.4352 12.9043C4.78658 12.9639 4.13965 13.0154 3.49102 13.0588C2.95557 13.1844 2.42688 13.3212 1.90663 13.4692C1.33401 13.5867 0.404998 13.8265 0.114469 14.1822C-0.032484 14.3609 -0.0443083 14.48 0.116158 14.5331C0.11278 14.5347 0.106023 14.5379 0.097578 14.5395C0.790117 14.6538 1.28503 14.7922 2.00122 14.7874C2.39647 14.7858 2.7951 14.7729 3.19036 14.7632C4.18356 14.7407 5.17845 14.7166 6.17166 14.6924C6.55002 14.6811 6.9267 14.6667 7.30337 14.6538C8.84723 14.7745 10.386 14.9177 11.913 14.9998C12.0701 15.0095 11.7458 14.6409 11.5532 14.62C11.2238 14.5862 10.8961 14.554 10.5684 14.5218C11.2829 14.4912 11.9974 14.459 12.7119 14.4317C16.8401 14.274 20.97 13.9633 25.0814 13.6833C33.2094 13.1313 41.3054 12.4376 49.403 11.7359C65.502 10.3373 81.5757 8.83892 97.7254 7.67048C129.672 5.35773 161.768 3.91247 193.931 3.49723C207.304 3.32503 221.072 2.95325 234.424 4.08307C230.519 4.03961 226.617 4.01547 222.71 4.038C213.623 4.0895 204.535 4.32931 195.468 4.70913C178.994 5.39797 162.584 6.55354 146.225 7.90224C133.984 8.53474 121.792 9.51328 109.769 11.0825C108.45 11.2547 109.632 14.5685 111.086 14.4317C121.37 13.4612 131.677 12.5068 142.004 11.6329C155.715 10.7799 169.5 10.3808 183.291 10.2263C207.532 9.95265 231.799 10.1603 256.035 10.4435C265.151 10.5481 274.262 10.6817 283.377 10.8394C283.51 11.2321 283.758 11.509 284.113 11.4945C288.578 11.3223 293.055 11.3255 297.52 11.1018C299.123 11.0213 296.329 7.85074 294.765 7.82016Z" fill="#1ACDB8"></path></svg>