<svg xmlns="http://www.w3.org/2000/svg" width="89" height="14" viewBox="0 0 89 14" fill="none"><path d="M8.60915 4.92569C8.16087 4.61792 7.668 4.383 7.12977 4.21945C6.59154 4.0559 6.03767 3.97412 5.46747 3.97412C4.51293 3.97412 3.65802 4.19194 2.90197 4.62758C2.14592 5.06322 1.55712 5.66241 1.13412 6.42441C0.711113 7.18641 0.5 8.03836 0.5 8.98026C0.5 9.92217 0.716313 10.7674 1.14824 11.5168C1.5809 12.2661 2.18234 12.8542 2.95475 13.2794C3.72641 13.7054 4.60214 13.918 5.58196 13.918C6.00496 13.918 6.42277 13.8749 6.83611 13.7887C7.24944 13.7024 7.61893 13.5857 7.94603 13.4378C8.04193 13.3932 8.10958 13.3434 8.1475 13.2891C8.18615 13.2348 8.21438 13.1501 8.23371 13.0341L8.43517 11.2373C8.4545 11.1287 8.43222 11.0529 8.36754 11.0113C8.30361 10.9696 8.22032 10.9681 8.11773 11.0068C7.75866 11.1607 7.39888 11.2819 7.03684 11.3718C6.6748 11.4618 6.31795 11.5064 5.96557 11.5064C5.43403 11.5064 4.94858 11.3859 4.50996 11.1458C4.07135 10.9057 3.72714 10.5727 3.47735 10.1467C3.22757 9.7207 3.10267 9.23525 3.10267 8.69108C3.10267 8.20414 3.19189 7.7804 3.37179 7.41835C3.55096 7.05631 3.79629 6.77976 4.10704 6.58722C4.41779 6.39542 4.76867 6.29877 5.15896 6.29877C5.54925 6.29877 5.90685 6.36568 6.26889 6.50024C6.63019 6.6348 6.98107 6.8266 7.32081 7.07638C7.38475 7.13437 7.45165 7.15667 7.52227 7.14329C7.5929 7.13065 7.65015 7.08902 7.6955 7.0184L8.69464 5.28922C8.73924 5.21859 8.75561 5.15317 8.74223 5.09221C8.72959 5.03125 8.68498 4.9755 8.60767 4.9242L8.60915 4.92569Z" fill="#0A0B0B"></path><path d="M38.5092 4.41669C38.0192 4.12229 37.4476 3.9751 36.7941 3.9751C36.1919 3.9751 35.644 4.11114 35.1512 4.38323C34.6583 4.65532 34.2353 5.05751 33.8829 5.58905V4.48434C33.8829 4.40107 33.8591 4.33714 33.8108 4.29254C33.7625 4.24793 33.7 4.22563 33.6235 4.22563H31.6348C31.5516 4.22563 31.4876 4.24793 31.4423 4.29254C31.3977 4.33714 31.3754 4.40182 31.3754 4.48434V13.4097C31.3754 13.4863 31.3977 13.5488 31.4423 13.5971C31.4869 13.6454 31.5508 13.6692 31.6348 13.6692H33.7483C33.8316 13.6692 33.8955 13.6454 33.9401 13.5971C33.9847 13.5488 34.007 13.4863 34.007 13.4097V7.39554C34.2955 7.11379 34.5966 6.89894 34.9103 6.75174C35.224 6.60455 35.5541 6.53095 35.8998 6.53095C36.2135 6.53095 36.4841 6.59637 36.7116 6.72796C36.9391 6.85954 37.1116 7.04688 37.2305 7.28998C37.3487 7.53381 37.4082 7.82152 37.4082 8.15456V13.4097C37.4082 13.4863 37.4305 13.5488 37.4751 13.5971C37.5197 13.6454 37.5836 13.6692 37.6669 13.6692H39.7804C39.8637 13.6692 39.9276 13.6454 39.9729 13.5971C40.0175 13.5488 40.0399 13.4863 40.0399 13.4097V7.42453C40.0399 6.75843 39.9068 6.16445 39.6414 5.64257C39.3752 5.1207 38.9976 4.71256 38.5077 4.41743L38.5092 4.41669Z" fill="#0A0B0B"></path><path d="M49.9585 11.9435C49.9169 11.5302 49.896 11.0551 49.896 10.5169V7.91347C49.896 7.13214 49.7325 6.44523 49.4061 5.85273C49.0798 5.26023 48.604 4.79931 47.9795 4.46923C47.3551 4.13916 46.6102 3.97412 45.7456 3.97412C45.2141 3.97412 44.6922 4.02542 44.1792 4.12801C43.667 4.2306 43.1957 4.38449 42.7667 4.58892C42.6835 4.62089 42.618 4.66773 42.5697 4.72794C42.5214 4.7889 42.4946 4.86696 42.4879 4.9636L42.2768 6.79835C42.2701 6.8883 42.2991 6.95372 42.3631 6.99535C42.427 7.03698 42.5035 7.03847 42.5935 6.99981C43.0864 6.78199 43.5607 6.61918 44.0157 6.5099C44.4706 6.40136 44.9122 6.34635 45.3412 6.34635C45.8021 6.34635 46.182 6.41995 46.4793 6.56714C46.7774 6.71434 46.9945 6.90019 47.1328 7.1247C47.2703 7.34922 47.3395 7.58934 47.3395 7.84507V7.96997L44.6974 8.34465C44.0826 8.4346 43.5555 8.60112 43.1169 8.84422C42.6783 9.08806 42.3437 9.40921 42.1133 9.80991C41.8828 10.2106 41.7676 10.6797 41.7676 11.2172C41.7676 11.7547 41.9021 12.2386 42.1713 12.649C42.4404 13.0586 42.8024 13.3731 43.2567 13.5902C43.7116 13.808 44.2142 13.9165 44.765 13.9165C45.2579 13.9165 45.7419 13.8169 46.2161 13.6184C46.6904 13.4199 47.1097 13.1382 47.4748 12.7732C47.532 13.0936 47.593 13.359 47.6569 13.5708C47.6762 13.6415 47.7126 13.6942 47.7677 13.7292C47.8219 13.7641 47.8941 13.779 47.984 13.7723L49.9533 13.5708C50.0365 13.5641 50.0975 13.5359 50.1362 13.4846C50.1749 13.4333 50.1875 13.3694 50.1748 13.2921C50.0722 12.8051 50.0001 12.3554 49.9585 11.942V11.9435ZM47.3595 11.0841C47.0711 11.3146 46.7626 11.5056 46.4325 11.6558C46.1024 11.8067 45.7902 11.8818 45.4958 11.8818C45.1501 11.8818 44.8743 11.7874 44.6699 11.5986C44.4647 11.4097 44.3621 11.1711 44.3621 10.8827C44.3621 10.7094 44.4022 10.5526 44.4825 10.4121C44.5628 10.2716 44.678 10.1556 44.8282 10.0664C44.9784 9.97644 45.1598 9.91622 45.3709 9.88351L47.3595 9.59507V11.0841Z" fill="#0A0B0B"></path><path d="M17.0142 4.63278C16.2738 4.19343 15.4337 3.97412 14.4918 3.97412C13.5499 3.97412 12.7366 4.19268 11.9932 4.62758C11.2505 5.06322 10.6677 5.65721 10.2454 6.40954C9.82167 7.16188 9.61053 8.00565 9.61053 8.94161C9.61053 9.87756 9.81572 10.7124 10.2253 11.4677C10.3748 11.745 10.5472 11.9985 10.7413 12.2327C10.8156 12.3375 10.9658 12.4877 11.0736 12.591C11.1487 12.6631 11.2572 12.6869 11.3561 12.6542L12.6132 12.2379L13.0629 11.6053L13.344 11.2068L13.7216 10.6738L14.4777 9.60176L14.5691 10.1199L14.8345 11.6224L14.8531 11.7301L14.9475 11.6097L15.4501 10.9719L15.7043 11.3347L15.9875 11.7383L16.3414 12.2386L17.6751 12.6609C17.7316 12.6787 17.794 12.6654 17.8372 12.6252C17.9472 12.5211 18.0527 12.4119 18.1523 12.2959C18.1605 12.287 18.168 12.278 18.1762 12.2691C18.197 12.2476 18.2163 12.2253 18.2349 12.2022L18.2326 12.2C18.4133 11.9807 18.5746 11.7428 18.7181 11.4863C19.1404 10.731 19.3522 9.88202 19.3522 8.94086C19.3522 7.9997 19.1478 7.17897 18.7374 6.42367C18.3278 5.66762 17.7531 5.07066 17.0134 4.63204L17.0142 4.63278ZM16.6544 9.95413C16.6544 9.95413 15.2828 8.12311 14.7223 7.37449C14.6048 7.21763 14.3699 7.21763 14.2524 7.37449C13.7038 8.10229 12.3865 9.84931 12.3865 9.85006C12.272 9.50809 12.2147 9.14084 12.2147 8.7498C12.2147 8.26287 12.3047 7.83095 12.4838 7.45255C12.663 7.0749 12.9143 6.78199 13.2384 6.57384C13.5611 6.36568 13.9283 6.2616 14.3386 6.2616C14.7869 6.2616 15.1943 6.38798 15.5631 6.64149C15.9311 6.89425 16.221 7.24142 16.4321 7.68375C16.6447 8.12534 16.7503 8.60856 16.7503 9.13341C16.7503 9.42705 16.7183 9.70137 16.6544 9.95488V9.95413Z" fill="#0A0B0B"></path><path d="M28.6524 4.22412H26.5389C26.4556 4.22412 26.3917 4.24642 26.3463 4.29103C26.3017 4.33563 26.2794 4.40031 26.2794 4.48283V13.4082C26.2794 13.4848 26.3017 13.5473 26.3463 13.5956C26.3909 13.6439 26.4548 13.6677 26.5389 13.6677H28.6524C28.7356 13.6677 28.7996 13.6439 28.8442 13.5956C28.8888 13.5473 28.9111 13.4848 28.9111 13.4082V4.48283C28.9111 4.39957 28.8888 4.33563 28.8442 4.29103C28.7996 4.24642 28.7349 4.22412 28.6524 4.22412Z" fill="#0A0B0B"></path><path d="M23.3778 0.0423156L21.3424 1.24516C21.2517 1.29868 21.1959 1.39681 21.1959 1.50163V13.4089C21.1959 13.4854 21.2182 13.5479 21.2628 13.5962C21.3074 13.6445 21.3713 13.6683 21.4554 13.6683H23.5689C23.6522 13.6683 23.7161 13.6445 23.7607 13.5962C23.8053 13.5479 23.8276 13.4854 23.8276 13.4089V0.298793C23.8276 0.0675914 23.5763 -0.0758871 23.3778 0.0423156Z" fill="#0A0B0B"></path><path d="M67.7736 4.63718C67.155 4.25284 66.4138 4.06104 65.5492 4.06104C64.6847 4.06104 63.9048 4.27068 63.2097 4.68996C62.5147 5.10925 61.972 5.6906 61.5809 6.43401C61.1899 7.17742 60.9951 8.01302 60.9951 8.94154C60.9951 9.94069 61.2114 10.8135 61.6434 11.5598C62.076 12.3062 62.67 12.8809 63.4253 13.2846C64.1814 13.6882 65.0333 13.8897 65.9812 13.8897C66.506 13.8897 67.0041 13.8429 67.4754 13.7507C67.946 13.6578 68.3579 13.5343 68.7102 13.3812C68.7935 13.3425 68.8507 13.3009 68.8835 13.2563C68.9154 13.2117 68.9377 13.1411 68.9504 13.0452L69.0753 11.8728C69.0879 11.7769 69.0686 11.713 69.018 11.6803C68.9667 11.6483 68.8991 11.6513 68.8158 11.6899C68.4188 11.8632 68.001 11.994 67.5624 12.0839C67.1238 12.1739 66.6837 12.2185 66.2414 12.2185C65.6585 12.2185 65.1329 12.1159 64.6661 11.9107C64.1985 11.7055 63.8097 11.4015 63.4989 10.9978C63.1882 10.5941 62.9785 10.108 62.8693 9.53776H69.1429C69.2708 9.53776 69.3667 9.51545 69.4314 9.47085C69.4953 9.42625 69.5399 9.34596 69.5659 9.23073C69.5912 9.1155 69.612 8.98391 69.6284 8.83672C69.644 8.68952 69.6521 8.54233 69.6521 8.39513C69.6521 7.59448 69.4938 6.86444 69.1764 6.20429C68.8597 5.54489 68.3921 5.02227 67.7736 4.63792V4.63718ZM62.8209 8.05762C62.8916 7.55805 63.0402 7.12761 63.2677 6.76557C63.4952 6.40353 63.7881 6.12698 64.1472 5.93444C64.5055 5.74263 64.9122 5.64599 65.3671 5.64599C65.8221 5.64599 66.2273 5.73743 66.5826 5.91957C66.938 6.10245 67.2249 6.37454 67.4427 6.73583C67.6606 7.09788 67.7951 7.53798 67.8464 8.05688H62.8217L62.8209 8.05762Z" fill="#0A0B0B"></path><path d="M78.78 4.92562C78.357 4.64387 77.8991 4.42902 77.4062 4.28183C76.9125 4.13463 76.4003 4.06104 75.8688 4.06104C74.9655 4.06104 74.1493 4.27216 73.4193 4.69517C72.6892 5.11817 72.116 5.70546 71.6997 6.4578C71.2834 7.21013 71.0753 8.05762 71.0753 8.99878C71.0753 9.93994 71.2901 10.7919 71.7191 11.5353C72.148 12.278 72.7338 12.8564 73.4772 13.2697C74.2199 13.683 75.0466 13.8897 75.9558 13.8897C76.3973 13.8897 76.8233 13.8429 77.2337 13.7507C77.6433 13.6578 78.015 13.5381 78.3481 13.3901C78.438 13.3515 78.4968 13.3083 78.5258 13.2608C78.5547 13.2124 78.5756 13.1441 78.5882 13.0541L78.7228 11.8052C78.7354 11.7093 78.7161 11.6453 78.6655 11.6126C78.6142 11.5807 78.5466 11.5836 78.464 11.6223C78.0864 11.7821 77.7132 11.9107 77.3445 12.0066C76.9765 12.1025 76.6092 12.1509 76.2442 12.1509C75.6488 12.1509 75.1008 12.0103 74.6013 11.7278C74.1017 11.4461 73.7077 11.0476 73.4193 10.5317C73.1308 10.0165 72.9866 9.4255 72.9866 8.7594C72.9866 8.1446 73.1003 7.61157 73.3278 7.15958C73.5553 6.70833 73.8675 6.36413 74.2645 6.12698C74.6615 5.88983 75.1098 5.77163 75.6093 5.77163C75.987 5.77163 76.3602 5.83259 76.7289 5.95451C77.0969 6.07643 77.4701 6.25559 77.8485 6.49274C77.9065 6.5314 77.9622 6.54403 78.0165 6.5314C78.0708 6.51876 78.1139 6.48679 78.1458 6.4355L78.8469 5.22522C78.8789 5.17392 78.8915 5.12114 78.8856 5.06687C78.8789 5.0126 78.8439 4.96577 78.78 4.92785V4.92562Z" fill="#0A0B0B"></path><path d="M88.0918 5.68946C87.8197 5.18022 87.4369 4.78175 86.944 4.49331C86.4504 4.20487 85.8839 4.06064 85.2438 4.06064C84.661 4.06064 84.1257 4.19669 83.6395 4.46878C83.1526 4.74087 82.7266 5.13041 82.3616 5.63594V1.56129C82.3616 1.56129 82.3616 1.55832 82.3616 1.55683V0.223147C82.3616 0.0551354 82.1787 -0.0496855 82.0338 0.0358069L80.5484 0.908573C80.4815 0.947974 80.4406 1.01934 80.4406 1.09591V13.4663C80.4406 13.5235 80.4599 13.5719 80.4979 13.6105C80.5358 13.6492 80.5841 13.6678 80.6421 13.6678H82.1601C82.2181 13.6678 82.2657 13.6484 82.3044 13.6105C82.343 13.5719 82.3616 13.5243 82.3616 13.4663V7.03876C82.7073 6.6611 83.0723 6.37786 83.4567 6.18829C83.841 5.99946 84.241 5.90505 84.6573 5.90505C85.0416 5.90505 85.3791 5.98831 85.6713 6.15484C85.9627 6.32136 86.1887 6.56 86.3485 6.87074C86.5084 7.18149 86.5887 7.54205 86.5887 7.95167V13.4663C86.5887 13.5235 86.6065 13.5719 86.6414 13.6105C86.6764 13.6492 86.7262 13.6678 86.7901 13.6678H88.2985C88.3624 13.6678 88.4122 13.6484 88.4472 13.6105C88.4821 13.5719 88.5 13.5243 88.5 13.4663V7.44243C88.5 6.78302 88.3639 6.19796 88.0918 5.68872V5.68946Z" fill="#0A0B0B"></path><path d="M59.8155 11.809C59.7642 11.7674 59.6966 11.7659 59.6141 11.8045C59.3836 11.9071 59.1547 11.9874 58.9272 12.0447C58.6997 12.1019 58.4581 12.1309 58.2016 12.1309C57.8685 12.1309 57.5831 12.064 57.3467 11.9294C57.1095 11.7949 56.9304 11.6031 56.8084 11.3533C56.6865 11.1035 56.6255 10.8054 56.6255 10.4597V5.96355H59.3539C59.4178 5.96355 59.4676 5.9457 59.5026 5.91076C59.5375 5.87582 59.5553 5.82601 59.5553 5.76208V4.48415C59.5553 4.42022 59.5375 4.37041 59.5026 4.33547C59.4676 4.30053 59.4178 4.28269 59.3539 4.28269H56.6255V2.8821C56.6255 2.8821 56.6255 2.87913 56.6255 2.87764V1.52686C56.6255 1.35885 56.4427 1.25403 56.2977 1.33952L54.8124 2.21228C54.7455 2.25169 54.7046 2.32305 54.7046 2.39962V4.28343H53.6883C53.6244 4.28343 53.5731 4.29607 53.5345 4.32209C53.4958 4.34737 53.4735 4.39569 53.4675 4.46631L53.3426 5.72491C53.336 5.80148 53.3523 5.86096 53.391 5.90259C53.4296 5.94422 53.4809 5.96503 53.5448 5.96503H54.7053V10.6917C54.7053 11.3644 54.8317 11.9406 55.0844 12.4208C55.3372 12.9011 55.7008 13.2661 56.1751 13.5159C56.6494 13.7657 57.1995 13.8906 57.8277 13.8906C58.1161 13.8906 58.412 13.8586 58.716 13.7947C59.0201 13.7307 59.278 13.6504 59.4892 13.5545C59.5657 13.5226 59.6252 13.4839 59.6668 13.4393C59.7085 13.3947 59.7352 13.3337 59.7486 13.2564L59.8735 12.0172C59.8862 11.9213 59.8668 11.8521 59.8163 11.8105L59.8155 11.809Z" fill="#0A0B0B"></path></svg>